<svg id="Layer_1" data-name="Layer 1" xmlns="http://www.w3.org/2000/svg" viewBox="0 0 198 198"><defs><style>.cls-1{opacity:0.45;}.cls-2{fill:#9889c1;}.cls-3{fill:#fff;}.cls-4{fill:#f79221;}.cls-5{fill:#231f20;}</style></defs><g class="cls-1"><path class="cls-2" d="M29.4,195.28a26.12,26.12,0,0,1-5.14-51.72l12.23-2.47-12.23-2.46a26.12,26.12,0,0,1,0-51.21L36.47,85,24.26,82.5a26.12,26.12,0,0,1,0-51.2L163.41,3.23a26.12,26.12,0,1,1,10.33,51.21l-12.2,2.46,12.2,2.46a26.12,26.12,0,0,1,0,51.2L161.52,113l12.22,2.46a26.12,26.12,0,0,1,0,51.21L34.59,194.76A25.59,25.59,0,0,1,29.4,195.28Z"/></g><path class="cls-3" d="M135.85,88.29h0c-.75-.86-38.55-38.55-38.55-38.55L58.73,88.29h0a25.22,25.22,0,0,0,33,38,32.37,32.37,0,0,1-13.29,17.48h37.67a32.37,32.37,0,0,1-13.46-18,25.22,25.22,0,0,0,33.18-37.44Z"/><path d="M141.43,113.72a3.42,3.42,0,0,0,.13-.34,1.67,1.67,0,0,0-.54-.71,1.11,1.11,0,0,0-1-.26c-.19,0-.37.1-.56.1a5.27,5.27,0,0,1-.64-.1,1.55,1.55,0,0,0,.14,1.31h2.42Z"/><path d="M135.77,113.72H136c-.4-.9-.49-1-1.18-1.21s-1.38.27-1.37,1.21Z"/><path d="M112.53,112.48l-.82.4a.81.81,0,0,0-.49.84h2.55C113.73,112.78,113.73,112.78,112.53,112.48Z"/><path d="M56.88,112.22a1.45,1.45,0,0,0-.35,0c-.05.1-.15.19-.15.29a.87.87,0,0,1-.48.84c-.12.06-.18.23-.26.35H58C58,112.54,58,112.54,56.88,112.22Z"/><path d="M130.14,112.9a.94.94,0,0,0-.74-.26,2.51,2.51,0,0,0-1.15.12l-.36,1h2.55A.86.86,0,0,0,130.14,112.9Z"/><path d="M124.1,112.25a1.76,1.76,0,0,0-1.33.37c-.24.25-.16.57-.19.87,0,.08,0,.16,0,.23h2.31C124.15,113.49,124.24,112.78,124.1,112.25Z"/><path d="M118.86,112.87a.78.78,0,0,0-.77-.37c-.4,0-.8.17-1.19.25-.06.35.26.71-.12,1h2.31A1,1,0,0,0,118.86,112.87Z"/><path d="M107.9,113l-.77-.5-1,.24c-.3.31-.48.62-.2,1h1.86A.6.6,0,0,0,107.9,113Z"/><path d="M89.24,113.39c0,.11,0,.22,0,.33H91.3c.08-.65-.33-1-.85-1.14A.93.93,0,0,0,89.24,113.39Z"/><path d="M80.13,113.18a1.75,1.75,0,0,0-1.21-.72c-.21.52-.89.65-1,1.26H80C80,113.54,80.07,113.36,80.13,113.18Z"/><path d="M100.34,113.72h2.08a.77.77,0,0,0-.5-.92,1.21,1.21,0,0,0-1.66.5c-.12.15-.26.28-.39.42Z"/><path d="M96.19,112.56a.5.5,0,0,0-.64,0,1.18,1.18,0,0,0-.54,1.19h1.85A1.68,1.68,0,0,0,96.19,112.56Z"/><path d="M85.38,112.69a2.36,2.36,0,0,0-2.18,1h2.55C85.62,113.37,85.5,113,85.38,112.69Z"/><path d="M61.2,113.72h2.08c-.06-.56-.51-.79-.92-1.1l-1.07.36-.32.74Z"/><path d="M68.74,112.82l-1.26-.09c-.24.32-.48.66-.72,1h2.31C69,113.41,68.84,113.1,68.74,112.82Z"/><path d="M74.4,113.72c-.06-.55-.49-.78-.91-1.08l-.53.42c.19.15.33.24.45.33l-.17.33Z"/><path d="M88.62,60.47a1,1,0,0,1,.16-1,1.28,1.28,0,0,1,1-.5,9,9,0,0,0,1-.12.56.56,0,0,0,.52-.52,1.09,1.09,0,0,0-.4-1.13l-.09-.07-4.3,4.29a3.29,3.29,0,0,0,1.63.44A1.79,1.79,0,0,0,88.62,60.47Z"/><path d="M85,64.92l.5-.18.59-.25c-.07-.59-.13-1.11-.2-1.62l-.48-.31-1.68,1.68Z"/><path d="M96.81,68.47a2.78,2.78,0,0,0-1-.49c-.3,0-.63.18-.89.26-.13.39-.24.67-.33,1a1.26,1.26,0,0,0,0,.34c0,.56.36.84,1,.83.29,0,.59,0,1,.07a10.11,10.11,0,0,0,.51-1A.74.74,0,0,0,96.81,68.47Z"/><path d="M59.71,88.3c-.33.34-.65.69-1,1a1.44,1.44,0,0,0,.25.18c.24.13.48.24.74.36l1-.49a1.91,1.91,0,0,0-.3-1.78l-.68.68Z"/><path d="M67.33,81.3a.55.55,0,0,0,.89.12,4.45,4.45,0,0,0,1.08-1.17,1.17,1.17,0,0,1-.13-.35,1,1,0,0,0-.37-.72l-1.72,1.73Z"/><path d="M89.3,62.54c-.2.4-.33.84-.5,1.26.45.86,1.29.73,2,.86.24,0,.42-.17.48-.41a2,2,0,0,0-.69-1.94A.91.91,0,0,0,89.3,62.54Z"/><path d="M98.57,92.79c-.94.11-.9,1.07-1.52,1.56.3.31.48.51.66.71.57.63.83.45,1.4.14a1.7,1.7,0,0,0,.73-1,.49.49,0,0,0-.18-.61C99.3,93.3,98.93,93,98.57,92.79Z"/><path d="M98.06,54.29a1,1,0,0,0-.26,2,9.1,9.1,0,0,0,1,.27c.41-.49.78-.91,1.13-1.32-.13-.35-.24-.63-.32-.86A2.08,2.08,0,0,0,98.06,54.29Z"/><path d="M131,100.49a1.31,1.31,0,0,0,.58.31,3.89,3.89,0,0,0,.76,0,4,4,0,0,1,.52-.63c.43-.36.49-.49.33-.91-.24-.62-.43-.75-1.11-.76h-.35a1,1,0,0,0-.95.68C130.67,99.65,130.55,100.13,131,100.49Z"/><path d="M96.73,85.07a1.08,1.08,0,0,0-1.22-.42A1.05,1.05,0,0,0,94.58,86a2.32,2.32,0,0,0,.23.75.6.6,0,0,0,.94.31c.48-.28.92-.64,1.35-1A1.76,1.76,0,0,0,96.73,85.07Z"/><path d="M127.58,88.37c-.25-.62-.92-.76-1.36-1.16-.19-.18-.66,0-.77.31a4.84,4.84,0,0,0-.36,1,1,1,0,0,0,.11.64,1.33,1.33,0,0,0,2.21,0c.1-.16.16-.35.24-.51S127.61,88.44,127.58,88.37Z"/><path d="M103.59,84.15a1.92,1.92,0,0,0,1.76-.59c.3-.71-.15-1-.5-1.33-.54-.53-.87-.61-1.47-.24a.57.57,0,0,0-.32.66,1.51,1.51,0,0,1-.07.66C102.88,83.86,103,84.08,103.59,84.15Z"/><path d="M97.44,61.37a2.08,2.08,0,0,0,.55.41c.19.11.4.2.69.34l.87-.85c0-.32-.08-.58-.12-.84a1.16,1.16,0,0,0-1.77-.94.52.52,0,0,0-.29.58,2.6,2.6,0,0,1,.11.65C97.43,60.94,97.28,61.17,97.44,61.37Z"/><path d="M111.33,63.4a2.9,2.9,0,0,0,.67,1.22l1.07.22.17-.16L111.56,63Z"/><path d="M55.15,94.74c0-.07,0-.12,0-.18-.05.09-.09.17-.13.26Z"/><path d="M133.17,104.94c-.26-.22-.51-.46-.79-.66a1,1,0,0,0-1.46.28c-.15.22-.29.45-.46.71.45.4.6,1.08,1.27,1.26.33-.19.65-.41,1-.57A.74.74,0,0,0,133.17,104.94Z"/><path d="M96,75.8a1,1,0,0,0,.86-.92,1.66,1.66,0,0,0-.47-1.13c-.35-.5-.5-.56-1-.39a6.28,6.28,0,0,0-.65.28,11.73,11.73,0,0,0-.14,1.27.91.91,0,0,0,.88.89A2.71,2.71,0,0,0,96,75.8Z"/><path d="M128.19,108.72a.77.77,0,0,0,1.25.44,1.67,1.67,0,0,0,.83-1.15.76.76,0,0,0-.45-1,1.86,1.86,0,0,0-1.11-.13c-.37,0-.58.33-.79.7C128,108,128.07,108.37,128.19,108.72Z"/><path d="M77.47,99.37c-.13-.24-.21-.49-.33-.72a.72.72,0,0,0-.89-.32,1.79,1.79,0,0,0-.84,2.14.64.64,0,0,0,.23.26,5.46,5.46,0,0,0,.59.3,2.26,2.26,0,0,0,1.18-.75C77.71,99.94,77.71,99.82,77.47,99.37Z"/><path d="M122.46,86.49a1.21,1.21,0,0,0,1.13.43,2.52,2.52,0,0,0,1.16-.7c.11-.07.14-.36.09-.52a1.63,1.63,0,0,0-1.61-1.24c-.83.7-.87.8-.68,1.83,0,.06-.06.13-.09.2h0Z"/><path d="M108.77,89.22a1.48,1.48,0,0,0,1.55.45.82.82,0,0,0,.6-.93c0-.15,0-.3,0-.45l-1.18-1.13a6.31,6.31,0,0,0-.83.46A1.06,1.06,0,0,0,108.77,89.22Z"/><path d="M126.32,81.66a6.28,6.28,0,0,0-1.39.63,2.28,2.28,0,0,0,1.91,2.11c.19-.37.39-.69.54-1a.86.86,0,0,0-.1-.87,5.06,5.06,0,0,0-.46-.65A.59.59,0,0,0,126.32,81.66Z"/><path d="M57.29,95.48c-.25.06-.52,0-.67.18-.4.34-.75.74-1.14,1.13A1.29,1.29,0,0,0,56.74,98a1.72,1.72,0,0,0,.86-.24c.38-.17.45-.57.59-.89Z"/><path d="M62.22,86.89a2.08,2.08,0,0,0,.87-.2c.4-.15.51-.53.63-1L63,85l-1.55,1.55A1,1,0,0,0,62.22,86.89Z"/><path d="M103.84,59.41a1.18,1.18,0,0,0-.9.93,6,6,0,0,0,0,1c1.08.76,1.18.75,2.12,0l.08-.07a.64.64,0,0,0,0-1.07c-.18-.2-.38-.38-.57-.57A.79.79,0,0,0,103.84,59.41Z"/><path d="M99.24,71.19c-.13-.48-.48-.55-.84-.68a1.7,1.7,0,0,0-.32.1c-.8.4-.93.74-.58,1.56.12.28.28.54.42.81h1.4c.16-.39.57-.58.55-1C99.65,71.7,99.32,71.48,99.24,71.19Z"/><path d="M137,111.9a1.28,1.28,0,0,0,1-.15,6.74,6.74,0,0,1,.79-.45V110a2.56,2.56,0,0,0-1.84-.35,1.94,1.94,0,0,0-.41,1.78A.49.49,0,0,0,137,111.9Z"/><path d="M139.42,92.3a1.13,1.13,0,0,0,.47.37c-.21-.38-.44-.76-.67-1.13a1.92,1.92,0,0,0-.18.31Z"/><path d="M65,84.29a.53.53,0,0,0,.43,0A1.48,1.48,0,0,0,66.31,83,1,1,0,0,0,66,82l-1.61,1.62A7.06,7.06,0,0,0,65,84.29Z"/><path d="M121.54,83.73a1.19,1.19,0,0,0,.29-1.26.94.94,0,0,0-1-.63l-.57,0c-.3.35-.53.6-.74.88a.74.74,0,0,0,0,.94A1.43,1.43,0,0,0,121.54,83.73Z"/><path d="M114.19,77.94a.55.55,0,0,1,.47.63c0,.22.28.27.46.23a1.33,1.33,0,0,0,.95-.59l.47-.75a2.43,2.43,0,0,0-1.25-1.29,2.24,2.24,0,0,0-1.5,1.33C113.94,77.67,114,77.89,114.19,77.94Z"/><path d="M64.55,87.29a7.48,7.48,0,0,1-.36.67,1.25,1.25,0,0,0,.16,1.48.52.52,0,0,0,.6.23c.44-.18,1-.18,1.23-.5V87.6A1.6,1.6,0,0,0,64.55,87.29Z"/><path d="M101.85,84.48a1,1,0,0,0-1.08.11,1.68,1.68,0,0,0-.75,1.17c.53.41.8,1.29,1.79,1.13a2,2,0,0,0,.64-1.51A1,1,0,0,0,101.85,84.48Z"/><path d="M74.41,85.29a1.58,1.58,0,0,0-1-.65c-.22-.06-.52,0-.55.26,0,.44-.44.61-.59.95,0,.78.75.88,1.2,1.29l.43-.15C75,86.6,75.08,86.29,74.41,85.29Z"/><path d="M70.08,78.48a3.81,3.81,0,0,0,.68.32c.25-.12.46-.21.66-.32.77-.4.85-.7.47-1.45a1.8,1.8,0,0,0-.4-.53l-1.64,1.63A.74.74,0,0,0,70.08,78.48Z"/><path d="M128.16,91.47a.59.59,0,0,1,.07.42c0,.19-.13.38.06.53a.65.65,0,0,0,.63.17c.26-.08.53-.1.79-.19.69-.23.8-.48.57-1.2-.06-.18-.1-.36-.17-.61a8.86,8.86,0,0,0-.94-.35.92.92,0,0,0-1,.41C128,90.91,127.86,91.18,128.16,91.47Z"/><path d="M81.85,95.17a1.13,1.13,0,0,0,1.35-1.12.84.84,0,0,0-.24-.49,10.2,10.2,0,0,0-.9-.69.5.5,0,0,0-.72,0,2.68,2.68,0,0,0-.41.53c-.15.21-.27.44-.43.72A2,2,0,0,0,81.85,95.17Z"/><path d="M127,95c.6-1,.6-1.17-.23-1.94a2.54,2.54,0,0,0-.36-.29,1.11,1.11,0,0,0-.3-.08.82.82,0,0,0-.25,0c-.31.12-.82.91-.71,1.22a3.12,3.12,0,0,0,.62,1.2A.71.71,0,0,0,127,95Z"/><path d="M122.13,107.77c0,.46.54.63.55,1.07a.12.12,0,0,0,.07.09.79.79,0,0,0,.28.18,1.16,1.16,0,0,0,1.17-.26,1.83,1.83,0,0,0,.61-1,3.23,3.23,0,0,0-1.54-1.19,1,1,0,0,0-.32.21C122.72,107.21,122.15,107.24,122.13,107.77Z"/><path d="M90,103.81c.33-.17.61-.29.87-.44.44-.24.47-.36.38-.84-.06-.29-.09-.58-.14-.93a1.52,1.52,0,0,0-1.35-.28.58.58,0,0,0-.48.44c-.1.41-.17.81-.27,1.29Z"/><path d="M97.55,67a1.08,1.08,0,0,0,1.73.3,7,7,0,0,0,.59-.61l-.08-.32c-.33-.95-.42-1-1.39-1-.69,0-1,.5-1.27,1C97.3,66.59,97.42,66.79,97.55,67Z"/><path d="M82.07,70.51a3.11,3.11,0,0,0-1,.49,1.88,1.88,0,0,0-.37,1c-.07.66.45.9.94,1.13C82.8,73,82.75,72,83,71.31a.47.47,0,0,0-.18-.39A4.74,4.74,0,0,0,82.07,70.51Z"/><path d="M88.31,66c0-.5-.55-.59-.81-.91s-.57-.16-.91,0a8.63,8.63,0,0,1-.35,1,.88.88,0,0,0,.19,1,.76.76,0,0,0,1,.26,2,2,0,0,1,.44-.12c.65-.16.74-.31.53-.95A2,2,0,0,1,88.31,66Z"/><path d="M106.14,109.05l.72.34c.27-.15.51-.26.73-.4a1.22,1.22,0,0,0-.36-2,.65.65,0,0,0-.33,0,1.54,1.54,0,0,0-1.16.84C105.44,108.49,105.54,108.74,106.14,109.05Z"/><path d="M75.1,94.69c0,.14.05.3.1.56a10,10,0,0,0,1.24,0,1,1,0,0,0,.86-1.6,1.72,1.72,0,0,0-.29-.49.75.75,0,0,0-1.12-.05,2.42,2.42,0,0,1-.32.32A1,1,0,0,0,75.1,94.69Z"/><path d="M62.51,92.36a1.19,1.19,0,0,0,1.22-.44c-.06-.24-.14-.45-.18-.67s-.07-.51-.1-.73c-.58-.18-1.05-.51-1.61-.26l.26.28L61,91.13A1.83,1.83,0,0,0,62.51,92.36Z"/><path d="M92.91,92.8c-.74.16-.86.82-1.08,1.37,0,.12.08.37.2.49a11.91,11.91,0,0,0,.93.77,1.9,1.9,0,0,0,1.27-.9C94,93.76,94,92.88,92.91,92.8Z"/><path d="M116.73,91.8a2.33,2.33,0,0,0,2.3.57c.09-.48.17-.92.25-1.37a1.82,1.82,0,0,0-1.74-.59,1.13,1.13,0,0,0-1,1.1A.42.42,0,0,0,116.73,91.8Z"/><path d="M122.16,74.93A2.29,2.29,0,0,0,123.43,76a.54.54,0,0,0,.63-.16l.15-.2-1.51-1.51A6.49,6.49,0,0,0,122.16,74.93Z"/><path d="M78,91.86a2,2,0,0,0,1,.44c.47.12.81.09,1.05-.38a4.33,4.33,0,0,1,.38-.54c-.66-1.07-.66-1.07-1.43-1.36C77.86,90.59,77.86,90.59,78,91.86Z"/><path d="M122.9,81.05a4.28,4.28,0,0,0,.75.31c.49,0,.8,0,.91-.28a3.55,3.55,0,0,0,.27-1.1.75.75,0,0,0-.31-.58,2.53,2.53,0,0,0-1-.32,1.17,1.17,0,0,0-1.13.81A.92.92,0,0,0,122.9,81.05Z"/><path d="M102.55,97c-.16-.41-.25-.88-.8-1a3.23,3.23,0,0,1-.71-.4,3.31,3.31,0,0,0-.58.35c-.19.19,0,.42,0,.63a.71.71,0,0,1-.07.42,4.93,4.93,0,0,1-.34.54c.28.2.49.46.75.52a1.6,1.6,0,0,0,1.23-.1C102.34,97.73,102.66,97.23,102.55,97Z"/><path d="M108.58,61.2a7.31,7.31,0,0,0,.48.62,1.09,1.09,0,0,0,1.16-.16l-1.61-1.61A1,1,0,0,0,108.58,61.2Z"/><path d="M123.57,90.05l-.87.45c-.13.35-.24.67-.35,1,.07.15.12.29.19.42.34.6.39.61,1.08.37.17-.06.36-.05.54-.1s.47-.18.69-.27C124.83,90.8,124.62,90.5,123.57,90.05Z"/><path d="M88.37,110.6a.58.58,0,0,1-.2-.48c0-.33-.18-.52-.46-.47a10.2,10.2,0,0,0-1.09.27c-.21.29-.4.57-.58.83.52,1.16.92,1.39,2,1.15a.66.66,0,0,0,.42-.34A.88.88,0,0,0,88.37,110.6Z"/><path d="M109,78.1l.26.23a1.25,1.25,0,0,0,1.46-.12c.06-.3.13-.59.21-.95-.18-.2-.32-.33-.44-.48s-.19-.34-.31-.48a.67.67,0,0,0-.93-.11,2.71,2.71,0,0,0-.52.6,1.5,1.5,0,0,0-.3.82C108.44,77.79,108.79,77.93,109,78.1Z"/><path d="M100.7,69.94c.45.17.91.3,1.37.45a2.56,2.56,0,0,0,0-2.58c-.69-.33-1.13.16-1.65.53,0,.16,0,.35-.08.53a1.8,1.8,0,0,0-.06.22A.84.84,0,0,0,100.7,69.94Z"/><path d="M64.69,100.8c.66.28.83.23,1.6-.6-.3-.66-.05-1.55-1-1.84a4.2,4.2,0,0,0-1.28.82C63.93,99.91,64,100.49,64.69,100.8Z"/><path d="M132.67,87.72a4.48,4.48,0,0,0-.87-.3.66.66,0,0,0-.83.43c-.11.28-.18.58-.28.92.2.29.41.6.61.87l.62.13c.56.1.92-.09,1-.62,0-.36-.13-.72,0-1.1C133,88,132.79,87.77,132.67,87.72Z"/><path d="M115.25,87.42l-.76.25a.66.66,0,0,0-.47.7,1.31,1.31,0,0,0,1.53,1.27,6.13,6.13,0,0,0,.71-.27C116.54,87.94,116.51,87.87,115.25,87.42Z"/><path d="M121.69,110.38c-.1-.16-.17-.34-.27-.51a.75.75,0,0,0-1.32-.16,1.37,1.37,0,0,0-.28,1.49c.17.51.5.71,1.16.73a3.93,3.93,0,0,0,.44-.06c.22-.36.43-.67.62-1C121.91,110.7,121.79,110.55,121.69,110.38Z"/><path d="M107.19,92.27a.9.9,0,0,1,.23,0,.63.63,0,0,0,.59-.59,3.86,3.86,0,0,1,.22-.66c-.55-.42-.79-1.22-1.67-1l-.83,1.61C106.19,92.52,106.19,92.52,107.19,92.27Z"/><path d="M114.13,66.24c-.21.1-.12.47.09.59a3.5,3.5,0,0,0,1.48.8,2,2,0,0,1,.18-.32l-1.46-1.45A.58.58,0,0,1,114.13,66.24Z"/><path d="M137.65,106.47c1-.64,1-.64.67-1.81-.11-.43-.24-.55-.71-.58-.22,0-.45,0-.67,0-.25.42-.43.71-.58,1a.77.77,0,0,0,.2,1,6.51,6.51,0,0,0,.8.5A1.41,1.41,0,0,0,137.65,106.47Z"/><path d="M94.27,77.75c-.11-.65-.26-1.27-1.08-1.4-.55.16-1.2.22-1.4,1a3.75,3.75,0,0,0,.82,1.42A2,2,0,0,0,94.27,77.75Z"/><path d="M102.44,91.14a4.29,4.29,0,0,0-.4-.55,1,1,0,0,0-1.71.16,1.77,1.77,0,0,0-.18.42c.47.43.38,1.2,1.1,1.51a3.79,3.79,0,0,0,.8-.24C102.73,92.07,102.8,91.67,102.44,91.14Z"/><path d="M75.75,78.53a1.79,1.79,0,0,0,.45.06c.77,0,.83-.06,1-.75.06-.22.16-.43.21-.65a.59.59,0,0,0-.47-.78,3.25,3.25,0,0,0-1.12-.08.88.88,0,0,0-.68.82,8.2,8.2,0,0,0,.29,1.08A.56.56,0,0,0,75.75,78.53Z"/><path d="M97.7,89.24a2.15,2.15,0,0,0,.48.3.78.78,0,0,0,1.16-.35,9,9,0,0,0,.33-1,4.78,4.78,0,0,0-.28-.61.65.65,0,0,0-.86-.37,3,3,0,0,0-.89.51A1,1,0,0,0,97.7,89.24Z"/><path d="M110.51,93.49a.94.94,0,0,0-.31-.43,1.36,1.36,0,0,0-1.48.24,1.23,1.23,0,0,0-.25,1.07,1,1,0,0,0,.88.89,1.5,1.5,0,0,0,1.19-.42v-1A.78.78,0,0,0,110.51,93.49Z"/><path d="M97.59,50.4a1.8,1.8,0,0,0,.25.18c.23.14.47.25.74.39a2.11,2.11,0,0,0,.62-.3l-.94-.94Z"/><path d="M134,109.3c.54.14.87.07,1.09-.35a2.05,2.05,0,0,1,.36-.42.85.85,0,0,0-.18-1.47,1.18,1.18,0,0,0-1.48.16c-.11.3-.22.62-.34,1Z"/><path d="M107.05,62.3a.7.7,0,0,0-1.11.35c-.1.28-.17.58-.26.89l.64.88h1.54c.12-.31.23-.58.38-1C107.82,63,107.46,62.63,107.05,62.3Z"/><path d="M125.09,105.51c.4.68,1.1.55,1.7.58.32,0,.58-.22.71-.62a.94.94,0,0,0-.17-1.06,1.85,1.85,0,0,0-2.11,0c-.09.25-.18.5-.28.8Z"/><path d="M103.45,95.08a1,1,0,0,0,1,0,3,3,0,0,0,.95-.82c-.4-.63-.69-1.31-1.51-1.58-.31.37-.58.64-.8,1A1,1,0,0,0,103.45,95.08Z"/><path d="M73.37,81.7,74.56,81a1.55,1.55,0,0,0-.69-1.89.8.8,0,0,0-1.29.57c0,.34,0,.69,0,1Z"/><path d="M87.64,87.42l-1,.47c-.44.2-.47.58-.43,1a.93.93,0,0,0,.72.8,4,4,0,0,0,1.15,0,.79.79,0,0,0,.52-1.17A2.45,2.45,0,0,0,87.64,87.42Z"/><path d="M77.4,72.41c0-.21,0-.32,0-.44,0-.64,0-1-.29-1.13l-1.73,1.73a4.62,4.62,0,0,0,1.27.38Z"/><path d="M87.25,95.06a2,2,0,0,1,.54.11l1-.81c-.06-.25,0-.57-.17-.67a4.08,4.08,0,0,0-1.11-.54,1.1,1.1,0,0,0-.66.08,1.15,1.15,0,0,0-.8.83A1,1,0,0,0,87.25,95.06Z"/><path d="M107.87,74.19a1.6,1.6,0,0,0-1.33-.54.79.79,0,0,0-.84.75,6.07,6.07,0,0,0,0,.73c.35.3.64.56.94.79a.55.55,0,0,0,.73-.06c.3-.39.57-.79.88-1.21C108.1,74.48,108,74.34,107.87,74.19Z"/><path d="M69,101.89c-.54-.13-.88-.58-1.37-.82-.18.16-.33.28-.46.41a.6.6,0,0,0-.17.3,2.27,2.27,0,0,0,0,.46c0,1.32.06,1.41,1.46,1.29.24-.28.5-.56.73-.86S69.33,102,69,101.89Z"/><path d="M97.38,82c-.07,1-.06,1.85,1,2.31,1-.59,1-.59,1.28-1.67C99,82.17,98.35,81.6,97.38,82Z"/><path d="M120.06,72.91a1.18,1.18,0,0,0,1.3-.13l-1.47-1.46a2.14,2.14,0,0,0-.17.3A.92.92,0,0,0,120.06,72.91Z"/><path d="M128.56,86.87c.64.32,1.93-.59,1.64-1.46a3,3,0,0,0-.46-.78.56.56,0,0,0-.8-.14c-.48.34-.93.72-.82,1.23a3.13,3.13,0,0,0,.07.75A.9.9,0,0,0,128.56,86.87Z"/><path d="M103,88.93a1.76,1.76,0,0,0,1.14.76,1.6,1.6,0,0,0,1.29-1.2.58.58,0,0,0-.14-.42,2.66,2.66,0,0,0-.63-.47,1.19,1.19,0,0,0-1.72,1.11A.4.4,0,0,0,103,88.93Z"/><path d="M92.8,87.35a1.06,1.06,0,0,0-.71,1.8.88.88,0,0,0,1.09.36c.29-.09.57-.21.87-.33a2.33,2.33,0,0,0-.25-1.46A.92.92,0,0,0,92.8,87.35Z"/><path d="M93.56,104.59c-.18-.24-.21-.6-.58-.68l-1,.25c0,.64-.08,1.22-.13,1.87a4.06,4.06,0,0,0,.85.32,1.4,1.4,0,0,0,.65-.15,1.26,1.26,0,0,0,.82-.87C93.91,105.06,93.73,104.83,93.56,104.59Z"/><path d="M139.89,103.6c.61.1,1-.3,1.4-.62,0-.31,0-.61,0-.91a.5.5,0,0,0-.47-.53c-.27,0-.54,0-.8,0a1.11,1.11,0,0,0-1.16.66c.16.36.3.66.43,1A.72.72,0,0,0,139.89,103.6Z"/><path d="M128.83,103.59a6,6,0,0,0,.87,0c.51-.78.51-.78.52-1.18,0-.56-.18-.81-.72-.83a2.58,2.58,0,0,0-1.32.14,3.93,3.93,0,0,0-.25.82A.93.93,0,0,0,128.83,103.59Z"/><path d="M101.06,81.26c.63.26.89.08,1.2-.58a1.06,1.06,0,0,0-.15-1.26,3,3,0,0,0-.74-.52.45.45,0,0,0-.61.16c-.27.39-.5.81-.78,1.28A2.87,2.87,0,0,0,101.06,81.26Z"/><path d="M142.09,110.06a6.71,6.71,0,0,0-.5.74,6.24,6.24,0,0,0,.54.78c.16-.61.31-1.23.43-1.86A1.3,1.3,0,0,0,142.09,110.06Z"/><path d="M75.27,105.92a1.4,1.4,0,0,0,1.36.4,1,1,0,0,0,.48-1.65,11.81,11.81,0,0,0-.91-.82,4.41,4.41,0,0,0-1,1.07A1.08,1.08,0,0,0,75.27,105.92Z"/><path d="M82.29,87.41c-.83.17-1.56.39-1.59,1.38.29.33.54.66.84.95a.55.55,0,0,0,.89-.09c.26-.33.5-.68.74-1A1.65,1.65,0,0,0,82.29,87.41Z"/><path d="M94.05,82.51c-.37-.25-.77-.45-1.14-.66-1.08.42-1.15.54-1,1.74a2,2,0,0,0,.48.25c.43.12.88.2,1.37.31L94.34,83C94.23,82.83,94.19,82.61,94.05,82.51Z"/><path d="M68.17,87c.29-.18.56-.39.87-.61V85a9.42,9.42,0,0,0-.93-.36.7.7,0,0,0-.84.44,3.14,3.14,0,0,0-.09,1.55C67.18,87.06,67.78,87.27,68.17,87Z"/><path d="M139.82,109.38a7.36,7.36,0,0,1,.73-.21.87.87,0,0,0,.59-.5,1.29,1.29,0,0,0-.11-1.5.67.67,0,0,0-.9-.24c-.36.25-.84.38-1.07.83.15.41.28.8.44,1.18A2.25,2.25,0,0,0,139.82,109.38Z"/><path d="M127.86,79.67l-.22.5c.48.66.84,1.35,1.73,1.4l.34-.44c-.55-.54-1.11-1.11-1.69-1.69A.56.56,0,0,0,127.86,79.67Z"/><path d="M130.8,82.42a.82.82,0,0,0,.3,1.34,12,12,0,0,0,1.17.31l.21-.16c-.49-.49-1-1-1.57-1.57Z"/><path d="M110.71,99.64c-.12-.25-.48-.17-.47-.51a3,3,0,0,0-.18-.68c-.41,0-.68,0-1,.07-.47.07-.69.31-.63.79a8.48,8.48,0,0,0,.26,1.12l1,.53C110.53,100.83,110.6,100.21,110.71,99.64Z"/><path d="M58.94,98.85a5.7,5.7,0,0,0-.47.58l.53,1.24a2.38,2.38,0,0,0,1.41,0,1.32,1.32,0,0,0,.27-1.4A1,1,0,0,0,58.94,98.85Z"/><path d="M96.5,90.68c-.25-.17-.51-.32-.86-.53a3.82,3.82,0,0,0-.67.31.84.84,0,0,0-.17,1.44,3.64,3.64,0,0,0,1.22.8,2.74,2.74,0,0,0,.8-1A.81.81,0,0,0,96.5,90.68Z"/><path d="M120.75,78.8c.76-.38.75-.39.94-.7a1.59,1.59,0,0,0,.19-1c0-.25-.15-.49-.39-.51a7,7,0,0,0-1.37,0,.52.52,0,0,0-.33.29,1.25,1.25,0,0,0,0,1.2A1.67,1.67,0,0,0,120.75,78.8Z"/><path d="M131.84,109.64a10,10,0,0,0-1.05.32c-.09.18-.19.31-.24.45a1.2,1.2,0,0,0,.85,1.48c.16,0,.44,0,.5-.16.25-.42.68-.58,1.09-.86-.1-.29-.15-.47-.22-.65C132.59,109.72,132.36,109.55,131.84,109.64Z"/><path d="M135,101.3a5.49,5.49,0,0,0-.63-.18c-1,.82-1.05,1.15-.5,2.24.37,0,.71,0,1,0a.87.87,0,0,0,.5-.21A1.11,1.11,0,0,0,135,101.3Z"/><path d="M134.55,87.14a1.22,1.22,0,0,0,.34-.14,1.37,1.37,0,0,0,.36-.31l-1.52-1.53a3.76,3.76,0,0,0-.24.74C133.39,86.35,134,87.08,134.55,87.14Z"/><path d="M56.86,92.48a.94.94,0,0,0,.87-.77,3.38,3.38,0,0,0,0-.45h0a2.69,2.69,0,0,0,0-.57l0-.07q-.66.85-1.26,1.77A1.44,1.44,0,0,0,56.86,92.48Z"/><path d="M81.66,67.39a2,2,0,0,0,1.54-1.57c-.16-.15-.37-.31-.54-.5L81,67s0,.06,0,.09Z"/><path d="M121.37,106.13a.53.53,0,0,0,.5-.54,3.56,3.56,0,0,0,0-.8.63.63,0,0,0-.25-.36,1.75,1.75,0,0,0-1.66,0c-.5.21-.35.71-.35,1.12a1,1,0,0,0,.06.26l.78.55Z"/><path d="M72.39,97a1.83,1.83,0,0,0,1.43,1.18L74.67,97a4.28,4.28,0,0,1-.44-.61,4.12,4.12,0,0,1-.2-.77l-1.27.15A1.18,1.18,0,0,0,72.39,97Z"/><path d="M111.05,69.13c.23.7.86,1,1.4,1.34.87-.51.73-1.42,1.09-2.12l-1.06-.51C111.44,68.38,111.44,68.38,111.05,69.13Z"/><path d="M134.07,97.79a.93.93,0,0,0,1,.39,1,1,0,0,0,.7-.84,1.51,1.51,0,0,0,0-.56,1.4,1.4,0,0,0-.87-1c-.32-.16-.56.13-.77.35l-.67.72A7.91,7.91,0,0,0,134.07,97.79Z"/><path d="M78.09,102.73a5.44,5.44,0,0,0,.73.71.78.78,0,0,0,.54.11,1.68,1.68,0,0,0,.5-.25c.13-.48.52-.9.23-1.45l-1.32-.77a6.92,6.92,0,0,0-.73.7A.73.73,0,0,0,78.09,102.73Z"/><path d="M63.42,96a3,3,0,0,0-1.29-.22c-.38.12-.68.57-1,.88-.05,0-.06.14-.11.28.13.16.24.45.44.54a1.69,1.69,0,0,0,1.66.13l.57-.87Z"/><path d="M68.42,95.78a1.27,1.27,0,0,0-1.57.78c-.08.18-.11.4.1.5.38.19.12.56.33,1a6.89,6.89,0,0,0,.91,0,.9.9,0,0,0,.77-.85,4.11,4.11,0,0,0-.2-1.1A.57.57,0,0,0,68.42,95.78Z"/><path d="M74.54,92a1.68,1.68,0,0,0,.2-.14c0-.15.05-.19,0-.23s-.08-.21-.12-.32a1.59,1.59,0,0,0-1.57-1.07c-.57.07-.47.63-.67,1a.58.58,0,0,0,0,.17C73.2,92.62,73,92.78,74.54,92Z"/><path d="M100.56,64.17a1.86,1.86,0,0,0,.1.2c.25.36,1.08.49,1.33.15a1.53,1.53,0,0,0,.39-1.27,1.37,1.37,0,0,0-.84-1,2.34,2.34,0,0,0-1.41,1.08C100.28,63.62,100.42,63.89,100.56,64.17Z"/><path d="M75.94,84.08A.83.83,0,0,0,76.8,84c.87-.88.83-1.45-.16-2.25,0,0-.07,0-.17,0l-1,.51c-.11.47-.21.87-.32,1.32C75.39,83.68,75.65,83.91,75.94,84.08Z"/><path d="M88,82.05a5.08,5.08,0,0,1-.82-.39A1.67,1.67,0,0,0,86.23,83a1,1,0,0,0,.53,1,4.73,4.73,0,0,1,.88-.35.73.73,0,0,0,.7-.63,2.94,2.94,0,0,1,.34-.66C88.51,82.07,88.22,82.12,88,82.05Z"/><path d="M70.82,81.71c-.29.23-.53.42-.78.6a1.31,1.31,0,0,0-.47,1.23.59.59,0,0,0,.7.59C71,84,71.66,83.9,71.82,83,71.51,82.06,71.51,82.06,70.82,81.71Z"/><path d="M113.37,85.27a3.14,3.14,0,0,0-.64-.46c-.68-.36-1-.21-1.35.49a1.29,1.29,0,0,0,.31,1.47c.32.28.64.08,1,0,.07,0,.15,0,.22-.06.48-.16.51-.62.72-1C113.5,85.53,113.47,85.36,113.37,85.27Z"/><path d="M95.55,101.07l-.69.37-.19,1.29c1.26.81,1.26.81,2.34.52a3.42,3.42,0,0,0-.3-1.24A5.23,5.23,0,0,0,95.55,101.07Z"/><path d="M82.24,76.46s0-.06-.08-.08a1,1,0,0,0-1.14.19,1.32,1.32,0,0,0,.34,1.79l.56.37C83.2,78.09,83.31,77.27,82.24,76.46Z"/><path d="M103.48,76.48a3.55,3.55,0,0,0-.42.23,2.63,2.63,0,0,0,1,2.12,3.67,3.67,0,0,0,.63-.3,1.36,1.36,0,0,0,.51-1.41A1.2,1.2,0,0,0,103.48,76.48Z"/><path d="M125.69,100.77l.54,0h.34c.31,0,.61-.25.51-.49-.2-.47.32-.64.32-1l-.9-1c-.81.15-.91.91-1.36,1.37Z"/><path d="M85.74,102.23a1.2,1.2,0,0,0-1.72-.74,1,1,0,0,0-.35,1.51,7,7,0,0,0,.61.59l.75-.23a.9.9,0,0,0,.21-.08A.94.94,0,0,0,85.74,102.23Z"/><path d="M76.13,89.88c.26-.16.49-.29.7-.44a1.12,1.12,0,0,0,.3-1.68.85.85,0,0,0-.44-.33,10.31,10.31,0,0,0-1.11-.2c-.18,0-.41.25-.3.38.45.5.26,1.06.2,1.66Z"/><path d="M94.68,80.83c.19.1.39.22.59.31.79.37.86.35,1.41-.37a.61.61,0,0,0,.09-.2,2.25,2.25,0,0,1,0-.22c0-.3-.09-.6-.13-.89-.61-.35-.75-.43-.94-.39a1.17,1.17,0,0,0-.41.18C94.73,79.64,94.36,80.11,94.68,80.83Z"/><path d="M103,66.89a2.75,2.75,0,0,0,.52.56,3.22,3.22,0,0,1,.7-.19,1.43,1.43,0,0,0,1.11-.71.55.55,0,0,0,0-.73,2,2,0,0,0-1-.62c-.82,0-.92.75-1.31,1.16C102.87,66.45,102.9,66.75,103,66.89Z"/><path d="M90.15,67.76a3,3,0,0,0-.54.25,1.32,1.32,0,0,0-.18,2.07c.24.2.54.23.7,0a1.3,1.3,0,0,1,.94-.55c.17,0,.29-.31.43-.47C91.16,68.44,90.59,68.19,90.15,67.76Z"/><path d="M103.45,56.25a1.21,1.21,0,0,0,1.21-.13l-1.5-1.5a1.22,1.22,0,0,0-.26.56C103.07,55.51,103.27,55.91,103.45,56.25Z"/><path d="M84.48,68c-.27.21-.22.68-.71.67-.25,0-.4.39-.3.63a1.52,1.52,0,0,0,.32.46c.25.23.52.43.84.68A2.24,2.24,0,0,0,86,69.38,1.69,1.69,0,0,0,84.48,68Z"/><path d="M128.26,97.78a1.07,1.07,0,0,0,1.37,0,6.08,6.08,0,0,0,.6-.65,2.35,2.35,0,0,0-.94-1.65c-.38.29-.74.52-1,.8A1,1,0,0,0,128.26,97.78Z"/><path d="M114.43,100.4a1.53,1.53,0,0,0,1.41.06.59.59,0,0,0,.23-.37c0-.41,0-.82,0-1.18l-1-.71c-.48.53-1.11.81-1.22,1.58A6.91,6.91,0,0,0,114.43,100.4Z"/><path d="M118.21,109.28c.52-.17.72-.66,1.07-1,.14-.13,0-.5-.19-.59-.52-.23-1-.42-1.56-.62l-.78,1.1c.19.31.34.62.54.89A.69.69,0,0,0,118.21,109.28Z"/><path d="M64.15,111c.22.31.48.59.77.93a1.79,1.79,0,0,0,1.18-.59,1.2,1.2,0,0,0-.43-1.67,1.38,1.38,0,0,0-1.63.91A.54.54,0,0,0,64.15,111Z"/><path d="M84.18,90.2c-.66.52-.49,1.21-.47,1.86,1.35.61,1.41.6,2.18-.63C85.67,90.54,85,90.34,84.18,90.2Z"/><path d="M140.7,95.79c-.45-.32-.66-.37-1.09,0a1.71,1.71,0,0,0-.54,1.49,1.62,1.62,0,0,0,1.61.53c.4-.09.45-.49.66-.88C141.1,96.51,141.1,96.08,140.7,95.79Z"/><path d="M93.08,56.13a1,1,0,0,0,1-.64c-.1-.38-.19-.75-.31-1.25h0l-1.52,1.51A1.07,1.07,0,0,0,93.08,56.13Z"/><path d="M89,80.2a4,4,0,0,0,.68,1.15L91,80.79l.28-.88-.9-1.07A1.51,1.51,0,0,0,89,80.2Z"/><path d="M83.68,80.82c.32.23.57.73,1.06.46a1.62,1.62,0,0,0,.91-.82c0-.07,0-.14.08-.22a1.42,1.42,0,0,0-1.38-1.16,3.27,3.27,0,0,0-1.19,1.36Z"/><path d="M112.14,79.11a4.09,4.09,0,0,0-.59.3c-.06.48-.48.86-.22,1.35a1,1,0,0,0,1,.34c.49-.15,1.08-.19,1.4-.9l-.4-.57C113,79.07,112.76,79,112.14,79.11Z"/><path d="M114.8,82c-1.18.77-1.21,1.08-.07,2a.77.77,0,0,0,1.26-.39,3.71,3.71,0,0,0,.23-1.58Z"/><path d="M92.43,72.76c.25.1.51.15.8.24A1.45,1.45,0,0,0,94,71.07a3.62,3.62,0,0,0-1.57-.1c-.42,0-.61.26-.64.68A1,1,0,0,0,92.43,72.76Z"/><path d="M125.71,77.72c-.11.16-.22.31-.34.5.46.22.8.55,1.31.55l.31-.36-1.64-1.63-.19.26Z"/><path d="M107.13,86.94l.63-.57a.67.67,0,0,0,.12-.84,1.67,1.67,0,0,0-1.37-1.08,1.62,1.62,0,0,0-.78,1.66Z"/><path d="M126.56,110a.77.77,0,0,0-1.12.13c-.34.32-.35.46-.06,1,.07.13.15.27.21.4.3.65.37.69,1,.48a3.66,3.66,0,0,0,.44-.13.59.59,0,0,0,.39-.63C127.45,110.64,127,110.33,126.56,110Z"/><path d="M115,70.77c-.48.27-1,.5-1.12,1.27.62.19,1,.87,1.71,1a6.42,6.42,0,0,0,.59-.57,1,1,0,0,0-.06-1.26C115.83,70.85,115.25,70.6,115,70.77Z"/><path d="M84.41,75.79l.43-.2.6-.32.14-.44c.25-.74.17-.91-.52-1.21a.85.85,0,0,0-1,.15c-.21.22-.39.45-.59.68A1.71,1.71,0,0,0,84.41,75.79Z"/><path d="M112.68,73.72c-.26,0-.55-.21-.76-.15a2.82,2.82,0,0,0-.72.58c.13.44.21.73.31,1a.63.63,0,0,0,.2.28,1,1,0,0,0,1.52-.14,4.5,4.5,0,0,0,.39-.67C113.35,74.26,113.22,73.78,112.68,73.72Z"/><path d="M117,75.29a1.44,1.44,0,0,1,.09.4,1.52,1.52,0,0,0,1.56-.25.83.83,0,0,0,0-1.44,6.35,6.35,0,0,0-.94-.48C117,74,116.59,74.49,117,75.29Z"/><path d="M114.58,93.08a4.24,4.24,0,0,0-.39,1.83,2,2,0,0,0,1.48,0,1.3,1.3,0,0,0,.86-.8C116.11,93.33,115.69,92.63,114.58,93.08Z"/><path d="M80.43,96.76a.56.56,0,0,0-.51-.53,1.19,1.19,0,0,1-.79-.4.42.42,0,0,0-.59.13,3.4,3.4,0,0,0-.48,1.73l1.29.31.74-.46A.71.71,0,0,0,80.43,96.76Z"/><path d="M138.06,98.78a2.75,2.75,0,0,0-1.6.14,1.15,1.15,0,0,1,.1,1.17c-.05.16.13.41.22.66.51-.07.88-.11,1.26-.18a.91.91,0,0,0,.75-.88A.93.93,0,0,0,138.06,98.78Z"/><path d="M141.94,105.09c0,.21.08.44.13.66a.59.59,0,0,0,.13.19.9.9,0,0,0,.79.43c0-.5,0-1,0-1.51,0-.26,0-.52,0-.79a1,1,0,0,0-.72.43A6.59,6.59,0,0,0,141.94,105.09Z"/><path d="M93.13,59.84a4,4,0,0,0-1.27.36l-.29.59.7,1c1,.14,1,.14,1.71-.61a7,7,0,0,0-.12-.78A.64.64,0,0,0,93.13,59.84Z"/><path d="M124.48,96.37a1,1,0,0,0-.79-.41h-.82c-.83.67-.27,1.32-.2,2l.87.29c.33-.36.65-.69.94-1A.56.56,0,0,0,124.48,96.37Z"/><path d="M131.73,92.77c-.34.44-.65.82-.94,1.21a.36.36,0,0,0,.15.57c.47.24.95.45,1.41.67A1,1,0,0,0,133,94,1.38,1.38,0,0,0,131.73,92.77Z"/><path d="M71.51,93l-.88-.25a2.41,2.41,0,0,0-1.07,1.5c.77,1.12.8,1.13,2,.66,0,0,0,0,.13-.13l-.32-.89C71.47,93.65,71.77,93.44,71.51,93Z"/><path d="M100.76,56.86c-.16.32-.26.56-.39.78-.29.52-.23.9.23,1.14a1.59,1.59,0,0,0,1.33,0,.82.82,0,0,0,.5-.72,1.74,1.74,0,0,0-.72-1.22Z"/><path d="M57.47,101.41a.79.79,0,0,0-.95.09l-.9.79.46,1,1.13.25a1.67,1.67,0,0,0,.73-1A.9.9,0,0,0,57.47,101.41Z"/><path d="M94.9,53.34a1.34,1.34,0,0,0,.95.4l1.06-1.26a2.06,2.06,0,0,0-.43-1l-1.69,1.68A1.43,1.43,0,0,0,94.9,53.34Z"/><path d="M134.66,90.37l-.67.15c-.15.46-.51.8-.49,1.38a7.34,7.34,0,0,0,1.09.53.87.87,0,0,0,.74-.12,1.2,1.2,0,0,0,.41-1.24A.82.82,0,0,0,134.66,90.37Z"/><path d="M71.86,99.75a1.85,1.85,0,0,0-.18-.65.83.83,0,0,0-1.32-.33l-.5.35-.27,1,1.19.65c.22-.07.37-.1.51-.16C71.8,100.4,71.91,100.26,71.86,99.75Z"/><path d="M113.48,97.29l-1-1.63A2.85,2.85,0,0,0,111,96.89C111.74,98.34,112.35,98.45,113.48,97.29Z"/><path d="M74.44,101.78a.78.78,0,0,0-.82-.49,5.07,5.07,0,0,0-.56,0c-.07,0-.12.09-.22.16s0,.41,0,.56l-.51.61c.29.69.89.72,1.41.9.55-.24.7-.8,1-1.21A3.49,3.49,0,0,1,74.44,101.78Z"/><path d="M100.67,53.33a3.09,3.09,0,0,0,.67.15.73.73,0,0,0,.51-.17l-1.5-1.5c-.11.23-.18.46-.22.55C100.12,53,100.25,53.23,100.67,53.33Z"/><path d="M58.53,110.85a4.2,4.2,0,0,1,.46.75.74.74,0,0,0,1.17.1,3.77,3.77,0,0,0,.38-.57c.42-.68.22-1.17-.56-1.32l-.28,0-.5.09a1.94,1.94,0,0,0-.33.07A.63.63,0,0,0,58.53,110.85Z"/><path d="M64.69,106.12c.25.09.51.15.75.22.76-.63.76-.63.45-1.41a2.93,2.93,0,0,1-.1-.53c0-.33-.19-.53-.47-.53a1.43,1.43,0,0,0-.64.15c-.49.24-.45.77-.53,1.2A.79.79,0,0,0,64.69,106.12Z"/><path d="M112.33,90.06a1.44,1.44,0,0,0-1,.73c.06.32.11.66.19,1a.54.54,0,0,0,.46.45,1.38,1.38,0,0,0,1.1-.18.88.88,0,0,0,.23-.24c.34-.76.19-1.18-.56-1.58Z"/><path d="M97.76,104.22a2.35,2.35,0,0,0-.17.56c-.06,1.31,0,1.45,1.52,1.34a.7.7,0,0,0,.46-.29,2.3,2.3,0,0,0,.29-.56C99.52,104.12,98.6,104.33,97.76,104.22Z"/><path d="M137.92,89.66h0c-.35-.46-.72-.92-1.1-1.36h0l-.26-.27a1.71,1.71,0,0,0-.25.61C136.7,89.25,137.07,89.85,137.92,89.66Z"/><path d="M117.81,70.38a1.53,1.53,0,0,1,.66-.48l-1.38-1.38c-.11.12-.21.25-.32.38A2.35,2.35,0,0,0,117.81,70.38Z"/><path d="M108.8,72.68c1.48.27,1.67.17,2.16-1.12-.23-.22-.46-.46-.72-.68a1,1,0,0,0-1.06,0c-.37.23-.57.55-.38.94S108.69,72.4,108.8,72.68Z"/><path d="M98.38,112.11l.93-.6c0-.38-.2-.7,0-1,.08-.11,0-.34,0-.48-1.07-.44-1.6.27-2.21.81A2.36,2.36,0,0,0,98.38,112.11Z"/><path d="M121.45,87.56a1.53,1.53,0,0,0-1.41,0c-.38.24-.42.47-.21.92a10.37,10.37,0,0,1,.38,1l1.23-.08c0-.14.07-.24.11-.35s.1-.27.16-.4A.71.71,0,0,0,121.45,87.56Z"/><path d="M118,86.7a1.4,1.4,0,0,0,1.28-.79c-.18-.42-.35-.8-.54-1.25-1.18.08-1.22.1-1.8,1,0,.08,0,.16,0,.23C117.19,86.64,117.27,86.68,118,86.7Z"/><path d="M112.36,101.34a1.44,1.44,0,0,0-1.1,1.31c.67.92,1.14,1,1.88.22.18-.18.38-.33.57-.49-.17-.28-.29-.52-.45-.73A.73.73,0,0,0,112.36,101.34Z"/><path d="M103.22,111.6a.59.59,0,0,0,.23.24,1.22,1.22,0,0,0,1.27-.19,1,1,0,0,0,.44-1.19,4.8,4.8,0,0,0-.37-.62c-.43.09-.83.16-1.23.26-.61.14-.71.35-.52,1A4.72,4.72,0,0,0,103.22,111.6Z"/><path d="M87.89,71a1.15,1.15,0,0,0-1.33.31,3.64,3.64,0,0,0-.3.59c.38.79.71,1.07,1.43,1.13a.8.8,0,0,0,.49-.21,1.49,1.49,0,0,0,.28-.49A1,1,0,0,0,87.89,71Z"/><path d="M109.1,65.41a.63.63,0,0,0-.63.68,1,1,0,0,0,.25.84c.23.24.44.5.65.73a1.22,1.22,0,0,0,1-.87,1.23,1.23,0,0,0-.27-1.38C109.78,65.41,109.44,65.39,109.1,65.41Z"/><path d="M105.75,58.36a5.31,5.31,0,0,0,.63.63.71.71,0,0,0,1-.15l-1.54-1.53a2.39,2.39,0,0,0,0,.57A4.46,4.46,0,0,1,105.75,58.36Z"/><path d="M81.87,109.64a.69.69,0,0,0-.71.45c-.12.31-.27.62-.43,1,.24,1,.78.89,1.51.83.29,0,.44-.24.51-.53a2.79,2.79,0,0,0-.24-1.21A.61.61,0,0,0,81.87,109.64Z"/><path d="M95.64,56.68a1.92,1.92,0,0,0-.85,1,2.45,2.45,0,0,1,.33.85c0,.52.37.55.69.62a1,1,0,0,0,1-.35,1.16,1.16,0,0,0-.41-1.37C96.14,57.18,95.9,56.93,95.64,56.68Z"/><path d="M94.64,63a.32.32,0,0,0,.12.49c.5.17.29.57.29.92a1.65,1.65,0,0,0,2-.79c-.26-.28-.49-.58-.76-.84A1,1,0,0,0,94.64,63Z"/><path d="M60.43,93.52a5.9,5.9,0,0,0-1.32-.31.54.54,0,0,0-.55.83A3.36,3.36,0,0,1,59,95.17a2.31,2.31,0,0,0,1.92-1C60.78,94,60.74,93.63,60.43,93.52Z"/><path d="M86.2,105.62c.15.43.48.53.9.53.59,0,.84-.45,1.2-.78a.79.79,0,0,0,.1-1,7.38,7.38,0,0,0-1.76,0l-.62.88C86.08,105.35,86.15,105.48,86.2,105.62Z"/><path d="M142.05,100.22a.6.6,0,0,0,.58.59h.08c-.12-.68-.25-1.35-.42-2A1.84,1.84,0,0,0,142,99C142,99.39,142,99.8,142.05,100.22Z"/><path d="M99.3,98.73,97.71,99c-.11.29-.2.54-.28.79-.13.42,0,.59.37.83a1,1,0,0,0,1.08.06c.25-.17.52-.3.82-.47a5.53,5.53,0,0,1-.28-.65A6.36,6.36,0,0,1,99.3,98.73Z"/><path d="M79.67,73.83a1.52,1.52,0,0,0-1.66.44A.63.63,0,0,0,78,75a3,3,0,0,0,1,.71c.23.09.57-.09.84-.15.13-.35.2-.53.26-.71A.83.83,0,0,0,79.67,73.83Z"/><path d="M101.51,75.58a1,1,0,0,0,.89-.63c-.08-.26-.13-.53-.23-.77a1.06,1.06,0,0,0-1.32-.64.56.56,0,0,0-.46.46c-.06.37-.08.75-.11,1.09C100.57,75.64,101.05,75.58,101.51,75.58Z"/><path d="M94.28,99.85a7.69,7.69,0,0,0-.92-1,.7.7,0,0,0-.64-.08c-.4.25-.91.39-1.12.87l.75.88c.69,0,1.38.21,2-.37C94.29,100.07,94.33,99.92,94.28,99.85Z"/><path d="M107.09,101.32a.8.8,0,0,0-.89.35c-.17.25-.32.52-.44.71.06,1,.87,1,1.46,1.18.2.08.47-.16.49-.38s.05-.67,0-1A1,1,0,0,0,107.09,101.32Z"/><path d="M103.36,106.26c.15.08.35.19.56.28a1.62,1.62,0,0,0,.32,0c.26-.33.58-.7.87-1.09a.57.57,0,0,0-.08-.74,1.18,1.18,0,0,0-1.65-.16.66.66,0,0,0-.3.78C103.16,105.62,103.26,105.91,103.36,106.26Z"/><path d="M107.44,81l.45-.16c.3-.67-.19-1-.43-1.41a.9.9,0,0,0-1.52.09,4.12,4.12,0,0,0-.24.52l.35.48C106.54,81.22,106.6,81.25,107.44,81Z"/><path d="M70.7,87.21c-.56.27-.73.8-1,1.21.13.27.23.52.35.75a.81.81,0,0,0,1.46.09,6.52,6.52,0,0,0,.38-1.08Z"/><path d="M93,65.32a.89.89,0,0,0-1.11.8A1,1,0,0,0,93,67a3.29,3.29,0,0,1,.68.15l.23-.31A1.36,1.36,0,0,0,94,65.46C93.75,65,93.3,65.36,93,65.32Z"/><path d="M121.84,93.5c-.66,0-1.16-.84-2-.16a2.58,2.58,0,0,0,.89,2.17l1.07-.88Z"/><path d="M90.37,90.14a7.66,7.66,0,0,0-.79.35.55.55,0,0,0-.25.78c.14.32.32.61.46.89l.26.09c.66.2.82.16,1.12-.37.15-.26.27-.54.42-.85Z"/><path d="M114.4,106.08c1.26.11,1.26.11,1.9-.42,0,0,0-.08,0-.11-.18-.46-.37-.91-.58-1.43-.51,0-1,.08-1,.22-.23.38-.44.78-.64,1.15a2.75,2.75,0,0,0,.16.34C114.28,105.93,114.35,106,114.4,106.08Z"/><path d="M110.39,104.29a.76.76,0,0,0-1,0,1,1,0,0,0-.41,1,9.57,9.57,0,0,0,.32,1c.95,0,1.1-.08,1.7-1.26A6.68,6.68,0,0,0,110.39,104.29Z"/><path d="M81.38,106.25a.75.75,0,0,0,1.13-.35c.15-.38.29-.77.44-1.15a1.47,1.47,0,0,0-1.6-.39c-.46.14-.56.6-.69,1.16A7.1,7.1,0,0,0,81.38,106.25Z"/><path d="M113.19,108.88a5.72,5.72,0,0,0,.31-.78.58.58,0,0,0-.06-.43c-.11-.15-.34-.23-.41-.38a2.06,2.06,0,0,1,0-.69,1.86,1.86,0,0,0-1.57,1.07l.85,1.25Z"/><path d="M117.65,79.32a1,1,0,0,0-.55.35,1.78,1.78,0,0,0-.25.53A1.39,1.39,0,0,0,118,81.34a.63.63,0,0,0,.81-.45c0-.14.12-.34.06-.43-.27-.38,0-.71.09-1.08A2.81,2.81,0,0,0,117.65,79.32Z"/><path d="M105.75,97.42a.85.85,0,0,0,1.07.58c.32-.43.56-.75.79-1.08a.53.53,0,0,0-.09-.8c-.26-.19-.56-.34-.86-.52-.23.22-.4.42-.61.59A1,1,0,0,0,105.75,97.42Z"/><path d="M81,82.3a3.58,3.58,0,0,0,0,.4c0,1.13.37,1.45,1.46,1.16a2.93,2.93,0,0,0,.64-.35c-.13-.42-.25-.81-.39-1.28C82,82,81.49,81.66,81,82.3Z"/><path d="M91,86.65v-1.4a1.66,1.66,0,0,0-1.9,0c0,.27.07.46.11.64C89.48,87.24,89.84,87.4,91,86.65Z"/><path d="M82.67,100.46a2.51,2.51,0,0,1,0-.55,4.87,4.87,0,0,1,.29-.63c-.24-.22-.43-.4-.64-.57a1,1,0,0,0-1.09-.11c-.3.11-.29.38-.27.67s-.19.3-.29.44C81.51,100.68,81.51,100.68,82.67,100.46Z"/><path d="M79.15,70.22l1.09-.89a2.08,2.08,0,0,0-.64-1l-1.43,1.44,0,.13Z"/><path d="M79.39,86.87c.82-.47.57-1.19.53-2a3.83,3.83,0,0,0-1.66,0l-.2.32a.63.63,0,0,0,.12.91A1.72,1.72,0,0,0,79.39,86.87Z"/><path d="M88.45,77.63c.14-.2.09-.56-.12-.59-.48-.07-.67-.48-1-.77a1.52,1.52,0,0,0-1.1,1,1,1,0,0,0,.34,1A1.76,1.76,0,0,0,88.45,77.63Z"/><path d="M115.21,111.9c.54.17.87-.14.85-.71,0-.15,0-.3,0-.44,0-.72,0-.78-.68-.9a4.71,4.71,0,0,0-.53,0c-.11.4-.15.74-.6.8-.15,0-.27.22-.47.4A3,3,0,0,0,115.21,111.9Z"/><path d="M100.78,107.12l-.19.13a1.33,1.33,0,0,0,0,1.49.39.39,0,0,0,.19.12c.61.1,1.23.2,1.66-.56-.07-.24-.12-.47-.2-.68C101.91,106.87,101.45,106.71,100.78,107.12Z"/><path d="M77.21,111.48a1.48,1.48,0,0,0,.15-1.21c-.86-.53-.86-.52-1.56.19-.14.13-.32.21-.45.35a3,3,0,0,0-.27.51,10.63,10.63,0,0,0,1.18.58A.74.74,0,0,0,77.21,111.48Z"/><path d="M57.46,107.11a7.73,7.73,0,0,0-1.36,0c-.15,0-.28.21-.45.36.4.52.75,1,1.13,1.46.2.24.69.24.8,0a2.62,2.62,0,0,0,.38-1.28A.57.57,0,0,0,57.46,107.11Z"/><path d="M73.15,75.57a.91.91,0,0,0,.85.23.55.55,0,0,0,.6-.42l-.53-1.47-1.23,1.23A4.73,4.73,0,0,0,73.15,75.57Z"/><path d="M92.44,109.92a3,3,0,0,0-.66.39,1.79,1.79,0,0,0,1.46,1.59c.09-.06.16-.08.22-.13a.84.84,0,0,0,.4-.77,2,2,0,0,0-.14-.88C93.4,109.7,92.88,109.83,92.44,109.92Z"/><path d="M99,76.54a2.08,2.08,0,0,0-.37-.13c-.33.15-.61.26-.88.39a.71.71,0,0,0-.31,1,.9.9,0,0,0,.72.5c.23,0,.46,0,.75,0a6.82,6.82,0,0,1,.37-.65C99.8,77,99.79,77,99,76.54Z"/><path d="M123.63,101.31l-.75.25a1,1,0,0,0-.19.12,1.39,1.39,0,0,0,.22,1.4c.21.33.59.31.89.37l.75-.83C124.31,101.71,124.31,101.71,123.63,101.31Z"/><path d="M66.9,91.75l.95-.08c0,.21.09.43.16.72.95,0,1.13-.27,1-1.49l-1-.69-1,.37C67.53,91,66.74,91.27,66.9,91.75Z"/><path d="M78.71,79.36c-.17.16-.38.32-.56.51s-.29.51-.08.92a.93.93,0,0,0,.7.51l1.7-.65C79.9,80,79.53,79.45,78.71,79.36Z"/><path d="M67.15,108.45a6.18,6.18,0,0,1,.4.64c1-.22,1-.22,1-.43l-.28-.54c.2-.28.35-.52.54-.8a8.39,8.39,0,0,0-.78-.4.73.73,0,0,0-1,.34c-.14.21-.26.44-.41.7A6.07,6.07,0,0,1,67.15,108.45Z"/><polygon points="52.64 102.49 52.64 102.49 52.64 102.5 52.64 102.49"/><path d="M103.51,100.55h1.28c.42-1.25.33-1.5-.74-2a1.54,1.54,0,0,0-1,.74c.07.18.16.38.24.59Z"/><path d="M117.38,96a10.28,10.28,0,0,0-.76.89c.38.35.63.59.89.8a.55.55,0,0,0,.73-.06c.13-.14.22-.3.34-.45.39-.46.39-.78,0-1.16A.78.78,0,0,0,117.38,96Z"/><path d="M138.51,94.62s0-.07,0-.1c-.45-1.34-.68-1.48-1.94-1.19-.18,1.08-.16,1.11,1.08,2Z"/><path d="M61.39,108.27a3.09,3.09,0,0,0,1.55.85A1.26,1.26,0,0,0,63.3,108c0-.7-.35-1-1-.85a3,3,0,0,0-.82.37A.51.51,0,0,0,61.39,108.27Z"/><path d="M83.82,86.23a1.66,1.66,0,0,0,1.28.68l.68-.72a4.28,4.28,0,0,1-.23-.69c-.1-.62-.51-.69-1-.62l.13.28a4,4,0,0,0-.84.45A.43.43,0,0,0,83.82,86.23Z"/><path d="M95.82,108.83c.36-.24.69-.53,1-.8l-.59-1.11c-1.06,0-1.54.48-1.45,1.4A.65.65,0,0,0,95.82,108.83Z"/><path d="M79.34,109.09c.18-.39.39-.74.52-1.12a1.4,1.4,0,0,0,0-.76.42.42,0,0,0-.53-.32,2.68,2.68,0,0,0-1.63,1C78.23,108.42,78.59,109,79.34,109.09Z"/><path d="M64.29,95.15l1.23.32c.33-.41.62-.76.89-1.12s.16-.43-.27-.87L64.29,94Z"/><path d="M70,109.93c-.14,0-.38.29-.35.37.18.52,0,1.16.56,1.56l1.14-.41c.18,0,.31-.17.22-.31-.26-.38,0-.8-.1-1.23A14.18,14.18,0,0,0,70,109.93Z"/><path d="M71.8,105.11c-.13-.32-.31-.61-.48-.94a1.09,1.09,0,0,0-1.32.3,1,1,0,0,0-.07,1.16,4.78,4.78,0,0,1,.59.07c.22,0,.43.14.65.18A.54.54,0,0,0,71.8,105.11Z"/><path d="M102.94,71.55c0,.74,0,.82.33,1a1.34,1.34,0,0,0,1.4.35c.09-.47.17-.94.27-1.48l-.89-.47Z"/><path d="M53.54,104.1c-.32.51-.51,1-.07,1.47.09.11-.15.36.11.54h.72l1-1.08A2.17,2.17,0,0,0,53.54,104.1Z"/><path d="M86.7,100.21a2.6,2.6,0,0,0,.82.36c.38.09.63-.09.78-.48.08-.21.13-.43.22-.71-.15-.25-.32-.54-.55-.91-.51.26-.89.43-1.24.65A.7.7,0,0,0,86.7,100.21Z"/><path d="M109.12,112a.81.81,0,0,0,1,.05.7.7,0,0,0,.21-.73c-.08-.37-.17-.74-.28-1.1a2.56,2.56,0,0,0-.21-.4l-1.26.62a3.43,3.43,0,0,0,.09.82A2.45,2.45,0,0,0,109.12,112Z"/><path d="M53.71,110.14c-.15.25-.26.53-.43.89.56.35.92.77,1.54.67a.64.64,0,0,0,.6-.8,1.6,1.6,0,0,0-1-1A.65.65,0,0,0,53.71,110.14Z"/><path d="M73.53,107.08a.67.67,0,0,0-.72.6c-.07.32-.12.65-.19,1a2.5,2.5,0,0,0,1.64.11,2.34,2.34,0,0,1,0-.65,2.66,2.66,0,0,1,.38-.62A1.39,1.39,0,0,0,73.53,107.08Z"/><path d="M89.87,97.8a.89.89,0,0,0,1-.78c0-.38,0-.76,0-1.2-.45,0-.75,0-1,0a.49.49,0,0,0-.52.49,5.65,5.65,0,0,0,0,.92A.58.58,0,0,0,89.87,97.8Z"/><path d="M84.91,107.36c-.15-.13,0-.48-.41-.53a3.15,3.15,0,0,1-.25.69,3.85,3.85,0,0,1-.62.56c.2.32.36.63.56.89a.62.62,0,0,0,.41.17,1.26,1.26,0,0,0,1.13-1,.71.71,0,0,0-.23-.48C85.33,107.54,85.08,107.5,84.91,107.36Z"/><path d="M117.66,102.11c0,.45-.38.51-.61.84.7.78.7.78,1.4.32a2.91,2.91,0,0,0,.3-.17,1.07,1.07,0,0,0,.24-1.32.74.74,0,0,0-.38-.23A.72.72,0,0,0,117.66,102.11Z"/><path d="M58.77,105.09a.47.47,0,0,0,.08.62,1.58,1.58,0,0,0,1.14.43c.41,0,.41-.39.57-.62a4.4,4.4,0,0,1,.35-.39,1.28,1.28,0,0,0-.15-.24A1.19,1.19,0,0,0,58.77,105.09Z"/><path d="M62.4,103.36l1.08-.71a5.37,5.37,0,0,1-.36-.62,5.5,5.5,0,0,1-.16-.67,4.54,4.54,0,0,1-.71.15c-.56,0-.81.33-.93.95C61.7,102.77,62,103.17,62.4,103.36Z"/><path d="M107.71,69a1.68,1.68,0,0,0-.15-.3c-.45-.6-.93-.64-1.39-.09a4.83,4.83,0,0,0-.36.56l.47,1C107.37,70.24,107.37,70.24,107.71,69Z"/><path d="M101.47,101.63c-.27.22-.61.3-.86.52a.74.74,0,0,0-.22.48.85.85,0,0,0,.67.69c.71,0,1.4-.28,1.37-1.15A.61.61,0,0,0,101.47,101.63Z"/><path d="M53.3,99.75a5.44,5.44,0,0,0,.67.76,6.93,6.93,0,0,0,.91.48,2.59,2.59,0,0,0-.51-2.43C53.43,99.08,53.43,99.08,53.3,99.75Z"/><path d="M121.11,98.79a.38.38,0,0,0-.3.11c-.32.38-.62.77-1,1.22l.25.56a.65.65,0,0,0,.15.18c.22.23.67.25.8,0,.28-.55.71-1.09.38-1.77A.65.65,0,0,0,121.11,98.79Z"/><path d="M89.2,75.06a2.57,2.57,0,0,1,1,.41c.29.2.43.12.84-.34a4.53,4.53,0,0,0-.28-.59c-.18-.28-.41-.53-.62-.8a1.7,1.7,0,0,0-1.38,1C88.93,74.84,89.05,75,89.2,75.06Z"/><path d="M94.94,97.05a2.26,2.26,0,0,1,.72,1.16,3.88,3.88,0,0,1,.38-.56,7.37,7.37,0,0,1,.6-.48c0-.28,0-.61,0-.92C95.36,96,95.36,96,94.94,97.05Z"/><path d="M85.51,96.72c-.22-.59-.4-1.15-1.23-.91-.08.19-.15.4-.25.6a4.79,4.79,0,0,1-.36.57c.31.31.58.56.93.89Z"/><path d="M109,83.81c.82.43.82.43,1.4-.22l-.72-1.25-.79-.13C108.45,82.8,108.89,83.3,109,83.81Z"/><path d="M109.7,82.32v0h0Z"/><path d="M90.37,107.08c-.25,0-.46.16-.48.4a.88.88,0,0,0,.13.61,5.68,5.68,0,0,0,.91.64,3.53,3.53,0,0,0,.33-.61C91.46,107.41,91.12,107,90.37,107.08Z"/><path d="M65,93.14s-.13-.11-.17-.09a1.28,1.28,0,0,0-.23.19c.09.05.18.13.2.11A1,1,0,0,0,65,93.14Z"/><path d="M122.53,87.05c0-.2,0-.38-.08-.55l-.39.55Z"/><path d="M122.46,86.49h0v0Z"/><path d="M110.37,82.36s0-.06,0-.08a.25.25,0,0,0-.37-.1l-.27.15c.1,0,.19.13.29.13A1.36,1.36,0,0,0,110.37,82.36Z"/><path d="M109.7,82.32v0h0Z"/><polygon points="89.8 108.75 89.87 108.8 89.89 108.73 89.8 108.75"/><path d="M94.56,115.05a3,3,0,0,0,1.4.09,5,5,0,0,1,.53-.43c.41-.23.41-.6.37-1H94.78C94.71,114.15,94.64,114.58,94.56,115.05Z"/><path d="M141.33,113.72h-2.55a1.67,1.67,0,0,0,1.23,1.43c.26-.12.49-.26.74-.35a.87.87,0,0,0,.33-.19c.09-.21.17-.43.26-.64A2.18,2.18,0,0,0,141.33,113.72Z"/><path d="M78.66,115.13c.5-.32,1-.66,1.56-1,.1-.08.13-.26.2-.39H77.87c.07.29.12.59.21.87A.64.64,0,0,0,78.66,115.13Z"/><path d="M105.66,113.72a.86.86,0,0,0,.41.79,2.14,2.14,0,0,0,1.83.34,1.62,1.62,0,0,0-.15-1.13h-2.09Z"/><path d="M69.07,113.72H67c-.06.22-.11.43-.19.72.25.11.48.23.72.31,1,.35,1.22.23,1.55-.8A.59.59,0,0,0,69.07,113.72Z"/><path d="M117.72,114.8a.84.84,0,0,0,1.39-.74c0-.11,0-.22,0-.34h-2.31A1.77,1.77,0,0,0,117.72,114.8Z"/><path d="M133.46,113.83a.91.91,0,0,0,.61,1,.83.83,0,0,0,1-.16c.14-.12.33-.19.48-.3a.62.62,0,0,0,.19-.62h-2.32A.45.45,0,0,1,133.46,113.83Z"/><path d="M100.29,113.94a.47.47,0,0,0,0,.63c.19.2.38.41.68.35.47-.1.93-.23,1.52-.37a5,5,0,0,0-.37-.49,3.68,3.68,0,0,0-.44-.34h-1.38A1.19,1.19,0,0,1,100.29,113.94Z"/><path d="M113.77,113.72h-2.55l.77,1.17a3,3,0,0,0,1.62-.66C113.79,114.1,113.78,113.91,113.77,113.72Z"/><path d="M122.1,113.72a11.44,11.44,0,0,0,1,1.09.71.71,0,0,0,.65.09c.5-.21,1-.52.91-1.18H122.1Z"/><path d="M127.89,113.72l.44.86a3.08,3.08,0,0,0,.62.07c.62-.1,1.28-.15,1.49-.93Z"/><path d="M61.71,114.29a3.49,3.49,0,0,1,.52.63c.46-.41,1.13-.51,1.29-1.2H61.2A1.13,1.13,0,0,0,61.71,114.29Z"/><path d="M72.32,113.72a1.61,1.61,0,0,0,1.32,1c.44.08.69-.14.77-.63a2.08,2.08,0,0,0,0-.35H72.32Z"/><path d="M84.35,114.91a1,1,0,0,0,.7-1.19H83.43A7,7,0,0,0,84.35,114.91Z"/><path d="M58,113.72H55.87c.05.14.05.36.15.41.35.21.73.37,1.09.55C57.41,114.33,57.68,114,58,113.72Z"/><path d="M89.86,114.5a1.85,1.85,0,0,0,.63.23l.58-1H89.22A6,6,0,0,0,89.86,114.5Z"/><path d="M132.15,123.28a.86.86,0,0,0,.67-.38c.56-.68.53-1-.12-1.65l-.25-.24a1,1,0,0,0-1.17-.17,1,1,0,0,0-.6.9,2.12,2.12,0,0,0,.67,1.54Z"/><path d="M101.32,140.31c-.2.38-.62.27-.87.5l-.33.9c0,.14.07.22.1.29.14.26.21.64.56.67a6.19,6.19,0,0,0,1.36,0c.1,0,.23-.21.27-.34a10.44,10.44,0,0,0,.2-1l-.69-.89C101.74,140.17,101.43,140.11,101.32,140.31Z"/><path d="M134.77,120.38a1.26,1.26,0,0,0,1.18-.9.94.94,0,0,0-.78-1.27,1.61,1.61,0,0,0-1.38.37c-.1.41-.2.81-.32,1.28l.56.58C134.33,120.42,134.55,120.38,134.77,120.38Z"/><path d="M91.47,118.76c-.3-.15-.63-.35-1-.49a1,1,0,0,0-1,.08,1.55,1.55,0,0,0-.71.89l.58.93c.32.1.65.21,1,.29.14,0,.38,0,.43-.06C91.1,119.92,91.75,119.57,91.47,118.76Z"/><path d="M123,129.39c-.09.06-.17.15-.26.22.48-.09,1-.19,1.43-.31A1,1,0,0,0,123,129.39Z"/><path d="M131,115.2a12.15,12.15,0,0,0-.17,1.49,1.64,1.64,0,0,0,.27.85.87.87,0,0,0,1.45.06,1.73,1.73,0,0,0,.45-1.14.75.75,0,0,0-.48-.81C132.07,115.49,131.6,115.37,131,115.2Z"/><path d="M99.3,139.56a.72.72,0,0,0,.59-.74c0-.71-.69-1.17-1.19-1.36a.52.52,0,0,0-.42.12,6.87,6.87,0,0,0-.68.75.94.94,0,0,0,.12,1.32A3.12,3.12,0,0,0,99.3,139.56Z"/><path d="M136.71,117.63c.81-.14,1.64-.07,2.06-1.07-.27-1-.27-1-1.29-1.36l-.4.17a.86.86,0,0,0-.6,1c0,.22,0,.46,0,.68A3.77,3.77,0,0,0,136.71,117.63Z"/><path d="M108,135.46a1.28,1.28,0,0,0-1.48-.57,1,1,0,0,0-.74.65c-.11.24.09.42.18.62a6.23,6.23,0,0,1,.28,1,2.33,2.33,0,0,0,1.23,0c.4-.13.28-.59.49-.85a2.43,2.43,0,0,0,.24-.35C108.07,135.74,108,135.59,108,135.46Z"/><path d="M103.85,134.23a.76.76,0,0,0,.76.12,9.13,9.13,0,0,0,.84-.46c-.13-.43-.2-.73-.31-1a1.16,1.16,0,0,0-1.66-.7,2,2,0,0,0-.51.5l.13,1.06A6.45,6.45,0,0,1,103.85,134.23Z"/><path d="M114.11,123l1.09.53c.66-.37.82-1.06,1.44-1.56-.37-.31-.65-.56-1-.79s-1.21-.25-1.31.15S113.88,122.36,114.11,123Z"/><path d="M136.32,121.83l0,.14c.25-.27.49-.55.73-.83a3.32,3.32,0,0,0-.71.59S136.34,121.8,136.32,121.83Z"/><path d="M100.63,131.49a.78.78,0,0,0,1.33,0c.17-.38.4-.74.63-1.15-.12-.12-.24-.27-.37-.4-.83-.83-1.16-.81-2,.11a1.57,1.57,0,0,0-.16.36C100.28,130.73,100.46,131.11,100.63,131.49Z"/><path d="M117.06,129.89a.55.55,0,0,0-.14.17c.3,0,.59,0,.89,0s.87,0,1.3,0A1.14,1.14,0,0,0,117.06,129.89Z"/><path d="M102.17,135.53a2.21,2.21,0,0,0-.44-.52.83.83,0,0,0-1.29.19c-.18.29-.3.61-.46.93.19.28.36.52.5.75l1,.23c.38-.3.91-.32,1.1-.77C102.46,136,102.33,135.78,102.17,135.53Z"/><path d="M95.12,118.47c-.18.12-.36.27-.51.38v1.05c.54.39,1,.82,1.68.51l.77-.93c-.13-.25-.23-.49-.37-.72A1,1,0,0,0,95.12,118.47Z"/><path d="M103.88,140a1.68,1.68,0,0,0,1.53-.81c-.1-.4-.19-.77-.28-1.15a1.34,1.34,0,0,0-1.38-.24,1.83,1.83,0,0,0-.62,1.53C103.21,139.74,103.39,139.94,103.88,140Z"/><path d="M111.47,125.49c.18.48.34.58.91.57a1.91,1.91,0,0,0,.28,0c.56-.12.87-.43.89-.88a1,1,0,0,0-.73-1.15l-.44-.13a.86.86,0,0,0-1.12,1A4.92,4.92,0,0,0,111.47,125.49Z"/><path d="M120.2,117.64a1.35,1.35,0,0,0,1.19-.12.82.82,0,0,0,.43-.75,4.19,4.19,0,0,0-.23-1,.43.43,0,0,0-.23-.25,1.44,1.44,0,0,0-1.31,0,.85.85,0,0,0-.29,1.28C119.9,117.12,120.05,117.37,120.2,117.64Z"/><path d="M69.93,128.43c0,.1.12.2.19.33l.81.23a2.24,2.24,0,0,0,.89-1.35,2.87,2.87,0,0,0-1.32-1.3C69.36,127.2,69.34,127.27,69.93,128.43Z"/><path d="M104.5,115.41l-.43-.19a2,2,0,0,0-.53.25,1.73,1.73,0,0,0-.46.62c0,.13.13.33.15.5a1.4,1.4,0,0,1,0,.54.4.4,0,0,0,.31.53,3.94,3.94,0,0,0,1,0c.12,0,.33-.17.33-.28,0-.55.52-1.06.22-1.67Z"/><path d="M130.13,125.6a2.2,2.2,0,0,0,.29-.4c-.17-.38-.32-.68-.45-1a.67.67,0,0,0-.61-.45,1,1,0,0,0-1.2.82c-.07.26-.11.52-.18.91.26.13.49.27.73.38C129.38,126.18,129.58,126.14,130.13,125.6Z"/><path d="M111.76,140.55a1.28,1.28,0,0,0-.14,2,1.13,1.13,0,0,0,1.69-.55c.06-.26.08-.53.15-.93-.33-.19-.62-.38-.92-.54A.78.78,0,0,0,111.76,140.55Z"/><path d="M93.56,139.89c.41-.27.68-.59.42-1.15a1.61,1.61,0,0,1,0-.62,1.41,1.41,0,0,0-1.94,0c0,.8-.23,1.7,1,2.07A4.9,4.9,0,0,0,93.56,139.89Z"/><path d="M104.86,143.73a1,1,0,0,0-1.57-.29,1.71,1.71,0,0,0-.29.32h1.88Z"/><path d="M133.83,124a2.69,2.69,0,0,1-.17.5c.22-.17.42-.35.63-.52Z"/><path d="M83.94,142.61l.77.37a1.86,1.86,0,0,1,1-1.26.53.53,0,0,0,0-.95c-.28-.2-.58-.37-1-.64a9.18,9.18,0,0,0-.72.61.85.85,0,0,0-.28.48,10.13,10.13,0,0,0,.08,1.22A.28.28,0,0,0,83.94,142.61Z"/><path d="M115,143.26c-.06,0-.12.09-.17.13v.37h1.47c0-.15,0-.3-.09-.48A2.6,2.6,0,0,0,115,143.26Z"/><path d="M74.28,129.76c-.87-.72-1.47-.57-1.91.48a1.65,1.65,0,0,0,0,.27,3.61,3.61,0,0,0,.25.3c.62.12,1.26.22,1.91.3A1.07,1.07,0,0,0,74.28,129.76Z"/><path d="M90.85,131.81c.13,0,.3-.18.46-.29-.13-.3-.36-.57-.36-.8-.16.34-.34.68-.52,1Z"/><path d="M120.1,126.65l-.54,1.46c.23.4.43.68.81.71a1.7,1.7,0,0,0,1.43-.68C121.46,126.57,121.35,126.48,120.1,126.65Z"/><path d="M102.37,119.25a3.73,3.73,0,0,0-.4-.7,1,1,0,0,0-.23-.19l-1-.06a3.9,3.9,0,0,0-.28.53,4.13,4.13,0,0,0-.15.78.78.78,0,0,0,.82.88,2.42,2.42,0,0,0,.88-.21A.71.71,0,0,0,102.37,119.25Z"/><path d="M109,123a2.93,2.93,0,0,0,1.55-.1c0-.22,0-.41,0-.6.14-1,.1-1-.84-1.46a6.1,6.1,0,0,0-.58.28,1.26,1.26,0,0,0-.64,1.44A.51.51,0,0,0,109,123Z"/><path d="M109,128.51l.55.19.88-.46c.09-.26.17-.51.27-.81-.49-.45-.77-1.13-1.54-.87s-.82.75-.82,1.45Z"/><path d="M85.34,129.57c-.26-.15-.55-.26-.85-.4l-.79.6c0,.27,0,.54,0,.8q1-.25,2-.6A.81.81,0,0,0,85.34,129.57Z"/><path d="M123.29,126a6.12,6.12,0,0,0,1.55-.58c-.24-.86-.5-1.62-1.74-1.56-.7.39-.55,1.11-.45,1.79A.51.51,0,0,0,123.29,126Z"/><path d="M71.22,115.88l-.78-.12a1.08,1.08,0,0,0-1,.51c-.14.29.11.82.5,1a3,3,0,0,0,.31.15l.85.23,1.06-.87A1,1,0,0,0,71.22,115.88Z"/><path d="M54.33,115.81c.2.49.42,1,.65,1.43.08-.17.14-.34.2-.48A3.63,3.63,0,0,0,54.33,115.81Z"/><path d="M92.37,115.74l-.56.85c.27.57.47,1.16,1.21,1.12s1.13-.65,1.29-1.52C93.67,115.86,93.1,115.47,92.37,115.74Z"/><path d="M88,143.46a.77.77,0,0,0-.94-.16,1.12,1.12,0,0,0-.48.46h1.8l-.3-.23A.27.27,0,0,1,88,143.46Z"/><path d="M113.52,119.83c0-.41-.09-.81-.14-1.21-.4-.34-.77-.11-1.17,0a1.61,1.61,0,0,0-1.1.92c.16.3.31.6.44.86A1.69,1.69,0,0,0,113.52,119.83Z"/><path d="M121,121a5.84,5.84,0,0,0-.7.06l-.77,1.16c.13.44.33.71.63.78a3.55,3.55,0,0,0,1,0,.56.56,0,0,0,.35-.26,2.26,2.26,0,0,0,.3-.74C122,121.31,121.74,121,121,121Z"/><path d="M95.16,131.61c.66.11,1.06-.29,1.49-.66,0-.46-.07-.87-.11-1.34H94.75a1.7,1.7,0,0,0-.16,1.52C94.63,131.43,94.86,131.56,95.16,131.61Z"/><path d="M106.2,140.58a1.25,1.25,0,0,0-.37.16v1.66a3.72,3.72,0,0,0,1.69,0l.42-1.09c-.19-.42-.34-.77-.49-1.12A3.61,3.61,0,0,1,106.2,140.58Z"/><path d="M99.42,127.36c-.21-.83-.79-1-1.41-.45a1.42,1.42,0,0,0-.42,1.35.6.6,0,0,0,.6.57,2.4,2.4,0,0,0,1.46-.4C99.56,128,99.5,127.68,99.42,127.36Z"/><path d="M71,123.24a.53.53,0,0,0,.67-.45,7.08,7.08,0,0,0,0-1A.91.91,0,0,0,71,121a.79.79,0,0,0-.84.21c-.6.52-.63.63-.35,1.47a2.55,2.55,0,0,1,.1.25C70.29,123.06,70.61,123.17,71,123.24Z"/><path d="M117.67,123.75a1.75,1.75,0,0,0-.58.33c-.34.29-.41.59-.09.88s.23.66.28,1c.7.28,1.18-.13,1.68-.45,0-.31-.28-.49-.21-.86C118.91,123.9,118.39,123.51,117.67,123.75Z"/><path d="M99.09,117.5a1.91,1.91,0,0,0,.56-1.06l-.83-1.09c-1.18,0-1.29.64-1.33,1.39a5.81,5.81,0,0,0,.4.66A.8.8,0,0,0,99.09,117.5Z"/><path d="M76,115.42c-.4.06-.64.28-.62.68s.11.82.16,1.22l.32.19a.76.76,0,0,0,1,0,1.2,1.2,0,0,0,.4-1.42C77,115.47,76.72,115.33,76,115.42Z"/><path d="M96.12,137.16c.44,0,.5-.4.58-.74,0-.14.11-.28.18-.48L95.73,135a.7.7,0,0,0-.9,0c0,.35.19.77-.17,1.12-.18.17-.06.42.1.62C95.12,137.27,95.62,137.2,96.12,137.16Z"/><path d="M95.93,142.69a1.26,1.26,0,0,0,1.1-.48.81.81,0,0,0-.23-.94c-.36-.26-.66-.67-1.2-.61a.78.78,0,0,0-.81.49.75.75,0,0,0,.11.85A1.81,1.81,0,0,0,95.93,142.69Z"/><path d="M129.1,120.48a.91.91,0,0,0,1.11-.73,7.93,7.93,0,0,0,.13-.89,2.06,2.06,0,0,0-2.35.19c-.08,1-.08,1,.79,1.32A2,2,0,0,0,129.1,120.48Z"/><path d="M109,139.37a1.68,1.68,0,0,0,1.19.35c.45-.05.72-.34.62-.78a3.14,3.14,0,0,0-.5-1.12l-.15-.17a1.31,1.31,0,0,0-.2-.21,4.45,4.45,0,0,0-.93.45C108.29,138.44,108.33,138.94,109,139.37Z"/><path d="M94.05,122.07A2.08,2.08,0,0,0,93,120.8c-.46.12-.8.29-.84.83a3.65,3.65,0,0,1-.32.84,2.62,2.62,0,0,1,.48.17,3.73,3.73,0,0,1,.41.39.73.73,0,0,0,.92.14A.92.92,0,0,0,94.05,122.07Z"/><path d="M91.24,135.85a1.37,1.37,0,0,0-1.18-.93l-1.06.73.35,1,1.08.51c.18-.09.29-.13.38-.19C91.33,136.65,91.43,136.38,91.24,135.85Z"/><path d="M98.36,132a1.48,1.48,0,0,0-.8,1.35,1.17,1.17,0,0,0,.67,1,6.73,6.73,0,0,0,.71-.22.92.92,0,0,0,.24-1.68A7.09,7.09,0,0,0,98.36,132Z"/><path d="M60.79,121.76A1.31,1.31,0,0,0,60,121c-1.41.5-1.57.81-1,2,.37,0,.71,0,1.05,0A.81.81,0,0,0,60.79,121.76Z"/><path d="M69.05,118.92a.62.62,0,0,0-.24-.37,5.21,5.21,0,0,0-.56-.3,2.16,2.16,0,0,0-1.34.91.48.48,0,0,0,0,.64,3.84,3.84,0,0,0,.57.57.81.81,0,0,0,.87,0A1.86,1.86,0,0,0,69.05,118.92Z"/><path d="M126.93,128.25c.44-.07.58-.22.5-.56a4.21,4.21,0,0,0-.38-.94c-.11-.2-.56-.32-.72-.16-.41.37-1,.49-1.25,1.2a1.82,1.82,0,0,1,.32.18.85.85,0,0,1,.18.27c0,.1.07.22.13.32a.59.59,0,0,0,.2.19l.59-.19v0A.54.54,0,0,1,126.93,128.25Z"/><path d="M105.64,119.73a.76.76,0,0,0,.66.54,2.54,2.54,0,0,0,1.62-.38c.2-.5-.08-.88-.33-1.25a.52.52,0,0,0-.29-.18,1.59,1.59,0,0,0-1.53.53A.71.71,0,0,0,105.64,119.73Z"/><path d="M81.69,123.22l.83-.27c.14-.33.26-.6.37-.87s.08-.52-.21-.66a1.68,1.68,0,0,0-2,.19A1.53,1.53,0,0,0,81.69,123.22Z"/><path d="M124.34,120.14a.67.67,0,0,0-.11-1.2c-.25-.12-.45-.21-.54-.51a.37.37,0,0,0-.58-.12,1.38,1.38,0,0,0-.61,1.06,1,1,0,0,0,.88,1.1A2.08,2.08,0,0,0,124.34,120.14Z"/><path d="M117.67,118.41l-.82,1c.14.25.28.51.45.76a.68.68,0,0,0,1.14.12c.32-.32.59-.67.91-1C118.93,118.26,118.21,118.42,117.67,118.41Z"/><path d="M82.15,126.42c-.25.2-.53.39-.79.61a1.24,1.24,0,0,0-.45,1,.67.67,0,0,0,.44.77l1.1-.31c0-.23,0-.4,0-.57l.87-.11C82.91,127.23,82.91,126.56,82.15,126.42Z"/><path d="M93.53,127.07a3.17,3.17,0,0,0-.41-.21,1,1,0,0,0-.57-.06c-.15.44-.31.91-.5,1.41a.75.75,0,0,0,.22.49.66.66,0,0,0,.32.12c.33,0,.67,0,1,0,.13-.19.23-.3.3-.43C94.2,127.75,94.12,127.44,93.53,127.07Z"/><path d="M80.11,130.6a1.07,1.07,0,0,0-1-1,1.27,1.27,0,0,0-1.2,1,.7.7,0,0,0,.29.7c.55,0,1.1,0,1.65-.08A1,1,0,0,0,80.11,130.6Z"/><path d="M93,132.15a.71.71,0,0,0-1,.37,9.2,9.2,0,0,0-.28.95,1.36,1.36,0,0,0,1.15.69c.61.06.81-.09.93-.7,0-.22.08-.44.12-.65l-.87-.61Z"/><path d="M125.18,116.62a1.65,1.65,0,0,0,.87,1.07l.5-.17.53-.18c.19-.4.37-.77.54-1.14C126.38,115.35,126.22,115.38,125.18,116.62Z"/><path d="M104,128.85c.24-.11.43-.18.6-.28-.26-.66-.48-1.27-.66-1.82l-.62,0a1.78,1.78,0,0,0-.09,1.57C103.35,128.53,103.75,128.66,104,128.85Z"/><path d="M81.18,117.52a1,1,0,0,0,1.28-.17c0-.09,0-.2.06-.31s0-.23.07-.34c.2-.75.2-.76-.4-1.09-.19-.11-.41-.18-.58-.26-.25.15,0,.47-.38.55s-.34.29-.44.49C80.53,116.91,80.68,117.22,81.18,117.52Z"/><path d="M65.32,115.54c0-.08-.29-.1-.43-.07a2.71,2.71,0,0,0-.52.24.55.55,0,0,0-.15,1c.15.16.31.24.34.53a.64.64,0,0,0,1.1.35,14.24,14.24,0,0,0,.88-1.19A2.38,2.38,0,0,1,65.32,115.54Z"/><path d="M96.75,124.62a1,1,0,0,0-1.19-.64.71.71,0,0,0-.72.45A1,1,0,0,0,95,125.6a.67.67,0,0,0,.38.2,2.27,2.27,0,0,0,1.8-.58A3.71,3.71,0,0,1,96.75,124.62Z"/><path d="M110.25,115.7c-.13-.18-.27-.35-.42-.54a2,2,0,0,0-1.31,1.43l1.32,1.12C110.81,117,110.88,116.57,110.25,115.7Z"/><path d="M92.69,143.63l-.15.13h1.29a1.7,1.7,0,0,0,0-.22C93.39,143.41,93,143.32,92.69,143.63Z"/><path d="M57.85,119.41c.19-.7-.11-1.11-.86-1a6.6,6.6,0,0,0-.87.15c0,.24-.06.45-.08.65.3.49.62,1,1,1.45A2,2,0,0,0,57.85,119.41Z"/><path d="M77.48,128.14c-.14-.52-.27-1-.42-1.59a4.73,4.73,0,0,1-.76.4,6.36,6.36,0,0,1-.89.15c-.06.39-.11.73-.17,1.11l1.31.65Z"/><path d="M109.63,143.3l-.73.46h1.46Z"/><path d="M87.62,128.64a2.31,2.31,0,0,1,.48-.28.65.65,0,0,0,.44-.71c0-.18,0-.37-.07-.56l-.91-.45c-.91.41-.91.41-1.21,1.26.2.23.36.44.54.63C87.21,128.89,87.24,128.89,87.62,128.64Z"/><path d="M126.44,123.26c.45,0,.86-.49.73-.86s0-.74,0-1.13a8.31,8.31,0,0,0-.83-.06,3.92,3.92,0,0,0-.52.06c-.24.72-.42,1.28-.61,1.84A1.92,1.92,0,0,0,126.44,123.26Z"/><path d="M97.59,143.76H99a2,2,0,0,0-1-.49A.73.73,0,0,0,97.59,143.76Z"/><path d="M79.23,120.18a2.62,2.62,0,0,0,.75-.49.82.82,0,0,0-.22-1.22l-.82-.13a1.53,1.53,0,0,0-1,.94.76.76,0,0,0,.08.53A.89.89,0,0,0,79.23,120.18Z"/><path d="M114.89,115.56a.58.58,0,0,0-.63.52c0,.12,0,.23,0,.35h0v.23c0,.71.42,1,1,.76a2.42,2.42,0,0,0,.85-.56.71.71,0,0,0-.46-1.2C115.43,115.62,115.16,115.58,114.89,115.56Z"/><path d="M62.2,123.76a2.53,2.53,0,0,0-1,.92c.35.42.66.77,1,1.16l1-.33a6,6,0,0,0,.22-.61c.16-.5.07-.72-.39-.89C62.76,123.9,62.47,123.84,62.2,123.76Z"/><path d="M88.5,117.1a1.51,1.51,0,0,0-.51-1.41,1,1,0,0,0-1.21-.16c-.11.56-.2,1-.29,1.51C87.32,117.47,87.32,117.47,88.5,117.1Z"/><path d="M60,115.61c-.57-.28-.8-.21-1.1.35a1.16,1.16,0,0,0,.3,1.31.86.86,0,0,0,1.35-.24c.13-.18.25-.37.39-.58A2.6,2.6,0,0,0,60,115.61Z"/><path d="M64.65,121.29a1,1,0,0,0-.27,1.32c.14.22.33.4.51.63.21-.14.38-.36.56-.37.67,0,.92-.42,1.08-1.14a12.63,12.63,0,0,0-1.35-.57A.75.75,0,0,0,64.65,121.29Z"/><path d="M99,122.82a.77.77,0,0,0,.21-1.24,1,1,0,0,0-1.51-.11,5.1,5.1,0,0,0-.54.76C98,123.14,98.29,123.21,99,122.82Z"/><path d="M63.44,118.57c-.61-.42-1.24-.13-1.9-.06-.07.38-.13.74-.19,1.07.66.53.66.53,1.86.35A1.31,1.31,0,0,0,63.44,118.57Z"/><path d="M82.55,143.76l-.88-.35-.39.35Z"/><path d="M105.68,125.17c.47.66.94,1.12,1.77.79a2.58,2.58,0,0,0,.18-1.89C106.55,123.69,106.28,124.68,105.68,125.17Z"/><path d="M90.48,140.67a1.36,1.36,0,0,0-1.15.39c-.16,1.37-.06,1.48,1.27,1.44l.38-.06a2.46,2.46,0,0,1,0-.55,3.77,3.77,0,0,1,.28-.57C91.08,141,90.87,140.71,90.48,140.67Z"/><path d="M76.08,123l1.34-.8c0-.87-.82-.85-1.2-1.29a1.68,1.68,0,0,0-1.07,1.33C75.45,122.51,75.62,122.93,76.08,123Z"/><path d="M87.84,123.16c.11,0,.23-.14.36-.23-.12-.21-.22-.37-.33-.57l.52-.39c-.1-.83-.81-.78-1.36-1-.15-.05-.35.19-.31.4s.11.35.17.57l-.37.25c-.12.12-.23.26-.35.39A2.81,2.81,0,0,0,87.84,123.16Z"/><path d="M73.75,125.81a.59.59,0,0,0,.66-.72.93.93,0,0,0-.83-.93,8.67,8.67,0,0,0-.89-.13c-.07,0-.14,0-.25.09-.1.25-.2.53-.31.84A1.91,1.91,0,0,0,73.75,125.81Z"/><path d="M89,125c.16.28.34.61.48.88,1,0,1.4-.44,1.42-1.31a2.24,2.24,0,0,1,.14-.44l-.65-.32C89.84,124.05,89.21,124.2,89,125Z"/><path d="M67.36,124.12a3.07,3.07,0,0,0-.33,1,.58.58,0,0,0,.67.71,2.45,2.45,0,0,0,1-.37c.32-.23.21-.63.16-1-.31-.17-.57-.32-.85-.45A.45.45,0,0,0,67.36,124.12Z"/><path d="M78.77,125.7a.46.46,0,0,0,.74.23,3,3,0,0,0,.9-1,2.25,2.25,0,0,0-1.48-1.06c-.15,0-.33.14-.49.21.06.39.09.73.16,1.06A2,2,0,0,0,78.77,125.7Z"/><path d="M83.79,125.15a2.81,2.81,0,0,1,.09.82l1.09-.22c.5-1.43.5-1.43-.6-2C83.79,124.13,83.52,124.51,83.79,125.15Z"/><path d="M74.25,119a.79.79,0,0,0-1.45-.1,2.05,2.05,0,0,0-.19.4,6.22,6.22,0,0,0,.31.89.6.6,0,0,0,.36.24c.19,0,.38,0,.41-.25s.12-.12.24-.08c.34.12.48-.14.66-.45C74.46,119.44,74.36,119.24,74.25,119Z"/><path d="M86.41,138.28c.13.46.25.85.41,1.37l1.67-.47c-.07-.75-.07-.75-.62-1.25C87.46,138.21,86.87,138,86.41,138.28Z"/><path d="M115.41,128.13a.56.56,0,0,0,.65-.43c-.22-.48-.17-1.19-1-1.35-.39.42-.94.68-1.08,1.48C114.53,128,115,128.07,115.41,128.13Z"/><path d="M105.13,122.21l-.28-.33a2.73,2.73,0,0,0-.25-.23.77.77,0,0,0-1,0,.72.72,0,0,0-.24,1.08c.11.24.21.5.61.53C104.22,122.84,105,123,105.13,122.21Z"/><path d="M101.24,124a1,1,0,0,0-.76.55,8.07,8.07,0,0,1,.34.78.63.63,0,0,0,.56.49.67.67,0,0,0,.78-.34c.11-.19.18-.4.28-.61l-.41-.47A1,1,0,0,0,101.24,124Z"/><path d="M65.7,127.17a2.5,2.5,0,0,0-.24-.34c-.59-.17-.9.13-1.17.56l0,.13c.46.29.93.56,1.4.81A1.12,1.12,0,0,0,65.7,127.17Z"/><path d="M84.69,118.66c.37.6-.48.62-.47,1,.4.3.78.51,1.25.25C85.38,119.09,85.37,119.09,84.69,118.66Z"/><path d="M114.09,126.42c0-.06.06-.11.08-.16s0-.05-.07-.07-.09,0-.09.06A1.3,1.3,0,0,0,114.09,126.42Z"/><path class="cls-4" d="M140.37,92.8h0c-.74-.86-38.54-38.55-38.54-38.55L63.25,92.8h0a25.23,25.23,0,0,0,33,38A32.37,32.37,0,0,1,83,148.27h37.67a32.39,32.39,0,0,1-13.46-18A25.23,25.23,0,0,0,140.37,92.8Z"/><path class="cls-5" d="M116.13,146.17H78.46a2.41,2.41,0,0,1-1.32-4.43,30.22,30.22,0,0,0,9.5-9.88,27.64,27.64,0,0,1-29.82-45,2.25,2.25,0,0,1,.21-.24L95.59,48A2.41,2.41,0,0,1,99,48c6.17,6.15,36.41,36.31,38.55,38.55l.12.13a27.65,27.65,0,0,1-30.32,44.13,30.12,30.12,0,0,0,10.1,10.91,2.41,2.41,0,0,1-1.32,4.43Zm-30.85-4.82h24a34.59,34.59,0,0,1-8.94-14.95,2.42,2.42,0,0,1,3.68-2.66,22.81,22.81,0,0,0,30-33.85c-1-1-25.42-25.45-36.75-36.75L60.65,89.78a2,2,0,0,1-.19.22,22.82,22.82,0,0,0,29.85,34.35A2.41,2.41,0,0,1,94.06,127,34.65,34.65,0,0,1,85.28,141.35Z"/><path class="cls-3" d="M133,60.67h-.11a1.6,1.6,0,0,1-1.59-1.5,18.64,18.64,0,0,0-17.61-17.61,1.59,1.59,0,0,1-1.5-1.59v-.11a1.58,1.58,0,0,1,1.5-1.58A18.65,18.65,0,0,0,131.3,20.67a1.6,1.6,0,0,1,1.59-1.5H133a1.58,1.58,0,0,1,1.58,1.5A18.66,18.66,0,0,0,152.2,38.28a1.57,1.57,0,0,1,1.49,1.58V40a1.58,1.58,0,0,1-1.49,1.59,18.65,18.65,0,0,0-17.62,17.61A1.58,1.58,0,0,1,133,60.67ZM120.78,39.92a21.82,21.82,0,0,1,12.16,12.16A21.85,21.85,0,0,1,145.1,39.92a21.88,21.88,0,0,1-12.16-12.16A21.85,21.85,0,0,1,120.78,39.92Z"/><path class="cls-3" d="M51.45,70.49h-.07a1.21,1.21,0,0,1-1.21-1.14A12.65,12.65,0,0,0,38.23,57.41a1.2,1.2,0,0,1-1.14-1.2v-.08a1.2,1.2,0,0,1,1.14-1.2A12.65,12.65,0,0,0,50.17,43a1.21,1.21,0,0,1,1.21-1.14h.07A1.21,1.21,0,0,1,52.66,43,12.65,12.65,0,0,0,64.6,54.93a1.2,1.2,0,0,1,1.14,1.2v.08a1.2,1.2,0,0,1-1.14,1.2A12.65,12.65,0,0,0,52.66,69.35,1.21,1.21,0,0,1,51.45,70.49Zm-8-14.32a15.09,15.09,0,0,1,8,8,15.07,15.07,0,0,1,8-8,15.07,15.07,0,0,1-8-8A15.09,15.09,0,0,1,43.42,56.17Zm21.11,0Z"/><path class="cls-3" d="M149.69,76.33v-.07a1,1,0,0,1,.95-1,10.48,10.48,0,0,0,9.91-9.91,1,1,0,0,1,1-.95h.06a1,1,0,0,1,1,.95,10.5,10.5,0,0,0,9.92,9.91,1,1,0,0,1,1,1v.07a1,1,0,0,1-1,1,10.51,10.51,0,0,0-9.92,9.92,1,1,0,0,1-1,.94h-.06a1,1,0,0,1-1-.94,10.49,10.49,0,0,0-9.91-9.92A1,1,0,0,1,149.69,76.33Zm11.9-6.68a12.58,12.58,0,0,1-6.65,6.65,12.52,12.52,0,0,1,6.65,6.64,12.47,12.47,0,0,1,6.64-6.64A12.52,12.52,0,0,1,161.59,69.65Zm0,17.54Z"/><path class="cls-3" d="M49.47,179.41l-1.6-1.69a7.57,7.57,0,0,0-.7-.67.42.42,0,0,0-.35-.06c-.28,0-.52.37-.71.94l-1.26,3.77c-.25.72-.6,1.13-1.07,1.23a1.26,1.26,0,0,1-.86-.14,4,4,0,0,1-1-.85l-4.69-5.12a9.45,9.45,0,0,0-1.75-1.57,2.63,2.63,0,0,0-.93-.19.89.89,0,0,1-.49-.23,1,1,0,0,1-.28-.5c-.12-.6.26-1.12,1.14-1.55a12.79,12.79,0,0,1,3-1q3.73-.76,4,.63a1.65,1.65,0,0,1-.2.86.37.37,0,0,0,0,.23,4,4,0,0,0,.81,1.17c.56.69,1,1,1.28.94s.36-.27.54-.72a2,2,0,0,0,.21-1,.9.9,0,0,0-.3-.54,4.77,4.77,0,0,0-1-.51.83.83,0,0,1-.53-.59c-.13-.61.42-1.13,1.63-1.57A16.07,16.07,0,0,1,47,170a7.73,7.73,0,0,1,2.61-.22,1,1,0,0,1,1,.8,1,1,0,0,1,0,.45,4.51,4.51,0,0,1-.38.69.51.51,0,0,0-.06.39,4.37,4.37,0,0,0,.81,1.22c.44.53.78.77,1,.72s.56-.51.83-1.35a3.27,3.27,0,0,0,.24-1.23,1.38,1.38,0,0,0-.52-.62,1.11,1.11,0,0,1-.41-.66.86.86,0,0,1,.38-1,5.84,5.84,0,0,1,2.17-.8,9.42,9.42,0,0,1,1.8-.2,1.4,1.4,0,0,1,.8.23.91.91,0,0,1,.42.6.81.81,0,0,1-.2.7,4.62,4.62,0,0,1-.75.49,1.84,1.84,0,0,0-.62.62,5.14,5.14,0,0,0-.46,1.22l-1.77,6.26c-.52,1.83-1.11,2.81-1.76,2.94a1.43,1.43,0,0,1-1-.34A12.1,12.1,0,0,1,49.47,179.41Z"/><path class="cls-3" d="M64.17,166.38a6.54,6.54,0,0,1,4,.34,6.07,6.07,0,0,1,2.28,1.69,5.94,5.94,0,0,1,1.29,2.64,5.38,5.38,0,0,1-1.45,4.79,8.33,8.33,0,0,1-4.74,2.73,6.54,6.54,0,0,1-4.85-.67,5.33,5.33,0,0,1-2.5-3.68,5.73,5.73,0,0,1,1.14-4.93A7.83,7.83,0,0,1,64.17,166.38Zm-.39,2.89a1,1,0,0,0-.74.54,1.61,1.61,0,0,0-.11,1.08,10.14,10.14,0,0,0,.66,1.86,15.09,15.09,0,0,0,1.06,2,1.25,1.25,0,0,0,1.37.71q1-.21.78-1.53a12.27,12.27,0,0,0-.72-2.18,9.77,9.77,0,0,0-1-1.9A1.27,1.27,0,0,0,63.78,169.27Z"/><path class="cls-3" d="M78.59,163.44a6.61,6.61,0,0,1,4,.34,6.18,6.18,0,0,1,2.28,1.69,5.94,5.94,0,0,1,1.29,2.64,5.41,5.41,0,0,1-1.45,4.79A8.33,8.33,0,0,1,80,175.63,6.54,6.54,0,0,1,75.1,175a5.28,5.28,0,0,1-2.5-3.68,5.73,5.73,0,0,1,1.14-4.93A7.88,7.88,0,0,1,78.59,163.44Zm-.39,2.89a1,1,0,0,0-.75.55,1.63,1.63,0,0,0-.1,1.07,10,10,0,0,0,.65,1.86,15.07,15.07,0,0,0,1.07,2,1.27,1.27,0,0,0,1.37.72c.7-.15,1-.66.77-1.54a11.41,11.41,0,0,0-.71-2.18,9.25,9.25,0,0,0-1.06-1.9A1.25,1.25,0,0,0,78.2,166.33Z"/><path class="cls-3" d="M93.1,162.76l1.45-.3a.87.87,0,0,1,.54,0,.37.37,0,0,1,.21.34l.19,1.41a.94.94,0,0,1,0,.56.71.71,0,0,1-.44.2l-.39.06-.36.06a.71.71,0,0,0-.6.46,2.85,2.85,0,0,0,.08,1.25,6.71,6.71,0,0,0,.69,2,1.08,1.08,0,0,0,.41.47,1.81,1.81,0,0,0,.71.16c.73.07,1.15.37,1.26.93s-.19,1.08-.94,1.5A14.31,14.31,0,0,1,92,173.08q-4.07.82-4.39-.78a.87.87,0,0,1,0-.62,2.37,2.37,0,0,1,.66-.59,1.32,1.32,0,0,0,.53-1.19,14.28,14.28,0,0,0-.3-2.5,1.26,1.26,0,0,0-.37-.77,1,1,0,0,0-.79-.06,3.3,3.3,0,0,1-.82.1c-.12,0-.2-.11-.22-.28l-.21-1.49a.8.8,0,0,1,0-.48,1.23,1.23,0,0,1,.53-.22c.29-.08.4-.25.35-.51a2.4,2.4,0,0,0-.47-.69,4,4,0,0,1-.93-1.83,3,3,0,0,1,.51-2.52,6,6,0,0,1,3.86-2.17,5.62,5.62,0,0,1,3.74.33,2.37,2.37,0,0,1,1.4,1.65,1.8,1.8,0,0,1-.25,1.38,1.7,1.7,0,0,1-1.14.78,2.74,2.74,0,0,1-1.73-.26,12,12,0,0,1-1.08-.74,1.45,1.45,0,0,0-1.12-.34.77.77,0,0,0-.51.35.85.85,0,0,0-.12.62q.19.93,2.16,1.62a4.71,4.71,0,0,1,.83.37,1.76,1.76,0,0,1,.46.45C92.77,162.78,92.9,162.8,93.1,162.76Z"/><path class="cls-3" d="M98.34,155.1a2.4,2.4,0,0,1,1.91.39,3.84,3.84,0,0,1,1.54,2.58,9.21,9.21,0,0,1,.11,2.66,9.66,9.66,0,0,1-.61,2.67c-.35.92-.69,1.41-1,1.48s-.86-.37-1.64-1.29a11.6,11.6,0,0,1-1.5-2.25,9.41,9.41,0,0,1-.86-2.33,4,4,0,0,1,.15-2.35A2.43,2.43,0,0,1,98.34,155.1Zm2.31,11a2.38,2.38,0,0,1,1.89.4,2.55,2.55,0,0,1,.7,3.56,2.55,2.55,0,0,1-3.51.78,2.6,2.6,0,0,1-.83-3.55A2.59,2.59,0,0,1,100.65,166.14Z"/><path class="cls-3" d="M117.46,166.94c-2,0-3.31-1.8-4.21-3a8.28,8.28,0,0,0-1.19-1.42,1.93,1.93,0,0,1-.66-3.8c2.44-.52,4,1.56,5,2.95a12.44,12.44,0,0,0,1,1.25,12.56,12.56,0,0,0,.4-1.55c.35-1.68.89-4.21,3.32-4.73s4,1.57,5,2.95a12.88,12.88,0,0,0,1,1.26,10.79,10.79,0,0,0,.4-1.56c.36-1.67.89-4.2,3.33-4.73s4,1.57,5,2.95a12.88,12.88,0,0,0,1,1.26,10.79,10.79,0,0,0,.4-1.56c.36-1.67.89-4.2,3.33-4.72s4,1.56,5,2.94a11.6,11.6,0,0,0,1,1.26,12.26,12.26,0,0,0,.39-1.56c.36-1.67.89-4.2,3.33-4.72s4,1.56,5,3a14.27,14.27,0,0,0,1,1.26,12.42,12.42,0,0,0,.4-1.57c.36-1.67.89-4.2,3.33-4.72s4,1.56,5,2.94a8.4,8.4,0,0,0,1.2,1.43,1.93,1.93,0,0,1,.66,3.8c-2.44.52-4-1.57-5-2.95a13,13,0,0,0-1-1.26,11.13,11.13,0,0,0-.4,1.56c-.36,1.68-.9,4.21-3.33,4.73s-4-1.57-5-3a13,13,0,0,0-1-1.26,12.71,12.71,0,0,0-.4,1.56c-.35,1.68-.89,4.2-3.33,4.73s-4-1.57-5-2.95a11.54,11.54,0,0,0-1-1.26,12.27,12.27,0,0,0-.4,1.56c-.35,1.67-.89,4.2-3.33,4.72s-4-1.56-5-2.94a11.54,11.54,0,0,0-1-1.26,12.27,12.27,0,0,0-.4,1.56c-.35,1.67-.89,4.2-3.33,4.72s-4-1.56-5-2.95a12.44,12.44,0,0,0-1-1.25,14.63,14.63,0,0,0-.4,1.55c-.35,1.68-.89,4.21-3.32,4.73A4,4,0,0,1,117.46,166.94Z"/></svg>