<?xml version="1.0" encoding="utf-8"?>
<!-- Generator: Adobe Illustrator 24.1.3, SVG Export Plug-In . SVG Version: 6.00 Build 0)  -->
<svg version="1.1" id="Layer_1" xmlns="http://www.w3.org/2000/svg" xmlns:xlink="http://www.w3.org/1999/xlink" x="0px" y="0px"
	 viewBox="0 0 144 144" style="enable-background:new 0 0 144 144;" xml:space="preserve">
<style type="text/css">
	.st0{fill:#FEDB46;}
	.st1{fill:#FFFFFF;}
	.st2{fill:#F79221;}
	.st3{fill:none;stroke:#000000;stroke-width:5;stroke-linecap:round;stroke-linejoin:round;stroke-miterlimit:10;}
	.st4{fill:#9989C1;}
	.st5{fill:none;stroke:#000000;stroke-width:4;stroke-linecap:round;stroke-linejoin:round;stroke-miterlimit:10;}
	.st6{fill:none;stroke:#FFFFFF;stroke-width:4;stroke-linecap:round;stroke-linejoin:round;stroke-miterlimit:10;}
	.st7{fill:none;stroke:#000000;stroke-width:6;stroke-linecap:round;stroke-linejoin:round;stroke-miterlimit:10;}
</style>
<path class="st0" d="M125.1,23.8C117.8,29.2,97.8,39,96.8,50l0,0.1c-6.3-3.2-13.4-5-20.9-5S61.2,46.8,55,50l0-0.1
	c-1-11-21-20.7-28.3-26.1c-7.3-5.4-16.5-15.2-15,22.3c1.5,37.6,22.5,40.4,22.5,40.4s-0.3,10.1,5.6,15.8c5.9,5.6,10.6,8.6,13.1,15.9
	c0.6,7.5,10.7,13.5,23,13.5c12.3,0,22.4-6,23-13.5c2.5-7.3,7.2-10.2,13.1-15.9c6-5.7,5.6-15.8,5.6-15.8s21.1-2.9,22.5-40.4
	C141.6,8.6,132.4,18.4,125.1,23.8z"/>
<g>
	<circle class="st1" cx="48.3" cy="84.3" r="8.3"/>
	<circle class="st1" cx="95.4" cy="84.3" r="8.3"/>
</g>
<g>
	<circle class="st2" cx="51.3" cy="87.3" r="8.3"/>
	<circle class="st2" cx="98.4" cy="87.3" r="8.3"/>
</g>
<g>
	<circle class="st3" cx="48.3" cy="84.3" r="8.3"/>
	<circle class="st3" cx="95.4" cy="84.3" r="8.3"/>
</g>
<g>
	<path class="st3" d="M51,46c-1-11-21-20.7-28.3-26.1S6.2,4.6,7.6,42.2s22.5,40.4,22.5,40.4s-0.3,10.1,5.6,15.8S46.5,107,49,114.5"
		/>
	<path class="st3" d="M92.8,46c1-11,21-20.7,28.3-26.1s16.5-15.2,15,22.3c-1.5,37.6-22.5,40.4-22.5,40.4s0.3,10.1-5.6,15.8
		s-10.7,8.6-13.2,16.1"/>
</g>
<path class="st3" d="M45.8,49.3c7.4-5.1,16.4-8.2,26-8.2c9.7,0,18.7,3,26.1,8.2"/>
<ellipse class="st3" cx="71.9" cy="115" rx="22.7" ry="14"/>
<line class="st3" x1="71.9" y1="118.4" x2="71.9" y2="129"/>
<path class="st4" d="M79.3,110.3c0,3.1-4.9,7-7.4,7c-2.9,0-7.4-3.9-7.4-7c0-3.1,3.3-4,7.4-4S79.3,107.2,79.3,110.3z"/>
<path class="st5" d="M79.3,110.3c0,3.1-4.9,7-7.4,7c-2.9,0-7.4-3.9-7.4-7c0-3.1,3.3-4,7.4-4S79.3,107.2,79.3,110.3z"/>
<g>
	<path class="st5" d="M61.6,70.3c2,3.7,3.1,7.9,3.1,12.4c0,5.1-1.5,9.9-4,13.9"/>
	<path class="st5" d="M82.2,70.3c-2,3.7-3.1,7.9-3.1,12.4c0,5.1,1.5,9.9,4,13.9"/>
</g>
<path class="st5" d="M29.1,74.5c1.6-7,4.9-13.4,9.4-18.7"/>
<path class="st5" d="M103.7,54.1c4.5,4.7,7.9,10.5,10,16.8"/>
<g>
	<g>
		<circle cx="85.7" cy="115.9" r="1.4"/>
		<circle cx="80.6" cy="119.8" r="1.4"/>
	</g>
	<g>
		<circle cx="58.1" cy="115.9" r="1.4"/>
		<circle cx="63.1" cy="119.8" r="1.4"/>
	</g>
</g>
<g>
	<path class="st6" d="M15.5,40.9c0,0-0.1,17.9,7.4,26.5"/>
	<path class="st6" d="M128.2,40.9c0,0,0.1,17.9-7.4,26.5"/>
</g>
<path class="st7" d="M61.2,134.8c6.8,2.8,14.5,2.8,21.4,0"/>
</svg>
