<?xml version="1.0" encoding="utf-8"?>
<!-- Generator: Adobe Illustrator 24.1.3, SVG Export Plug-In . SVG Version: 6.00 Build 0)  -->
<svg version="1.1" id="Layer_1" xmlns="http://www.w3.org/2000/svg" xmlns:xlink="http://www.w3.org/1999/xlink" x="0px" y="0px"
	 viewBox="0 0 144 144" style="enable-background:new 0 0 144 144;" xml:space="preserve">
<style type="text/css">
	.st0{fill:#FCDA46;}
	.st1{fill:#AFD47D;}
	.st2{fill:#F69221;}
	.st3{fill:#9788C0;}
	.st4{fill:none;stroke:#000000;stroke-width:5;stroke-linecap:round;stroke-linejoin:round;stroke-miterlimit:10;}
</style>
<path class="st0" d="M46.4,74H74v29C74,103,48.4,100.7,46.4,74z"/>
<path class="st1" d="M101.6,74H74v29C74,103,99.6,100.7,101.6,74z"/>
<path class="st2" d="M101.6,74H74V45C74,45,99.6,47.3,101.6,74z"/>
<path class="st3" d="M46.4,74H74V45C74,45,48.4,47.3,46.4,74z"/>
<g>
	<circle class="st4" cx="72" cy="72" r="43.9"/>
	<circle class="st4" cx="72" cy="72" r="29"/>
	<line class="st4" x1="72" y1="6.9" x2="72" y2="137.1"/>
	<line class="st4" x1="137.1" y1="72" x2="6.9" y2="72"/>
</g>
<g>
	<path d="M100.1,73.7c-0.2-0.4,0.3-0.5,0.2-0.9c-0.2-0.3-0.5-0.7-0.7-1c-0.4,0.1-0.8,0.1-1.2,0.2c-0.2,0.1-0.4,0.3-0.4,0.4
		c0.2,0.4,0,0.8-0.1,1.1c0,0.2,0,0.4,0.1,0.5h2C100.1,73.9,100.1,73.8,100.1,73.7z"/>
	<path d="M97.2,71.4c0.3-0.1,0.5-0.5,0.3-0.7c-0.2-0.2-0.3-0.5-0.3-0.8c0-0.4-0.3-0.6-0.6-0.8c-0.7,0.1-1.4,0.4-1.7,1.1
		C95.5,71.6,95.9,71.8,97.2,71.4z"/>
	<path d="M87.9,54.4c-0.3,0.1-0.6,0.2-0.9,0.3c-0.5,0.3-0.7,0.7-0.4,1.3c0.2,0.5,0.6,0.9,1,1.2c0.8-0.1,0.9-0.8,1.2-1.3
		C88.6,55.4,88.6,54.7,87.9,54.4z"/>
	<path d="M78.1,59.4c0.2,0.6,1.3,0.7,1.7,0.4c0.1-0.1,0.2-0.2,0.2-0.3c-0.1-0.5,0.4-0.9,0.2-1.4c-0.2-0.4-0.7-0.5-1.1-0.7
		c-0.1-0.1-0.2-0.1-0.4-0.1c-0.3,0.4-0.5,0.7-0.9,1.2C77.9,58.8,78,59.1,78.1,59.4z"/>
	<path d="M88.2,72.1c-0.4-0.2-0.7-0.2-1.1-0.1c-0.6,0.6-0.4,1.2-0.4,2c0,0,0.1,0,0.1,0h1.7c0.1-0.2,0.2-0.3,0.3-0.6
		C89.1,72.8,88.9,72.4,88.2,72.1z"/>
	<path d="M84.8,71.4c1.3-0.6,1.4-0.8,0.9-2c-0.2-0.6-0.7-0.7-1.2-0.3c-0.3,0.3-0.6,0.6-0.9,0.9C83.8,70.6,84,71.3,84.8,71.4z"/>
	<path d="M74.4,64.5c-0.1-0.2-0.1-0.3-0.2-0.4c-0.1-0.3-0.2-0.5-0.3-0.6v1.9C74.2,65.1,74.3,64.8,74.4,64.5z"/>
	<path d="M81.4,60.8c-0.1,0.2-0.3,0.2-0.5,0.3c-0.1,0.1-0.2,0.2-0.2,0.3c-0.1,0.4,0.2,1.2,0.6,1.3c0.5,0.2,1,0,1.5-0.3
		c0.3-0.2,0.3-0.6,0.3-0.9c0-0.7-0.1-0.8-0.8-1.1C81.9,60.3,81.7,60.3,81.4,60.8z"/>
	<path d="M79.6,71.2c0.6-0.1,0.9-0.5,0.9-1c0-0.6-0.3-1-0.9-1.1c-0.3,0-0.7,0-1,0.2c-0.3,0.2-0.7,0.5-0.7,0.8
		c0.4,0.4,0.7,0.6,1.1,0.9c-0.1,0.1-0.1,0.1-0.2,0.2C79,71.2,79.3,71.2,79.6,71.2z"/>
	<path d="M94.2,68.4c0.1-0.2,0.3-0.6,0.4-0.9c0-0.3,0-0.6-0.2-0.9c-0.3-0.6-1.1-0.6-1.6-0.1c-0.3,0.3-0.5,0.6-0.7,1
		C92.6,68.2,93.1,68.8,94.2,68.4z"/>
	<path d="M89.5,70.9c0.2,0.4,0.9,0.6,1.4,0.4c0.5-0.2,0.6-0.4,1.1-1.4c-0.7-0.4-1.2-1.3-2.2-0.5c-0.1,0.3-0.2,0.6-0.3,0.9
		C89.3,70.5,89.4,70.7,89.5,70.9z"/>
	<path d="M74,46.3v1.9c0.2-0.3,0.4-0.6,0.7-0.9C74.6,46.8,74.3,46.6,74,46.3z"/>
	<path d="M91,57.9c-0.2,0-0.4,0-0.6-0.1c-0.7-0.1-0.7-0.1-1,0.5c0,0.1,0,0.2,0,0.2c0.5,0.7,0.7,1.7,1.9,1.5c0.5-0.5,0.4-1.1,0.4-1.7
		C91.7,58,91.5,57.9,91,57.9z"/>
	<path d="M87.2,51.2c0.2-0.1,0.4-0.1,0.6-0.1c0.6-0.1,0.9-0.2,1-0.4c-0.7-0.5-1.4-0.9-2-1.3C86.6,50,86.7,50.6,87.2,51.2z"/>
	<path d="M98.8,62.4c-0.2-0.4-0.4-0.9-0.6-1.3c-0.1,0.2-0.1,0.3-0.1,0.5C98.1,62.1,98.4,62.3,98.8,62.4z"/>
	<path d="M78.2,47.4c0.1,0.3,0,0.5,0.1,0.8c0.1,0.4,0.5,0.5,0.7,0.2c0.2-0.2,0.4-0.4,0.7-0.6c0.5-0.2,0.5-0.5,0.3-0.9
		c-0.2-0.2-0.4-0.5-0.6-0.7c-0.3-0.1-0.6-0.2-0.9-0.3c-0.3,0.2-0.5,0.5-0.8,0.7C78,46.9,78.2,47.1,78.2,47.4z"/>
	<path d="M78.1,64.7c0.1,0.6,0.6,0.8,1,1.1c0.1,0.1,0.4,0.1,0.5,0.1c0.2-0.1,0.4-0.4,0.3-0.6c-0.4-0.6,0.2-0.9,0.3-1.3
		c-0.7-0.8-1-0.9-1.7-0.4c-0.2,0.1-0.4,0.4-0.7,0.6C77.9,64.4,78.1,64.5,78.1,64.7z"/>
	<path d="M80.8,68c0.3,0.2,0.6,0.3,1,0.5c0.4,0.2,0.7,0.1,0.9-0.3c0.1-0.3,0.3-0.6,0.4-0.8c0-0.1,0-0.2,0-0.3
		c-0.1-0.1-0.2-0.3-0.3-0.6c-0.4,0-0.8,0-1.1,0c-0.5,0.1-0.9,0.3-1.1,0.8C80.4,67.5,80.5,67.8,80.8,68z"/>
	<path d="M96.9,65.5c0.1-0.4,0.2-0.7,0.4-1c0.2-0.4,0.1-0.7-0.2-0.9c-0.4-0.1-0.9-0.1-1.3-0.2c-0.3,0.2-0.5,0.4-0.6,0.8
		c-0.1,0.5,0.4,0.6,0.5,1C95.8,65.7,96,65.7,96.9,65.5z"/>
	<path d="M94.8,56.1c-0.4-0.5-0.9-1-1.3-1.5c-0.3,0.2-0.5,0.3-0.8,0.5c-0.6,0.4-0.6,0.6-0.3,1.2c0.2,0.4,0.4,0.5,0.8,0.5
		c0.3,0,0.6,0,0.8-0.1c0.2,0,0.4-0.2,0.5-0.3C94.7,56.3,94.8,56.2,94.8,56.1z"/>
	<path d="M94.5,61.3c-0.1-0.5-0.7-0.4-0.9-0.7c-0.1-0.1-0.3-0.2-0.4-0.2c-0.1,0.1-0.2,0.1-0.3,0.1c-0.2,0.4-0.5,0.8-0.7,1.2
		c0.1,0.2,0.1,0.3,0.1,0.4c0.3,0.6,1.1,0.9,1.7,0.5c0.1-0.1,0.3-0.3,0.2-0.4C94.1,61.9,94.6,61.7,94.5,61.3z"/>
	<path d="M84.5,59.8c0.3,0.2,0.6,0.2,0.9-0.1c0.1-0.1,0.2-0.2,0.3-0.3c0.5-0.6,0.4-1.3-0.3-1.7c-0.1-0.1-0.3-0.1-0.5-0.2
		c-0.5,0.3-1,0.6-1.5,0.9C84,59.4,84.1,59.6,84.5,59.8z"/>
	<path d="M82.7,72.5c-0.5-0.2-0.9-0.4-1.4-0.5c-0.6,0.4-0.3,1.2-0.7,1.6c0.2,0.2,0.3,0.4,0.4,0.5h1.5C82.9,73.8,82.9,73.5,82.7,72.5
		z"/>
	<path d="M90.6,63.2c-0.7,0.3-0.7,0.3-1.1,1.2c0.1,0.4,0.2,0.7,0.3,1c0.2,0.4,1,0.5,1.2,0.1c0.2-0.5,0.6-0.6,0.9-0.9
		C91.7,63.8,90.9,63.7,90.6,63.2z"/>
	<path d="M74.1,70.9c0.2-0.2,0.2-0.6,0.3-0.8c-0.1-0.1-0.2-0.2-0.4-0.3L74.1,70.9C74,70.9,74,70.9,74.1,70.9z"/>
	<path d="M77.2,61.8c0.1-0.1,0.1-0.3,0-0.4c-0.2-0.4-0.5-0.7-0.9-0.9c-0.3-0.1-0.6-0.1-0.8,0.2c-0.2,0.3-0.4,0.6-0.6,0.9
		c-0.1,0.1-0.1,0.2,0,0.3c0.1,0.3,0.5,0.7,1,0.7C76.4,62.5,76.9,62.3,77.2,61.8z"/>
	<path d="M82.5,51.2c0.5-0.6,0.3-1.2,0.3-1.9c-0.6-0.6-1.1-0.2-1.7-0.1c-0.1,0.3-0.1,0.5-0.2,0.7c-0.3,0.3-0.2,0.5,0.1,0.8
		C81.4,51.2,81.9,51.4,82.5,51.2z"/>
	<path d="M85.4,65c0.3-0.2,0.7-0.5,0.6-1c-0.1-0.5-0.6-0.6-1-0.7c0,0-0.1,0-0.1,0c-0.4,0-0.7,0.1-1,0.5c-0.2,0.4-0.3,0.8,0,1.2
		c0.2,0.2,0.4,0.3,0.7,0.5C84.8,65.3,85.1,65.2,85.4,65z"/>
	<path d="M94.5,72.8c-0.1-0.2-0.2-0.4-0.3-0.5c-0.2,0-0.2-0.1-0.3-0.1c-1.4,0-1.5,0-1.4,1.5c0.2,0.1,0.4,0.2,0.6,0.3H94
		c0.2-0.2,0.3-0.4,0.5-0.7C94.6,73.2,94.6,72.9,94.5,72.8z"/>
	<path d="M76.9,72.7c-0.3-0.4-0.9-0.7-1.3-0.5c-0.6,0.2-0.8,0.7-0.5,1.4c0.1,0.1,0.1,0.3,0.2,0.4H77C77.1,73.5,77.1,73.1,76.9,72.7z
		"/>
	<path d="M89.4,52.6c0.4,0.6,0.7,1.2,1.1,1.8c0.2-0.1,0.4-0.2,0.5-0.4c0.1-0.5,0.4-0.7,0.9-1c0,0,0,0,0,0c-0.4-0.3-0.8-0.7-1.2-1
		c-0.2,0-0.4,0-0.5,0.1C89.8,52.1,89.4,52.2,89.4,52.6z"/>
	<path d="M98,67.6c0.4,0.2,0.7,0.4,1,0.6c0.6,0.3,1.1,0,1.2-0.7c0-0.2,0-0.4,0.1-0.6c-0.3-0.2-0.6-0.5-0.8-0.8
		c-0.5,0.3-1,0.6-1.5,0.9C98,67.3,98,67.4,98,67.6z"/>
	<path d="M74.1,59.1c0.1-0.1,0.2-0.2,0.3-0.3c-0.1-0.3-0.2-0.6-0.4-0.8v1.2C74.1,59.2,74.1,59.1,74.1,59.1z"/>
	<path d="M80.2,52.9c0-0.4-0.2-0.6-0.6-0.8c-0.8,0.2-1.3,0.7-1.8,1.4c0.3,0.7,0.9,0.7,1.5,0.9C80,53.7,80.2,53.4,80.2,52.9z"/>
	<path d="M80.8,56.2c0.2,0.3,0.4,0.5,0.7,0.6c0.4,0,0.9,0.1,1.3-0.1c-0.2-0.8-0.2-0.8,0.1-1.4c-0.3-0.2-0.5-0.4-0.7-0.6
		c-0.2,0.1-0.3,0.2-0.5,0.3c-0.2,0.1-0.4,0.1-0.6,0.2C80.7,55.4,80.6,55.8,80.8,56.2z"/>
	<path d="M88.3,60.6c-0.3-0.2-0.6-0.3-0.9-0.2c-0.2,0.1-0.4,0.2-0.7,0.4c0,0.2,0,0.5,0,0.7c0,0.2,0.2,0.4,0.3,0.5
		c0.5,0.2,0.9,0.5,1.5,0.3c0.2-0.1,0.4-0.2,0.6-0.3C88.8,61.2,88.6,60.9,88.3,60.6z"/>
	<path d="M85.1,54.2c0.3-0.3,0.6-0.5,0.8-0.8c0.3-0.5,0-1.1-0.5-1.1c-0.5,0-1-0.1-1.4,0.1c-0.2,0.6-0.1,1.1,0.5,1.4
		C84.7,53.8,84.8,54,85.1,54.2z"/>
	<path d="M101.2,70.9c0-0.2-0.1-0.4-0.1-0.6c0,0.1,0,0.2,0,0.3C101.1,70.7,101.2,70.8,101.2,70.9z"/>
	<path d="M95.1,59.3c0.2,0.4,0.5,0.6,0.9,0.7c0.5,0.1,0.8-0.2,1.1-0.5c-0.3-0.5-0.6-0.9-0.9-1.3C95.7,58.2,95.3,58.6,95.1,59.3z"/>
	<path d="M76.3,68.3c0.1,0,0.1,0,0.2-0.1c0.3-0.3,0.5-0.7,0.9-1.1c-0.5-0.6-1-0.7-1.6-0.7c-0.2,0-0.4,0.2-0.5,0.3
		c-0.2,0.4-0.2,0.9,0,1.3C75.5,68.4,75.9,68.3,76.3,68.3z"/>
	<path d="M86.8,66.5c0,0.6-0.1,1.2,0.4,1.8c0.5-0.2,1-0.4,1.4-0.6c0.3-0.2,0.4-0.7,0-0.9C88.1,66.5,87.5,66.2,86.8,66.5z"/>
	<path d="M77.1,50.6c0-0.6,0.2-1.2-0.6-1.6c-0.4,0.4-1.2,0.3-1.4,1c0.3,0.3,0.5,0.7,0.8,1C76.3,51,76.7,50.8,77.1,50.6z"/>
	<path d="M75.2,56.2c0.4,0.2,0.8,0.4,1.1,0.6c0.6-0.3,0.6-0.3,1.1-0.9c-0.5-0.7-1.2-0.7-1.9-0.6c-0.3,0-0.5,0.1-0.5,0.4
		C74.9,55.8,75,56.1,75.2,56.2z"/>
	<path d="M74,52.2v1.1c0.1-0.1,0.2-0.3,0.2-0.5C74.2,52.5,74.1,52.3,74,52.2z"/>
</g>
<g>
	<path d="M62,79.1c-0.3-0.2-0.6-0.3-1-0.4c-0.3,0.2-0.7,0.3-1,0.5c-0.3,0.2-0.5,0.5-0.5,0.9c0.1,0.8,0.9,1.4,1.7,1.2
		c0.6-0.1,0.9-0.6,1-1.2C62.5,79.6,62.4,79.3,62,79.1z"/>
	<path d="M63.8,95.9c0.2,0,0.2,0,0.3-0.1c0.4-0.2,1.1,0,1.1-0.6c0-0.4-0.3-0.9-0.4-1.3c0,0,0-0.1-0.1-0.1c-0.4-0.5-1.1-0.6-1.6-0.2
		c-0.2,0.2-0.4,0.5-0.6,0.7C62.8,95,63.2,95.5,63.8,95.9z"/>
	<path d="M58.6,81.8c-0.5,0-1.1,0-1.7,0c0,0.4,0,0.7,0,1c-0.1,0.7,0.4,1,1,1.3c0.5,0.2,0.8-0.1,1.1-0.4c0.1-0.1,0.2-0.2,0.3-0.3
		c0-0.1,0-0.2,0-0.3c0-0.2,0-0.3,0-0.5C59.3,82.1,59.1,81.8,58.6,81.8z"/>
	<path d="M61.8,98.1c0.2-0.1,0.4-0.4,0.2-0.7c-0.1-0.2,0-0.5-0.1-0.7c-0.6-0.5-1.2-0.5-1.9-0.4c-0.2,0-0.4,0.2-0.6,0.3
		c0.2,0.6,0.3,1,0.4,1.4c0.3,0.2,0.6,0.4,0.9,0.5C61.2,98.4,61.5,98.3,61.8,98.1z"/>
	<path d="M56.2,85.3c-0.3-0.3-0.6-0.6-1-1c-0.3,0.8-0.9,1.2-1.3,1.7c0.3,0.3,0.5,0.6,0.7,0.9c0.1,0.1,0.2,0.2,0.3,0.2
		c0.1,0.1,0.3,0.1,0.5,0.1c0.3-0.1,0.5-0.2,0.7-0.4C56.5,86.5,56.6,85.8,56.2,85.3z"/>
	<path d="M58.3,76.1c-0.5-0.1-0.9,0-1.2,0.5c-0.3,0.6-0.3,0.9,0.2,1.4c0.2,0.2,0.3,0.4,0.5,0.7c0.5-0.3,0.8-0.4,1.1-0.6
		c0.1-0.1,0.2-0.2,0.3-0.4C59.5,77.1,59,76.2,58.3,76.1z"/>
	<path d="M66.6,98.7c1.3-0.6,1.3-0.6,1.6-1c-0.1-0.2-0.2-0.4-0.3-0.6c-0.1-0.2-0.2-0.4-0.3-0.6c-0.5-0.1-1-0.1-1.5-0.2
		c-0.4,0.4-0.6,0.9-0.7,1.4C65.6,98.3,66.6,97.8,66.6,98.7z"/>
	<path d="M64.8,99.2c-0.1-0.1-0.2-0.1-0.3-0.2c-0.5-0.4-0.9-0.1-1.3,0.2c-0.1,0.1-0.3,0.2-0.4,0.3c0.7,0.4,1.4,0.7,2.1,1
		c0,0,0,0,0-0.1C64.9,100.1,64.8,99.7,64.8,99.2z"/>
	<path d="M71.1,94.7c-0.2-0.2-0.5-0.4-0.5-0.5c0-0.7-0.4-0.9-0.9-1c-0.7,0.1-0.9,0.8-1.4,1.2c0.2,0.4,0.5,0.7,0.7,1
		c0.2,0.2,0.4,0.3,0.7,0.3C70.3,95.6,70.8,95.3,71.1,94.7z"/>
	<path d="M60.9,75.5c0.2,0.2,0.5,0.1,0.8-0.1c0.2-0.2,0.4-0.3,0.7-0.5c0-0.4-0.1-0.6-0.2-0.9H60c-0.1,0.2-0.1,0.4-0.1,0.6
		C60,75.1,60.5,75.2,60.9,75.5z"/>
	<path d="M68.3,89c0.2,0.2,0.4,0.5,0.7,0.7c0.3,0.3,0.6,0.4,1,0.2c0.4-0.2,0.8-0.5,0.9-1.1c0-0.5-0.3-1.1-0.6-1.2
		c-0.7-0.3-1.5,0-1.7,0.8C68.4,88.6,68.4,88.8,68.3,89z"/>
	<path d="M61.6,92.8c0.3-0.3,0.6-0.6,0.8-0.9c-0.2-0.4-0.3-0.7-0.5-1c-0.3-0.4-0.8-0.5-1.3-0.5c-0.4,0-0.6,0.3-0.7,0.7
		c0,0.2-0.2,0.4-0.2,0.6C60.1,92.7,60.9,92.5,61.6,92.8z"/>
	<path d="M69.4,99c-0.3,0.3-0.6,0.5-0.8,0.8c-0.2,0.2-0.2,0.6,0,0.9c0.3,0.4,0.6,0.6,1.1,0.7c0.4,0.1,0.6-0.2,0.8-0.4
		c0.1-0.1,0.2-0.2,0.4-0.3c-0.1-0.4-0.1-0.8-0.3-1.2c-0.1-0.2-0.3-0.5-0.5-0.6C69.9,98.8,69.6,98.8,69.4,99z"/>
	<path d="M67.4,75.4c0.3-0.3,0.5-0.6,0.8-0.9c0-0.1-0.1-0.3-0.1-0.3c-0.1-0.1-0.1-0.1-0.2-0.2h-2.1c0,0,0,0.1-0.1,0.1
		C66.1,75.6,66.2,75.6,67.4,75.4z"/>
	<path d="M70.5,76.8c-0.3-0.3-0.6-0.6-1-0.9c-0.6,0.5-1.1,1-1.1,1.9c0.2,0.1,0.4,0.2,0.5,0.4c0.3,0.3,0.7,0.3,1.1,0.1
		c0.1-0.1,0.2-0.1,0.3-0.2C71.3,77.5,71.3,77.5,70.5,76.8z"/>
	<path d="M73,90.3c-0.2-0.1-0.5-0.2-0.7,0c-0.3,0.3-0.7,0.6-1,0.8c-0.1,0.4-0.1,0.8,0.3,1.1c0.5,0.5,1.1,0.3,1.7,0.3
		c0.2-0.4,0.5-0.7,0.3-1C73.5,91.1,73.5,90.6,73,90.3z"/>
	<path d="M67,93.1c0.3-0.5,0.5-0.9,0.7-1.3c0.2-0.4,0.2-0.6-0.1-0.9c-0.7-0.7-1-0.8-1.6,0c-0.2,0.3-0.4,0.6-0.6,0.9
		C66.2,92.1,66.2,93,67,93.1z"/>
	<path d="M59.1,88.2c-0.3-0.3-0.6-0.6-0.8-0.8c-0.5,0.3-0.9,0.7-1.3,1c0,0.4,0,0.8,0,1.2c0.2,0.1,0.6,0.3,0.7,0.3
		c0.4-0.2,1-0.1,1.3-0.5C59.4,89.1,59.4,88.6,59.1,88.2z"/>
	<path d="M68.2,85.6c0-0.4-0.2-0.6-0.6-0.7c-0.5-0.1-1,0.1-1.5,0.3c-0.6,0.2-0.6,0.7-0.2,1.1c0.3,0.3,0.7,0.5,1.1,0.7
		c0.3-0.1,0.6-0.2,0.9-0.3C68.2,86.1,68.2,86,68.2,85.6z"/>
	<path d="M72.8,79.3c-0.1-0.2-0.2-0.3-0.3-0.5c-0.4,0.3-0.7,0.5-1.1,0.8c-0.3,1.1,0.6,1.3,1.3,1.8c0.4-0.1,0.7-0.2,0.8-0.6
		c0.2-0.5,0.2-1.1-0.1-1.6C73.2,79.3,73,79.3,72.8,79.3z"/>
	<path d="M67.1,81.3c0.1,0,0.3-0.2,0.3-0.3c0.1-0.4,0.4-0.8,0.8-1.1c-0.5-0.4-1-0.8-1.5-1.1c-0.3,0.2-0.6,0.3-0.7,0.5
		c-0.2,0.4-0.3,0.9-0.4,1.4c0,0.1,0,0.2,0.1,0.2C65.9,81.1,66.6,81.4,67.1,81.3z"/>
	<path d="M60.4,84.8c-0.1,0.3-0.2,0.6-0.4,1c0.1,0.2,0.2,0.4,0.2,0.7c0.3,0.7,0.8,0.8,1.4,0.4c0.3-0.2,0.5-0.5,0.8-0.7
		c-0.1-0.4-0.2-0.7-0.4-1C61.1,84.7,61.1,84.7,60.4,84.8z"/>
	<path d="M51.8,76.3c-0.3,0.3-0.5,0.6-0.6,0.9c0.2,0.9,0.8,1.1,1.4,1.5c0.2-0.1,0.4-0.2,0.6-0.3c0.2-0.7,0-1.2-0.2-1.8
		C52.9,76,52.3,75.8,51.8,76.3z"/>
	<path d="M62.8,88.7c0.5,1.3,0.3,1.5,1.9,1c0.1,0,0.2-0.1,0.4-0.2c0-0.4,0-0.9,0-1.3c-0.5-0.2-0.9-0.3-1.3-0.4
		C63.1,87.6,62.6,88.1,62.8,88.7z"/>
	<path d="M55.4,93c0.3-0.1,0.6-0.4,0.8-0.6c0.1,0,0.1-0.1,0.1-0.2c-0.1-0.5-0.2-0.9-0.3-1.4c-0.4-0.3-0.8-0.5-1.2-0.3
		c-0.4,0.2-0.6,0.7-0.6,1.1c0,0.2,0,0.4,0,0.6c0.1,0.1,0.2,0.2,0.3,0.2C55,92.6,55,93.2,55.4,93z"/>
	<path d="M55.8,75.7c0.3-0.2,0.6-0.4,0.6-0.7c0-0.3,0-0.7-0.1-1H54c0.3,0.3,0.5,0.6,0.7,1C54.9,75.5,55.3,75.6,55.8,75.7z"/>
	<path d="M63.8,76.1c-0.4,0.3-0.8,0.6-1.1,1c0.6,0.4,0.4,1.3,1.1,1.5c0.8-0.1,1.1-0.8,1.6-1.3C65,76.7,64.5,76.3,63.8,76.1z"/>
	<path d="M72.6,84.7c-0.3-0.1-0.7-0.1-1.1,0.2c0,0.4,0,0.8,0,1.3c0,0.2,0.1,0.4,0.3,0.5c0.4,0.3,0.7,0.5,1.2,0.3
		c0.1-0.1,0.1-0.2,0.2-0.3c0.1-0.4,0.3-0.7,0.4-1.2C73.3,85.2,73,84.9,72.6,84.7z"/>
	<path d="M73.4,102.4c-0.2-0.6-0.9-0.8-1.3-0.3c-0.1,0.1-0.2,0.3-0.4,0.5c0.7,0.1,1.2,0.2,1.6,0.3C73.3,102.8,73.3,102.6,73.4,102.4
		z"/>
	<path d="M49.3,75.5c0.4,0.1,0.7-0.1,0.8-0.5c0.1-0.3,0.3-0.6,0.5-1.1h-2.3c-0.1,0.1-0.2,0.2-0.3,0.2C48.2,75,48.7,75.4,49.3,75.5z"
		/>
	<path d="M69.7,81.6c-0.9,0.1-1.1,0.8-1.2,1.5c0.3,0.2,0.5,0.4,0.8,0.6c0.2,0.1,0.5,0.2,0.8,0.2c0.6,0,0.9-0.4,0.7-0.9
		C70.6,82.4,70.2,81.9,69.7,81.6z"/>
	<path d="M48.9,84.8C48.9,84.8,48.9,84.8,48.9,84.8c0.2,0.8,0.6,1.5,0.9,2.1c0.3-0.4,0.6-0.7,0.9-1C50.4,85.3,49.8,84.8,48.9,84.8z"
		/>
	<path d="M72.3,98.5c0.5,0.2,1-0.1,1.2-0.6c0.1-0.4,0.2-0.9,0.3-1.4c-0.6-0.4-1.3-0.3-1.9-0.3c0,0-0.1,0.1-0.1,0.2
		c0.1,0.2,0.2,0.4,0.3,0.6c-0.2,0.2-0.4,0.4-0.7,0.7C71.6,98.3,71.9,98.4,72.3,98.5z"/>
	<path d="M52.5,82.1c-0.4,0.1-0.8,0.2-1.2,0.3c0.2,1.4,0.2,1.4,0.6,1.8c0.5-0.3,1.2-0.1,1.7-0.7c-0.1-0.3-0.2-0.6-0.3-1
		C53.2,82.2,52.9,82,52.5,82.1z"/>
	<path d="M51.8,89.6c0.4,0.3,0.7,0.4,1.2,0.3c0.4-0.1,0.6-0.3,0.5-0.6c-0.1-0.4,0-0.8,0-1.2c-0.6-0.2-1.1-0.4-1.7,0.1
		C51,88.8,51,89,51.8,89.6z"/>
	<path d="M72,75.2c0.3,0.2,0.8,0.1,1.1-0.1c0.4-0.2,0.7-0.7,0.6-1.1c0,0,0-0.1-0.1-0.1h-2c-0.1,0.1-0.2,0.2-0.3,0.4
		C71.5,74.7,71.7,75.1,72,75.2z"/>
	<path d="M46.9,78.1c0.2,0,0.3,0,0.5,0c0-0.5,0.1-1,0.1-1.4c-0.4-0.2-0.7-0.4-0.9-0.4C46.7,76.9,46.8,77.5,46.9,78.1z"/>
	<path d="M50.2,81c0.2,0,0.4-0.2,0.5-0.3c0.1-0.2,0.1-0.5-0.1-0.6c-0.2-0.1-0.3-0.2-0.5-0.4c-0.6-0.6-0.6-0.6-1.3-0.1
		c-0.2,0.1-0.3,0.2-0.5,0.4c-0.1,0-0.1,0.1-0.1,0.2c0.2,0.3,0.3,0.5,0.6,0.9C49.2,81,49.7,81.1,50.2,81z"/>
	<path d="M63.8,84.1c0.2-0.1,0.5-0.3,0.7-0.4c0.6-0.3,0.7-0.5,0.4-1.1c-0.1-0.3-0.3-0.6-0.7-0.7c-0.3,0.2-0.5,0.4-0.8,0.6
		c-0.6,0.4-0.6,0.8-0.3,1.4C63.3,84.1,63.5,84.2,63.8,84.1z"/>
	<path d="M56.4,79.9c-0.1-0.5-0.6-0.6-1-0.7c-0.4-0.1-0.9-0.1-1,0.5c0.2,0.5,0.4,1,0.7,1.7c0.3-0.2,0.6-0.3,0.8-0.5
		C56.1,80.6,56.5,80.4,56.4,79.9z"/>
	<path d="M58.2,93.8c-0.6-0.1-0.8,0.1-1.2,1c0.7,0.8,0.7,0.8,2.1,0.3c0.1-0.4,0.1-0.7-0.2-0.9C58.6,94,58.4,93.9,58.2,93.8z"/>
</g>
</svg>
