<svg id="Layer_1" data-name="Layer 1" xmlns="http://www.w3.org/2000/svg" viewBox="0 0 191.4 192.57"><defs><style>.cls-1{opacity:0.45;}.cls-2{fill:#b0d57d;}.cls-3{fill:#fff;}.cls-4{fill:#fddb47;}.cls-5{fill:#f79221;}.cls-6{fill:#231f20;}.cls-7{fill:#9889c1;}.cls-8{fill:#010101;}</style></defs><g class="cls-1"><path class="cls-2" d="M168.6,195.28a26.12,26.12,0,0,0,5.14-51.72l-12.23-2.47,12.23-2.46a26.12,26.12,0,0,0,0-51.21L161.53,85l12.21-2.46a26.12,26.12,0,0,0,0-51.2L34.59,3.23A26.12,26.12,0,1,0,24.26,54.44l12.2,2.46-12.2,2.46a26.12,26.12,0,0,0,0,51.2L36.48,113l-12.22,2.46a26.12,26.12,0,0,0,0,51.21l139.15,28.06A25.59,25.59,0,0,0,168.6,195.28Z" transform="translate(-3.3 -2.72)"/></g><path class="cls-3" d="M162.59,90.6v-36A10.61,10.61,0,0,0,152,44H42.15a10.61,10.61,0,0,0-10.6,10.61V90.49C35.38,92.45,37,96.43,37,101s-1.66,8.58-5.49,10.54v11.86h6.31V138H159.27V123.42h3.32v-12c-3.71-2-5.26-5.92-5.26-10.43S158.88,92.6,162.59,90.6Z" transform="translate(-3.3 -2.72)"/><rect class="cls-2" x="48.53" y="124.57" width="111.3" height="14.62"/><path class="cls-4" d="M166.45,94.46v-36a10.61,10.61,0,0,0-10.6-10.61H46A10.61,10.61,0,0,0,35.41,58.5V94.35c3.83,2,5.49,5.93,5.49,10.53s-1.66,8.58-5.49,10.54v11.86h131v-12c-3.71-2-5.26-5.92-5.26-10.43S162.74,96.46,166.45,94.46Z" transform="translate(-3.3 -2.72)"/><path class="cls-5" d="M53.61,90.6H160s-6.89,12,0,20.85H53.61S40.91,101.61,53.61,90.6Z" transform="translate(-3.3 -2.72)"/><path d="M142.74,96.23c-.15-.38-.36-.74-.53-1.08l-.84-.14v2.31a1.08,1.08,0,0,0,1-.16A.7.7,0,0,0,142.74,96.23Z" transform="translate(-3.3 -2.72)"/><path d="M142.5,108.3a1.21,1.21,0,0,0-.08-1.39c-.23-.36-.55-.07-.83,0a2.07,2.07,0,0,1-.22,0v2.08C141.92,109,142.25,108.62,142.5,108.3Z" transform="translate(-3.3 -2.72)"/><path d="M141.48,101.07l-.11,0v1.85c.48.06,1,.22,1.34-.25A1.5,1.5,0,0,0,141.48,101.07Z" transform="translate(-3.3 -2.72)"/><path d="M141.37,91.77c.34.13.6-.09.86-.24a.72.72,0,0,0,.24-.93h-1.1v1.17Z" transform="translate(-3.3 -2.72)"/><path d="M149.82,92.34a3.27,3.27,0,0,1-1,1.11.63.63,0,0,0-.18.51,4,4,0,0,0,.26.79L150,95c.46-.29,1-.39,1.29-.91C150.66,92.68,150.66,92.68,149.82,92.34Z" transform="translate(-3.3 -2.72)"/><path d="M158.19,92.24c.31-.15.62-.29.92-.45a1.27,1.27,0,0,0,.45-1.09.31.31,0,0,0-.05-.1h-2v1.33Z" transform="translate(-3.3 -2.72)"/><path d="M145.77,93.68c-.18-.29-.21-.73-.64-.86s-.8-.18-1.22-.27a3.78,3.78,0,0,0-.66,1.27c.28.92,1.09.75,1.67,1A1.7,1.7,0,0,0,145.77,93.68Z" transform="translate(-3.3 -2.72)"/><path d="M151.1,110.7c0-.33.1-.84-.29-.89s-.64-.58-1.07-.82a2.92,2.92,0,0,0-.91,1.85,1.05,1.05,0,0,0,.6.61h1.07A.92.92,0,0,0,151.1,110.7Z" transform="translate(-3.3 -2.72)"/><path d="M150.93,98.72a1,1,0,0,0-1-.39,3,3,0,0,0-.3,0,1,1,0,0,0-.8.59c-.16.28,0,.49.18.72s.2.5.33.72a.47.47,0,0,0,.59.23,2,2,0,0,0,1.1-1.12A.73.73,0,0,0,150.93,98.72Z" transform="translate(-3.3 -2.72)"/><path d="M148.86,104.52a.59.59,0,0,0-.05.23c0,.23,0,.46,0,.69a.56.56,0,0,0,.66.48c.41-.08.81-.21,1.24-.33.12-.32.25-.64.36-1a.55.55,0,0,0-.22-.61A1.6,1.6,0,0,0,148.86,104.52Z" transform="translate(-3.3 -2.72)"/><path d="M155,111.37l1.1-.33c.44-.12.53-.26.55-.73a.91.91,0,0,0-.39-.9,8.13,8.13,0,0,0-.77-.4c-.89.85-.9.85-.91,1.18S154.54,111.1,155,111.37Z" transform="translate(-3.3 -2.72)"/><path d="M146.59,91.72a1.08,1.08,0,0,0,1.22.23c.18-.42.56-.8.51-1.35h-2C146.29,91.19,146.37,91.53,146.59,91.72Z" transform="translate(-3.3 -2.72)"/><path d="M146.62,106.74a.8.8,0,0,0-.34,1.31,1.77,1.77,0,0,0,1.74.61c.07-.37.15-.69.18-1a.86.86,0,0,0-.13-.52A1.32,1.32,0,0,0,146.62,106.74Z" transform="translate(-3.3 -2.72)"/><path d="M158.22,108.55a15.47,15.47,0,0,1-.66-1.79.29.29,0,0,0-.1,0c-.09.37-.17.74-.25,1.09C157.4,108.38,157.8,108.47,158.22,108.55Z" transform="translate(-3.3 -2.72)"/><path d="M145.68,110.21c-.21-.21-.38-.5-.63-.61a2.31,2.31,0,0,0-1-.14.6.6,0,0,0-.61.57,1.61,1.61,0,0,0,.4,1.42h.74l.09,0C145.09,111.08,145.68,110.87,145.68,110.21Z" transform="translate(-3.3 -2.72)"/><path d="M151.9,106.81c-.24,1-.38.92.38,1.89a2.58,2.58,0,0,0,1.34-.1c0-.27,0-.53,0-.79s0-.51.06-.78C153,106.83,152.5,106.43,151.9,106.81Z" transform="translate(-3.3 -2.72)"/><path d="M144.15,100.28a.76.76,0,0,0,1.06-.36,7.2,7.2,0,0,0,.32-.92c-.68-.8-.68-.8-2-.3-.2.35-.46.7-.19,1.17C143.61,100,143.88,100.16,144.15,100.28Z" transform="translate(-3.3 -2.72)"/><path d="M147.71,95.27l-1.34.28c0,.14-.05.24,0,.28.18.23.46.43.2.78a.48.48,0,0,0-.05.22.66.66,0,0,0,.84.77,1.07,1.07,0,0,0,.95-.86C148.1,96.27,147.92,95.8,147.71,95.27Z" transform="translate(-3.3 -2.72)"/><path d="M157.58,95.75a1.23,1.23,0,0,0-.4,1.14.49.49,0,0,0,.3.31h0c.13-.57.27-1.12.43-1.64A.65.65,0,0,0,157.58,95.75Z" transform="translate(-3.3 -2.72)"/><path d="M144.91,105.79c.31-.28.59-.59.9-.89-.37-.82-1-.86-1.6-1-.36-.09-.64.21-.73.57-.15.61.34.89.62,1.26A.53.53,0,0,0,144.91,105.79Z" transform="translate(-3.3 -2.72)"/><path d="M153.34,101.17a.62.62,0,0,0-.69-.28,1.31,1.31,0,0,0-1,.63,1.88,1.88,0,0,0,.62,1.06.83.83,0,0,0,1.37,0,1.87,1.87,0,0,0,.25-.54C153.67,101.68,153.51,101.42,153.34,101.17Z" transform="translate(-3.3 -2.72)"/><path d="M156,93c-.34-.29-.64-.24-1,.11-.13.14-.26.27-.4.4-.36.34-.33.63.1.88a3.11,3.11,0,0,0,.41.2c.44.19.82-.05,1.21-.17s.41-.3.44-.64A9.56,9.56,0,0,0,156,93Z" transform="translate(-3.3 -2.72)"/><path d="M152,91.18c.12.2.27.37.42.58a1.35,1.35,0,0,0,1.63-.69.52.52,0,0,0,0-.47h-2.24A.89.89,0,0,0,152,91.18Z" transform="translate(-3.3 -2.72)"/><path d="M155.46,98.39a9.83,9.83,0,0,0-1,.51c-.12.56,0,.88.44,1s.7.26,1.08.41c.14-.16.31-.28.36-.45a2.89,2.89,0,0,0,.12-.78A.67.67,0,0,0,155.46,98.39Z" transform="translate(-3.3 -2.72)"/><path d="M153.62,95.85c-.66-.72-1.09-.67-1.57.19a1,1,0,0,0-.16.95c.4.05.77.13,1.15.15a.83.83,0,0,0,.79-.57C154,96.3,153.82,96.07,153.62,95.85Z" transform="translate(-3.3 -2.72)"/><path d="M147.12,101.33c-.52,0-.73.14-.88.67s-.09.75.55,1l.55.22.95-1.31C147.51,101.36,147.51,101.36,147.12,101.33Z" transform="translate(-3.3 -2.72)"/><path d="M155.18,104.35a.83.83,0,0,0-.26,1c.24.17.48.36.74.51a.52.52,0,0,0,.69-.23c.12-.28.19-.57.29-.87-.11-.28-.22-.56-.31-.81C155.79,103.74,155.49,104,155.18,104.35Z" transform="translate(-3.3 -2.72)"/><path d="M140.45,96.77a1.22,1.22,0,0,0,.92,1V95.7C140.46,95.75,140.27,96,140.45,96.77Z" transform="translate(-3.3 -2.72)"/><path d="M141.16,106.75a.74.74,0,0,0-.86.37c-.15.21,0,.41.17.6a2.55,2.55,0,0,1,.26.61c.12.32.37.34.64.34v-1.85Z" transform="translate(-3.3 -2.72)"/><path d="M140.47,102.23c0,.53.17.65.9.65v-1.62C140.67,101.33,140.45,101.56,140.47,102.23Z" transform="translate(-3.3 -2.72)"/><path d="M141.37,91.3v-.7h-.94a1,1,0,0,0-.07.26A.82.82,0,0,0,141.37,91.3Z" transform="translate(-3.3 -2.72)"/><path d="M108.08,109a2.24,2.24,0,0,0,.93-.38,1,1,0,0,0,.14-1.6c-.74-.8-1-.75-1.8-.4a3.75,3.75,0,0,0-.37.2c-.07.22-.14.4-.19.58A1.19,1.19,0,0,0,108.08,109Z" transform="translate(-3.3 -2.72)"/><path d="M106,111.36a1.26,1.26,0,0,0,.33-.22,2,2,0,0,0-.61-2l-1.81.16c0,.28-.07.51-.07.73a2.17,2.17,0,0,0,.6,1.44h1.33Z" transform="translate(-3.3 -2.72)"/><path d="M78.63,111c.07-.18.13-.36.2-.57-.23-.84-.86-1.11-1.49-1.44l-.69.46c-.64.43-.69.66-.38,1.32a1.73,1.73,0,0,0,.67.72h1.34A1.28,1.28,0,0,0,78.63,111Z" transform="translate(-3.3 -2.72)"/><path d="M108.27,100.87c-.34,0-.68,0-1,.06-.1.34-.18.63-.26.92-.17.64-.07.94.47,1.26a1.9,1.9,0,0,0,1.91.11,2.37,2.37,0,0,1-.22-.67c0-.21.16-.42.17-.63C109.34,101.22,109,100.88,108.27,100.87Z" transform="translate(-3.3 -2.72)"/><path d="M111.6,92.33a9.1,9.1,0,0,0-1.18,0c-.16,0-.41.19-.43.32a3.69,3.69,0,0,1-.5,1.25c-.17.28,0,.56.3.76.51.35,1-.16,1.55.08,0,0,.12-.08.17-.13C112.1,94,112.14,93.39,111.6,92.33Z" transform="translate(-3.3 -2.72)"/><path d="M93.23,105.82a7.51,7.51,0,0,0,.93.34,1.72,1.72,0,0,0,1.3-1.26c-.28-.59-.46-1.28-1.28-1.42-.66.08-.94.59-1.24,1.07A.83.83,0,0,0,93.23,105.82Z" transform="translate(-3.3 -2.72)"/><path d="M112.21,110.48a.74.74,0,0,0-.38-.77,5,5,0,0,1-.58-.54.59.59,0,0,0-.62-.16c-.66.16-.45.93-.88,1.28-.11.09-.1.48,0,.64a1.82,1.82,0,0,0,.55.52h1.39A1.21,1.21,0,0,0,112.21,110.48Z" transform="translate(-3.3 -2.72)"/><path d="M61.85,98.93a1.2,1.2,0,0,1-.13-.31.68.68,0,0,0-.77-.53l-.9,0a1.81,1.81,0,0,0-.41,1.18,1.34,1.34,0,0,0,.84,1.25c.38.21.72-.11,1-.3a1.43,1.43,0,0,0,.26-.23C62.23,99.59,62.23,99.55,61.85,98.93Z" transform="translate(-3.3 -2.72)"/><path d="M107,91.11c.07.17.18.33.25.51a1.31,1.31,0,0,0,1.55.63c.4-.11.78-.91.55-1.23-.09-.13-.18-.28-.27-.42H106.9A1.14,1.14,0,0,0,107,91.11Z" transform="translate(-3.3 -2.72)"/><path d="M101.13,107.16c.17.36.35.7.5,1a1.14,1.14,0,0,0,1.12.74c.1-.11.2-.27.33-.39s.38-.25.55-.4a.75.75,0,0,0,0-1.11c-.14-.12-.34-.18-.48-.31a1,1,0,0,0-1.05-.27C101.7,106.57,101.27,106.68,101.13,107.16Z" transform="translate(-3.3 -2.72)"/><path d="M63.13,102.93c.34,0,.72,0,1.1,0a.55.55,0,0,0,.5-.64,1.71,1.71,0,0,0-.09-.45,2.22,2.22,0,0,1-.2-.52,2.86,2.86,0,0,1,.1-.66c-.84,0-1.67-.26-2.31.44A3,3,0,0,0,63.13,102.93Z" transform="translate(-3.3 -2.72)"/><path d="M89,109l-1.46.55c-.14.42-.24.74-.36,1.09a5.39,5.39,0,0,0,1.08.85h1A1.69,1.69,0,0,0,89,109Z" transform="translate(-3.3 -2.72)"/><path d="M104.73,106.13c1.15.23,1.28-.91,2-1.33-.29-.84-1-1-1.49-1.39-.32.31-.61.56-.86.83a1.07,1.07,0,0,0-.1,1.27C104.4,105.73,104.58,105.93,104.73,106.13Z" transform="translate(-3.3 -2.72)"/><path d="M67.49,110a.77.77,0,0,0-.3-.46c-.87-.51-1.54-.53-1.93.5-.07.18-.16.35-.24.53a1.35,1.35,0,0,0,0,.27l.31.62h1.32A1.42,1.42,0,0,0,67.49,110Z" transform="translate(-3.3 -2.72)"/><path d="M134.45,91.19c.14.17.24.28.33.4a1.43,1.43,0,0,0,1.66.4.94.94,0,0,0,.61-1.39h-2.17A1.2,1.2,0,0,1,134.45,91.19Z" transform="translate(-3.3 -2.72)"/><path d="M48.08,102.34l.2-.24a2.43,2.43,0,0,0-.29-.63Q48,101.91,48.08,102.34Z" transform="translate(-3.3 -2.72)"/><path d="M87.66,105.79a1.86,1.86,0,0,0,1.73-.06.78.78,0,0,0,.31-.46,2.73,2.73,0,0,0-.09-1.55,2.91,2.91,0,0,0-2.14.33c.13.41.28.76,0,1.14A.43.43,0,0,0,87.66,105.79Z" transform="translate(-3.3 -2.72)"/><path d="M80.13,92.11c.54.29.71.24,1.05-.25.15-.22.29-.45.42-.66l-.15-.6h-2a2.15,2.15,0,0,0-.32.83C79.44,91.65,79.77,91.91,80.13,92.11Z" transform="translate(-3.3 -2.72)"/><path d="M86.5,101c0-.09-.19-.14-.29-.15a3,3,0,0,0-1.45.11c-.14,1-.1,1.21.47,1.9a.58.58,0,0,0,.71.22l1.2-.53C87.35,101.85,86.78,101.5,86.5,101Z" transform="translate(-3.3 -2.72)"/><path d="M95.48,110c-.62-1.13-1.55-.82-2.48-.69,0,.81-.15,1.62.59,2.16h.12l1.26-.26A1.7,1.7,0,0,1,95.48,110Z" transform="translate(-3.3 -2.72)"/><path d="M53.45,106.93a4,4,0,0,0-1-.36c-.25-.06-.53,0-.79,0a8.06,8.06,0,0,1-.91-.25c.74,1.22.74,1.22.71,2.31a2.25,2.25,0,0,0,2.09-.44A.73.73,0,0,0,53.45,106.93Z" transform="translate(-3.3 -2.72)"/><path d="M120.21,101.34l-1-.66a1.77,1.77,0,0,0-.89.78c-.2.35-.47.72-.15,1.21.57-.09.9.35,1.28.77l1.09-.74C120.4,102.14,120.31,101.74,120.21,101.34Z" transform="translate(-3.3 -2.72)"/><path d="M99.21,100c.14.08.19.31.3.46a.48.48,0,0,0,.27.18,1.15,1.15,0,0,0,1.2-1.12c0-.34-.13-.67-.2-1a1.61,1.61,0,0,0-1.41-.36.54.54,0,0,0-.52.39C98.77,99,98.6,99.57,99.21,100Z" transform="translate(-3.3 -2.72)"/><path d="M50.05,105.85c.09.05.29-.07.4-.17a1.36,1.36,0,0,0,.38-1.26c-.06-.43-.41-.48-.75-.59-.76-.23-1.11,0-1.32.73l-.06.2c.15.38.3.75.48,1.11A1.18,1.18,0,0,1,50.05,105.85Z" transform="translate(-3.3 -2.72)"/><path d="M101.76,91.69a1.43,1.43,0,0,0,.26.23.57.57,0,0,0,.65,0l1.13-.72a.91.91,0,0,0,0-.65h-2.39C101.26,91,101.34,91.27,101.76,91.69Z" transform="translate(-3.3 -2.72)"/><path d="M74.53,103.09a6.11,6.11,0,0,0,.93-.19.82.82,0,0,0,.48-1.19c-.23-.56-.77-.71-1.19-1a.44.44,0,0,0-.6.2,4.41,4.41,0,0,0-.61,1.3A1.52,1.52,0,0,0,74.53,103.09Z" transform="translate(-3.3 -2.72)"/><path d="M105.41,92.34c-1.47.58-1.6,1-.88,2.43.56.23,1-.26,1.51-.2l.56-1.1Z" transform="translate(-3.3 -2.72)"/><path d="M75,106.23c-1.11.36-1.11.36-1.37,1.35,0,0,0,.07,0,.11a.59.59,0,0,0,.28.77,1.12,1.12,0,0,0,1.63-.18c.11-.11.22-.21.32-.33.29-.34.31-.59,0-.9S75.34,106.51,75,106.23Z" transform="translate(-3.3 -2.72)"/><path d="M68.06,91.08c-.18.17,0,.45.14.6a1,1,0,0,0,1.43.06c.29-.18.58-.34.89-.52a1.31,1.31,0,0,0-.22-.62h-2A.7.7,0,0,1,68.06,91.08Z" transform="translate(-3.3 -2.72)"/><path d="M85,97.49c.86.47,1.12.43,1.64-.26l.07-.09a.67.67,0,0,0,.07-1,5.84,5.84,0,0,1-.41-.8,6,6,0,0,0-.85,0,.87.87,0,0,0-.71,1.17C84.86,96.83,84.91,97.16,85,97.49Z" transform="translate(-3.3 -2.72)"/><path d="M92.42,96c-.19-.23-.38-.46-.56-.66-.53-.13-.9.21-1.32.29l-.28.86c.08.19.13.33.2.46l.34.62c.41,0,.78,0,1.16,0a.71.71,0,0,0,.4-.16A.92.92,0,0,0,92.42,96Z" transform="translate(-3.3 -2.72)"/><path d="M119,92a1.17,1.17,0,0,0,1.29-.51,4.11,4.11,0,0,0,.28-.6c-.08-.1-.16-.18-.24-.27H118A1.4,1.4,0,0,0,119,92Z" transform="translate(-3.3 -2.72)"/><path d="M108.66,95.45a.54.54,0,0,0-.71-.14l-.62.28a.64.64,0,0,0-.43.61,3.08,3.08,0,0,0,0,.68.54.54,0,0,0,.24.37,3.22,3.22,0,0,0,1.07.32c.21,0,.44-.25.65-.4s.36-.28.54-.43a6.45,6.45,0,0,0-.28-.64A7.68,7.68,0,0,0,108.66,95.45Z" transform="translate(-3.3 -2.72)"/><path d="M90,99.26a5.13,5.13,0,0,0-.55-.87,1.23,1.23,0,0,0-.66-.38,1.26,1.26,0,0,0-1.28.78,6.06,6.06,0,0,0-.21.76,1.55,1.55,0,0,0,1.09.8c.52-.29,1-.54,1.43-.81C89.86,99.5,89.89,99.36,90,99.26Z" transform="translate(-3.3 -2.72)"/><path d="M124.92,100.87a7.91,7.91,0,0,0-.93.29.59.59,0,0,0-.33.29,1,1,0,0,0,.08,1.07,2.56,2.56,0,0,0,1,.86C126.25,102.65,126.31,101.94,124.92,100.87Z" transform="translate(-3.3 -2.72)"/><path d="M90.58,91.81A.64.64,0,0,0,91,92c.63.11,1.07-.3,1.53-.56.05-.32.09-.6.13-.87H90.29C90.11,91,90.3,91.39,90.58,91.81Z" transform="translate(-3.3 -2.72)"/><path d="M61.8,92.93a1.32,1.32,0,0,0-.85-.25,3.58,3.58,0,0,1-.74-.06,1.78,1.78,0,0,0-.72,1.13l1,1,1-.39s.09,0,.11,0A3.09,3.09,0,0,0,62,94,.65.65,0,0,0,61.8,92.93Z" transform="translate(-3.3 -2.72)"/><path d="M72.66,100.19c-.26-.57.2-1,.46-1.54l-.82-.8c-1.38.61-1.38.61-1.71,1.68C71.37,100.52,71.49,100.56,72.66,100.19Z" transform="translate(-3.3 -2.72)"/><path d="M84.15,110.55A2.17,2.17,0,0,0,83.07,109a1.44,1.44,0,0,0-.95.63,1.55,1.55,0,0,0-.23,1c0,.17.12.42.25.48a3.5,3.5,0,0,0,.79.31h.49a1.26,1.26,0,0,0,.44-.21A.6.6,0,0,0,84.15,110.55Z" transform="translate(-3.3 -2.72)"/><path d="M92.37,107.12a6.56,6.56,0,0,0-.59-.6c-.31.15-.58.42-1,.29-.07,0-.2.09-.28.13-.1.31-.19.6-.29.89l.59,1.09a3.76,3.76,0,0,0,1.63-.07,1.46,1.46,0,0,1,0-1.21A.68.68,0,0,0,92.37,107.12Z" transform="translate(-3.3 -2.72)"/><path d="M70.47,108.13a1.81,1.81,0,0,0-.55-1.42,1.87,1.87,0,0,0-2.13.14c-.08.59.51.79.56,1.35.61.12,1.09.22,1.58.29A.5.5,0,0,0,70.47,108.13Z" transform="translate(-3.3 -2.72)"/><path d="M86.87,108.18a.54.54,0,0,0,.2-.62,1.51,1.51,0,0,0-.73-.86c-.33-.17-.67-.42-1.1-.15-.08.19-.16.4-.26.6s-.24.38-.35.56A3.75,3.75,0,0,0,85.79,109C86.21,108.69,86.56,108.45,86.87,108.18Z" transform="translate(-3.3 -2.72)"/><path d="M99.56,95c.51-.12,1.09,0,1.48-.53a3.45,3.45,0,0,0-1-2c-.19.09-.36.19-.53.25a6,6,0,0,1-.61.15c-.3.69.15,1.23.22,1.82C99.12,94.81,99.43,95,99.56,95Z" transform="translate(-3.3 -2.72)"/><path d="M68.47,95.76c-.14.17-.3.33-.46.49s-.31.48-.05.77a1,1,0,0,0,.68.37c.3,0,.59.08,1,.13a4.75,4.75,0,0,0,.5-.53,1.11,1.11,0,0,0-.27-1.52A1,1,0,0,0,68.47,95.76Z" transform="translate(-3.3 -2.72)"/><path d="M101,104.43c-.25-.6-.34-.81-1.09-.78-.3,0-.59,0-.9.08a3.71,3.71,0,0,0-.14,2c.47,0,.88,0,1.3,0A.9.9,0,0,0,101,104.43Z" transform="translate(-3.3 -2.72)"/><path d="M61.89,110.29c-.39-.45-.61-1.08-1.33-1.27-.57.28-.75.8-1,1.25.25.44.71.68.89,1.17h1.06a6.74,6.74,0,0,0,.36-.63C61.91,110.66,62,110.38,61.89,110.29Z" transform="translate(-3.3 -2.72)"/><path d="M66.29,94.64c.22,0,.43.11.64.17a1.88,1.88,0,0,0,.53-1.93l-1.33-.53a1.28,1.28,0,0,0-.74.9,1.48,1.48,0,0,0,.18,1.1C65.71,94.63,66,94.59,66.29,94.64Z" transform="translate(-3.3 -2.72)"/><path d="M138.69,98.08c-.29.18-.59.35-.87.54a.88.88,0,0,0,.18,1.55c.27.12.54.26.87.43.72-.28.66-1,1.07-1.49A3,3,0,0,0,138.69,98.08Z" transform="translate(-3.3 -2.72)"/><path d="M92,103a5.08,5.08,0,0,0,.39-.33v-1.29c-.68-.61-.78-.62-1.82-.11a6.49,6.49,0,0,0-.3.92.78.78,0,0,0,.11.54A1.19,1.19,0,0,0,92,103Z" transform="translate(-3.3 -2.72)"/><path d="M96.19,97.43a.83.83,0,0,0,.82.29l.74-.2c.11-.39.25-.75.32-1.12a1.18,1.18,0,0,0-1-1.19c-.36,0-1,.41-.92.72A2.54,2.54,0,0,1,96,97,.52.52,0,0,0,96.19,97.43Z" transform="translate(-3.3 -2.72)"/><path d="M83.41,106.09l.77-1.21-.37-1.08-1.06-.34c-.12.11-.28.18-.29.25,0,.71-.5,1.36-.3,2.08A1.15,1.15,0,0,0,83.41,106.09Z" transform="translate(-3.3 -2.72)"/><path d="M73,110.89c-.1-.42-.2-.82-.31-1.27l-1.1-.55c-.69.37-.63,1-.88,1.46l.48.9.12,0h1.13A1,1,0,0,0,73,110.89Z" transform="translate(-3.3 -2.72)"/><path d="M56.88,91.41c.17.13.37.25.54.4a1.06,1.06,0,0,0,1.28,0c.48-.2.53-.64.6-1a.42.42,0,0,0,0-.22H57.11a3.86,3.86,0,0,0-.17.43A2.77,2.77,0,0,0,56.88,91.41Z" transform="translate(-3.3 -2.72)"/><path d="M102.88,95.39c-.09-.14-.29-.19-.45-.29-.39.34-.74.62-1.09.92.1.42.2.82.31,1.23.23.17.46.43.8.28s1.11,0,1.35-.8C103.52,96.31,103.22,95.84,102.88,95.39Z" transform="translate(-3.3 -2.72)"/><path d="M73.9,91.77l.39.06c1.23.18,1.22.17,1.51-1a.88.88,0,0,0,0-.21H73.71c0,.12-.09.23-.13.34Z" transform="translate(-3.3 -2.72)"/><path d="M110.75,106.14l.27,0,.67-.26a6.05,6.05,0,0,1,.12-.88c.09-.25.27-.51.07-.74a2.09,2.09,0,0,0-.63-.46.8.8,0,0,0-1,.17c-.16.16-.3.33-.44.48A2.2,2.2,0,0,0,110.75,106.14Z" transform="translate(-3.3 -2.72)"/><path d="M115.53,100c.34.16.7.26,1,.39.37-.39.89-.47,1.1-.93-.13-.31-.26-.62-.4-.92a.64.64,0,0,0-.75-.39,1.88,1.88,0,0,0-1.28.9A.64.64,0,0,0,115.53,100Z" transform="translate(-3.3 -2.72)"/><path d="M78.77,93.54c-.18-.32-.38-.63-.57-.94-.57-.21-1,.12-1.55.27-.1.2-.2.4-.3.58l.61,1a.87.87,0,0,0,1.28.24,3.18,3.18,0,0,0,.48-.49A.51.51,0,0,0,78.77,93.54Z" transform="translate(-3.3 -2.72)"/><path d="M66.12,100.39a7.91,7.91,0,0,0,.94,0l.64-1.17-.64-1c-.41.11-.75.43-1.21.27-.11,0-.36.13-.46.27A1,1,0,0,0,66.12,100.39Z" transform="translate(-3.3 -2.72)"/><path d="M99,109.41a1.23,1.23,0,0,0-.39.54,1.26,1.26,0,0,0,.35,1.27l1.19.19c1.07-.76.76-1.13.37-1.71A1.11,1.11,0,0,0,99,109.41Z" transform="translate(-3.3 -2.72)"/><path d="M52.93,97.51c.15-.22.34-.47.5-.73a.77.77,0,0,0-.29-1.24c-.16-.09-.35-.15-.55-.24l-1.19.64a3.06,3.06,0,0,1,.06.66,2.41,2.41,0,0,1-.25.57A1.69,1.69,0,0,0,52.93,97.51Z" transform="translate(-3.3 -2.72)"/><path d="M112.46,90.6a3.46,3.46,0,0,0-.22.31c.2.19.4.36.58.54a1.16,1.16,0,0,0,1.69.25c.11-.06.22-.3.18-.36a.84.84,0,0,1,0-.74Z" transform="translate(-3.3 -2.72)"/><path d="M56.1,110.22c0-.17-.11-.43-.21-.63-.21-.43-.61-.41-1-.36a.64.64,0,0,0-.57.62c0,.27-.11.52-.18.85a6.22,6.22,0,0,0,.86.75h.93l.42-.32C56.32,110.77,56,110.6,56.1,110.22Z" transform="translate(-3.3 -2.72)"/><path d="M111.37,100.57c.19-.41.37-.79.54-1.17a.6.6,0,0,0-.1-.65,1,1,0,0,0-1-.41c-.37.08-.72.23-1.09.34,0,.25,0,.44,0,.63,0,.69.23.93.93,1.09Z" transform="translate(-3.3 -2.72)"/><path d="M104.62,98.59a1,1,0,0,0-.1,1.63,1.18,1.18,0,0,0,1.29,0,1.25,1.25,0,0,0,.48-1.65l-.77-.5C105.19,98.25,104.9,98.41,104.62,98.59Z" transform="translate(-3.3 -2.72)"/><path d="M96.08,91.43c0,.13.23.31.39.35a1.8,1.8,0,0,0,1.16-.07l.68-1s0-.06-.07-.1H96A4.62,4.62,0,0,0,96.08,91.43Z" transform="translate(-3.3 -2.72)"/><path d="M53.5,91.57a1.21,1.21,0,0,0,.07-.93c-.5.44-1,.87-1.38,1.31.33,0,.64-.09.94-.15A.65.65,0,0,0,53.5,91.57Z" transform="translate(-3.3 -2.72)"/><path d="M80.38,100.88a5.53,5.53,0,0,0-.81.26,3.32,3.32,0,0,0-.5.45l1.06,1.78a2.38,2.38,0,0,0,1.48-1.61A1.78,1.78,0,0,0,80.38,100.88Z" transform="translate(-3.3 -2.72)"/><path d="M80.32,106.43a4.41,4.41,0,0,0-.6,0l-.59,1.19c.11.14.21.26.29.38s.17.25.27.4l.54.1c.67.14,1-.07,1.16-.7A1.18,1.18,0,0,0,80.32,106.43Z" transform="translate(-3.3 -2.72)"/><path d="M81.08,95.63a3.4,3.4,0,0,0-.87-.28.88.88,0,0,0-.64.14c-.94.77-.89,1-.09,1.7a4.28,4.28,0,0,0,.66.37l.87-.8a1.88,1.88,0,0,0,.24-.25A.56.56,0,0,0,81.08,95.63Z" transform="translate(-3.3 -2.72)"/><path d="M89.07,94.81a.53.53,0,0,0,.28-.17c.17-.29.32-.59.48-.92a3.23,3.23,0,0,0-.43-.83,1,1,0,0,0-1-.31,1.16,1.16,0,0,0-.78.91A1.31,1.31,0,0,0,89.07,94.81Z" transform="translate(-3.3 -2.72)"/><path d="M69.08,100.94c-.34.25-.66.46-1,.69a2.48,2.48,0,0,0-.36.42c.59.4.91,1.13,1.72,1.06a2.54,2.54,0,0,0,1-1.37l-.32-.56Z" transform="translate(-3.3 -2.72)"/><path d="M131.38,96.18a8.07,8.07,0,0,0-.34-.83c-.22,0-.41,0-.6,0-.81,0-1.16.47-1,1.26,0,.22.09.43.15.73a7.81,7.81,0,0,0,.93.29.68.68,0,0,0,.51-.17A1.27,1.27,0,0,0,131.38,96.18Z" transform="translate(-3.3 -2.72)"/><path d="M113.22,95.54a.84.84,0,0,0-.66,1.32,2,2,0,0,0,1.23.75.65.65,0,0,0,.68-.32l.41-.67A1.53,1.53,0,0,0,113.22,95.54Z" transform="translate(-3.3 -2.72)"/><path d="M82.91,94.81a3,3,0,0,0,1.21-.7v-.92a6.4,6.4,0,0,0-.61-.71.62.62,0,0,0-.52-.11,1.37,1.37,0,0,0-.47,2.26A.49.49,0,0,0,82.91,94.81Z" transform="translate(-3.3 -2.72)"/><path d="M119,97.61c.65.08.81-.06,1.09-.68a.88.88,0,0,0-.21-1.21c-.2-.17-.39-.36-.56-.52-.82.33-.82.33-1.27,1.17.15.33.27.61.41.87A.69.69,0,0,0,119,97.61Z" transform="translate(-3.3 -2.72)"/><path d="M112.85,108.24c0,.06.08.12.13.19l.44.12.44.16c.62-.32.75-.87,1.08-1.28l-.59-1c-.54.09-1,.15-1.44.24a.54.54,0,0,0-.36.81A2,2,0,0,1,112.85,108.24Z" transform="translate(-3.3 -2.72)"/><path d="M117.29,110.44a1.5,1.5,0,0,0-1.09-1.19.51.51,0,0,0-.6.22c-.2.32-.35.66-.51,1,.26.58.47.89.74,1h.83A.92.92,0,0,0,117.29,110.44Z" transform="translate(-3.3 -2.72)"/><path d="M50.38,100.6a.75.75,0,0,0,.4-1.3c-.3-.37-.59-.76-.92-1.19-.72.12-.91.73-1.12,1.36l.9,1.14A3.69,3.69,0,0,0,50.38,100.6Z" transform="translate(-3.3 -2.72)"/><path d="M76.33,105.41a3.86,3.86,0,0,0,.71.51,1.11,1.11,0,0,0,1-.21,1,1,0,0,0,.15-1.85l-.46-.41c-.42,0-.69.22-.66.55.06.55-.27.82-.61,1.12C76.4,105.15,76.4,105.19,76.33,105.41Z" transform="translate(-3.3 -2.72)"/><path d="M53.38,101.44l-.68-.79a1.47,1.47,0,0,0-1.15.81c-.31.47-.3.75.16,1.06a3,3,0,0,0,.93.41.75.75,0,0,0,.84-.22,1.11,1.11,0,0,0,0-1.09C53.5,101.55,53.43,101.5,53.38,101.44Z" transform="translate(-3.3 -2.72)"/><path d="M50.78,93.53c-.24.31-.47.63-.68.94a5.24,5.24,0,0,0,.64-.2C50.75,94,50.77,93.79,50.78,93.53Z" transform="translate(-3.3 -2.72)"/><path d="M132.91,105.88c.46-.31,1.07-.46,1.27-1.08l-.83-1.38c-.32.15-.57.26-.8.39a1.18,1.18,0,0,0-.16,2A.54.54,0,0,0,132.91,105.88Z" transform="translate(-3.3 -2.72)"/><path d="M96.49,108.27c.49,0,1,0,1.48,0l.25-.78c-.06-.11-.1-.18-.13-.25-.24-.55-.78-.66-1.29-.8s-.57.41-.86.61a3.49,3.49,0,0,0-.42.36C95.69,107.93,96,108.26,96.49,108.27Z" transform="translate(-3.3 -2.72)"/><path d="M58.54,97.64c.2-.18.4-.27.47-.43.5-1.16.68-1.38-.47-1.85a1.18,1.18,0,0,0-.36,0,6.94,6.94,0,0,0-.83.57.72.72,0,0,0,.18,1.22C57.83,97.31,58.14,97.44,58.54,97.64Z" transform="translate(-3.3 -2.72)"/><path d="M72.15,103.64c-.77,0-1,.48-1.16,1.07.24.5.19,1.2,1,1.45A2.35,2.35,0,0,0,73,104.82C72.8,104.37,72.93,103.7,72.15,103.64Z" transform="translate(-3.3 -2.72)"/><path d="M72.26,94.84a8.54,8.54,0,0,0,.67-.69.57.57,0,0,0,.12-.42c-.12-1-.42-1.23-1.43-1.18a.9.9,0,0,0-.26.09,1.64,1.64,0,0,0-.3,1.59Z" transform="translate(-3.3 -2.72)"/><path d="M55.72,92.76a1.07,1.07,0,0,0-1.28.68,3.17,3.17,0,0,1-.38.52l.54.59a.91.91,0,0,0,1.15.16c.37-.17.64-.4.51-.88a.93.93,0,0,1,0-.33C56.33,93,56.22,92.82,55.72,92.76Z" transform="translate(-3.3 -2.72)"/><path d="M81.92,99.53a1.06,1.06,0,0,0,1,.63c.33-.08.74-.17,1.15-.3.07,0,.15-.2.14-.28a8.32,8.32,0,0,0-.33-1.21.65.65,0,0,0-.82-.23,5.35,5.35,0,0,0-.78.49A.77.77,0,0,0,81.92,99.53Z" transform="translate(-3.3 -2.72)"/><path d="M126.41,100c1.33.74,1.83.47,2.17-1.12a2.38,2.38,0,0,0-1.36-.54C126.69,98.75,126.16,99.14,126.41,100Z" transform="translate(-3.3 -2.72)"/><path d="M102,103.12c1.32-.17,1.5-.32,1.8-1.43-.33-.76-1.12-.49-1.73-.79a3.65,3.65,0,0,0-.4.52.62.62,0,0,0-.06.42,5,5,0,0,0,.35.58C102.1,102.64,101.65,102.9,102,103.12Z" transform="translate(-3.3 -2.72)"/><path d="M75.35,97.3c.72-1.09.64-1.42-.44-1.93a4.21,4.21,0,0,0-.39.17,1.46,1.46,0,0,0-.3.17c-.78.61-.81.84-.22,1.67l.17.18Z" transform="translate(-3.3 -2.72)"/><path d="M126.47,105c.32.44.69.83,1.23.72.78,0,1-.24,1-.9a.78.78,0,0,0-.46-.72,2,2,0,0,0-1.22-.22A.69.69,0,0,0,126.47,105Z" transform="translate(-3.3 -2.72)"/><path d="M134,110.73a.75.75,0,0,0-.3-1.28c-.21-.08-.44-.12-.64-.18-.73.36-.73.36-1.08,1.11.08.25.17.5.27.81C133.15,111.28,133.56,111.16,134,110.73Z" transform="translate(-3.3 -2.72)"/><path d="M64.36,106.73a1.45,1.45,0,0,0-1.85.8,6.22,6.22,0,0,0,.47.71,1.1,1.1,0,0,0,.74.49,1,1,0,0,0,.92-.47C64.34,107.82,64.9,107.19,64.36,106.73Z" transform="translate(-3.3 -2.72)"/><path d="M113.68,100.88c-.19,0-.38,0-.63,0-.23.69-.63,1.26-.18,1.89a3.54,3.54,0,0,1,.69.06,3,3,0,0,1,.56.3c.72-.64.72-.64.36-1.31a3,3,0,0,1-.21-.52A.62.62,0,0,0,113.68,100.88Z" transform="translate(-3.3 -2.72)"/><path d="M127.4,95c.53-.22,1.14-.4,1.21-1.11a1.11,1.11,0,0,0-1-.87c-.43,0-.93-.16-1.22.4a2,2,0,0,1,.16.63C126.54,94.63,126.91,94.84,127.4,95Z" transform="translate(-3.3 -2.72)"/><path d="M139.78,93.17a9,9,0,0,0-1.11-.58.7.7,0,0,0-1,.73v.45c0,.32,0,.64.36.77a.82.82,0,0,0,.86-.11c.3-.23.61-.45.9-.68A.34.34,0,0,0,139.78,93.17Z" transform="translate(-3.3 -2.72)"/><path d="M64.22,97.49c.24-.21.47-.45.67-.66a2.23,2.23,0,0,0-.84-1.13c-.35-.27-.67-.2-1,.18-.13.18-.25.37-.37.55a5.92,5.92,0,0,0,.22.78A.78.78,0,0,0,64.22,97.49Z" transform="translate(-3.3 -2.72)"/><path d="M55.47,98c-.39.45-.39.45-1.31.68-.18.73.19,1.21.78,1.69.24-.08.42-.15.6-.19a4.63,4.63,0,0,1,.48-.1c.11-.41.2-.76.31-1.15Z" transform="translate(-3.3 -2.72)"/><path d="M136.63,102.64c.25-1.27.15-1.44-1-1.72l-.11,0a.4.4,0,0,0-.49.45.79.79,0,0,1-.18.63,3.66,3.66,0,0,0-.31.59C135.27,103.25,136,102.87,136.63,102.64Z" transform="translate(-3.3 -2.72)"/><path d="M138.62,111.28H139a.93.93,0,0,0,.8-.83,1,1,0,0,0-.77-1,1.24,1.24,0,0,0-1.5.67c.07.17.12.31.17.45C137.88,111.23,138,111.28,138.62,111.28Z" transform="translate(-3.3 -2.72)"/><path d="M127.41,111.29a1.32,1.32,0,0,0,1.11-.71.77.77,0,0,0-.45-1.19,1.38,1.38,0,0,0-1.54.64c-.09.17-.14.35-.2.49A1.1,1.1,0,0,0,127.41,111.29Z" transform="translate(-3.3 -2.72)"/><path d="M57.1,107.06c0,.35,0,.66,0,1,0,.53.33.81.82.69a2.56,2.56,0,0,0,1.46-.8C58.74,106.82,58.56,106.75,57.1,107.06Z" transform="translate(-3.3 -2.72)"/><path d="M138.91,105.93a1.45,1.45,0,0,0,.36-.28,2,2,0,0,0,.46-.63c.12-.32-.26-.42-.38-.65s-.15-.32-.23-.47c-.41,0-.76,0-1.1,0a.62.62,0,0,0-.55.51,1,1,0,0,0,.51,1.06C138.28,105.64,138.59,105.77,138.91,105.93Z" transform="translate(-3.3 -2.72)"/><path d="M93.56,100.11a.55.55,0,0,0,.7.23,1.58,1.58,0,0,0,1.18-1.23c-.36-.76-1-.61-1.71-.73l-.7.68C93.25,99.51,93.39,99.82,93.56,100.11Z" transform="translate(-3.3 -2.72)"/><path d="M136.63,108.43a1.19,1.19,0,0,0-.11-1.79l-1.26-.18a7.92,7.92,0,0,1-.18.8c-.09.28-.36.51-.16.92C135.43,108.26,135.92,108.65,136.63,108.43Z" transform="translate(-3.3 -2.72)"/><path d="M78.33,100.08c0-.24.1-.46.14-.69a1.12,1.12,0,0,0-1.12-1.27.78.78,0,0,0-.66.55c0,.37-.06.73-.08,1.1l1.14.61Z" transform="translate(-3.3 -2.72)"/><path d="M122.59,111.22a1.43,1.43,0,0,0,.47-1.26c0-.16-.19-.39-.32-.41a7.49,7.49,0,0,0-1.34-.1.6.6,0,0,0-.51.9C121.27,111.14,121.48,111.28,122.59,111.22Z" transform="translate(-3.3 -2.72)"/><path d="M56.82,102.31l.53.78,1.38-.25c.15-.48.27-.88.41-1.35-.66-.52-1-.55-1.49,0a1.09,1.09,0,0,1-.66.36C56.67,101.9,56.63,102,56.82,102.31Z" transform="translate(-3.3 -2.72)"/><path d="M97.71,101.09a1.88,1.88,0,0,0-.18-.12l-1.22.06c-.1.43-.19.86-.3,1.31a7.89,7.89,0,0,0,1.73.56C98.51,101.9,98.51,101.85,97.71,101.09Z" transform="translate(-3.3 -2.72)"/><path d="M122.62,98.6c-.48.06-.5,0-.58-.46,0-.19-.13-.28-.3-.23s-.22.18-.2.23c.1.31,0,.46-.25.67-.57.48-.55.6-.06,1.31h1.36l.73-1.08C123.13,98.67,122.94,98.56,122.62,98.6Z" transform="translate(-3.3 -2.72)"/><path d="M124.54,106.55a1.79,1.79,0,0,0-.8,1.81l1,.35.15-.07.78-.58c-.15-.48-.27-1-.43-1.4C125.18,106.44,124.77,106.39,124.54,106.55Z" transform="translate(-3.3 -2.72)"/><path d="M55,103.78l-.9,1.21c0,.07,0,.11,0,.14l.26.37c.41.55.64.59,1.21.22a3.72,3.72,0,0,0,.45-.33.76.76,0,0,0-.16-1.24A7.46,7.46,0,0,0,55,103.78Z" transform="translate(-3.3 -2.72)"/><path d="M136.57,96.86c.13-.18.24-.36.33-.49a1.24,1.24,0,0,0-1.08-1,1.28,1.28,0,0,0-.95.73c-.13.32-.3.61-.06,1l.76.2C136.18,97.43,136.18,97.43,136.57,96.86Z" transform="translate(-3.3 -2.72)"/><path d="M129.61,91.73l1.19.36.56-1a3.59,3.59,0,0,0-.26-.5h-1.91C129.07,90.84,129.19,91.19,129.61,91.73Z" transform="translate(-3.3 -2.72)"/><path d="M84.85,92.16c.75.36,1-.37,1.59-.51,0-.3-.2-.56.1-.77.08,0,.11-.16.15-.28H85.22A2.36,2.36,0,0,0,84.85,92.16Z" transform="translate(-3.3 -2.72)"/><path d="M117.73,104.39c0-.09-.14-.22-.22-.23a4.42,4.42,0,0,0-1.15,0,1.5,1.5,0,0,0-1,.71.55.55,0,0,0-.08.43,1.21,1.21,0,0,0,1.55.57s0-.06.06-.09-.08-.28-.16-.52c.35-.21.66-.37.94-.57A.4.4,0,0,0,117.73,104.39Z" transform="translate(-3.3 -2.72)"/><path d="M93.4,94.75,95,94.52V93.17c-.25-.18-.49-.36-.75-.53a3,3,0,0,0-.76.26c-.14.08-.31.38-.27.44C93.57,93.76,93.17,94.23,93.4,94.75Z" transform="translate(-3.3 -2.72)"/><path d="M119,106.66l-.62.11c-.3.7.18,1.23.19,1.92a3.52,3.52,0,0,0,.69,0,.91.91,0,0,0,.76-1.34C119.8,106.91,119.52,106.59,119,106.66Z" transform="translate(-3.3 -2.72)"/><path d="M64.39,91.74c0-.25.07-.51.07-.76a2.38,2.38,0,0,0,0-.38H62.59l-.14.15C62.85,91.83,63,91.91,64.39,91.74Z" transform="translate(-3.3 -2.72)"/><path d="M66.67,105.7a.69.69,0,0,0,.8-.3.72.72,0,0,0,0-.85,1,1,0,0,0-1.62-.43,1.13,1.13,0,0,0-.57.93c.23.13.42.26.62.36A4.11,4.11,0,0,0,66.67,105.7Z" transform="translate(-3.3 -2.72)"/><path d="M125.07,97.4a2.72,2.72,0,0,1,.43-.15c0-.43.1-.84.15-1.28l-1-.22a.89.89,0,0,0-1,.33.85.85,0,0,0,.18,1A1,1,0,0,0,125.07,97.4Z" transform="translate(-3.3 -2.72)"/><path d="M117.53,93.88a2,2,0,0,0-.49-.39,2.25,2.25,0,0,1-1.15-.67,2.44,2.44,0,0,0-.9.88,3.54,3.54,0,0,0,.36.45C116.36,95.13,116.9,95,117.53,93.88Z" transform="translate(-3.3 -2.72)"/><path d="M60.2,104.36a.76.76,0,0,0-.21.08c-.26.12-.43.49-.28.67a3.74,3.74,0,0,0,.81.78c.16.11.43,0,.63,0l.73-1.23-.29-.76Z" transform="translate(-3.3 -2.72)"/><path d="M121.4,105.48c.38,0,.75,0,1,0,.61-.62.2-1.11,0-1.59-.08,0-.12-.06-.15-.05-.27,0-.53,0-.8.06-.59.08-.77.31-.74.92C120.81,105.23,121,105.46,121.4,105.48Z" transform="translate(-3.3 -2.72)"/><path d="M129.62,106.81a.41.41,0,0,0-.22.57c.34.51.51,1.23,1.31,1.24a.8.8,0,0,0,.47-.84,2.38,2.38,0,0,0-.55-1.33A9,9,0,0,0,129.62,106.81Z" transform="translate(-3.3 -2.72)"/><path d="M133.68,94.14c.56-.18.68-.6.29-1a.88.88,0,0,0-1-.27,1.19,1.19,0,0,0-.9,1.33l.43.39C133,94.38,133.33,94.25,133.68,94.14Z" transform="translate(-3.3 -2.72)"/><path d="M125.23,91.42a1.15,1.15,0,0,0,.32-.82h-2a1.57,1.57,0,0,0-.2.3C124,91.81,123.86,91.57,125.23,91.42Z" transform="translate(-3.3 -2.72)"/><path d="M133.44,98.49c-.61-.08-.92.25-1.28.68a1.16,1.16,0,0,0,.93,1c.65.15.88-.42,1.31-.69C134,99.18,134,98.57,133.44,98.49Z" transform="translate(-3.3 -2.72)"/><path d="M131.18,101.7l-1-.57a1.13,1.13,0,0,0-1,1l.84.82a.14.14,0,0,0,.11,0c.36-.18.73-.36,1.08-.56A.38.38,0,0,0,131.18,101.7Z" transform="translate(-3.3 -2.72)"/><path d="M122.31,94.5c.18-.25.36-.53.54-.79-.71-.88-.9-1-1.74-.81-.1.28-.19.56-.31.92a4.28,4.28,0,0,0,1.26.72C122.12,94.57,122.21,94.52,122.31,94.5Z" transform="translate(-3.3 -2.72)"/><path class="cls-6" d="M162.59,125.84h-131a2.41,2.41,0,0,1-2.41-2.42V111.56a2.42,2.42,0,0,1,1.31-2.15c3.45-1.77,4.18-5.54,4.18-8.39s-.73-6.62-4.18-8.39a2.41,2.41,0,0,1-1.31-2.14V54.64a13,13,0,0,1,13-13H152a13,13,0,0,1,13,13v36a2.4,2.4,0,0,1-1.27,2.12c-3.29,1.78-4,5.5-4,8.3s.7,6.52,4,8.3a2.41,2.41,0,0,1,1.27,2.13v12A2.41,2.41,0,0,1,162.59,125.84ZM34,121H160.18v-8.23c-3.41-2.44-5.26-6.55-5.26-11.76s1.85-9.32,5.26-11.76V54.64A8.2,8.2,0,0,0,152,46.45H42.15A8.2,8.2,0,0,0,34,54.64V89.12c3.56,2.43,5.49,6.59,5.49,11.9S37.52,110.5,34,112.93ZM162.59,90.6h0Z" transform="translate(-3.3 -2.72)"/><path class="cls-6" d="M53.61,125.35H40.93a1.93,1.93,0,1,1,0-3.86H51.68v-9c-3.4-2.33-5.25-6.36-5.25-11.51s1.85-9.18,5.25-11.5V54.64A8.68,8.68,0,0,0,43,46a1.93,1.93,0,0,1,0-3.86A12.55,12.55,0,0,1,55.54,54.64v36a1.92,1.92,0,0,1-1,1.7C51,94.19,50.29,98.09,50.29,101s.73,6.83,4.24,8.73a1.92,1.92,0,0,1,1,1.7v12A1.92,1.92,0,0,1,53.61,125.35Z" transform="translate(-3.3 -2.72)"/><path class="cls-6" d="M162.59,92.53h-109a1.93,1.93,0,1,1,0-3.86h109a1.93,1.93,0,1,1,0,3.86Z" transform="translate(-3.3 -2.72)"/><path class="cls-6" d="M162.59,113.38h-109a1.93,1.93,0,0,1,0-3.86h109a1.93,1.93,0,1,1,0,3.86Z" transform="translate(-3.3 -2.72)"/><path class="cls-6" d="M159.27,140H37.86A1.93,1.93,0,0,1,35.93,138V123.31a1.93,1.93,0,1,1,3.86,0v12.8H157.34v-12.8a1.93,1.93,0,1,1,3.86,0V138A1.92,1.92,0,0,1,159.27,140Z" transform="translate(-3.3 -2.72)"/><rect class="cls-7" x="36.73" y="112.36" width="7.24" height="22.07"/><path class="cls-6" d="M47.27,139.08H40a1.92,1.92,0,0,1-1.93-1.93V115.08A1.92,1.92,0,0,1,40,113.15h7.24a1.92,1.92,0,0,1,1.93,1.93v22.07A1.92,1.92,0,0,1,47.27,139.08ZM42,135.22h3.38V117H42Z" transform="translate(-3.3 -2.72)"/><path class="cls-3" d="M148.82,57.25H123.55a1.93,1.93,0,1,1,0-3.86h25.27a1.93,1.93,0,1,1,0,3.86Z" transform="translate(-3.3 -2.72)"/><path class="cls-3" d="M111.87,57.25H64.05a1.93,1.93,0,0,1,0-3.86h47.82a1.93,1.93,0,0,1,0,3.86Z" transform="translate(-3.3 -2.72)"/><path class="cls-8" d="M153,158.94a10.57,10.57,0,0,1-7.13-2.69,5.08,5.08,0,0,0-7.15,0,10.79,10.79,0,0,1-14.26,0,5.07,5.07,0,0,0-7.14,0,10.79,10.79,0,0,1-14.26,0,5.07,5.07,0,0,0-7.14,0,10.78,10.78,0,0,1-14.25,0,5.07,5.07,0,0,0-7.14,0,10.79,10.79,0,0,1-14.26,0,4.91,4.91,0,0,0-3.57-1.47,2.9,2.9,0,0,1,0-5.79,10.57,10.57,0,0,1,7.13,2.69,5.07,5.07,0,0,0,7.14,0,10.79,10.79,0,0,1,14.26,0,5.06,5.06,0,0,0,7.13,0,10.79,10.79,0,0,1,14.26,0,5.07,5.07,0,0,0,7.14,0,10.79,10.79,0,0,1,14.26,0,5.07,5.07,0,0,0,7.14,0,10.81,10.81,0,0,1,14.27,0,4.91,4.91,0,0,0,3.57,1.47,2.9,2.9,0,0,1,0,5.79Z" transform="translate(-3.3 -2.72)"/></svg>