<?xml version="1.0" encoding="utf-8"?>
<!-- Generator: Adobe Illustrator 24.1.3, SVG Export Plug-In . SVG Version: 6.00 Build 0)  -->
<svg version="1.1" id="Layer_1" xmlns="http://www.w3.org/2000/svg" xmlns:xlink="http://www.w3.org/1999/xlink" x="0px" y="0px"
	 viewBox="0 0 144 144" style="enable-background:new 0 0 144 144;" xml:space="preserve">
<style type="text/css">
	.st0{fill:#FEDB46;}
	.st1{fill:#B0D57D;}
	.st2{fill:#9989C1;}
	.st3{fill:none;stroke:#000000;stroke-width:5;stroke-linecap:round;stroke-linejoin:round;stroke-miterlimit:10;}
	.st4{fill:none;stroke:#000000;stroke-width:6;stroke-linecap:round;stroke-linejoin:round;stroke-miterlimit:10;}
	.st5{fill:none;stroke:#000000;stroke-width:4;stroke-linecap:round;stroke-linejoin:round;stroke-miterlimit:10;}
	.st6{fill:#F79221;stroke:#000000;stroke-width:3;stroke-linecap:round;stroke-linejoin:round;stroke-miterlimit:10;}
	.st7{fill:none;stroke:#000000;stroke-width:3;stroke-linecap:round;stroke-linejoin:round;stroke-miterlimit:10;}
</style>
<g>
	<g>
		<path class="st0" d="M108.1,116.5c0,4.3-13.9,7.7-31.1,7.7s-31.1-3.4-31.1-7.7"/>
		<polyline class="st0" points="45.9,116.5 59.4,65.3 94.6,65.3 108.1,116.5 		"/>
	</g>
	<path class="st1" d="M108.7,37.6C103.2,25.1,90.8,17.4,76,17.4c-14.8,0-27.2,7.7-32.7,20.1"/>
	<path class="st2" d="M131.9,47.1c0,8-27.2,14.8-59.9,14.8s-59.2-7.2-59.2-15.2s26.7-12.4,59.4-12.4S131.9,39.1,131.9,47.1z"/>
	<path class="st3" d="M104.7,34.6C99.3,22.1,86.8,14.4,72,14.4c-14.8,0-27.2,7.7-32.7,20.1c-15.8,2.4-27.3,6.6-27.3,12.6
		c0,9.7,30.1,14.8,59.9,14.8s59.9-5.1,59.9-14.8C131.9,41.1,120.5,36.9,104.7,34.6z"/>
	<line class="st3" x1="39.6" y1="34.6" x2="104.4" y2="34.6"/>
	<line class="st3" x1="72" y1="36.1" x2="72" y2="61.9"/>
	<g>
		<ellipse class="st3" cx="72" cy="112.5" rx="31.1" ry="7.7"/>
		<line class="st3" x1="89.6" y1="61.3" x2="103.1" y2="112.5"/>
		<line class="st3" x1="40.9" y1="112.5" x2="54.4" y2="61.3"/>
	</g>
	<line class="st4" x1="34.2" y1="136.9" x2="109.8" y2="136.9"/>
	<g>
		<path class="st5" d="M52.4,35c0,0-12.6,7.6-18.5,23.3"/>
		<path class="st5" d="M91.6,35c0,0,12.6,7.6,18.5,23.3"/>
	</g>
	<path class="st3" d="M61.8,34.2c0-5.6,4.6-10.2,10.2-10.2s10.2,4.6,10.2,10.2"/>
	<line class="st3" x1="72" y1="14.4" x2="72" y2="7.1"/>
	<circle class="st6" cx="56.1" cy="48.7" r="4.2"/>
	<circle class="st6" cx="86.4" cy="48.7" r="4.2"/>
	<polyline class="st7" points="65,82.6 57.5,86.1 65,89.8 	"/>
	<polyline class="st7" points="78.9,82.6 86.4,86.1 78.9,89.8 	"/>
	<line class="st7" x1="74.3" y1="79.2" x2="69.8" y2="90.1"/>
</g>
</svg>
