<svg id="Layer_1" data-name="Layer 1" xmlns="http://www.w3.org/2000/svg" viewBox="0 0 124.8 135.3"><defs><style>.cls-1{fill:#fcda46;}.cls-2{fill:#afd47d;}.cls-3{fill:#9788c0;}.cls-4,.cls-5,.cls-6,.cls-8{fill:none;}.cls-4,.cls-5,.cls-6,.cls-7,.cls-8{stroke:#000;stroke-linecap:round;stroke-linejoin:round;}.cls-4{stroke-width:5px;}.cls-5{stroke-width:6px;}.cls-6{stroke-width:4px;}.cls-7{fill:#f69221;}.cls-7,.cls-8{stroke-width:3px;}</style></defs><path class="cls-1" d="M108.15,116.5c0,4.3-13.9,7.7-31.1,7.7S46,120.8,46,116.5" transform="translate(-9.55 -4.6)"/><polyline class="cls-1" points="36.4 111.9 49.9 60.7 85.1 60.7 98.6 111.9"/><path class="cls-2" d="M108.75,37.6c-5.5-12.5-17.9-20.2-32.7-20.2s-27.2,7.7-32.7,20.1" transform="translate(-9.55 -4.6)"/><path class="cls-3" d="M132,47.1c0,8-27.2,14.8-59.9,14.8s-59.2-7.2-59.2-15.2,26.7-12.4,59.4-12.4S132,39.1,132,47.1Z" transform="translate(-9.55 -4.6)"/><path class="cls-4" d="M104.75,34.6c-5.4-12.5-17.9-20.2-32.7-20.2s-27.2,7.7-32.7,20.1c-15.8,2.4-27.3,6.6-27.3,12.6,0,9.7,30.1,14.8,59.9,14.8s59.9-5.1,59.9-14.8C132,41.1,120.55,36.9,104.75,34.6Z" transform="translate(-9.55 -4.6)"/><line class="cls-4" x1="30.1" y1="30" x2="94.9" y2="30"/><line class="cls-4" x1="62.5" y1="31.5" x2="62.5" y2="57.3"/><ellipse class="cls-4" cx="62.5" cy="107.9" rx="31.1" ry="7.7"/><line class="cls-4" x1="80.1" y1="56.7" x2="93.6" y2="107.9"/><line class="cls-4" x1="31.4" y1="107.9" x2="44.9" y2="56.7"/><line class="cls-5" x1="24.7" y1="132.3" x2="100.3" y2="132.3"/><path class="cls-6" d="M52.45,35A49.41,49.41,0,0,0,34,58.3" transform="translate(-9.55 -4.6)"/><path class="cls-6" d="M91.65,35a49.41,49.41,0,0,1,18.5,23.3" transform="translate(-9.55 -4.6)"/><path class="cls-4" d="M61.85,34.2a10.2,10.2,0,0,1,20.4,0" transform="translate(-9.55 -4.6)"/><line class="cls-4" x1="62.5" y1="9.8" x2="62.5" y2="2.5"/><circle class="cls-7" cx="46.6" cy="44.1" r="4.2"/><circle class="cls-7" cx="76.9" cy="44.1" r="4.2"/><polyline class="cls-8" points="55.5 78 48 81.5 55.5 85.2"/><polyline class="cls-8" points="69.4 78 76.9 81.5 69.4 85.2"/><line class="cls-8" x1="64.8" y1="74.6" x2="60.3" y2="85.5"/><path d="M78.5,110.86a3,3,0,0,0-1.08-.91c-.39-.21-.69.1-1,.07l-1.11-.73c.06-.25.16-.51.2-.78a1.41,1.41,0,0,0-.93-1.5.78.78,0,0,0-.65.13,11.68,11.68,0,0,0-.88,1.18l.92,1.46a3.85,3.85,0,0,0,.46,0c.85-.11,1.24.42,1.5,1.09.16.4.28.81.43,1.28a9.82,9.82,0,0,0,1.21,0,1.42,1.42,0,0,0,1-.9A.54.54,0,0,0,78.5,110.86Z" transform="translate(-9.55 -4.6)"/><path d="M55.67,113.12c0,.19,0,.38-.06.57-.13,1.09-.06,1.21,1,1.56a3.56,3.56,0,0,0,.47.1c.38-.25.75-.47,1.09-.74s.37-.48.19-1a2.12,2.12,0,0,0-.2-.34l-1.56-.46a3.81,3.81,0,0,0-.45-.13C55.83,112.69,55.7,112.82,55.67,113.12Z" transform="translate(-9.55 -4.6)"/><path d="M81.16,119.34c-.31-.25-.6-.51-.92-.74a.64.64,0,0,0-.85.09c-.6.58-.75.73-.68,1.22.86-.07,1.7-.15,2.53-.25v-.1A.83.83,0,0,0,81.16,119.34Z" transform="translate(-9.55 -4.6)"/><path d="M50.39,113.32a6.66,6.66,0,0,0-.31,1c.13.81.77,1,1.41,1.28a4.73,4.73,0,0,0,.69-.33.55.55,0,0,0,.25-.38,2.47,2.47,0,0,0-.39-1.69A.92.92,0,0,0,50.39,113.32Z" transform="translate(-9.55 -4.6)"/><path d="M59,117.94c.42.45.95.32,1.45.22.32-.07.34-.38.4-.66.24-1.08.25-1.08-.65-1.69-.09-.07-.2-.12-.39-.24-.26.12-.48.2-.69.31a1.49,1.49,0,0,0-.29.2.88.88,0,0,0-.27,1.17A2.79,2.79,0,0,0,59,117.94Z" transform="translate(-9.55 -4.6)"/><path d="M84.92,115.61a1.2,1.2,0,0,0,.56.06,3,3,0,0,0,1.7-1.41.56.56,0,0,0-.06-.54,9.48,9.48,0,0,0-.8-.88l-1.08.19c-.21.32-.4.62-.62.94l.6.64c-.16.19-.32.36-.46.55S84.68,115.53,84.92,115.61Z" transform="translate(-9.55 -4.6)"/><path d="M96.75,109.55a.5.5,0,0,0,.73.17l.86-.62a.77.77,0,0,0,.19-.27c-.69-.26-1.47-.51-2.33-.75A7,7,0,0,0,96.75,109.55Z" transform="translate(-9.55 -4.6)"/><path d="M73.67,113.18a1,1,0,0,0-.46,1.37,2.25,2.25,0,0,0,1.28,1c.38-.3.69-.54,1-.8a.88.88,0,0,0,.16-1.08A1.55,1.55,0,0,0,73.67,113.18Z" transform="translate(-9.55 -4.6)"/><path d="M83,109.91c-1,.15-1,.93-1.33,1.53.9,1,1.16,1.14,2.2.86a1.54,1.54,0,0,1,.44-1.15A1.66,1.66,0,0,0,83,109.91Z" transform="translate(-9.55 -4.6)"/><path d="M63.07,115.54a1.31,1.31,0,0,0,.89-1c.07-.56.07-1.13-.52-1.46-.2-.11-.42-.21-.66-.33-.2.14-.29.22-.4.28-.47.26-.75.6-.43,1.14.21.37,0,.68-.06,1A1.06,1.06,0,0,0,63.07,115.54Z" transform="translate(-9.55 -4.6)"/><path d="M78.88,114.55a.51.51,0,0,0,.43.5,3.65,3.65,0,0,0,1.4-.06,1.22,1.22,0,0,0,.79-1,2.24,2.24,0,0,0-1.77-1.18l-.35.26A1.42,1.42,0,0,0,78.88,114.55Z" transform="translate(-9.55 -4.6)"/><path d="M49,112.45a.58.58,0,0,0,.55-.64c0-.35-.09-.7-.13-1l-.8-1c-.36.18-.69.31-1,.49a1,1,0,0,0-.23,1.51A1.76,1.76,0,0,0,49,112.45Z" transform="translate(-9.55 -4.6)"/><path d="M71.52,110c-.42.29-1,.47-1.23,1,.08.38.17.76.26,1.17a2.5,2.5,0,0,1,.57.13,5.12,5.12,0,0,1,.56.39c.81-.18.93-.86,1.19-1.51C72.31,110.84,72.25,110.08,71.52,110Z" transform="translate(-9.55 -4.6)"/><path d="M56.77,118.67c.4.09.8.17,1.21.24a1.13,1.13,0,0,0-.85-.3A1.43,1.43,0,0,0,56.77,118.67Z" transform="translate(-9.55 -4.6)"/><path d="M89.67,116.26a1.81,1.81,0,0,0-1.22-.36,1.12,1.12,0,0,0-.73.74l-.23.53a5.12,5.12,0,0,0,.25.57c.3.53.55.65,1,.27s.69,0,1-.13c.07-.25.14-.52.2-.79A.8.8,0,0,0,89.67,116.26Z" transform="translate(-9.55 -4.6)"/><path d="M55.57,117a5.59,5.59,0,0,0-1-1.13c-.39-.37-.65-.33-1,0a.77.77,0,0,0-.25,1c.23.36,0,.68,0,1l1.14.29A2.49,2.49,0,0,0,55.57,117Z" transform="translate(-9.55 -4.6)"/><path d="M46.92,114.12a.8.8,0,0,0-.57-.82c-.54-.18-1.08-.57-1.72-.19-.08.34-.16.71-.26,1.13a14.3,14.3,0,0,0,1.45.85A2.83,2.83,0,0,0,46.92,114.12Z" transform="translate(-9.55 -4.6)"/><path d="M70.07,105.62c.62.9,1,1,1.93.64.14-.06.32,0,.46-.09a1.76,1.76,0,0,0,.39-.31l-.12-.25H70.07Z" transform="translate(-9.55 -4.6)"/><path d="M54.2,107l.24-.24-.47.07Z" transform="translate(-9.55 -4.6)"/><path d="M94.5,115.84a2,2,0,0,0-.24,0c-.53.6-.69.79-.75,1.19.75-.24,1.45-.49,2.11-.75C95.53,116,95.26,115.85,94.5,115.84Z" transform="translate(-9.55 -4.6)"/><path d="M91.42,115.27a1.09,1.09,0,0,0,1.18-.37.78.78,0,0,0,0-1,2,2,0,0,0-.36-.46c-.2-.19-.42-.36-.66-.56l-1.16.47C90.37,114.62,90.56,115,91.42,115.27Z" transform="translate(-9.55 -4.6)"/><path d="M93.49,111.17c0,.22-.12.44-.18.68.23.3.43.58.84.62a1.8,1.8,0,0,0,1.23-.35.73.73,0,0,0,.22-.27,1.16,1.16,0,0,0-.62-1.48A1,1,0,0,0,93.49,111.17Z" transform="translate(-9.55 -4.6)"/><path d="M82.75,106.36a1.13,1.13,0,0,0,1.36-.24L82,106C82.28,106.1,82.51,106.24,82.75,106.36Z" transform="translate(-9.55 -4.6)"/><path d="M60.19,106.61c.43.14.73-.13,1-.38l-.09-.2c-.71,0-1.41.12-2.09.18A3.23,3.23,0,0,0,60.19,106.61Z" transform="translate(-9.55 -4.6)"/><path d="M90,111c-.58-.64-.77-.93-1.72-.49a3.45,3.45,0,0,1-.4.15c-.31.58.34,1.1,0,1.59a1,1,0,0,0,.11.13c.71.39.7.38,1.29-.14a4.42,4.42,0,0,1,.6-.34A.56.56,0,0,0,90,111Z" transform="translate(-9.55 -4.6)"/><path d="M97.22,112.76a7.84,7.84,0,0,0-.77.84.86.86,0,0,0-.11.66,1.07,1.07,0,0,0,1,.85H98a1.26,1.26,0,0,0,.45-1.45C98.33,113.12,97.84,112.9,97.22,112.76Z" transform="translate(-9.55 -4.6)"/><path d="M50,108.54a1.41,1.41,0,0,0,.78,1c.75-.12,1.13-.74,1.67-1.06,0-.88,0-.9-.65-1l-.52-.11-.66.13Z" transform="translate(-9.55 -4.6)"/><path d="M77.5,106.66l.88-.35v-.57l-2.13-.07A1.45,1.45,0,0,0,77.5,106.66Z" transform="translate(-9.55 -4.6)"/><path d="M42.24,111.64a1.63,1.63,0,0,0,.21.74.69.69,0,0,0,.75-.11c-.15-.61.64-1.13.26-1.85l-.34-.1-.13,0A1.88,1.88,0,0,0,42.24,111.64Z" transform="translate(-9.55 -4.6)"/><path d="M83.17,115.65c-.28.17-.72.19-.9.62l-.47,1.07c1,1.23,1.25,1.24,2.32,0a4.94,4.94,0,0,1-.44-.9C83.61,116.12,83.63,115.79,83.17,115.65Z" transform="translate(-9.55 -4.6)"/><path d="M74.06,118.81l-.93.71c.06.24.12.46.19.67.69,0,1.38,0,2.06-.06a1.61,1.61,0,0,0-.26-.82Z" transform="translate(-9.55 -4.6)"/><path d="M47.86,116l1.38.54,0-.23C48.62,115.85,48.24,115.73,47.86,116Z" transform="translate(-9.55 -4.6)"/><path d="M85.78,109.5c.23-.07.44-.17.7-.27.15-.3.32-.61.47-.93a.56.56,0,0,0-.11-.66,6.74,6.74,0,0,0-.61-.45c-.31.1-.53.19-.76.25a.71.71,0,0,0-.6.77c0,.23,0,.47,0,.71C84.92,109.46,85.23,109.66,85.78,109.5Z" transform="translate(-9.55 -4.6)"/><path d="M64.61,106a3.82,3.82,0,0,0,.41.52c.19-.26.28-.52.59-.4a1,1,0,0,0,.91,0c0-.16.06-.29.09-.41l-2.08.09C64.56,105.86,64.57,105.92,64.61,106Z" transform="translate(-9.55 -4.6)"/><path d="M46.05,109.53c.15-.36.29-.68.41-1-.62.21-1.18.43-1.67.65l.12.15A1.15,1.15,0,0,0,46.05,109.53Z" transform="translate(-9.55 -4.6)"/><path d="M65,112.12l1.51-.23a1.7,1.7,0,0,0-.66-2l-1.36.54C64.46,111.1,64.31,111.71,65,112.12Z" transform="translate(-9.55 -4.6)"/><path d="M59.69,112.35c.31,0,.62-.14,1-.22.09-.26.19-.51.27-.76a.69.69,0,0,0-.46-.91l-.84-.29c-.25.29-.49.56-.72.84a.79.79,0,0,0-.1.89A1,1,0,0,0,59.69,112.35Z" transform="translate(-9.55 -4.6)"/><path d="M68.29,115.22a1.24,1.24,0,0,0,1.43-.89,7.19,7.19,0,0,0,0-1.11,3.11,3.11,0,0,1-.87.14A3.11,3.11,0,0,1,68,113l-.54,1a3.21,3.21,0,0,1,.34.72C67.87,115,68.09,115.13,68.29,115.22Z" transform="translate(-9.55 -4.6)"/><path d="M68.14,109.14a1.54,1.54,0,0,0,1.33-.08,1.43,1.43,0,0,0,.06-1.33,1,1,0,0,0-1-.63l-1.13.8c.15.35.25.64.39.91A.87.87,0,0,0,68.14,109.14Z" transform="translate(-9.55 -4.6)"/><path d="M76.19,117.14c.23.54.37,1,.93,1.27a2.34,2.34,0,0,0,1.19-1.26c-.23-.48-.4-.85-.6-1.26C76.75,115.7,76.55,116.45,76.19,117.14Z" transform="translate(-9.55 -4.6)"/><path d="M72.58,117.07c-.13-.41-.23-.86-.76-1a1.1,1.1,0,0,0-1.39.56c-.06.1-.1.22-.18.39.47.92.76,1.08,1.58.92C72.28,117.89,72.7,117.42,72.58,117.07Z" transform="translate(-9.55 -4.6)"/><path d="M63.86,107.94a2.24,2.24,0,0,0-.26-.43c-1-.24-1.45.36-2,.82.46,1,.46,1,1.27,1C63.92,109.36,64.21,109,63.86,107.94Z" transform="translate(-9.55 -4.6)"/><path d="M69.54,119.76c.29-.47.25-.62-.18-.85-.27-.15-.55-.27-.77-.37l-1,.63a1.3,1.3,0,0,0,0,.91l1.67.07A1.25,1.25,0,0,1,69.54,119.76Z" transform="translate(-9.55 -4.6)"/><path d="M54.73,112.45c.45,0,.47-.5.72-.72,0,0,0-.08,0-.21-.33-.32-.69-.69-1.08-1a.77.77,0,0,0-1.07.08,1.16,1.16,0,0,0,.05,1.24A1.65,1.65,0,0,0,54.73,112.45Z" transform="translate(-9.55 -4.6)"/><path d="M62.75,119.08a1,1,0,0,0-1,.41,0,0,0,0,0,0,0c.64.09,1.3.17,2,.24l-.31-.51Z" transform="translate(-9.55 -4.6)"/><path d="M56.65,109.09c.15,0,.31,0,.47,0v0c.16,0,.32,0,.48,0a.64.64,0,0,0,.6-.83,1.56,1.56,0,0,0-1.54-1c-.47,0-.67.47-.59,1.23A.61.61,0,0,0,56.65,109.09Z" transform="translate(-9.55 -4.6)"/><path d="M79.41,109.3a.67.67,0,0,0,.85.2,3.06,3.06,0,0,0,.61-.36c.49-.37.51-.8,0-1.18a6.37,6.37,0,0,0-.8-.5c-.79.34-.8.34-1.21.94a3.33,3.33,0,0,0,.21.52A2.72,2.72,0,0,0,79.41,109.3Z" transform="translate(-9.55 -4.6)"/><path d="M92.36,109.29a1.07,1.07,0,0,0,.37-1.17.68.68,0,0,0-.76-.44l-.71,0c-.26.44-.5.85-.74,1.28.07.35.18.52.46.58A2.41,2.41,0,0,0,92.36,109.29Z" transform="translate(-9.55 -4.6)"/><path d="M99.28,110.52a2,2,0,0,0,0,.5,7.14,7.14,0,0,0,.31,1.12c.06.17.25.3.4.43a.4.4,0,0,0,.6-.15c.19-.43.37-.87.53-1.31a.56.56,0,0,0-.29-.7A1.46,1.46,0,0,0,99.28,110.52Z" transform="translate(-9.55 -4.6)"/><path d="M66.12,118.13l.77-.66a1,1,0,0,1-.35-1.21,6.21,6.21,0,0,0-1-.39.59.59,0,0,0-.5.19.48.48,0,0,0,.07.65c.13.11.29.19.42.28-.21.33-.37.58-.58.89Z" transform="translate(-9.55 -4.6)"/><path d="M85.18,119.09l.41-.08-.18-.11Z" transform="translate(-9.55 -4.6)"/></svg>