<svg id="Layer_1" data-name="Layer 1" xmlns="http://www.w3.org/2000/svg" viewBox="0 0 144 144"><defs><style>.cls-1{fill:#f79221;opacity:0.45;}.cls-2{fill:#fff;}</style></defs><path class="cls-1" d="M72,13.35c-37.7,0-68.36,22.91-68.36,51.07,0,17.66,11.86,33.74,31.8,43.17a49,49,0,0,1-2,21.07,1.5,1.5,0,0,0,.36,1.56,1.52,1.52,0,0,0,1.06.43,1.74,1.74,0,0,0,.5-.08c.44-.16,10.89-3.94,22.43-16.19A91.16,91.16,0,0,0,72,115.49c37.7,0,68.36-22.91,68.36-51.07S109.7,13.35,72,13.35Z"/><path class="cls-2" d="M87.52,58.46a1,1,0,0,0-.76-.65.78.78,0,0,0-.8.48c.1.32.23.68.34,1,.49.18.8-.09,1.12-.31S87.6,58.67,87.52,58.46Z"/><path class="cls-2" d="M51.91,47.62a2.94,2.94,0,0,0,.59,0c.24,0,.32-.2.32-.41,0-.4-.16-.64-.49-.72s-.62-.08-.9-.12C51,47.19,51.17,47.58,51.91,47.62Z"/><path class="cls-2" d="M86,53c.74.9.93.91,1.54,0-.16-.42-.34-.82-.9-.78S86.13,52.64,86,53Z"/><path class="cls-2" d="M91.76,69.92a3,3,0,0,0,.14.39l.52-.91a1.16,1.16,0,0,0-.45.24A1,1,0,0,0,91.76,69.92Z"/><path class="cls-2" d="M64,47.71a4.16,4.16,0,0,0,.38-.41c0-.46-.14-.62-.57-.78s-.69-.08-.77.1a.7.7,0,0,0,.07.79,2,2,0,0,0,.25.25A.45.45,0,0,0,64,47.71Z"/><path class="cls-2" d="M63.79,52.3a.49.49,0,0,0-.74.46.84.84,0,0,0,.62.84,5.09,5.09,0,0,1,.54-.34c.22-.1.46-.17.8-.29C64.53,52.7,64.16,52.49,63.79,52.3Z"/><path class="cls-2" d="M69.37,59.34a.49.49,0,0,0,.62-.2.5.5,0,0,0,0-.66,1.94,1.94,0,0,0-.58-.38c-.45-.22-.53-.17-.9.57A6.8,6.8,0,0,0,69.37,59.34Z"/><path class="cls-2" d="M64.36,76.18c0-.2,0-.32,0-.43a.55.55,0,0,0-.47-.47.6.6,0,0,0-.64.4l.66,1.14a.46.46,0,0,0,.33-.16A1.8,1.8,0,0,0,64.36,76.18Z"/><path class="cls-2" d="M78.08,62.45a.89.89,0,0,0,.81-.89L78.14,61l-.86.89Z"/><path class="cls-2" d="M66.44,60.84c-.23.26-.44.48-.63.68a2.93,2.93,0,0,0,.17.38c.25.4.49.46.84.19s.39-.37.72-.69Z"/><path class="cls-2" d="M89.49,61.16a.88.88,0,0,0-.61,1l.86.33c.17-.19.31-.33.43-.48a.26.26,0,0,0,.07-.22c0-.18-.09-.41-.22-.51A.64.64,0,0,0,89.49,61.16Z"/><path class="cls-2" d="M70.1,70.09a1.35,1.35,0,0,0,0-.35.5.5,0,0,0-.46-.45.7.7,0,0,0-.52.19,4.51,4.51,0,0,0-.45.79,4.38,4.38,0,0,0,.73.36A.56.56,0,0,0,70.1,70.09Z"/><path class="cls-2" d="M74.74,76.63a5.75,5.75,0,0,0,.82,0,3.83,3.83,0,0,0,.06-.51,5.25,5.25,0,0,0-.07-.6c-.32,0-.55,0-.78,0a.54.54,0,0,0-.5.42A.73.73,0,0,0,74.74,76.63Z"/><path class="cls-2" d="M95.25,50.73a.79.79,0,0,0,.67-.62l-.64-.88a2.76,2.76,0,0,0-.6.48,1,1,0,0,0-.06.58A.58.58,0,0,0,95.25,50.73Z"/><path class="cls-2" d="M72.26,45l0,0h-.07Z"/><path class="cls-2" d="M96,56a.62.62,0,0,0-.52-.69c-.51-.08-.82.16-1.08.73.37.17.61.31.87.4A.57.57,0,0,0,96,56Z"/><path class="cls-2" d="M92.8,53.92a2.81,2.81,0,0,0,0-1.63c-.74,0-.74,0-1,.79Z"/><path class="cls-2" d="M90.17,49.87a5.46,5.46,0,0,0-.44-.57c-.52.24-.81.42-.85,1,.12.09.3.25.5.38a.57.57,0,0,0,.74-.12A.53.53,0,0,0,90.17,49.87Z"/><path class="cls-2" d="M90.06,73.41a1.82,1.82,0,0,0,.18-.32l-.86-.8a1,1,0,0,0-.29.2.78.78,0,0,0,.06,1.15C89.36,73.87,89.67,73.79,90.06,73.41Z"/><path class="cls-2" d="M69.27,63.58a.59.59,0,0,0-.35.58,1.49,1.49,0,0,0,0,.47.62.62,0,0,0,.24.37.46.46,0,0,0,.4-.14,6.81,6.81,0,0,0,.46-.74,1.56,1.56,0,0,0-.16-.27C69.71,63.68,69.53,63.48,69.27,63.58Z"/><path class="cls-2" d="M52,52.25l-.65.7.8.76c.33-.37.73-.52.64-1S52.37,52.34,52,52.25Z"/><path class="cls-2" d="M83.73,56.45a.53.53,0,0,0,.7-.27.51.51,0,0,0-.11-.65c-.18-.14-.44-.32-.62-.28s-.41.3-.74.56A6.06,6.06,0,0,0,83.73,56.45Z"/><path class="cls-2" d="M103.89,47.62a.33.33,0,0,0,.14,0,3.59,3.59,0,0,0-.39-1,.68.68,0,0,0-.38.45A.61.61,0,0,0,103.89,47.62Z"/><path class="cls-2" d="M78,91.06c.11,0,.22,0,.46-.09a3.22,3.22,0,0,0,0-.77.65.65,0,0,0-.32-.44c-.14-.05-.36.08-.51.19a.6.6,0,0,0-.29.71A.62.62,0,0,0,78,91.06Z"/><path class="cls-2" d="M83.19,67.58a2.93,2.93,0,0,0,.72.34.61.61,0,0,0,.49-.26.58.58,0,0,0,0-.54,2.43,2.43,0,0,0-.51-.5A1,1,0,0,0,83.19,67.58Z"/><path class="cls-2" d="M80.27,64.74c.11.19.41.19.73,0s.37-.28.72-.55a9.13,9.13,0,0,0-1-.42.62.62,0,0,0-.43.12C80.16,64,80.14,64.48,80.27,64.74Z"/><path class="cls-2" d="M72.24,72.41c-.49.26-.47.62-.39,1a1.11,1.11,0,0,0,1.36-.35A1.34,1.34,0,0,0,72.24,72.41Z"/><path class="cls-2" d="M84.63,73c0-.28-.38-.64-.71-.66a.64.64,0,0,0-.59.61.62.62,0,0,0,.64.55A.57.57,0,0,0,84.63,73Z"/><path class="cls-2" d="M92.87,58.21a1.37,1.37,0,0,0-.65-.2.59.59,0,0,0-.48.71.52.52,0,0,0,.66.33c.22-.06.44-.16.83-.31C93.08,58.5,93,58.3,92.87,58.21Z"/><path class="cls-2" d="M81.4,81.22l-1.16.41c-.08.65.33.79.75.92C81.63,81.78,81.63,81.78,81.4,81.22Z"/><path class="cls-2" d="M72.67,61.17c-.43-.31-.63-.24-1.07.42.19.45.61.53,1,.65C73,61.72,73.06,61.45,72.67,61.17Z"/><path class="cls-2" d="M89.09,55.59a4.79,4.79,0,0,0-.31.7,3.91,3.91,0,0,0,.49.31c.4.18.71,0,.74-.4a1.34,1.34,0,0,0-.08-.56A.47.47,0,0,0,89.09,55.59Z"/><path class="cls-2" d="M54.29,49.89c.61.7.61.7,1.38.42,0-.66,0-.66-.83-.94Z"/><path class="cls-2" d="M66.74,50.63a.57.57,0,0,0,.49-.57.9.9,0,0,0-.61-.86c-.14.13-.43.3-.42.44,0,.33,0,.73.32,1A.32.32,0,0,0,66.74,50.63Z"/><path class="cls-2" d="M74.93,80.86c-.16.3-.32.59-.51,1,.52.13.93.51,1.44-.11A1.65,1.65,0,0,0,74.93,80.86Z"/><path class="cls-2" d="M98.59,46.73c-.2-.19-.44-.39-.71-.18s-.19.49-.09.76a1,1,0,0,0,.17.3c.1.1.25.22.37.21a.48.48,0,0,0,.32-.26,2.67,2.67,0,0,0,.17-.58A2.17,2.17,0,0,0,98.59,46.73Z"/><path class="cls-2" d="M71.43,85.27a.54.54,0,0,0,.63.24.94.94,0,0,0,.66-.76,4.29,4.29,0,0,0-.83-.31.59.59,0,0,0-.41.18A.48.48,0,0,0,71.43,85.27Z"/><path class="cls-2" d="M81.34,52.43a.64.64,0,0,0-.44-.06c-.38.06-.45.29-.32.93a1.32,1.32,0,0,0,1.28-.18A4.75,4.75,0,0,0,81.34,52.43Z"/><path class="cls-2" d="M98,58.1a.63.63,0,0,0,.07,1.13.64.64,0,0,0,.17.05l.39-.68a2.79,2.79,0,0,0-.12-.39A.37.37,0,0,0,98,58.1Z"/><path class="cls-2" d="M80.32,75.8c.07.35.15.74.57.8s.52-.3.74-.62C81,75.36,81,75.35,80.32,75.8Z"/><path class="cls-2" d="M74.52,53a.51.51,0,0,0,.26.35,1.07,1.07,0,0,0,1,0,.53.53,0,0,0-.25-.71.73.73,0,0,0-.79,0A.55.55,0,0,0,74.52,53Z"/><path class="cls-2" d="M80.81,69.75a.48.48,0,0,0-.33.27.5.5,0,0,0,.17.38c.46.36.79.09,1.17-.28A.85.85,0,0,0,80.81,69.75Z"/><path class="cls-2" d="M87.37,76.29c-.13-.63-.2-.77-.48-.77-.55,0-.55.44-.65.75C86.63,76.85,87,76.54,87.37,76.29Z"/><path class="cls-2" d="M98.19,52.38c-.08,0-.28,0-.3.08a1.12,1.12,0,0,0-.13.65c0,.18.3.31.44.43s.23,0,.28-.08a.63.63,0,0,0,.13-.75A.78.78,0,0,0,98.19,52.38Z"/><path class="cls-2" d="M87,47.59c.08-.05.19-.09.28-.15.36-.26.36-.52,0-.71a2,2,0,0,0-.42-.19.55.55,0,0,0-.41.1.56.56,0,0,0,0,.41A.65.65,0,0,0,87,47.59Z"/><path class="cls-2" d="M67,66.6c-.28-.17-.45-.11-.91.33.29.3.48.69,1.06.83C67.23,66.83,67.22,66.75,67,66.6Z"/><path class="cls-2" d="M86.87,64.82a4.94,4.94,0,0,0,.49-.3c-.35-.55-.39-.59-.66-.63a.5.5,0,0,0-.32.06.66.66,0,0,0-.12.75C86.41,65,86.65,64.92,86.87,64.82Z"/><path class="cls-2" d="M69.47,86.53l.64,1.11a.71.71,0,0,0,.2-.12C70.2,87.09,69.83,86.87,69.47,86.53Z"/><path class="cls-2" d="M69.41,81.38a.47.47,0,0,0-.68.07c.09.27.18.57.32,1a5.8,5.8,0,0,0,.71-.4.3.3,0,0,0,.06-.31A1.9,1.9,0,0,0,69.41,81.38Z"/><path class="cls-2" d="M94.68,61.57c0,.18.27.33.35.43.47,0,.74-.2.75-.55s-.21-.52-.39-.53S94.63,61.29,94.68,61.57Z"/><path class="cls-2" d="M77.86,84c-.38.61-.38.61.31,1.25l.6-.36C78.51,84.48,78.3,84.13,77.86,84Z"/><path class="cls-2" d="M63.54,70.42a.4.4,0,0,0,.69,0,1.27,1.27,0,0,0,.11-.34c0-.41-.14-.56-.41-.58s-.55.16-.52.49A1.12,1.12,0,0,0,63.54,70.42Z"/><path class="cls-2" d="M74.61,70.2a.69.69,0,0,0,1,.08c-.08-.65-.26-.85-.75-.77a.5.5,0,0,0-.33.27A.55.55,0,0,0,74.61,70.2Z"/><path class="cls-2" d="M71.94,49.39c-.09.13-.34.35-.3.47a.77.77,0,0,0,.76.62c.11,0,.3-.16.31-.26A.86.86,0,0,0,71.94,49.39Z"/><path class="cls-2" d="M66.69,73.19c.11,0,.27-.27.23-.35a1.36,1.36,0,0,0-.43-.66c-.13-.09-.41,0-.74.08a8.86,8.86,0,0,0,.52.89A.44.44,0,0,0,66.69,73.19Z"/><path class="cls-2" d="M92.61,47.58l.12,0c.24,0,.42-.13.41-.53,0-.07-.13-.28-.27-.34-.41-.16-.85,0-.89.27S92.21,47.46,92.61,47.58Z"/><path class="cls-2" d="M86.63,70.66c.39,0,.72-.2.7-.46a.72.72,0,0,0-.53-.57.59.59,0,0,0-.59.58C86.19,70.48,86.34,70.64,86.63,70.66Z"/><path class="cls-2" d="M77.57,55.81a.38.38,0,0,0,.39.45.56.56,0,0,0,.67-.49c0-.24-.2-.43-.55-.44A.43.43,0,0,0,77.57,55.81Z"/><path class="cls-2" d="M57.81,58.32a1.58,1.58,0,0,0-.34.7c0,.06.13.22.22.25s.35,0,.42,0a6.25,6.25,0,0,0,.54-.89C58.22,58.32,57.92,58.22,57.81,58.32Z"/><path class="cls-2" d="M72.37,91a.76.76,0,0,0,.56-.66c0-.21-.33-.47-.5-.36a7.25,7.25,0,0,0-.65.56l.16.28C72.12,90.92,72.25,91,72.37,91Z"/><path class="cls-2" d="M61.24,49.63a.54.54,0,0,0-.33-.27,2.55,2.55,0,0,0-.65.23,10.66,10.66,0,0,0,.7.85.35.35,0,0,0,.33,0,.32.32,0,0,0,.15-.28A1.49,1.49,0,0,0,61.24,49.63Z"/><path class="cls-2" d="M69.42,75.64a.36.36,0,0,0-.45.26.49.49,0,0,0,.2.62.52.52,0,0,0,.42,0,5.52,5.52,0,0,0,.59-.67Z"/><path class="cls-2" d="M61.44,61.63c0-.4-.18-.6-.59-.71a.34.34,0,0,0-.42.4,1.3,1.3,0,0,0,.28.5.49.49,0,0,0,.4.13C61.27,61.88,61.37,61.7,61.44,61.63Z"/><path class="cls-2" d="M78.88,67.16c-.24-.2-.5-.36-.82-.58-.14.19-.22.25-.22.31a.81.81,0,0,0,.68.83c.12,0,.28-.13.36-.24A.31.31,0,0,0,78.88,67.16Z"/><path class="cls-2" d="M74.71,93.35a.84.84,0,0,0,1.12-.21l-.66-.69a5.4,5.4,0,0,0-.56.61S74.64,93.32,74.71,93.35Z"/><path class="cls-2" d="M57.79,64.88a1.19,1.19,0,0,0,.47-.3.46.46,0,0,0-.1-.64,1.59,1.59,0,0,0-.36-.2,2,2,0,0,0-.37.56,1,1,0,0,0,.14.53S57.73,64.9,57.79,64.88Z"/><path class="cls-2" d="M84.25,50a.55.55,0,0,0-.42-.63.56.56,0,0,0-.5.57.55.55,0,0,0,.44.49A.49.49,0,0,0,84.25,50Z"/><path class="cls-2" d="M89.63,66.9a.35.35,0,0,0-.49.16.69.69,0,0,0,0,.55.62.62,0,0,0,.51.1c.17,0,.3-.21.59-.44C90,67.09,89.8,67,89.63,66.9Z"/><path class="cls-2" d="M77.72,49.84a.38.38,0,0,0-.29.12c-.07.08-.11.27-.07.31a1.43,1.43,0,0,0,.53.39c.14.05.33,0,.65-.12C77.93,49.87,77.93,49.85,77.72,49.84Z"/><path class="cls-2" d="M83.72,79.12c.43-.22.33-.55.18-.94l-.44.14a.53.53,0,0,0-.21.11.44.44,0,0,0,0,.63C83.35,79.25,83.53,79.22,83.72,79.12Z"/><path class="cls-2" d="M78.61,73a.92.92,0,0,0-1-.07.35.35,0,0,0-.18.28.35.35,0,0,0,.18.26.68.68,0,0,0,.78-.07C78.54,73.31,78.55,73.14,78.61,73Z"/><path class="cls-2" d="M72.41,55.25a1.6,1.6,0,0,0-.67.18c-.09,0-.13.27-.12.4s.18.16.28.16a.93.93,0,0,0,.84-.48C72.63,55.42,72.52,55.25,72.41,55.25Z"/><path class="cls-2" d="M75,58.26a.46.46,0,0,0-.28.31c0,.33.26.56.72.54,0-.07.17-.19.17-.31A.5.5,0,0,0,75,58.26Z"/><path class="cls-2" d="M75.79,64.32a.4.4,0,0,0-.56-.24.59.59,0,0,0-.36.62c0,.11.24.16.35.22a1.26,1.26,0,0,0,.37-.11A.38.38,0,0,0,75.79,64.32Z"/><path class="cls-2" d="M80.38,87.64a.3.3,0,0,0,.23.2.8.8,0,0,0,.92-.34.81.81,0,0,0-1-.14A.32.32,0,0,0,80.38,87.64Z"/><path class="cls-2" d="M77.64,78.55a2.4,2.4,0,0,0-.08.72c.33-.14.51-.16.61-.26a1.33,1.33,0,0,0,.27-.48s-.12-.2-.21-.23A.47.47,0,0,0,77.64,78.55Z"/><path class="cls-2" d="M63.79,65.07a.68.68,0,0,0,.2-1c0-.07-.26-.07-.39-.06s-.09.1-.16.19C63.54,64.49,63.65,64.75,63.79,65.07Z"/><path class="cls-2" d="M72.2,67.21a.3.3,0,0,0-.3.05c-.06.07-.11.28-.07.31a2.21,2.21,0,0,0,.57.34s.17-.11.31-.21A4.54,4.54,0,0,0,72.2,67.21Z"/><path class="cls-2" d="M59.88,67.35a.24.24,0,0,0,.07.2c.12.08.29.21.4.18a1.76,1.76,0,0,0,.94-.47c-.52-.06-.85-.12-1.19-.13C60,67.13,59.93,67.26,59.88,67.35Z"/><path class="cls-2" d="M66.84,56a.44.44,0,0,0,0-.4.41.41,0,0,0-.37-.1,5.08,5.08,0,0,0-.75.54C66.25,56.32,66.58,56.35,66.84,56Z"/><path class="cls-2" d="M67.17,78.85c-.21-.66-.66-.31-1.14-.26C66.34,79.16,66.39,79.17,67.17,78.85Z"/><path class="cls-2" d="M63.85,58.85a.92.92,0,0,0,.35-.14.48.48,0,0,0-.38-.58.45.45,0,0,0-.34.23C63.38,58.56,63.59,58.84,63.85,58.85Z"/><path class="cls-2" d="M75.8,87.23a.49.49,0,0,0-.56-.3c-.13,0-.21.19-.39.36a3,3,0,0,0,.63.35C75.63,87.68,75.84,87.37,75.8,87.23Z"/><path class="cls-2" d="M72,79a3.91,3.91,0,0,0,.69,0c-.2-.57-.3-.68-.59-.59-.12,0-.22.2-.27.32A.32.32,0,0,0,72,79Z"/><path class="cls-2" d="M75.4,47a.41.41,0,0,0-.53,0c0,.18.07.39.13.68C75.47,47.46,75.57,47.26,75.4,47Z"/><path class="cls-2" d="M48.82,50l1-.09C49.19,49.25,49.08,49.28,48.82,50Z"/><path class="cls-2" d="M92.27,64.52c0,.22.23.4.57.28v-.72C92.43,64,92.22,64.21,92.27,64.52Z"/><path class="cls-2" d="M58.42,47.18a.23.23,0,0,0,0-.22c-.11-.09-.26-.22-.38-.2a2,2,0,0,0-.5.25,3.06,3.06,0,0,0,.56.31C58.21,47.35,58.34,47.25,58.42,47.18Z"/><path class="cls-2" d="M57.57,47h0l0,0Z"/><path class="cls-2" d="M84.29,61.64c0-.1,0-.24,0-.29a1.14,1.14,0,0,0-.4-.19.24.24,0,0,0-.19.1.21.21,0,0,0,0,.2,4.63,4.63,0,0,0,.38.32C84.17,61.71,84.28,61.68,84.29,61.64Z"/><path class="cls-2" d="M61.31,56.12c-.05-.12-.06-.24-.1-.25a1.71,1.71,0,0,0-.45,0s-.11.14-.09.17.15.2.23.2A1,1,0,0,0,61.31,56.12Z"/><path class="cls-2" d="M55.17,61.38a.32.32,0,0,0-.19,0l.29.5.32-.06C55.39,61.62,55.31,61.45,55.17,61.38Z"/><path class="cls-2" d="M81,47.61c.28,0,.43-.15.26-.52a1.52,1.52,0,0,0-.38.07c-.13.06-.33.18-.32.25C80.59,47.67,80.83,47.62,81,47.61Z"/><path class="cls-2" d="M69,47.56c.12,0,.21-.16.4-.32-.22-.11-.36-.24-.46-.22s-.22.19-.24.31S68.86,47.6,69,47.56Z"/><path class="cls-2" d="M81.15,58.84c.09,0,.16-.12.31-.24-.17-.15-.27-.3-.42-.35s-.3.18-.29.25A.38.38,0,0,0,81.15,58.84Z"/><path class="cls-2" d="M57.81,52.3a.42.42,0,0,0-.25.3c0,.1.16.2.22.27.28,0,.31-.16.31-.32S58,52.24,57.81,52.3Z"/><path class="cls-2" d="M83.8,83.84a.79.79,0,0,0,0,.4l.18-.3A.48.48,0,0,0,83.8,83.84Z"/><path class="cls-2" d="M101,50l.2-.09c0-.07,0-.17-.08-.2s-.14,0-.21,0Z"/><path class="cls-2" d="M57.57,47l0,0a.14.14,0,0,0,0,.06Z"/><path class="cls-2" d="M57.34,47.27h.11l.07-.22a.39.39,0,0,0-.16.07S57.35,47.22,57.34,47.27Z"/><path class="cls-2" d="M72,92.31a5,5,0,0,1-4.36-2.52l-24.82-43a5,5,0,0,1,4.36-7.55H96.82a5,5,0,0,1,4.36,7.55l-24.82,43A5,5,0,0,1,72,92.31ZM47.18,42.75a1.54,1.54,0,0,0-1.33,2.3L70.67,88a1.53,1.53,0,0,0,2.66,0h0l24.82-43a1.54,1.54,0,0,0-1.33-2.3Z"/></svg>