<svg id="Layer_1" data-name="Layer 1" xmlns="http://www.w3.org/2000/svg" viewBox="0 0 250 250"><defs><style>.cls-1{fill:#8d4d93;opacity:0.92;}.cls-2{fill:#c4d45d;}.cls-3{fill:#fff;}.cls-4{fill:#231f20;}.cls-5{fill:none;}.cls-6,.cls-7{fill:#7d8c68;}.cls-6{opacity:0.65;}</style></defs><rect class="cls-1" width="250" height="250"/><ellipse class="cls-2" cx="68.09" cy="77.55" rx="1.81" ry="1.41" transform="translate(-8.47 8.35) rotate(-6.61)"/><path class="cls-3" d="M65.41,75.15c.78.47,1.17,1.2.93,1.75-.18.4-1.23.47-2,0s-1.24-1-.87-1.61S64.66,74.7,65.41,75.15Z"/><path class="cls-3" d="M69.91,74.42c-.47.84-.73,1.45-.23,1.84s1.42.09,2.09-.53A1.32,1.32,0,0,0,72,73.67C71.4,73.12,70.36,73.63,69.91,74.42Z"/><path class="cls-4" d="M72.68,72.72c-.82-.83-2.4-.07-3.07,1.13s-1.09,2.17-.35,2.76,2.14.14,3.15-.79A2,2,0,0,0,72.68,72.72Zm-1,3c-.64.58-1.47.89-2,.49s-.21-.93.22-1.71,1.4-1.23,1.92-.71A1.25,1.25,0,0,1,71.72,75.68Z"/><path class="cls-5" d="M65.38,75.2c-.71-.43-1.54-.44-1.87.15s.07,1.12.83,1.53a2.33,2.33,0,0,0,1.17.29,2.39,2.39,0,0,1,.13-.28,4.1,4.1,0,0,0-1.75-1.3,2.9,2.9,0,0,1,2.07.88,2.78,2.78,0,0,1,.32-.26A2,2,0,0,0,65.38,75.2Z"/><path d="M66.74,75.68l-.06-.08S66.7,75.64,66.74,75.68Z"/><path d="M64.34,76.88c-.76-.41-1.18-.91-.83-1.53s1.16-.58,1.87-.15a2,2,0,0,1,.9,1,2.36,2.36,0,0,1,.41-.25V75.6a3.65,3.65,0,0,0-1-.93c-1.11-.66-2.41-.68-2.92.24s.11,1.74,1.29,2.39a4,4,0,0,0,1.41.43,1.77,1.77,0,0,1,.09-.56A2.33,2.33,0,0,1,64.34,76.88Z"/><path d="M63.89,75.59a4.1,4.1,0,0,1,1.75,1.3,2.39,2.39,0,0,0-.13.28c.37,0,.67-.12.75-.31a.91.91,0,0,0,0-.65,2.78,2.78,0,0,0-.32.26A2.9,2.9,0,0,0,63.89,75.59Z"/><path d="M71.41,74.34a3.14,3.14,0,0,0-1.71,1.73,3.27,3.27,0,0,0-2.27-.35l-.16,0h0l-.08,0h0a.45.45,0,0,1-.44-.1,2,2,0,0,1,.37.91,1.74,1.74,0,0,1,.53-.18c.86-.17,1.86.2,1.89.89s-.69,1.25-1.55,1.42a1.24,1.24,0,0,1-1.58-.8,2,2,0,0,1,0-.24,3.12,3.12,0,0,1-.94,0,1.59,1.59,0,0,0,.06.37A2,2,0,0,0,68,79.37c1.37-.27,2.5-1.2,2.46-2.24a1.22,1.22,0,0,0-.3-.72A4.39,4.39,0,0,1,71.41,74.34Z"/><polygon points="66.68 75.6 66.68 75.6 66.69 75.6 66.68 75.6"/><path d="M66.36,77.68a1.24,1.24,0,0,1,.75-1.09,2,2,0,0,0-.37-.91s0-.08-.06-.08h0V76a2.36,2.36,0,0,0-.41.25.91.91,0,0,1,0,.65c-.08.19-.38.3-.75.31a1.77,1.77,0,0,0-.09.56A3.12,3.12,0,0,0,66.36,77.68Z"/><path class="cls-4" d="M171.59,165.92c-1,.84-1.4,2-.92,2.68.34.53,1.83.38,2.87-.42s1.52-1.57.87-2.47S172.54,165.12,171.59,165.92Z"/><path class="cls-3" d="M171.91,166.43c-.63.53-.88,1.24-.58,1.69s1.16.24,1.81-.26,1-1,.55-1.56S172.51,165.93,171.91,166.43Z"/><path class="cls-4" d="M168.6,165.09c.53,1.28.81,2.21,0,2.68s-2.07-.1-2.95-1.11-1-2.33.1-3S168.1,163.86,168.6,165.09Z"/><path class="cls-3" d="M168,165.55c.33.81.51,1.4,0,1.7s-1.32-.06-1.87-.7-.67-1.48.06-1.92S167.71,164.76,168,165.55Z"/><path d="M170.14,166.74c-1.31-.33-2.82.32-2.92,1.38s.93,2.06,2.26,2.27,2.16-.24,2.46-1.09A2.19,2.19,0,0,0,170.14,166.74Z"/><path class="cls-2" d="M170,167.69c-.79-.2-1.72.1-1.78.73s.58,1.17,1.36,1.37a1.15,1.15,0,0,0,1.48-.66C171.26,168.53,170.77,167.88,170,167.69Z"/><path class="cls-4" d="M171.51,167.74a2.83,2.83,0,0,1,1.89-1.2,3.61,3.61,0,0,0-1.61,1.86Z"/><path class="cls-4" d="M168.19,167.34a2.25,2.25,0,0,0-1.49-1.85,3.32,3.32,0,0,1,1,2.14Z"/><path class="cls-3" d="M179.7,91.42h0c-.61,1.4-1.73,3.93-4.4,5-.61.24-1.26.47-1.91.7-2.61.91-5.57,1.8-7.56,4.3l-.24.29c-4.39,6.6-10.56,4.39-10.56,4.39,5.61.11,7.36-2.09,9.81-5.15l.23-.29c2.12-2.65,5-3.67,7.62-4.58q1-.33,1.89-.69a8.19,8.19,0,0,0,4.5-5,6.11,6.11,0,0,1-1.67-.27c-2.59-.78-3.94-.9-6,1.3a5.74,5.74,0,0,1-4,2.13,3.63,3.63,0,0,1-1.21-.21h0c-.17,0-1.59-.2-2,1.62-.47,2-1.77,3.09-3.3,2.75a4.46,4.46,0,0,1-1.41-.71,3.19,3.19,0,0,0-2.57-.74c-1.12.21-2,1.6-3,2.82-1.22,1.45-2.63,2.82-4.2,2.82a2.83,2.83,0,0,1-.41,0,10,10,0,0,0,3.93-3.37c1-1.39,2.22-2.67,3.59-2.93a3.88,3.88,0,0,1,3.08.85A3.92,3.92,0,0,0,161,97c1.15.26,2.09-.6,2.48-2.23a2.56,2.56,0,0,1,1.61-2,7.94,7.94,0,0,1-1.41-1.37c-.84-1-1.64-1.9-3.08-1.86a4.62,4.62,0,0,0-3.49,2.17s.84-2.79,3.47-2.86c1.77,0,2.75,1.09,3.63,2.1a7,7,0,0,0,1.42,1.36c1.67,1,3.38.57,5.25-1.39,2.26-2.35,3.84-2.37,6.75-1.48a4.9,4.9,0,0,0,3.68-.43c-.16-4.91-.51-7.23-1.43-8.7a8,8,0,0,0-2.1.5,4.86,4.86,0,0,0-2.7,2.52A12.4,12.4,0,0,1,173.12,86c-2.4,2.49-6,.93-6,.93a7,7,0,0,0,5.54-1.55,9.24,9.24,0,0,0,1.83-2.53A5.23,5.23,0,0,1,177.38,80a7.37,7.37,0,0,1,1.91-.41,14.12,14.12,0,0,0-3-2.12,9.15,9.15,0,0,1-2.92-2.66c-.07.25-.14.52-.2.81-.47,2.32-1.22,5.42-4.64,5.41-1.55,0-3.92-.79-5.31.24a6.58,6.58,0,0,0-1.55,2.05c-2.54,4.59-6.28,4-6.28,4,3.12-.44,4.46-2.57,5.64-4.46a9.12,9.12,0,0,1,1.7-2.21c1-.81,2-.67,3.27-.48a15,15,0,0,0,2.51.2c2.66,0,3.31-2.19,3.87-5a8,8,0,0,1,.42-1.42,6.63,6.63,0,0,0-2.09-2.67,8.62,8.62,0,0,0-3.55-.72,6.39,6.39,0,0,1-.69,2.27c-1,1.64-2,1.56-3.6,1.43-.49,0-1-.08-1.69-.09a1.82,1.82,0,0,0-1.37.46.93.93,0,0,0-.15,1.07h0a4.55,4.55,0,0,1,.53,3.58c-.62,1.63-2.08,2.38-5.44,2.91-1.54.24-2.15,1.33-2.8,2.92a7.2,7.2,0,0,1-4.65,4.15,9.17,9.17,0,0,0,3.89-4.69c.73-1.55,1.42-3,3.32-3.31,3.08-.49,4.54-.92,5-2.23a3.9,3.9,0,0,0-.58-3.14,2.48,2.48,0,0,1-2.09,1.43,4,4,0,0,1-2.44-.63c-1-.56-1.86-1-3.26.06A4.55,4.55,0,0,0,149.87,79a5.87,5.87,0,0,1-4.14,3.67c2.21-1.06,2.69-2.4,3.3-4A6,6,0,0,1,150.5,76c1.78-1.35,2.92-.73,4-.14a3.83,3.83,0,0,0,2.23.66c1-.07,1.31-.65,1.73-1.38a2.72,2.72,0,0,1,2.61-1.77h0c.67,0,1.24,0,1.73.09,1.56.12,2.21.18,2.95-1.09a4.42,4.42,0,0,0,.45-2,5.39,5.39,0,0,1-2.84-1.32c-2.34-2.15-5.66-3.91-8-1.78a27.93,27.93,0,0,1-6.34,3.93,6.54,6.54,0,0,1-2.27,2.59c-3.88,2.44-4.82,3.17-5.46,6.34a9.12,9.12,0,0,1-4.08,6.31c1.59-1.34,2.51-3.16,3.31-6.5s1.72-4.16,5.69-6.66a6.75,6.75,0,0,0,1.81-1.61,31.33,31.33,0,0,1-7.54,2.55,12.33,12.33,0,0,0-2.26.4,3.31,3.31,0,0,0-.3.34c-.51.69-.27,1.48-.1,2.52A2.67,2.67,0,0,1,136,80.72a4,4,0,0,0-1.53,1c-.71,1.09-.5,2.2.34,4A2.74,2.74,0,0,1,135,88a3.7,3.7,0,0,1-2.08,1.94l-.22.09c-1.4.59-2.87,1.24-3.12,3.33a4.81,4.81,0,0,1-3.4,4.33c1.73-1.23,2.28-2.16,2.68-4.51s2-3.06,3.5-3.67l.22-.1a3.17,3.17,0,0,0,1.79-1.64,2.24,2.24,0,0,0-.12-1.78c-.77-1.69-1.29-3.1-.37-4.51a3.61,3.61,0,0,1,1.53-1.14c1-.47,1.79-.87,1.56-2.69a4.62,4.62,0,0,1,.13-2.61,6.41,6.41,0,0,0-4,5.88c-.3,3.87-5.19,5.14-5.49,7.1-.38,2.42,1.36,5.85-2.84,8.79-2.5,1.75-1,6.86,1.48,9.88,3,3.55,9.11,11.84,19,13.29a34.82,34.82,0,0,0,11.6-.39,7.22,7.22,0,0,1-2.69-2.65c-.82-1.29-1.6-2.36-3.59-2.59a5,5,0,0,0-2.58.49c-4.5,1.82-6.71-1.26-6.71-1.26,3.32,1.73,5.14,1.07,6.74.49a6,6,0,0,1,2.82-.52c2.23.26,3.07,1.5,4,2.82a10.68,10.68,0,0,0,1.31,1.69,8.05,8.05,0,0,0,1.73,1.31,24.53,24.53,0,0,0,9.47-4.42,6.65,6.65,0,0,1-1.8-1c-.58-.45-1.06-.85-1.46-1.22a5.68,5.68,0,0,0-6.1-.9c-5.63,2.2-8.13-1.79-8.13-1.79,2.6,2.48,4.77,2,7.59,1.13.56-.18,1.14-.36,1.74-.53a5.1,5.1,0,0,1,5.31,1.29c.41.35.87.76,1.43,1.2a6.42,6.42,0,0,0,2.25,1.1,19.77,19.77,0,0,0,2.57-2.74c6.58-8.58,10.58-13,10.63-21.37C180.47,90.17,180.09,90.61,179.7,91.42Z"/><path class="cls-3" d="M126.23,80.26a6.74,6.74,0,0,0-5,2.45C120.32,84,120,86,119.59,87.89A15.24,15.24,0,0,1,118,93.05a6,6,0,0,1-1.4,1.56c.44.61,1.27,2,.43,3.35a2.73,2.73,0,0,1-2.13,1.13,2.66,2.66,0,0,0-1.84.83c-.46.55-.31,1.07,0,1.88a2.62,2.62,0,0,1,.06,2.29c-.53.92-1.95,2.21-5.56.62-1.28-.57-1.89,0-2.62.74a1.85,1.85,0,0,1-2,.45,2.59,2.59,0,0,0,1.54-1c.74-.73,1.67-1.63,3.38-.88s3.77,1.25,4.68-.33c.3-.53,0-1.22-.2-1.85a2.35,2.35,0,0,1,.15-2.56,3.31,3.31,0,0,1,2.25-1.07c.71-.11,1.35-.06,1.75-.67.61-1-.09-2.12-.43-2.6A10.28,10.28,0,0,1,111.58,96l-.76.07a4.46,4.46,0,0,0-3.77,2.28,9.51,9.51,0,0,0-.54.91c-.8,1.47-1.79,3.3-5.94,2.21a5.4,5.4,0,0,0-4.58,1c-.37.25-.75.49-1.16.73a6,6,0,0,1,5.77-2.59c3.58.76,4.38-.42,5.17-1.87a9.7,9.7,0,0,1,.58-1c.17-.23.33-.43.49-.62-.3-.65-1.57-3-4-3.08-2-.11-2.81.84-4.13,2.12-5.28,5.1-8.49,3.42-8.49,3.42,2.85.38,6.08-2.49,6.61-2.93S97.61,96,98,95.64c1.36-1.27,2.54-2.35,4.86-2.24A5.38,5.38,0,0,1,107,96.08h0c.13.21.34.51.72.27h0a5.8,5.8,0,0,1,3-.94l.77-.07c2.19-.17,4.46-.36,5.91-2.66a13.25,13.25,0,0,0,1.36-4.35,1.13,1.13,0,0,0-.11-.94,2.09,2.09,0,0,0-2.23-.76A5.16,5.16,0,0,0,114,88.48c-.74.81-1.43,1.6-2.43,1.56a2.21,2.21,0,0,1-2-1,3,3,0,0,1,.14-2.88,3.47,3.47,0,0,0,.5-2.69,1,1,0,0,0-.81-.53c-1-.19-1.62.55-2.2,2.56a2.33,2.33,0,0,1-1.58,1.7,2.05,2.05,0,0,1-2-.53,5.91,5.91,0,0,1-.9-1.25c-.76-1.22-1.33-2-2.41-1.67s-1.34,1.36-1.48,3a9.81,9.81,0,0,1-.44,2.53c-1.57,4.25-6.13,3.8-6.13,3.8a6.41,6.41,0,0,0,5.47-4,9.34,9.34,0,0,0,.41-2.35c.13-1.49.26-3,2-3.57s2.52.87,3.2,2a5.93,5.93,0,0,0,.78,1.1,1.38,1.38,0,0,0,1.31.37,1.66,1.66,0,0,0,1.09-1.22c.32-1.12,1-3.44,3-3a1.7,1.7,0,0,1,1.29.9c.37.75.21,1.86-.49,3.31a2.35,2.35,0,0,0-.18,2.21,1.55,1.55,0,0,0,1.37.65c.65,0,1.25-.62,1.91-1.34a5.72,5.72,0,0,1,2.86-2,2.79,2.79,0,0,1,2.8.83,11.65,11.65,0,0,1,1.58-4.5,8.48,8.48,0,0,1,4.86-3.07l-2.22-3.32A26.9,26.9,0,0,0,119,72.68c-.71,1.84-3,5.75-7.38,5.08-.92-.15-1.72-.31-2.42-.46-2.32-.47-3.59-.81-5.13.42a4.27,4.27,0,0,0-1.34,2.43,2.34,2.34,0,0,1-2.48,2c-3.19.18-3.54.81-3.91,2.18-.08.31-.18.62-.29,1a3.62,3.62,0,0,1-4,2.68,4.06,4.06,0,0,0,3.53-2.87c.11-.31.2-.62.28-.92.39-1.46.73-2.72,4.3-2.91,1.49-.08,1.7-.72,2-1.68a4.81,4.81,0,0,1,1.61-2.57c1.74-1.38,3.18-1.08,5.57-.59.7.14,1.5.3,2.41.44,3.93.61,5.72-2.71,6.43-4.74a27.27,27.27,0,0,0-9.72-3.44,5.8,5.8,0,0,0-2.3,3.24,2.28,2.28,0,0,1-3.47,1.62c-.25-.1-.66-.35-.92-.49a2.66,2.66,0,0,0-3,.06c-.85.65-.94,1.78-1,3.09s-.13,2.4-.87,3.13c-1.72,1.69-3.37,1.84-5.45,2.2-2.24.39-4.5.59-5.55,2.34-1.2,2-.21,3.85.36,5.26a3.12,3.12,0,0,1,0,2.65,3.19,3.19,0,0,1-2.12,1.65c-.75.26-1.41.39-1.55,1A8.71,8.71,0,0,0,82.53,96c0,3.12-2.08,3.52-2.08,3.52,1.38-.79,1.4-2.28,1.42-3.72A7.71,7.71,0,0,1,82,94.19c.2-.93,1-1.2,1.69-1.46a2.67,2.67,0,0,0,1.81-1.36c.3-.66,0-1.45-.39-2.36,0-.11-.09-.23-.14-.35h0c-.13-.33-.3-.44-.43-.46a3.9,3.9,0,0,0-3.5.73c-.43.34-.85.68-1.27,1.06-1.61,1.42-3.4,2.62-7.49,2.62h0s4.38-.55,7.07-3.28a10.93,10.93,0,0,1,1.32-1.09A4.16,4.16,0,0,1,84,87.52h0c.4.07.58.16.48-.28v0h0A4.72,4.72,0,0,1,85,83.51c1.17-2,3.51-2.36,5.77-2.74,2-.35,4.2-.67,5.53-2.06a4.55,4.55,0,0,0,.72-2.8c.08-1.38.17-2.81,1.28-3.54a3.22,3.22,0,0,1,3.64.06c.25.13.48.26.7.35a2.23,2.23,0,0,0,1.7.17,2.39,2.39,0,0,0,1.09-1.48,7.32,7.32,0,0,1,1.9-2.87,22,22,0,0,0-8.71,1c-2.18.7-1.16,4-4.21,5.81s-5-.57-5.61,2.95-7.45.59-8,2.68.18,6.36-3.14,7.41S70.13,91.19,69,96.13s3.34,15.83,6,18.62c2.38,2.49,3.87,4.4,9.47,5.44s18.38-2.64,22.76-4.56c4.09-1.79,11.11-5,12.45-8.64-1.27-.35-3,.29-4.39,1.84-1.08,1.2-2.15,2.46-4.92.7s-4.71-1.55-6.39.64c-.19.24-.37.49-.54.73-1,1.31-1.82,2.48-3.24,2.48a3.49,3.49,0,0,1-1.35-.3,7.9,7.9,0,0,1-2.51-1.71,2.68,2.68,0,0,0-2.41-1,4.42,4.42,0,0,0-2,.87,3.16,3.16,0,0,1-3.69.31c1,.2,2.29-.5,3.38-1.12a6.08,6.08,0,0,1,2.22-.94,3.22,3.22,0,0,1,2.8,1.17A7.19,7.19,0,0,0,99,112.24c1.92.8,2.78-.38,4-2l.55-.74c1.85-2.41,4.1-2.65,7.08-.76,2.4,1.53,3.21.59,4.25-.6a5,5,0,0,1,2.36-1.77,5.22,5.22,0,0,1,2.67-.09,3.17,3.17,0,0,0-.07-1.26c-1.16-4.33-3.45-8.93-.25-11.78s1.15-4.86,2.3-7.57,5.5-3.7,5.5-3.7Z"/><path class="cls-3" d="M116.24,175.3c-.65-1-1.63-2.61-2.18-2.41s-1.33,4.24-1.91,5l1.31-.85.55,2.8,2.23-.45S117,176.56,116.24,175.3Z"/><path class="cls-3" d="M139.78,168.72c-.28.32.06,3-1.27,5.22l1.27.9H142l1-2.86h.87s.4-.13.66-.85.66-2.31,1.67-2.12,1.79.94,2.77.45,1.56-2.47,1.56-2.47l-2.64-.36-1.4-.41s-.77,2.63-2.62,2.56S140.6,167.77,139.78,168.72Z"/><path class="cls-3" d="M46.18,100.72a1.18,1.18,0,0,1-1.32,1.33,1.33,1.33,0,0,1-1.33-1.33c0-.73.61-1.16,1.33-1.33S46.18,100,46.18,100.72Z"/><path class="cls-3" d="M59.88,84.08a1.71,1.71,0,0,1-1.58,1.58,1.57,1.57,0,0,1-1.57-1.58c0-.87.72-1.4,1.57-1.57A1.29,1.29,0,0,1,59.88,84.08Z"/><circle class="cls-3" cx="63.69" cy="94.53" r="0.96"/><path class="cls-3" d="M188,93.6a1.34,1.34,0,0,1-1.34,1.34,1.19,1.19,0,0,1-1.34-1.34c0-.74.62-1.5,1.34-1.34C187.73,92.48,188,92.86,188,93.6Z"/><path class="cls-3" d="M193.08,118.33c0,.6-.5,1.22-1.08,1.08-.94-.22-1.22-.58-1.08-1.08s.49-1.07,1.08-1.07A1,1,0,0,1,193.08,118.33Z"/><path class="cls-3" d="M92.69,163.46a2.07,2.07,0,0,0-1.37.92c-.26.59.85,4.23,1.73,4.37s1.15-.24,1.15-.24l1.71,1.7,2,.66s3.13-1.5,3.46-2.15l-1.08-1.7-3.52-.45-1.92.39L94,164.61v-1.3A2.56,2.56,0,0,0,92.69,163.46Z"/><path class="cls-3" d="M56.53,99.16s-3.15,1.68-3.81,3-.51,3.24.89,3.45l.7.18,1.5-2Z"/><polygon class="cls-3" points="198.89 87.27 195.99 86.27 192.81 87.27 190.58 88.98 192.51 89.37 198.24 89.95 199.05 89.14 198.89 87.27"/><path class="cls-3" d="M196.21,108.57a3.81,3.81,0,0,1,1.23,1.74,3,3,0,0,1,0,2.62l-1.21-.52-.31-1.47Z"/><path class="cls-3" d="M193.63,81.38a1,1,0,0,1-1.12,1.11,1.11,1.11,0,0,1-1.11-1.11c0-.62.51-1,1.11-1.12S193.63,80.76,193.63,81.38Z"/><circle class="cls-3" cx="205.51" cy="94.4" r="0.96"/><path class="cls-3" d="M56.23,90.78s-2.72-1.23-4.87-.53-1.91,1.93-1.78,2.36c.24.79,2.07,1.52,3.3.36A6.73,6.73,0,0,1,56.23,90.78Z"/><path class="cls-3" d="M195.53,96.38a7.28,7.28,0,0,1,4.11,1.41c1.35,1,1.93,2.21,1.24,3.41s-2.84.33-3.07-1.23A5.47,5.47,0,0,0,195.53,96.38Z"/><path class="cls-3" d="M113.58,66.61S121.25,68,125.8,74.2A13.08,13.08,0,0,0,122,68.94C119.12,66.47,114.43,66.5,113.58,66.61Z"/><path class="cls-3" d="M115.73,64.54s6.82.79,10.41,5.55a7.62,7.62,0,0,0-2.92-4A11,11,0,0,0,115.73,64.54Z"/><path class="cls-3" d="M162.21,59.36s2.71-.12,4.16,1.39,2.94,1.89,5.24,2a4.92,4.92,0,0,1,5,3.8,6.76,6.76,0,0,0,3.53,4.86c2.2,1.35,4.11,3.62,4.31,5.59,0,0,0-3.43-2-5.36S179,69.87,178.07,67s-1.27-4.79-4.49-5.25-3.57-.08-5.72-1.55A6.27,6.27,0,0,0,162.21,59.36Z"/><path class="cls-3" d="M167.83,57a7.82,7.82,0,0,0,2.64,2c1.75.56,5-.29,6.41.69s1,3.46,2.87,5.76,5.63,2.84,6,5.29a3.87,3.87,0,0,0-1.81-3.82c-2.25-1.41-3.7-2.15-4.35-4.44s-1.46-4.58-4.11-4.5S169.89,58.48,167.83,57Z"/><path class="cls-3" d="M107.26,177.11a.88.88,0,0,1-1,1,1,1,0,0,1-1-1,.94.94,0,0,1,1-1A1,1,0,0,1,107.26,177.11Z"/><path class="cls-3" d="M121.81,184.71c0,.73-.75,1.06-1.5,1.3s-1.31-.58-1.31-1.3.6-1.46,1.31-1.31C121.35,183.63,121.81,184,121.81,184.71Z"/><path class="cls-3" d="M133.37,174a.88.88,0,0,1-.88.87.93.93,0,0,1-.88-.87.83.83,0,0,1,.88-.88C133,173.09,133.37,173.24,133.37,174Z"/><path class="cls-3" d="M149.33,177.62a1,1,0,0,1-1,1,1,1,0,0,1-1-1,1,1,0,0,1,1-1C148.88,176.62,149.42,176.87,149.33,177.62Z"/><path class="cls-3" d="M157.72,171.16c0,.36-.39.94-.73.82s-.66-.29-.66-.66a.66.66,0,0,1,.66-.65C157.35,170.67,157.72,170.8,157.72,171.16Z"/><path class="cls-3" d="M87.25,171.54c0,.48-.44.87-1.09.87a.87.87,0,1,1,0-1.74C86.64,170.67,87.25,170.82,87.25,171.54Z"/><path class="cls-3" d="M93.72,176.38a1.45,1.45,0,0,1-1.45,1.44,1.66,1.66,0,0,1-1.66-1.45,1.55,1.55,0,0,1,1.66-1.44C93.3,175.12,93.72,175.58,93.72,176.38Z"/><path class="cls-3" d="M56.76,113.26a1,1,0,0,1-1.08.87.87.87,0,0,1,0-1.74C56.16,112.39,56.76,112.55,56.76,113.26Z"/><path class="cls-3" d="M66.34,90.48c0,.36-.39.94-.73.82S65,91,65,90.64a.65.65,0,0,1,.65-.65C66,90,66.34,90.12,66.34,90.48Z"/><path class="cls-2" d="M186.77,129.16c-.78-.72-3.06-1.5-3.39-3.46s.37-3.69,1.76-6.64c1.11-2.35.71-3.64.54-5.42a6.73,6.73,0,0,1,2.16-5.67c1.25-1.23.14-1.76.14-1.76s-3.69-.78-6,0c0,0,1.46,4.1.45,6.65s-3.9,4.06-5.6,6.2-2.21,4.21-3.65,8-5,9.06-10.17,7.9c-4.46-1-4.17-2.44-7-2-2.45.4-3.26,3-6.84,1.92s-5-6.35-6.85-6.87-5.08,1.3-7.82-.72-2.8-4.56-3.39-8.08-4.26-4.34-6.73-7.1-4.22.64-6.89,3-4.33.75-4.56,4.45c-.25,4-5.7,5.47-8.3,6.58a30.75,30.75,0,0,0-10.47,8c-3.65,4.36-10.43,2.52-12.84-.7a25.3,25.3,0,0,0-7.7-6.83c-3-1.66-4.25-3.81-3.84-9.55.16-1.89-3.52-4.69-4.46-8.93,0,0-2.45-.54-2.91.44s.12,6.55,2,8.55,3.13,2.79,2.78,6.46-.29,5.86-1.61,6.89-4.69,1.11-5.36,2.76c-.88,2.21-2.07,7-1.53,7.85s3.18,3.08,4.59,5.18,5-3,12.08,1.95c1.37,1.18-.74,2.4-3.13,1.91s-3.25.34-3.25.34a4.15,4.15,0,0,0,2.52,3c2.13,1,4.74,2.23,6.25.81s1.65-10.55,5.09-9.93c3.13.56,3.58,2.75,7.33,2.59s6.36-5.35,12.66-2.25c0,0-4.3.64-6.22,3.33a8.37,8.37,0,0,1-7.44,3.23,3.62,3.62,0,0,0,1.37,3.07c1.54,1,2.57,1.67,1.39,5.33a2.74,2.74,0,0,1,3.42,1.42c1.37,2.3-.15,3.57,1.86,3.76s3.37-.81,5,.82c1.46,1.43,2.17,3.27,3.12,3.22h0a.54.54,0,0,0,.22,0,6.71,6.71,0,0,1,2.79-.39c.84.25,2.61,2,3.5,1.7,0,0,1.1-1.53,2.41-1s2.92,3.17,3.9,2.2,1.37-5.46,3.08-5.64,3,1,4.46,2.52,2.63-.75,4.71-2.18c.46-.28,4.3-1.85,4.61.19h0c.24,1.94.73,1.66,1.21.95.65-.95.94-2.88,2.48-2.79s4.1,1.86,5,1.31,2.09-4.07,4.86-4.07c.84,0,1.56-.25,1-1.4-1-2.2-.65-4.28,1-7.53,0,0-5,.44-6.65-2.16a6.41,6.41,0,0,1-.49-5.7s1.27,2.82,5.57,3.08,5.08-1.94,7.76-2,3.78,1.5,5.6,4.4a6,6,0,0,0,7,2.64,26,26,0,0,0,8.34-5.15s-2.41-5,.72-6.75,6.06.82,6.06.82,2.41-2.27,1.95-4.65-.39-3.64.85-5.23S187.55,129.87,186.77,129.16Z"/><path class="cls-2" d="M39.2,171.75c.32,1.48,1,1.51.53,3.21s-5.09,3-5.41,4.75,1.61,2.41,2.76,1.24.82-1.58,1.6-1.43.69,3.37-.53,4.45a13.26,13.26,0,0,0-4.89,6.5c-1.86,4.49-5.87,12.61-5.77,14.37s1.93,3.53,1.58,6.26-3.58,2.64-5.44,5.62-6.6,14.22-5.09,14.95,4-3.61,5.33-3.17,3.37,3,4.65,3,5.23-7,6.15-9.29S38.15,214,41,216.86c1.81,1.76.49,7.38,1.07,7.78s1.58-4.89,3.68-5.14,0,2.64.48,5.09-.93,2.78-1.22,4.64.21,3.42.74,2.93,2-2,3.56-.53,1.91-2.89,3.08-3,2.74,1.9,3.27.92-.49-13-.78-18.17c0,0,1.76-5.66,3.59-7.57s4.17-2.52,6.12-3.25a15.89,15.89,0,0,0,7-6.72c1.5-3.08,1.89-5.16,1.3-7.61s.61-2,.26-4.27-6.19-9-8.67-8.67-2.86,3.65-6.65,3.52-3.87-4.12-5.68-5S38.86,170.14,39.2,171.75Z"/><path class="cls-2" d="M137.52,197.9c-1.27-1-2.64-.59-3.52,1.76s-.63,2.76-2.73,5.57-4,6.65-5.8,9.19S123,224.7,121.68,228.9s.69,2,1.73,2.24,1.37,1.89,2.54,2.08,4.17-.91,4.37-2.67.07-4.56,2.87-6.91,4.95-5.79,6.32-6.77,4.63,1.06,3.39,4.08-3.59,8.82-3.19,9.47,5.08,5.27,8.4,4.63,3.68-7.44,5.09-8.15c1.58-.8,3.44-1,4.36-2.62.61-1.05,2.48-8,5.54-8.57s3.36,2.52,3.2,4.54c-.12,1.43-2.41,8.87-3.26,12.13s-.33,4.88,1.24,3.84,2.15-4.43,3.52-4,2.54,2,3.58,1.3S173,228.9,173,228.9a3.36,3.36,0,0,1-2-3.59c.26-2.78,2.41-5.71,1.37-8a2.8,2.8,0,0,1,2.67,1.3c1.3,1.63-1.06,6.69.65,6.69,1.44,0,1.18-1.54.78-3.3s-1.62-4.3-.13-7.36,3.85-4,4.44-6.42-.66-5.12,2.41-8.18,3.52-6.52,2.15-7.5-4.69-3.91-1.83-7.88,1.26,2.17,3.26,3.13c.84.39,1.67.42,1.5-1.93s.93-5.12.64-6.52-2.2,1.24-3.72,1.39-1.71-2.27-2.39-1.79-.74,5.75-2.89,6.38-4.4.93-7.23,7-8.95,16.71-15.11,15.91-8-5.4-7.57-8,.29-3.47-.54-4.39,1.66-5,.42-5.71c-2.18-1.24-5.18,9.27-8.5,9.27A5.09,5.09,0,0,1,137.52,197.9Z"/><path class="cls-2" d="M215.93,171.21c-2.17.5-3.94,1.92-3.88,6.87s-3.91,7.17-5.73,8.35-2.16,6.32-2.94,7.95-3.78,4.34-3.45,7.9-1.64,5-4,7.88-2.87,9.77-4.36,13.35-5.35,6.19-4.83,7.37,2.54-1.57,3.72-.33.24,3.78,1.62,4.17a4.61,4.61,0,0,0,5.09-2.67c1-2.41,2.35-4.5,1.89-5.28s-3.06-2.48-1.43-5.8c0,0,2.5,3.45,4.8,2.8s2.89-3.13,4.71-2.47a6.13,6.13,0,0,0,7.24-2.87,4.28,4.28,0,0,1,.84,4.1c-.65,2.68-4,3.52-4.36,4.83s-1.59,4.56-1.09,4.75,3-4.49,4.31-3.45,1.47,2.87,3,2.41,2.55-9.71,2.55-9.71-5.6-6.06.62-10.82c0,0,0,5,1.79,5.17s2.8-2.61,2.41-5.52-1.11-7.08,1.17-11.25,4.63-8.67,3.91-12.12-4.1-7.34-3.19-10.15,4.43-3.87,3.32-5.46-3-.25-4.1.54-3.2,1.9-4.83,1.58S217.84,170.77,215.93,171.21Z"/><path class="cls-2" d="M112.05,199.46c-2.68-2-5.47-1.17-7.18-4.35s-2.25-3-5.77-3.37-3.44-6.25-5.6-3.56c-2.71,3.38-5.15,7.83-7.5,9.39a33.45,33.45,0,0,0-4.55,3.35l-.19.2h0a3.84,3.84,0,0,0-1.49,2.35,1,1,0,0,0,1.64.61c.68-.56.69-1.48,1.34-2h0a4.74,4.74,0,0,1,1.33-.85,9.53,9.53,0,0,0,5.44-4,5,5,0,0,1,.39,4.27c-.91,2.24-1.88,1.45-3.09,3s-1.54,3.11-4.14,4.15-5.35,7.17-6.33,9.84-.53,3.06-2.15,6.65-4,6.14-3.12,7,2.59-1,3.12-.46,1,3.26,3.39,3.26,5.15-.91,7-5.28,3-6.61,6.39-5.49,2.55,3.47,2.09,4.71-1.85,5.67-1,5.34,1.44-3.39,2.32-3.39,2.54,3.13,3.47,2.15,1.51-4.54,2.88-4.52,3.18,2.86,4.16,2.42,4.06-5.47,3.91-9.73-.6-6.25,1.66-10.12S114.74,201.42,112.05,199.46Z"/><path class="cls-2" d="M52.08,16.82c-.32-2-.92-3.69-5.47-4.49-4.08-.73-4.1,0-5.47,1.56S37.7,17.73,35.64,17s-3.19-1.82-4.87-1.57c-1,.16-2.86.29-3.32,2.82s-2.54,4.22-3.58,5.85A4.64,4.64,0,0,0,23,26.22c0,.39.27.62.66.37,1.21-.75,1.67-4.41,5.08-4.64a10.79,10.79,0,0,0-1.43,4.42c-.23,2.54-1.77,5.1-4.92,4.13a4.11,4.11,0,0,0-.33.92c-.46,1.95-.19,7.17-1.37,8.28s-4,1.55-4.36,3.31a26.14,26.14,0,0,0-.9,4.47c0,.17.38-.63,1-1,.81-.46,1.42,1.59.87,3.66S16.13,52,16,53.63h0A4.13,4.13,0,0,1,15.53,56a7,7,0,0,0-.85,4.69c.32,1.89.9,4.69-.1,7.24s-1.6,5-.36,5,3.32-4.19,4.43-3.79S21,72.22,23,71.83a9.28,9.28,0,0,0,4.58-2.69c1.21-1.16,4.58-5.6,6.32-5.91,1.53-.27,4.5-1,5.35-3.34s3.84-10.81,4.82-13.38c.88-2.32-.12-8.92-3.08-12h0c-.6-.72.47-.77,1-.73h0a17.89,17.89,0,0,0,3.8,0c2.08-.3,4.45-.51,5.23-6.85S52.41,18.77,52.08,16.82ZM31.18,54.14c-.41,1.26-5.91,4.8-6.31,5s-1-1-.74-2.33,3.42-5.66,3.71-6.19-.33-3.22-.33-3.22L29,46.05c.69-.27,2.77.84,3.34,2S31.59,52.87,31.18,54.14Zm5.87-22.08a5.27,5.27,0,0,1-1.88,1.06c.25-.82,1.43-6.4,1-6.85s-1-1.93-.68-2.35,4.88-1.39,4.67,1.62A11.87,11.87,0,0,1,37.05,32.06Z"/><path class="cls-2" d="M136,14.57c-1.41-2.06-3.78-4.26-8.52-3.35s-6,2.86-10,3.4-7-.34-8.41,2.39c-.94,1.83-1.07,3.92-.55,6.88s-.72,5.25-2.61,7.14-4.43,3.57-6.25,7.88S92.78,51.69,93.32,53s3.22-2.24,5.63-1.38,4.89,1.55,7.82-2.79L110.88,47l1.93-.83a41.85,41.85,0,0,0,1.6,5.86,2.89,2.89,0,0,1,2.8.31c1.11,1,1.55,1.4,2.09,1s.55-2.73,1.35-2.93,2.95.15,3.1-2.05-2.34-10.76-.41-13.59,8.38-3.52,9.74-4.79,1.67-4.79,2.11-7.28S137.45,16.63,136,14.57ZM125,28.22l-5.48,5.1-2.44.49,3.42-8.42-2.64-3.1.46-1.79,1.53-.13,4.07,1.5L125,23.63Z"/><path class="cls-2" d="M155.59,14.54a3.91,3.91,0,0,0-1.89,3.19c-.13,1.57-.59,2.54-2.22,2.64s-2.22.49-2.28,3.1-.13,4.79-1.56,7.08-3.33,5-4.63,6.73-1.8,3-.7,4.46l-.4,1.34s-1.9,7-1.77,9.59,2.8-4.63,4.69-4.5,4.12,2.25,6,1.53,2.43-1.45,4.75-5.25,3.09-3.39,6-3.34c1.57,0,2.67-1.09,3.72-3.11s2.67-5.27,1.56-5.34-7.66,1.21-7.38-1.57a8,8,0,0,1,.69-2.94s-5.24,1.38-5.38-3.46,1.73,1.57,4,.68,1.76-3.13,3.13-3.22,2,1.66,3.86,1.12,3.76-2.86,5.42-3.75,3.08-.56,2.69-2.07-.68-1.7-.34-2.91C173.51,14.54,157.36,13.53,155.59,14.54Z"/><path class="cls-2" d="M226.43,26.53c-2.71-2.23-10.26-5.34-11.53-5.21-.85.08-4,2.67-6.78,4.56s-6.05,3.58-6.09,5.8,1.85,3.71.87,6.39-1.49,2.21-.87,5.14-3.49,5.27-3.23,10,2.08,6.95,4.69,6.33,3.12.1,3.74,1.27,1.15,5.22,6,3.59,8.27-4.09,9.84-6.84.91-5.29.78-8.48.46-4.3,1.5-7.17-1.37-2.54-1.37-5,1.3-3,.52-4.76-2.6-2.75-2.08-3.65,2.47-.29,3.48.41a4.59,4.59,0,0,1,1.76,3.93S229.19,28.8,226.43,26.53Zm-8,19.55L216,53.15,212.75,55l-1.63-.91-.23-2.15.52-10,1.86-3.55L215,37.19l3.65-.59,1,4.5Z"/><path class="cls-2" d="M88.06,12.84c-1.36.2-2.15-1.11-3.38-.84s-4,4.77-5.89,4S76,11.21,75,12c-.49.37-.32.53-1.5,4s-4.75,6.48-6.25,7.88S65.64,27,65.45,28.25a5.29,5.29,0,0,1-2.67,4.41c-2.48,1.76-4.11,2.39-4.57,5.23a36.32,36.32,0,0,1-2.15,8c-.78,1.63-.78,3.93.39,4L53.66,58a1.66,1.66,0,0,1,2.4,0c1.18,1.21.46,2.05,1.76,1.92S63,58.07,63.3,56.64s1.36-6,2.08-6.65a4.76,4.76,0,0,1,5-.45c2.4,1.17.57,4.45,1.09,4.89s1.12-2,1.7-1.63,1.31,2.94,1.76,2.41.82-2.66,1.62-2.41,2.12,1.46,3.09.66,3.77-6.66,3.51-9.14-3.08-4.56-1.67-7,6.75-9.06,6.68-12.78S87.62,19.76,89.3,16,89.43,12.65,88.06,12.84Zm-15,28c-.82,0-2-.22-1.85-1.66a6.77,6.77,0,0,1,1.09-3c.43-.71,1.89-1.41,2.06-1.9a10.32,10.32,0,0,1,.87-2.58A3,3,0,0,1,77.14,31S73.91,40.77,73.1,40.82Z"/><path class="cls-2" d="M189.81,32.64s-2.3-1.89-3.7-2.1-3.08,0-3.56.84a1.62,1.62,0,0,0,.85,2.23c.64.27,1.63.46,3.34-.69A2.85,2.85,0,0,1,189.81,32.64Z"/><path class="cls-2" d="M234,52a5.47,5.47,0,0,1,3.16,2.15c1.47,1.89,0,2.44-.26,2.48s-1.12-.26-1.59-2.09S234.32,52.21,234,52Z"/><path class="cls-6" d="M44.74,212.28a1.34,1.34,0,0,1-1.34,1.34c-1,0-1.6-.6-1.6-1.34a1.51,1.51,0,0,1,1.6-1.34C44.5,211.1,44.74,211.54,44.74,212.28Z"/><path class="cls-6" d="M51,215.57a2.34,2.34,0,0,1-2.36,2.23,2.09,2.09,0,0,1-2.09-2.09,1.91,1.91,0,0,1,2.09-2.09C50,213.62,51,214.42,51,215.57Z"/><path class="cls-6" d="M19.88,54a1.16,1.16,0,0,1-2.32,0,1.12,1.12,0,0,1,1.16-1.17C19.36,52.8,20,53.18,19.88,54Z"/><path class="cls-6" d="M24.41,50.18a1.45,1.45,0,0,1-1.49,1.42,1.41,1.41,0,0,1-1.33-1.33c0-.74.58-1.11,1.33-1.33A1.28,1.28,0,0,1,24.41,50.18Z"/><path class="cls-6" d="M21.62,45.5c-.09.75-.6,1.46-1.37,1.37a1.59,1.59,0,0,1-1.52-1.38,1.44,1.44,0,0,1,1.52-1.37C21.12,44.23,21.72,44.66,21.62,45.5Z"/><path class="cls-6" d="M66.78,42.39a1.51,1.51,0,0,1-1.43,1.42,1.65,1.65,0,0,1-1.57-1.42,1.44,1.44,0,0,1,1.5-1.57A1.56,1.56,0,0,1,66.78,42.39Z"/><path class="cls-6" d="M84.86,22a1.28,1.28,0,0,1-1.19,1.14,1,1,0,0,1-1-1,1.09,1.09,0,0,1,1-1A1,1,0,0,1,84.86,22Z"/><path class="cls-6" d="M86.85,25.89a1.2,1.2,0,0,1-1.16,1.16,1.24,1.24,0,0,1-1.16-1.16,1.11,1.11,0,0,1,1.16-1.17C86.33,24.72,86.93,25.06,86.85,25.89Z"/><path class="cls-6" d="M132.39,17.45A1.48,1.48,0,0,1,131,18.88a1.49,1.49,0,0,1-1.53-1.48c0-.79.55-1.28,1.53-1.38A1.32,1.32,0,0,1,132.39,17.45Z"/><path class="cls-6" d="M151.69,30.68a.94.94,0,0,1-1,1,1.09,1.09,0,0,1-1-1,1,1,0,0,1,1-1A1,1,0,0,1,151.69,30.68Z"/><path class="cls-6" d="M149.37,35a1.21,1.21,0,0,1-1.31,1.31c-.73,0-1.47-.58-1.32-1.31a1.57,1.57,0,0,1,1.46-1.32A1.2,1.2,0,0,1,149.37,35Z"/><path class="cls-6" d="M218.59,32.28a1,1,0,0,1-1.06,1.06c-.59,0-.87-.45-1.06-1.06s.48-1,1.06-1.06C218.33,31.12,218.59,31.7,218.59,32.28Z"/><path class="cls-6" d="M215,29.66a1.33,1.33,0,0,1-1.31,1.13c-.64,0-1-.37-1.16-1.16a1.1,1.1,0,0,1,1.16-1.15C214.28,28.48,215.06,28.84,215,29.66Z"/><path class="cls-6" d="M220.51,27.45A1.61,1.61,0,0,1,219,28.89c-.73,0-1.15-.66-1.32-1.32s.6-1.15,1.32-1.32A1.23,1.23,0,0,1,220.51,27.45Z"/><path class="cls-6" d="M94.59,195.52A1.47,1.47,0,0,1,93.16,197a1.48,1.48,0,0,1-1.53-1.47c0-.79.55-1.29,1.53-1.39A1.33,1.33,0,0,1,94.59,195.52Z"/><path class="cls-6" d="M221.53,185.82c.2.65-.55,1.24-1.24,1.24s-1.08-.58-1.24-1.24.56-1.24,1.24-1.24S221.32,185.13,221.53,185.82Z"/><path class="cls-6" d="M227.57,186.86a1.39,1.39,0,0,1-1.53,1.53A1.64,1.64,0,0,1,224.3,187c0-.84.91-1.46,1.74-1.62S227.57,186,227.57,186.86Z"/><path class="cls-6" d="M224.06,190.51a1.23,1.23,0,0,1-1.24,1.24c-.84,0-1.11-.57-1.23-1.24s.56-1.11,1.23-1.24C223.64,189.13,224.06,189.83,224.06,190.51Z"/><path class="cls-6" d="M129.53,223.42a1.89,1.89,0,0,1-1.66,1.66c-1.13.14-1.43-.77-1.67-1.66s.75-1.67,1.67-1.67A1.56,1.56,0,0,1,129.53,223.42Z"/><path class="cls-6" d="M180.72,192.69a1.69,1.69,0,0,1-1.61,1.61c-.89,0-1.4-.68-1.61-1.61s.72-1.51,1.61-1.61A1.39,1.39,0,0,1,180.72,192.69Z"/><path class="cls-6" d="M177,198a1.3,1.3,0,0,1-1.51,1.35c-.74-.15-1.36-.61-1.36-1.36a1.36,1.36,0,0,1,1.36-1.37A1.34,1.34,0,0,1,177,198Z"/><path class="cls-7" d="M31.79,46.05s1.56-.06,2.8,2.49-.75,6.12-1.75,6.77-6.82,5.94-9,4.58V58.14l3.45-9.58,2.54-3.06Z"/><path class="cls-7" d="M219.41,35.37c.1,1,.86,2.27,1.52,4.23s.68,5-1.54,10.2-4.34,7.67-8.83,5.53V49.4l1.53-8.4,2.06-3.39,3.81-.88Z"/><path class="cls-7" d="M121,19.94c1.11.32,4.12.59,5.29,2.16s1.39,5.62.78,7c-1.08,2.43-6.28,4.25-10.44,6.18l2.88-10.15-1.82-3.39Z"/><path class="cls-7" d="M79.75,30s-1.56,4.47-2.49,7.51-1.08,6.2-2.86,6.69-5.53-1.53-4.9-4.81l2.35-4.17,2.76-3.5Z"/><path class="cls-7" d="M39.25,22.46a4.68,4.68,0,0,1,3.43,2.76c1,2.41-2.39,7.33-4.9,9.13s-3.32,1-4.33.68l2.47-6-.45-5.15Z"/><path class="cls-7" d="M78.07,141.72a10.47,10.47,0,0,1-1.84-2,5.65,5.65,0,0,0,1.42-1.57,7.54,7.54,0,0,1-1.7,1.14c-.26-.39-.49-.79-.7-1.18a4.82,4.82,0,0,0,1.67-1.62,8.4,8.4,0,0,1-2,1,19,19,0,0,1-1-2.33,10.1,10.1,0,0,0,.31,2.57,16,16,0,0,1-1.69.42,17.07,17.07,0,0,1-.92-2.52,10.83,10.83,0,0,0,.38,2.61,17.27,17.27,0,0,1-1.83.2,8,8,0,0,0,2,.36,8.09,8.09,0,0,0,.74,1.56,18.33,18.33,0,0,1-2.24.46,7.67,7.67,0,0,0,2.63.09,5.41,5.41,0,0,0,2.44,1.82,10.41,10.41,0,0,1-1.73-2,5.93,5.93,0,0,0,1.42-.57A4.32,4.32,0,0,0,78.07,141.72Zm-4.41-1.56q-.36-.58-.66-1.17c0-.09,0-.19.13-.21a10.16,10.16,0,0,0,1.37-.33,10.78,10.78,0,0,0,.47,1c0,.1.1.18,0,.24Q74.29,140,73.66,140.16Z"/><path class="cls-7" d="M117.93,124.05c-2,3.75-5.09,9-7.58,13s-2.44,7.94.78,9.65,7.77,1.88,9.29-1.19.16-6.39,1-7.1c.63-.52,1.39-.1,1.55,1s-.35,5.49,1.92,7.06c2.1,1.47,6.4,2.25,9,.25s4.76-5,3.91-8.57a30.32,30.32,0,0,0-5.91-12.4c-2.79-3.37-6.36-8.85-8.68-8.46S120,120.17,117.93,124.05Z"/><path class="cls-7" d="M122.47,170.21s-.49.29-.29,1.33c.15.75.94,2.13.88,3.21s-.56,2.21.16,2.54,1.86-.14,1.76-1a6.24,6.24,0,0,0-.72-1.93s.59-.12.85-1S124.27,169.16,122.47,170.21Z"/><path class="cls-7" d="M221.27,202.59a7.7,7.7,0,0,0-2.21,4.35c-.49,2.88.24,4.3-1.37,4.89s-3-.59-4.5,0-1.71,1.76-3.76,1.56-2.75-3.47-1.11-5.4,4.72-5.71,4.72-5.71l1.57-4.32,2.88-1,.92.4.6,2.71.49,1.36Z"/><path class="cls-7" d="M53.67,183.77a2.81,2.81,0,0,1,1.63,2.43c0,1.24,1.5,2.38,2.45,3.19a3.54,3.54,0,0,1-.53,5.33c-2.21,1.61-4.8,7.92-7.44,9.48s-5.48,1.15-5.43-1.11,4.5-11.45,4.5-11.45l1-3.62-2.06-3.57Z"/><path class="cls-7" d="M99.78,201s1,.07,1.8,1.7.65,9.61.16,11.37-5.06,3-6.45,2.83l-3.13-2.64L94,210.41l3.69-7.85Z"/><path class="cls-7" d="M113,46.8s-.18-2-.91-2-1.12.57-2.61.27-1.23.91-2.4,2.25Z"/><path class="cls-4" d="M124.89,21.59c-.72-.8-5-2.46-8.61-2-.48.06-.94.93-.87,1.72s1.72,1.73,2.65,2.86.32,2.77-1.07,6.08-2.3,4.92-1.36,5.69,9.53-6,10.19-7.37S125.61,22.38,124.89,21.59Zm-.5,6.13c-1,1.91-5.76,4.94-5.76,4.94a53.44,53.44,0,0,0,3.06-7.6c.13-.9-1.63-1.69-2.33-2.3s-.48-.92-.45-1.09c.21-1,3.4.07,4.31.55S125.05,26.53,124.39,27.72Z"/><path d="M115,29.07a3.7,3.7,0,0,1-3.79,3.34,3.77,3.77,0,0,1-3.56-2.35,1.48,1.48,0,0,0,0,.21,3.8,3.8,0,0,0,7.58,0A3.45,3.45,0,0,0,115,29.07Z"/><path d="M133.08,12.48a2.45,2.45,0,0,1-2.76.86c-2-.77-2.57,1.11-3,1.68s-2.28,2-3.79-.94c0,0-.43,2.77,2.1,3.3s2.77-2.13,3.81-2.61S132.28,15.69,133.08,12.48Z"/><path d="M123.11,38.91a3,3,0,0,1-5.86.78c0,.14,0,.28,0,.42a3.07,3.07,0,1,0,5.9-1.2Z"/><path d="M141.61,21.81a8.47,8.47,0,0,0-.81-1.55,6.58,6.58,0,0,1-1.27-3.86,5.72,5.72,0,0,0-1.95-4.19c-2.8-2.9-6.53-3.36-10.18-3.9a9.5,9.5,0,0,0-5.09,1,24.87,24.87,0,0,1-6.25,1.81c-2,.28-4.1.55-6.14.86a4.27,4.27,0,0,0-3.1,1.76c-1.63,2.44-2.66,5.07-2,8.09s.2,5.89-2.41,7.9a24.64,24.64,0,0,0-7.8,11.06C93,44.89,91.48,49,90,53.05a6.61,6.61,0,0,0-.36,2c0,2.43,1.79,3.73,4,2.82a22.83,22.83,0,0,0,3.14-1.54,4.51,4.51,0,0,1,3.37-.52,7,7,0,0,1,1.32.53,4.72,4.72,0,0,0,6-1.76c.62-1,1.26-1.89,2-2.92.33-.43.71-.75,1-.09s.37,1.06.53,1.56c.22.66.41,1.32.61,2,.61,2,1.68,2.37,3.45,1.19,1-.64,1.08-.62,1.88.17a12.46,12.46,0,0,0,1.51,1.4,1.85,1.85,0,0,0,2.9-.46,19.36,19.36,0,0,0,1.31-1.81,3.37,3.37,0,0,1,2.72-1.69,2.33,2.33,0,0,0,2.3-2.08,19.87,19.87,0,0,0,.17-3.93c-.15-2.22-.55-4.42-.67-6.64a3.8,3.8,0,0,1,2.6-4.11,35.32,35.32,0,0,0,3.89-1.83,7,7,0,0,0,3.61-3.45,26.55,26.55,0,0,1,4-6.49A3.47,3.47,0,0,0,141.61,21.81Zm-3.27,2.85c-.36.19-.52-.06-.57-.39a13.75,13.75,0,0,1-.19-2.44c0-.55-.21-.34-.27-.13a42.22,42.22,0,0,0-1.18,5.75,5,5,0,0,1-3.77,4.76c-1.59.56-3.17,1.19-4.72,1.85a5,5,0,0,0-3,4.82,54.11,54.11,0,0,0,.41,5.54c.13,1.59.31,3.17.38,4.76a1.88,1.88,0,0,1-1.55,1.94,5.36,5.36,0,0,1-.78.15c-1.62.23-1.67.22-2,1.74a2.68,2.68,0,0,1-1.5,1.93,1.52,1.52,0,0,1-2-.25,4.93,4.93,0,0,1-.42-.49c-1.43-1.73-3.31-.23-3.58,0s-1.56-4.63-2-6.7a5,5,0,0,0,3.27-3.25c-.22-.84-1.76,2.12-4.37,1.87s-3.35.55-5,2-3.9.16-3.9.16c.29.6.94,1.9,4.11,1.5a9.11,9.11,0,0,0,1.44-.27,11.22,11.22,0,0,1-2,3.16c-1.34,1.35-3.17,1.74-4.61.66a2.82,2.82,0,0,0-3.9.25,8.4,8.4,0,0,1-1.6,1,2.19,2.19,0,0,1-2.42-.12c-.77-.6-.54-1.48-.29-2.21.51-1.45,1.09-2.87,1.72-4.27q2.67-6,5.41-11.87a11.66,11.66,0,0,1,3.8-4.43c3.44-2.51,4.22-5.91,3.43-9.74a7.91,7.91,0,0,1,1.09-5.77,4.61,4.61,0,0,1,3.68-2.48l6-.64a15,15,0,0,0,5.63-1.6,11.19,11.19,0,0,1,10.56-.05,6.69,6.69,0,0,1,3.59,3.47,3.16,3.16,0,0,1,.28,1.82,4.65,4.65,0,0,0,1.2,4.39C139.71,22.42,139.8,23.65,138.34,24.66Z"/><path d="M112.81,42.63a2.23,2.23,0,0,1-2,1.86c-1.37.19-2.34-.56-3.29.2s-1.58,2.06-3.92,2.29c-.49,0,1.79-1.26,2.73-2.87s2.67-1,3.31-.82A3.54,3.54,0,0,0,112.81,42.63Z"/><path d="M164.7,29.63,168,30c2.26.27,3.11,1.52,2.3,3.64s-1.71,4-2.59,6c-.51,1.16-1,2.36-1.59,3.47-.91,1.67-1.76,1.75-3.65,1.61-1.59-.11-4.29,0-4.76.67-1.23,1.3-1.8,6.35-2.72,7.22s-1.83.87-3.41.63c-.82-.15-2.64-.41-4-.68-1.15-.19-1.75-.21-2.49.47-.43.39-.86.79-1.3,1.17s-1.13,1-1.74,1.38c-.94.66-2,1.2-3.09.49a3.07,3.07,0,0,1-1.34-3A27.65,27.65,0,0,1,139.32,45a4.18,4.18,0,0,0,0-3.17c-1-2.46.23-4.5,1.71-6.43a40.43,40.43,0,0,0,5-8.49,9.88,9.88,0,0,0,.52-4.7c-.16-2.61.42-3.64,2.77-4.77a2.19,2.19,0,0,0,1.24-1.56c.58-2.47,2.26-3.69,4.63-4.23a20.17,20.17,0,0,1,5.37-.37c5,.23,10.07.4,15.11.58.71,0,1.44.05,1.81.74a1.81,1.81,0,0,1-.29,2.22c-.89.88-.71,1.75-.34,2.76a2.87,2.87,0,0,1-1.28,3.83,3.91,3.91,0,0,1-.7.37,25.27,25.27,0,0,0-5.77,3.63,4.16,4.16,0,0,1-2.74,1.1C165.15,26.45,164.78,28.77,164.7,29.63Zm10.8-16.3c-2.09,0-3.84,0-5.58,0-4-.08-8.07-.28-12.11-.25-3,0-5,1.43-5.55,4.6a1.54,1.54,0,0,1-1.51,1.48c-1.88.3-2.54,1.1-2.65,3-.06.95.05,1.92-.09,2.85a17.9,17.9,0,0,1-3.46,8,56.21,56.21,0,0,0-3.34,5c-1.3,2-.29,3.51.32,3.73a1.32,1.32,0,0,0,1.56-.48c.27-.32.46-.71.72-1a11.27,11.27,0,0,1,1.43-1.71,2.68,2.68,0,0,1,2.81-.53c-1.34.67-2.73,1.34-4.07,4.52a2.23,2.23,0,0,1-2,1.39,1.43,1.43,0,0,0-1.4,1.26,42.12,42.12,0,0,0-1.42,7.62c0,.44,0,1,.47,1.24a1.38,1.38,0,0,0,1.24-.35A12,12,0,0,0,142.58,52c1.41-1.58,3-2.46,5.22-1.88s4.63,1.45,6.17-1.49c1.43-2.41,1.7-3.41,2.86-4.85a5.68,5.68,0,0,1,4.84-1.93,3.26,3.26,0,0,0,3.16-1.8A72.69,72.69,0,0,0,168,33.28c.6-1.5.11-2-1.49-2.05-1.22,0-2.45.07-3.66,0a1.74,1.74,0,0,1-1.65-2.46,11.07,11.07,0,0,1,.65-1.45l.63-1.43c-2.4,2.62-5.91,1.62-6.16-.76,0,0,1.91,2,3.31.94a5.62,5.62,0,0,0,1-1c1.58-2.06,1.59-2.09,4-1a2.72,2.72,0,0,0,3.36-.46,24,24,0,0,1,5.7-4c1.59-.87,1.7-1.57,1-2.73C173.63,15.55,175.22,13.47,175.5,13.33Z"/><path d="M161.27,17c-.81,1.87-.66,3.78-2.29,5-1.24.91-2.29.7-2.87-.74a6,6,0,0,1-.26-.92c-.24-1.28-.47-2.56-.71-3.91,1,0,1.53,2.67,1.75,3.54.13.54.31,1,1,1.13s1-.3,1.23-.8.61-1.23.87-1.87S160.78,17,161.27,17Z"/><path d="M158,31.32c-.79-.36-1.26,2.8-3.9,2.82a4.13,4.13,0,0,1-3.47-1.59s0,.07,0,.11c0,1.62,1.75,2.93,3.91,2.93s3.9-1.31,3.9-2.93A1.89,1.89,0,0,0,158,31.32Z"/><path d="M163.36,38.67s.15,1.25-2.39,1-4.11.44-5.21,2.55a15.75,15.75,0,0,1-2.71,4.19c-.76.21.84-2.34,1.57-4.45s1.85-3.11,3.16-3.43S161.51,39,163.36,38.67Z"/><path d="M184.46,28.15c-5.74,0-5.21,4.65-4.63,5.65.47.84,2.32,3.26,7.36,1.94s4.94-1,7.83-.25C196.05,35.77,190.39,28.17,184.46,28.15Zm1.46,6a3.38,3.38,0,0,1-4.2-.92c-.68-.87-1.05-2.83,2.25-3.48s6.94,3.2,6.94,3.2C188.42,32.62,187.83,33.19,185.92,34.12Z"/><path d="M55.54,28.19a10.36,10.36,0,0,1-4.73,8.1,12.88,12.88,0,0,1-2.18,1c-1.31.53-1.35.6-1,2,.29,1.19.61,2.36.85,3.55a8.78,8.78,0,0,1-1,6.44c-2.08,3.55-3.29,7.46-4.63,11.33a30.75,30.75,0,0,1-1.89,4,3.67,3.67,0,0,1-3.15,2.11,9.48,9.48,0,0,0-7.39,4.39A13.32,13.32,0,0,1,28,73.63a8.13,8.13,0,0,1-7.14,1.91,3.41,3.41,0,0,0-3.52,1.24,4.66,4.66,0,0,1-2.7,1.53,4,4,0,0,1-5-4.34,18.6,18.6,0,0,1,1-3.66c.42-1.37,1-2.69,1.31-4.08a7.86,7.86,0,0,0,0-3c-.84-4.73-.86-5,1.15-9.35a4.16,4.16,0,0,0,.18-3.21A9.63,9.63,0,0,1,13,47.56c.05-1.43.34-2.84.41-4.27.08-1.71.67-3,2.41-3.51,2-.62,2.74-2.14,2.79-4.13a18.93,18.93,0,0,1,1.11-6.08,3.32,3.32,0,0,0,.08-2,5.22,5.22,0,0,1,1.37-5.29,25.75,25.75,0,0,0,4.4-7.52c1.05-2.55,4-3.67,7.21-2.35,2.15,1.09,4,.58,5.71-.89.45-.39.88-.77,1.34-1.14a6.63,6.63,0,0,1,5.29-1.15,21.33,21.33,0,0,1,7,2,6.6,6.6,0,0,1,3.91,6.53C56,18.29,55.87,25.3,55.54,28.19Zm-12.4,7.05c5.23,0,8.06-1.75,8.91-4.7a23.9,23.9,0,0,0,.57-4.24c.29-3,.63-5.92.78-8.89A5.41,5.41,0,0,0,49.93,12a20.42,20.42,0,0,0-4.59-1.21,6.06,6.06,0,0,0-5.85,2.14c-.18.19-.39.36-.58.55a4.89,4.89,0,0,1-5.72,1c-.83-.33-3.32-1.65-4.76-.52a6.86,6.86,0,0,0-2.31,3.35,19,19,0,0,1-3.45,6.23,4.85,4.85,0,0,0-.87,1.67,1.83,1.83,0,1,0,3.48,1c.24-.65,1-3.2,2.37-3.46a28.21,28.21,0,0,0-1.34,4.52,2.89,2.89,0,0,1-3.23,2.24c-.82-.07-1.29.05-1.54.69A15.76,15.76,0,0,0,20.2,35.5,19.77,19.77,0,0,1,19.92,38a2.93,2.93,0,0,1-2,2.48,10.29,10.29,0,0,0-1,.46,3,3,0,0,0-1.75,2.48c-.11.89-.34,1.76-.49,2.65a4.55,4.55,0,0,0,.4,3.67c.68-.33,1.22-2.38,1.22-2.38.45,1.33-.76,5.85-1.85,8-1.77,3.32-1,5.33-.75,7.71.22,4.95-1.75,7.94-2,9a2.37,2.37,0,0,0,.79,2.73,2.94,2.94,0,0,0,3,.27,5.32,5.32,0,0,0,2.77-2.52c.52-1,.7-1,1.58-.4a4.94,4.94,0,0,0,5,.42,8.47,8.47,0,0,0,3.77-2.83c.72-1,1.47-2,2.2-2.93a4.94,4.94,0,0,1,4.26-2.38c3-.11,4.55-2.72,5.21-5.07a82.27,82.27,0,0,1,4.26-11.47C46.19,44.58,45.47,40,43.14,35.24Z"/><path d="M38.56,40.84a3.54,3.54,0,0,1-3.49-2.39,2.89,2.89,0,0,0-.12.78,3.41,3.41,0,0,0,3.61,3.16,3.41,3.41,0,0,0,3.61-3.16,2.89,2.89,0,0,0-.12-.78A3.55,3.55,0,0,1,38.56,40.84Z"/><path d="M46.89,18.8a3.24,3.24,0,0,1-3.22-2.71,3.5,3.5,0,0,0-.1.8,3.32,3.32,0,1,0,6.64,0,3.5,3.5,0,0,0-.1-.8C49.89,15.47,48.77,18.63,46.89,18.8Z"/><path d="M37,21.73c-3-.11-4,.91-4.19,1.46s-.35,1.34.8,2.7.21,3.76-.27,5.72-1.1,4.18,1.06,3.46,6.65-5.64,7-9.18S40.16,21.85,37,21.73Zm2.46,5.55c-1.37,4.09-3.84,5.51-3.84,5.51.66-2.55,1.82-5.74,1-6.77s-.91-1.41-.71-1.75c.44-.72,1.38-.55,2.42-.49C40.12,23.88,40.23,24.77,39.48,27.28Z"/><path d="M33.68,47.61c-.27-1.72-2.44-3.35-4-3.61a3.33,3.33,0,0,0-3.24,1.42,4.6,4.6,0,0,0-1.05,3.95c.08,1.5-1.66,5-2.4,6.45s-1.13,4.19.89,4.07,7-4.31,8.06-5.64A11.66,11.66,0,0,0,33.68,47.61Zm-2.87,5.91c-1.16,2.46-5.54,5-5.8,5.17s-.71-.47-.31-1.82,3.83-5.59,3.63-6.74a5.86,5.86,0,0,1,0-2.33,1.55,1.55,0,0,1,.8-1.23c.51-.37,2.3.85,2.65,1.47S32,51.06,30.81,53.52Z"/><path d="M22.45,35.14c-.24.39-.39,3.44-1.1,5.09s-2.24,1.13-3.27,2.16a5.21,5.21,0,0,0-1.23,3.66,6.27,6.27,0,0,1,2.09-3c1.15-.66,3.2-.81,3.75-2.83S23,34.32,22.45,35.14Z"/><path d="M38.28,58.71c.18.28-.35,3-3.83,3.46S31.54,63.7,30,65.54s-2.61,3-4.73,3.6a14.16,14.16,0,0,0,4.26-5.27c.94-2.28,2.18-2.58,4.45-2.8S37.91,58.11,38.28,58.71Z"/><path d="M39.8,56.92a1.1,1.1,0,0,1-.95,1c-.48,0-.73-.4-.87-.87s.39-.88.87-.88S39.8,56.43,39.8,56.92Z"/><path d="M196.19,49.35a4.37,4.37,0,0,0,.11-2.92,5.07,5.07,0,0,1,.82-4.68c.47-.64.92-1.31,1.36-2a6.48,6.48,0,0,0,1.22-5,13.65,13.65,0,0,1-.09-2.86,4.86,4.86,0,0,1,1.57-3.53c1.08-.94,2.14-1.89,3.27-2.76,1.89-1.46,3.81-2.88,5.75-4.28A31.76,31.76,0,0,1,213,19.6a4.48,4.48,0,0,1,4.28-.06q3.41,1.55,6.72,3.28c1.35.71,2.62,1.59,3.91,2.41a7.6,7.6,0,0,1,3.28,5.25,12.5,12.5,0,0,1,.38,2.83,6.78,6.78,0,0,1-.58,2.75,6.43,6.43,0,0,0-.72,3.21c0,.42,0,.85,0,1.27a8.72,8.72,0,0,1-1.24,5.33,7.69,7.69,0,0,0-1,4,47.82,47.82,0,0,1-.38,5.87,11.33,11.33,0,0,1-4.6,7.37,30.29,30.29,0,0,0-3.29,3.22,5.39,5.39,0,0,1-2.61,1.7c-1.42.4-2.82.88-4.23,1.33a8.58,8.58,0,0,1-4,.67,3.91,3.91,0,0,1-3.22-2.72,21,21,0,0,0-1-2.35,2.13,2.13,0,0,0-2.89-1.27,2.72,2.72,0,0,1-3.39-1.37,29.38,29.38,0,0,1-2-5C196,55.66,195.14,52.06,196.19,49.35Zm31.33-11.83c-2.11-.92-2.33-1.32-1.91-3.54a3.85,3.85,0,0,0-.8-3.58c-.17-.18-.77-1-.32-.95a3,3,0,0,1,2.14,2.73,8.76,8.76,0,0,1,0,2.23c0,.46-.08.85.42,1.06.92.44,2-.7,1.87-3.95-.11-3-1.09-5.47-4.14-6.76-2.63-1.11-5.18-2.43-7.78-3.64a4,4,0,0,0-4.35.31c-3.37,2.48-6.76,4.95-10.1,7.47a3.76,3.76,0,0,0-1.33,2.46,11.5,11.5,0,0,0,.15,4.26,4.58,4.58,0,0,1-.87,3.59,26.28,26.28,0,0,0-1.89,3.13,2.41,2.41,0,0,0,.25,2.7c1.15-.86,1.46-3.88,1.84-3.48a4.76,4.76,0,0,1-.43,3.88A32.75,32.75,0,0,0,198.42,49c-1.33,3.3-.85,6.55.44,9.76,1,2.42,1.38,2.71,3.9,2.54,1.91-.14,2.59.28,3.32,2,1,2.44,2.65,3.53,5.23,3a14.17,14.17,0,0,0,6.06-2.23,53.63,53.63,0,0,0,5.31-4.56,9.23,9.23,0,0,0,2.8-7.67c-.28-3.39-.06-6.68,1.71-9.71a2.2,2.2,0,0,0,.17-.45A6.11,6.11,0,0,0,227.52,37.52Z"/><path d="M206.68,28.9a.7.7,0,0,1-.76.76.77.77,0,0,1-.77-.76.84.84,0,0,1,.77-.77C206.43,28,206.68,28.48,206.68,28.9Z"/><path class="cls-4" d="M220,38.75a6.6,6.6,0,0,1-.46-2.81,5.56,5.56,0,0,0,.65-2.89s-1.07,2.57-2.51,2.93-3.87-.65-4.88.1-1,3.81-2.77,5.18-4.5.46-4.53.78,2.21,1.27,4.4,1a7.14,7.14,0,0,1,.16,3.63c-.43,2.28-1.31,5.83-.88,6.87s1.3,2.59,4.37,2.37,5.73-9.63,6.35-11.56A9.53,9.53,0,0,0,220,38.75Zm-4.17,11.89c-.82,1.76-1.37,3.26-3,3.43s-1.28-2.51-1.07-3.68c.18-.94.89-6.83,1.16-9.07,2-2.23,1.46-2.94,3.16-3.35a9.66,9.66,0,0,0,2-.65,8.85,8.85,0,0,1,.8,4.23C218.77,45.3,216.59,48.89,215.78,50.64Z"/><path d="M218.55,23.78c.67.18-2.74-2.37-4.91-1s-1.91,2.07-3.79,3.37-2.68,1.56-2.61,2.05,1.71.76,3.86-1.47,2.34-2.54,3.67-3A6.79,6.79,0,0,1,218.55,23.78Z"/><path d="M218.64,58.81c-.51-.17-1.3,1.75-2.61,1.89a3,3,0,0,1-2.89-1.25,1.71,1.71,0,0,0-.08.71c.13,1.27,1.54,2.16,3.15,2s2.82-1.33,2.69-2.6C218.88,59.29,218.8,58.86,218.64,58.81Z"/><path d="M206.66,53.84a2.64,2.64,0,0,1-2.4,2.48,2.45,2.45,0,0,1-2.19-1.68,3.89,3.89,0,0,0,0,.49,2.49,2.49,0,1,0,4.88,0A3.37,3.37,0,0,0,206.66,53.84Z"/><path d="M237.62,51.41c-2.65-2.14-8.19-2-8.19-2,1.93,2,1.83,2.08,3.33,6.25s5.27,4.83,6.86,2.7S240.28,53.55,237.62,51.41Zm-.44,6.09c-1.52.46-2.39-1.52-3-3.71S232.5,51,232.5,51a7.46,7.46,0,0,1,5.59,3.13C238.78,55.23,238.69,57,237.18,57.5Z"/><path d="M93.32,12.79A3.86,3.86,0,0,0,88.82,9a12.58,12.58,0,0,1-3.3,0c-2.37-.36-4.31.15-5.62,2.32-.05.08-.11.15-.17.23-.89,1.15-1.59.3-2-.29a3.07,3.07,0,0,0-4.44-1.36,3.54,3.54,0,0,0-1.67,2.05c-.31.85-.57,1.72-.93,2.54a24.39,24.39,0,0,1-5.31,7.49,6.56,6.56,0,0,0-2.16,4.46A7.54,7.54,0,0,1,59,32.33a5.3,5.3,0,0,0-3.12,4.8,18,18,0,0,1-1.55,6l-1.69,3.78a3.25,3.25,0,0,0-.22,2.77,3.72,3.72,0,0,1,.08,2.8C52,54,51.43,55.55,51,57.13a45.39,45.39,0,0,0-1.24,4.75c-.21,1.11,1.08,1.95,2.34,1.49a1.78,1.78,0,0,1,2,.21,3.86,3.86,0,0,0,3.92.37c1.38-.53,2.79-1,4.2-1.45a5.7,5.7,0,0,0,3.75-3.2c.59-1.3,1-2.65,1.59-4q.12-.27.27-.54h0c.26-.53.82,0,.87.62h0c0,.09,0,.18,0,.26.07.85,0,1.7.13,2.55s.14,1.91,1.09,2.32,1.73-.2,2.39-.85a1.43,1.43,0,0,1,1.71-.44,2.23,2.23,0,0,0,2.69-.85c.7-.92,1.32-1,2.42-.58a2.73,2.73,0,0,0,3.73-1.62l3.72-8.45a7,7,0,0,0,.44-5.27,8.35,8.35,0,0,1,.72-7c1.13-2.21,2.2-4.46,3.28-6.7a7.23,7.23,0,0,0,.69-4.8,12.51,12.51,0,0,1,1.07-8.05A8,8,0,0,0,93.32,12.79ZM91,14.92a5.7,5.7,0,0,1-.6,1.64,12.77,12.77,0,0,0-1.22,6.66,12.49,12.49,0,0,1-1.61,6.88c-1,1.88-2.07,3.7-3,5.6-1,2.08-1.72,4.2-.71,6.58a5,5,0,0,1,.14,2.8,32.53,32.53,0,0,1-3.28,8.76c-.63,1.14-1.14,1.31-2.31.72C77,53.87,76.58,54,76,55.18c-.21.42-.74,2.15-1.26,1.61-.83-1.13-1.09-2.48-1.37-2.49-.85-.22-2.18,4.29-2.64,3.43-.1-1-.17-4.06-.17-4.8a2.24,2.24,0,0,0-1.91-2.35A2.67,2.67,0,0,0,65.71,52c-.32.84-.72,6.3-4.64,7.85-1,.37-2,.82-3,1.17-1.32.45-1.7.27-2.35-1a1.69,1.69,0,0,0-2.48-.89c-.28.13-.54.29-.86.46-.56.2-.33-.8-.09-1.55.72-2.1,1.28-4,2.19-6,2.61,0,4.1-1.5,5-3.76.77-2,1.52-4.07,3.51-5.2a3.07,3.07,0,0,0-3.24,1.44c-.56,1-1,2-1.58,2.94a12,12,0,0,1-1,1.63,1.64,1.64,0,0,1-2,.52c-.72-.27-1.28-1.72-.46-3.41a40.14,40.14,0,0,0,2.59-9c.32-2.1,1.87-3.33,3.61-4.17a6.26,6.26,0,0,0,3.59-5.42,7,7,0,0,1,2.17-4.45A23,23,0,0,0,73,12.82a.88.88,0,0,1,0-.15c.24-.85.65-1.75,1.77-1.82s1.68.75,2.09,1.65c.91,2,2.1,2.14,3.58.52a13.49,13.49,0,0,1,1.08-1.18A3.43,3.43,0,0,1,85.11,11a6.82,6.82,0,0,0,4.21.25,1.19,1.19,0,0,1,1.67,1A9.13,9.13,0,0,1,91,14.92Z"/><path class="cls-4" d="M80.39,26.89c-.39-.21-.48,2.77-2.3,3-1.37.14-2.82-1.56-4-.22s-.59,3.52-1.86,4.4-2.51.46-3.75-.05a3.25,3.25,0,0,0,1.79,1.67c-.18.83-.52,1.73-.71,2.61s-.07,3.54,1.94,4.43,3.16-1.9,3.77-3.4S77.11,34.4,77.76,33a14.84,14.84,0,0,1,.94-1.81,1.82,1.82,0,0,0,1.17-.69C80.44,29.72,81,27.21,80.39,26.89ZM73.52,39.6c-.64,1.28-2.19.8-1.76-.93a5.8,5.8,0,0,1,2.11-3.58c1.07-.81,1.12-2.17,1.46-2.85a1.55,1.55,0,0,1,1.25-.71C76.51,32.84,74.17,38.33,73.52,39.6Z"/><path d="M81.18,46.59a3.54,3.54,0,0,1-6.77,1.33s0,.09,0,.13a3.56,3.56,0,1,0,7.11,0A3.43,3.43,0,0,0,81.18,46.59Z"/><path d="M87.13,15.71A3.23,3.23,0,0,1,84,18.46a3.18,3.18,0,0,1-3-2.18,2.88,2.88,0,0,0-.06.59,3.18,3.18,0,1,0,6.35,0A3.67,3.67,0,0,0,87.13,15.71Z"/><path d="M67.66,25.23c-.52.09-.61,1.28-1.17,3.7a5.55,5.55,0,0,1-2.9,4c-1.1.67-3.52,1.51-3.84,4.91,0,0,1.64-2.89,3.87-3.6a6.05,6.05,0,0,0,4-4.73C68,27.78,68.48,25.08,67.66,25.23Z"/><path d="M79.47,21.09s-.76-.5-2.22.19-1.54,2.61-2.48,3.49-2.42.72-3.08-1.82c0,0-.93,2.55,1,3.6s3.27-.76,3.62-1.52A6.11,6.11,0,0,1,79.47,21.09Z"/><path class="cls-4" d="M81.77,25.28a.92.92,0,0,1-.88.87,1,1,0,0,1-1-.88.94.94,0,0,1,1-.87C81.43,24.48,81.84,24.78,81.77,25.28Z"/><path d="M33.94,183.9a4.18,4.18,0,0,1-2.34-2.61,3.72,3.72,0,0,1,1.1-4.18,10.69,10.69,0,0,1,1.13-.88A2.72,2.72,0,0,0,35,172.8a4.31,4.31,0,0,1,.12-2.46A3.24,3.24,0,0,1,38,168.08a6.06,6.06,0,0,1,2.21,0,46.24,46.24,0,0,0,8.55.43c1.54,0,3.08,0,4.61.07a5.21,5.21,0,0,1,4.13,2.07,1.85,1.85,0,0,0,2.4.63c.74-.29,1.53-.45,2.27-.72a4.71,4.71,0,0,1,4.64.82,15.43,15.43,0,0,1,2.29,2q3,3.27,5.94,6.65a4,4,0,0,1,1.09,4.24,2.42,2.42,0,0,0,.16,1.69,7.26,7.26,0,0,1-.05,6.91c-1.56,2.94-3.36,5.77-5.18,8.57a4.59,4.59,0,0,1-3.32,2,6.34,6.34,0,0,0-5.35,4.19,19.44,19.44,0,0,1-2.14,3.89,4.09,4.09,0,0,0-.83,2.66c.18,2.07.41,4.12.6,6.18.29,3.12.61,6.23.81,9.35.3,4.22-2.27,4.67-3.84,4.66a3.43,3.43,0,0,0-2.4,1.05c-.2.18-.37.39-.56.57-2,2-2.66,2.09-5.21.93a6.33,6.33,0,0,0-3.38-.62c-1.55.15-2.17-.21-2.66-1.69a33.93,33.93,0,0,1-1.06-4.48,3.51,3.51,0,0,0-1.11-2.21c-1.68-1-1.13-3.27-1.33-3.81-.13-.86-.79-.78-1.19-.2a16.09,16.09,0,0,0-1.22,2.23c-.92,2-1.69,4-2.72,5.92-.77,1.43-1.66,2.86-3.41,3.39a3.45,3.45,0,0,1-2.91-.24c-.23-.13-.47-.25-.71-.36a3.77,3.77,0,0,0-4.42.62,8.48,8.48,0,0,1-2.82,1.7,4.26,4.26,0,0,1-5.4-4.37,12.17,12.17,0,0,1,.65-3.59c.85-2.46,1.84-4.87,2.82-7.27s1.92-4.48,2.85-6.74a4.22,4.22,0,0,1,2.36-2.42c1.8-.77,2.83-1.85,2.06-4.33a10.83,10.83,0,0,1,.45-7.6,101.38,101.38,0,0,1,6-12.63C32.43,186.83,33.11,185.45,33.94,183.9Zm19.45,20.62c1.65.5,1.42,3.63,1.42,4.21a2,2,0,0,0,1.2,2.15c.68.22,1.41-.12,1.91-1.06a20,20,0,0,0,1.21-2.77A6.74,6.74,0,0,1,63,202.67c.93-.38,1.82-.87,2.75-1.24A7.43,7.43,0,0,0,69,199.1a32,32,0,0,0,4.81-8.39,5.43,5.43,0,0,0,.08-4.06,4.45,4.45,0,0,1,.07-3.71,1.76,1.76,0,0,0-.1-1.81,38.71,38.71,0,0,0-6.73-7.83,4.82,4.82,0,0,0-5.91-.46c-.54.32-1.07.69-1.64,1-1.54.77-2.16.68-3.39-.55a8.55,8.55,0,0,1-1.43-1.7,2.72,2.72,0,0,0-1.89-1.32,18.08,18.08,0,0,0-5.69-.23,38.87,38.87,0,0,1-5.06-.07c-1.06-.05-2.11-.29-3.15-.24a2.18,2.18,0,0,0-2.13,3.17c.83,2.32.46,3-1.62,4.34a8.36,8.36,0,0,0-1.87,1.45,2.49,2.49,0,0,0,.07,3.47c.76.81,3.09.66,4.47-.75a2.19,2.19,0,0,1-1.22,2.26,4.19,4.19,0,0,0-1.31,1.07,41.11,41.11,0,0,0-2.64,4.53c-1.8,3.79-3.49,7.63-5.18,11.47-1.12,2.54-1.69,5.09-.48,7.83s.62,4.3-2.13,5.47a4.1,4.1,0,0,0-2.33,2.08c-1.51,3.5-3.14,7-4.57,10.5-.6,1.51-2.1,5.6-.55,6.8a2.17,2.17,0,0,0,2.08.4c1.46-.27,2.38-1.34,3.46-2.17a2.39,2.39,0,0,1,2.94-.15c.5.3,1,.65,1.49.91,1.51.76,2.46.62,3.54-.64a11.7,11.7,0,0,0,1.59-2.37c1.11-2.24,2.09-4.54,3.21-6.77a43.62,43.62,0,0,1,2.29-4,1.43,1.43,0,0,1,1.6-.8,1.59,1.59,0,0,1,1.18,1.54c.07.68,0,1.37.08,2.06,0,1.22,0,2.45.17,3.66a1.61,1.61,0,0,0,1.38,1.53c.84,0,1.18-.64,1.37-1.34.15-.5.57-3,1.58-3.52-.84,2.54.77,4.08-1.17,5.51a1.57,1.57,0,0,0-.7,1.8,46.61,46.61,0,0,0,1.15,4.78c.47-.25.75-.38,1-.55,1.52-.93,2-.92,3.41.14,1.19.86,1.68.86,2.42-.42,1-1.78,2.31-2.46,4.34-1.69,1,.37,1.51-.06,1.69-1.11a9.7,9.7,0,0,0,.11-2.22q-.36-5.42-.8-10.81c-.12-1.47-.34-2.92-.5-4.33-2.12.23-2.87-1.51-2.69-3.61A9.83,9.83,0,0,0,53.39,204.52Z"/><path d="M35.14,217a3.59,3.59,0,0,1-3.28,3.35,2.72,2.72,0,0,1-2.79-3,13.17,13.17,0,0,1,1.52-5.8,3.51,3.51,0,0,0-.1-3.87c-1.19-1.78-.48-3.59.25-5.62.38-.61.42.83.26,1.69a4,4,0,0,0,1.26,3.6,2.1,2.1,0,0,1,.46,2.73c-.73,1.65-1.43,3.31-2,5a7.58,7.58,0,0,0-.41,2.18,2,2,0,0,0,1.19,2.08C33,219.83,34.63,217.82,35.14,217Z"/><path d="M65.5,182c-.77,1.12-1.44,2.11-2.11,3.1a2.18,2.18,0,0,1-3.41.52,7.93,7.93,0,0,1-1.4-1.7c-.76-1.15-1.17-1.42-2.48-1.09a2.75,2.75,0,0,1-3.24-1,4.57,4.57,0,0,1-.17-4.57c.08-.11.17-.07.27.32.15.62.35,2.2.56,2.79.44,1.23,1,1.44,2.17.89l.56-.29a1.81,1.81,0,0,1,2.67.85c.25.41.39.87.64,1.28a6.22,6.22,0,0,0,.92,1.28,1.15,1.15,0,0,0,1.92-.06c.43-.47.75-1,1.17-1.5S64.57,181.7,65.5,182Z"/><path d="M56.33,189.44c-.94-1.34-2-2.05-1.82-3.52s.32-2.68-3-2.79-3.49-.19-4.6.14a1.26,1.26,0,0,0-.5,2c.78.82,1.88,1.45,1.92,2.38s-4,12.21-4.56,13.93a2.16,2.16,0,0,0,3.18,2.62c2.23-1.19,5.38-7.77,6.25-9.07s2.86-.69,3.63-2S57.26,190.79,56.33,189.44ZM54,192.77c-1,0-1.7.11-3.72,4.57s-3.32,5.71-3.87,5.75-.33-1.41,1.27-4.6a67.18,67.18,0,0,0,3.71-9.59c.44-1.58-1.65-3.33-1.79-3.61s3.1-.13,3.32,0,0,1.27.08,2.26,1.62,1.71,2.12,3.06S55,192.72,54,192.77Z"/><path d="M43.63,189.17a3.39,3.39,0,0,1-6.4,1.26,2.4,2.4,0,0,0,0,.28,3.41,3.41,0,1,0,6.43-1.54Z"/><path d="M67.7,176.22c.66-.26,1.41,1.17,2.33,2.56a3.35,3.35,0,0,1,.63,3.37c-.37,1.23-.8,2.26.49,3.61s1.62,4.72,0,7c0,0,.79-3.9-1-6s-2.14-2.28-1.07-4.9S66.9,176.55,67.7,176.22Z"/><path d="M32.18,200.39a.76.76,0,0,1-.83.83.83.83,0,0,1-.83-.83c0-.46.39-.7.83-.83S32.18,199.93,32.18,200.39Z"/><path d="M184.14,195.24a3.13,3.13,0,0,1-.7,2.71,28.17,28.17,0,0,1-2.36,2.76,3.13,3.13,0,0,0-.83,3.06,8.61,8.61,0,0,1-1.32,6.06c-.24.35-.57.47-.68.13,0-.51,1.53-3.24.43-5.88-.82-1.94-.6-3.11.95-4.39A20.63,20.63,0,0,0,184.14,195.24Z"/><path d="M124.9,223.42a5.73,5.73,0,0,0,.39,3.69c.74,1.29,3.73-.11,3.78-.11-.1,1.36-1.09,2.18-2.92,2.42a2.19,2.19,0,0,1-2.38-1.66C123,225.62,123.21,224.51,124.9,223.42Z"/><path d="M192.1,178.2a3.24,3.24,0,0,0-1.76-3.17c-1.22-.52-2.23.22-3.17,1-1.7,1.38-1.71,1.36-3-.32-1-1.3-1.61-1.35-2.58,0a26.12,26.12,0,0,0-2,3.45,5.66,5.66,0,0,1-3.8,3.33,7.26,7.26,0,0,0-5.24,4.71,65.13,65.13,0,0,1-6.85,12c-1,1.42-4.6,5.26-7.24,4.41-.83-.27-2.48-2.18-1.27-4.89a4.57,4.57,0,0,0-.94-5.06,3.68,3.68,0,0,1-.91-3c0-.53,0-1.07,0-1.6a2.59,2.59,0,0,0-3.51-2.51,6.05,6.05,0,0,0-3.37,2.53,34.93,34.93,0,0,1-2.38,3.39,19.67,19.67,0,0,1-2.52,2.39,1.71,1.71,0,0,1-2.21.1,17.61,17.61,0,0,0-1.82-1,3.71,3.71,0,0,0-4.18.41,7.25,7.25,0,0,0-2.64,4.08,15.09,15.09,0,0,1-3.15,6.34,11.25,11.25,0,0,0-1.89,3.45,10.16,10.16,0,0,1-2.52,3.83,8.78,8.78,0,0,0-2.48,5.05c-.26,1.52-.4,3.06-.65,4.58a31.87,31.87,0,0,1-1.83,7.89,32.83,32.83,0,0,1-1.8,3.36,2.51,2.51,0,0,0-.22,2.7,2.08,2.08,0,0,0,2.23.91,20.32,20.32,0,0,0,2.18-.39,3.38,3.38,0,0,1,3.39.83,2.81,2.81,0,0,0,3.49.62,25.22,25.22,0,0,0,4.19-2.27c3.3-2.47,3-1.81,3.32-5.82a7,7,0,0,1,2.41-4.52h0c.52-.38,1.49-.52,1.31.19a20,20,0,0,1-1.34,3.54,4.18,4.18,0,0,0,.42,4.5,11.38,11.38,0,0,0,9.09,5.14,8,8,0,0,0,8.14-4.73,11.73,11.73,0,0,1,2.55-3.21c1.46-1.38,2.95-2.73,3.14-4.84.1-.38,1-1,1-.38a9.25,9.25,0,0,1-.28,1.82c-.53,2.11-1.18,4.19-1.7,6.3a27.65,27.65,0,0,0-.95,4.81,3.48,3.48,0,0,0,2.22,3.25,3.05,3.05,0,0,0,3.4-.63c.58-.47,1.14-1,1.68-1.48a3.69,3.69,0,0,1,4.65-.76,3,3,0,0,0,2.44.06,3.59,3.59,0,0,0,2.4-3.13,20.62,20.62,0,0,1,3.44-8,4.14,4.14,0,0,0,.62-3c-.09-.69-.23-1.36-.32-2.05-.44-3.43.08-6.66,2.72-9.09a6.75,6.75,0,0,0,2.53-5.86,4.66,4.66,0,0,1,1.42-3.59,12.68,12.68,0,0,0,2.08-3,14.16,14.16,0,0,0,1.37-5.68,7.4,7.4,0,0,1,1.46-4.93,4,4,0,0,0,.67-3.65,11.61,11.61,0,0,1,.24-5.65A11.42,11.42,0,0,0,192.1,178.2Zm-2.23.68a29.79,29.79,0,0,0-1,9.44c.07,1.35-4.1.84-4.15-2.21-1,2-.54,4,1.29,4.65a1.78,1.78,0,0,1,1.3,1.86c.31,3.68-1,6.25-3.81,8.61a4.15,4.15,0,0,0-1.58,4.09,6.68,6.68,0,0,1-2.23,6.31,10.71,10.71,0,0,0-2.72,3.69,7.1,7.1,0,0,0-.44,3.75c.16,1.21.4,2.41.55,3.62a9.4,9.4,0,0,1,.07,1.91,1.39,1.39,0,0,1-2.78.09,4.87,4.87,0,0,1,.08-1.42c.11-.68.3-1.35.4-2a2.18,2.18,0,0,0-1.56-2.58c.86,1.46.45,2.75,0,4.05-.14.46-.27.92-.4,1.38-.62,2.17-.19,3.25,1.84,4.41a28.49,28.49,0,0,1-1.87,6c-.4,1-1.14,1.15-2.1.66-.32-.16-.61-.41-.93-.61-1.28-.81-2.52-.63-3.24.74a10.34,10.34,0,0,1-2.55,3.17,2,2,0,0,1-3.25-1.87,14.86,14.86,0,0,1,.54-3.44c.85-3,1.83-5.88,2.7-8.83a15.07,15.07,0,0,0,.59-3.12,5.15,5.15,0,0,0-.33-2.16c-.47-1.26-1.33-1.48-2.34-.55a9.44,9.44,0,0,0-1.7,2.26c-.47.83-.73,1.77-1.13,2.64a5.66,5.66,0,0,1-2.76,3,5.32,5.32,0,0,0-2.86,3.43,33.35,33.35,0,0,1-1.71,3.93,5.72,5.72,0,0,1-2.5,2.39,3.46,3.46,0,0,1-2.75.32c-2.84-.71-5-2.5-7.15-4.33a2.36,2.36,0,0,1-.69-3,35.05,35.05,0,0,0,2.4-8.68,1.27,1.27,0,0,0-1.05-1.41,1.83,1.83,0,0,0-1.35.53c-.77.8-1.39,1.74-2.11,2.59q-1.81,2.11-3.7,4.17a5.14,5.14,0,0,0-1.4,3.79c.12,2.38-1.24,3.57-3.13,4.46a12.6,12.6,0,0,1-1.32.54c-1.5.52-1.7.45-2.69-.82-2.19-2.94-4.15-.35-5.54-1.13,1.42-3.42,3.21-12,3.86-16.36.31-2,1.8-3.43,3.42-4.64a40.56,40.56,0,0,0,4.35-3.47c.88-1,1.19-1.86,1-2-.43-.4-1.9,1.44-3.33,1.91-.39.08-.49-.3-.45-.61a3.07,3.07,0,0,1,.61-1.12c.63-.85,1.31-1.67,2-2.49a8.59,8.59,0,0,0,1.87-4.15,10.74,10.74,0,0,1,.92-2.86c.82-1.74,2.18-2.15,3.93-1.31.86.41,1.71.84,2.56,1.29a2.44,2.44,0,0,0,3.07-.41,15.22,15.22,0,0,0,2-2.28c1.22-1.79,2.33-3.67,3.57-5.46a4.35,4.35,0,0,1,1.54-1.31,1.08,1.08,0,0,1,1.68.82,3.53,3.53,0,0,1,0,1.41,18.31,18.31,0,0,1-.48,2,2.43,2.43,0,0,0,.89,2.84,2,2,0,0,1,.74,2.12c-.1.79-.28,1.58-.32,2.37a6.29,6.29,0,0,0,1.64,5,4.62,4.62,0,0,0,6,.69,13,13,0,0,0,4.59-4.33c1.9-2.94,3.72-5.93,5.54-8.91.91-1.5,1.84-3,2.6-4.56A5.75,5.75,0,0,1,176.9,184a4.8,4.8,0,0,0,3.56-3.28,27.73,27.73,0,0,1,1.46-3.18c.55-1,1-.9,1.58.09l.06.15c1.07,2,1.54,2.08,3.18.38a6.71,6.71,0,0,1,1.57-1.3c.86-.49,1.57-.07,1.67.91A3.15,3.15,0,0,1,189.87,178.88Z"/><path d="M148,213.72c-.62.32.45,2.46.22,4.9s-1,4.66.34,4.66c1,0,1.81-1.17,2.33-.59s.55,2.79,2.4,2.61a2.76,2.76,0,0,0,2.44-2.27c.12-.53-1.48,1.77-2.78.7s-.43-3.19-2.21-3c-1.51.16-1.36-.64-1.28-2.32C149.58,216.34,148.93,213.26,148,213.72Z"/><path d="M147.38,200.91s-.88,3-2.71,3.34-2.58-.9-3.82,1.41-1.8,3.7-3.23,3c-1.66-.86-.21-5.84-1.53-5.81-.7.11-1,3.06-.57,5,.36,1.49,1.15,2.76,2.78,2.8s2.36-1.9,3.4-3.37,2.91-1.35,3.92-2A4.09,4.09,0,0,0,147.38,200.91Z"/><path d="M173.68,210.3c-.1,1.95-2.05,3.54-4.5,3.61a4.76,4.76,0,0,1-4.26-2.06,2.09,2.09,0,0,0,0,.25c.05,2.07,2.17,3.68,4.72,3.61s4.57-1.81,4.51-3.87A3,3,0,0,0,173.68,210.3Z"/><path d="M217.18,190s-.85,2.22.28,3.34,2,0,2.67,1.41,1,2.42,3.6,2.19a3.56,3.56,0,0,1-2.57-2.44c-.61-2.05-1.66-1.34-2.35-1.46S217.11,192.29,217.18,190Z"/><path class="cls-4" d="M224.14,199.69c0,.2-1.51,2.46-3.41,1.52s-.5-3.87-1.68-5-2.37.44-4-.62-1.25-5.26-1.25-5.26c-1.05,1-1.37,4.77-.47,6.38a9.7,9.7,0,0,1-2.12,5.33c-2,2.67-4.72,6.17-4.27,8.4.4,2,1.84,2.7,3.53,1.66s1.33-1.77,3.65-1.46,2.74-.65,3.48-3.45A10.92,10.92,0,0,1,220,202a2.76,2.76,0,0,0,1.26.57C224,203.08,224.17,199.49,224.14,199.69Zm-5.75,1a15.29,15.29,0,0,1-1.24,3.83c-.54,1.53-.73,3.94-1.85,4.56s-2.59-.59-3.25-.7-1.82,2.42-2.18,1.67c-.51-2,1.56-4.76,2.94-6a17.31,17.31,0,0,0,3.18-5.16c.53-1.41,1.43-.83,1.65-.58A2.92,2.92,0,0,1,218.39,200.69Z"/><path d="M233.76,174.22a5.65,5.65,0,0,0,.71-7.45,3.93,3.93,0,0,0-4.53-.94,19.5,19.5,0,0,0-2,1c-.92.53-1.82,1.1-2.73,1.63a5,5,0,0,1-4,.32c-.35-.1-.69-.24-1-.36-3.73-1.3-9.92.62-11.11,8.15-.91,4-2.75,6.17-5.12,8.69-1.9,2-3.33,4.24-3.1,7.24a5,5,0,0,1-1.53,3.75c-1.78,1.87-2.69,3.89-2,6.49a2.93,2.93,0,0,1-.87,2.78,13.24,13.24,0,0,1-1.09,1.16,9.57,9.57,0,0,0-3,5,47.93,47.93,0,0,1-2.83,8.26,25.92,25.92,0,0,1-4.71,7.53,7.44,7.44,0,0,0-2.31,5.7c0,.69,0,1.38,0,2.07.17,2.52,1.73,3.57,4.15,2.8a3.38,3.38,0,0,0,.44-.18,2.46,2.46,0,0,1,2.43.17,6.85,6.85,0,0,0,1.57.75,8.71,8.71,0,0,0,10-4.67c.82-1.83,1.49-3.73,2.28-5.58.38-1.36,3.67-3.8,5-3.33-.06.41-1.4,5.75-1.91,8.08a5.65,5.65,0,0,0,0,2.49,2.39,2.39,0,0,0,4.09,1.26c.45-.38.86-.8,1.29-1.2a2.54,2.54,0,0,1,2.63-.68,19,19,0,0,1,2.17.94c2.5,1.16,4.27.45,5-2q.81-2.66,1.41-5.39c.4-1.81.63-3.66,1-5.47a3.78,3.78,0,0,1,1.68-2.59,6,6,0,0,0,2.76-5.43c0-2,0-3.94,0-5.9a27,27,0,0,1,1.94-10c.92-2.14,1.9-4.26,2.86-6.39a13.58,13.58,0,0,0,1.27-5.06,13.07,13.07,0,0,0-1.69-6.72C231.67,178.67,231.68,176.42,233.76,174.22ZM229.53,180c.27.69.58,1.36.92,2,1.74,3.43,1.27,6.91.16,10.37-.81,2.53-1.82,5-2.63,7.52a39.52,39.52,0,0,0-2,11.41c0,1.22-.14,2.44-.26,3.65a4.07,4.07,0,0,1-.36,1.22,2.91,2.91,0,0,1-2.91,1.81,2.66,2.66,0,0,1-2.4-2.37c-.1-.52-.14-1.06-.25-1.88-1,2.28-.49,4.87,2.15,6-.34,2.1-.64,4-1,6.22-.28,1.62-.57,3.24-1,4.84-.57,2.34-2.43,3.07-4.52,1.86-.36-.22-.71-.46-1.09-.66-1.29-.67-1.77-.56-2.74.57-.59.69-1.17,1.38-1.76,2.06a1.39,1.39,0,0,1-1.54.59c-.71-.28-.59-1-.46-1.52.42-1.81.87-3.61,1.33-5.41.15-.56.65-2.87,2-3.35a5.19,5.19,0,0,0,2.77-4.57c-.9,1.66-3.26,3.63-5.22,2.83a2.55,2.55,0,0,0-3.16.61,3.91,3.91,0,0,1-1.71,1.05,6.76,6.76,0,0,1-2,.11,6.39,6.39,0,0,1-1.48-.42,4.36,4.36,0,0,1-1.72-1.57,3.92,3.92,0,0,0,2.24,3.06c-.14,2-1.6,5.2-2,6.28-1.06,2.2-2,3.89-4.28,4.58a8.73,8.73,0,0,1-3.27.13,1.25,1.25,0,0,1-1.16-1.45,4.57,4.57,0,0,0-.19-1.73,1.47,1.47,0,0,0-2.61-.61c-.59.76-1.59,3-2.42,2.48-1.19-.88-.3-3.95.46-5.21a9.36,9.36,0,0,1,.7-1.07c2.65-3.15,4-6.95,5.42-10.73.69-1.89,1.33-3.79,2-5.69a12,12,0,0,1,3.6-5.55,5.33,5.33,0,0,0,2-5.49,6.83,6.83,0,0,1,1.53-5.36c1.48-2.07,4.24-4.34,4.91-7.85a12.49,12.49,0,0,1-2.77,2.84c-.38-1.38.9-4.52,2.37-5.87a34.82,34.82,0,0,0,3.92-4.39,10.36,10.36,0,0,0,1.88-5.67,6.86,6.86,0,0,1,1.71-4.37,4.86,4.86,0,0,1,1.83-1.13,7.83,7.83,0,0,1,5.6,0c.29.1.61.16.91.26a5.6,5.6,0,0,0,5.25-1,11.42,11.42,0,0,1,2.15-1.35,6.63,6.63,0,0,1,2.26-.59,2.16,2.16,0,0,1,2.19,1.32,2.31,2.31,0,0,1-.3,2.68,21.4,21.4,0,0,1-1.59,1.57A5.52,5.52,0,0,0,229.53,180Z"/><path d="M201.53,200.69c-.83.2-.54,1.78-.43,3.73s-2.08,3-3,4a12.67,12.67,0,0,0-3.1,6.84s2.37-5,4.75-6.74,3-2.5,2.61-4.34S202.16,200.54,201.53,200.69Z"/><path d="M203.66,198.54c-.07.63-.39,1.14-1.13,1.14a1.14,1.14,0,0,1-1.14-1.14c0-.62.52-1,1.14-1.13A1,1,0,0,1,203.66,198.54Z"/><path d="M212.9,177.17c.44-.28,1,1.71,1.89,1.64s1.34-1,2.23-.9,1.5,2,3,2.13c1.25.14,2.92.11,3.45-2.53a3.06,3.06,0,0,1-.92,3c-1.61,1.75-4.56-.18-5.27-.89s-1.33.73-2.49.53S212.27,177.57,212.9,177.17Z"/><path d="M79.1,206.58c-2.61-2.6-1.94-3.56-.33-5.77a23.82,23.82,0,0,1,4.52-4.45,33.53,33.53,0,0,0,7.5-8.39,17.11,17.11,0,0,1,2.58-3.23c1.52-1.47,3.16-1.27,4.17.59.38.69.57,1.48.89,2.22.8,1.9,1.9,2.44,3.93,2,2.26-.53,3.18-.15,4.39,1.82.28.46.52.93.81,1.37a3.94,3.94,0,0,0,3.68,1.92c3.57.06,5.09,1.14,6,4.71.67,2.7-.12,5.18-1.09,7.59-.88,2.21-2,4.33-3.08,6.46a9.54,9.54,0,0,0-1,4.93,25.68,25.68,0,0,1-.65,8.86,19.11,19.11,0,0,1-3.61,6.68,4.3,4.3,0,0,1-4.83,1.57,2,2,0,0,0-2.44.88,3.65,3.65,0,0,1-1.2,1A1.78,1.78,0,0,1,97,237a7.2,7.2,0,0,1-.52-.6c-1-1.31-1.11-1.3-2.22-.08-.39.42-.86.78-1.29,1.17a2.08,2.08,0,0,1-2.49.42,2.34,2.34,0,0,1-1.59-2.35c.18-1.58,1.73-6.21.69-6.34-.8-.11-.94.53-1.2,1-.7,1.31-1.33,2.65-2,4a8.3,8.3,0,0,1-6.26,4.67,6.34,6.34,0,0,1-4.14-.79,6,6,0,0,0-4.92-.48,3.43,3.43,0,0,1-2.63-.12,2.22,2.22,0,0,1-1.49-2.53,18.12,18.12,0,0,1,.88-3.7c2.13-5.82,4.32-11.63,6.53-17.44a9.35,9.35,0,0,1,1.17-2.06c.73-1,1.57-2,2.32-3C78.28,208,78.68,207.26,79.1,206.58ZM89,198.84c.22,1.79-.51,3.28-2,3.77a3.4,3.4,0,0,0-2.25,1.88,4.28,4.28,0,0,1-3.08,2.65c-1.66.27-6,8.24-7.1,11.87-1,3.45-2.91,7.23-4.15,10.61-.43,1.2-.89,2.38-1.27,3.6s0,1.58,1.27,1.4a5.88,5.88,0,0,0,1.22-.36,2.86,2.86,0,0,1,3,.44,12.82,12.82,0,0,0,1.27,1,4.91,4.91,0,0,0,4.25.71,7.47,7.47,0,0,0,3.73-2.84,14.21,14.21,0,0,0,2-4.46,21.85,21.85,0,0,1,.65-2.13,2.89,2.89,0,0,1,3.93-1.32A2.65,2.65,0,0,1,92,229.15c-.61,2.29-1.83,6.94,0,6.44a5,5,0,0,0,1.47-1.37c1.49-1.91,1.91-2,3.56-.21.77.82,1.12.81,1.65-.13.39-.69.63-1.47,1-2.17,1.09-2,2.52-2.15,3.93-.36a3.48,3.48,0,0,0,.28.39c.92,1.08,1.64,1.06,2.33-.18,2.15-3.81,3.61-7.8,3-12.3a11.18,11.18,0,0,1,1.34-6.91c1-1.78,2-3.54,2.82-5.36a15.62,15.62,0,0,0,1.78-6.87,3,3,0,0,0-2.62-3.12c-.79-.14-1.58-.22-2.37-.31a3.82,3.82,0,0,1-2.86-1.53c-.59-.81-1.13-1.67-1.69-2.5-.76-1.13-1.65-1.94-3.17-1.58a4.22,4.22,0,0,1-5.13-2.69,16.51,16.51,0,0,0-1.24-2.4c-.51-.83-1.08-.91-1.86-.3A6.89,6.89,0,0,0,93,187c-.6.81-1.16,1.65-1.71,2.5a32.29,32.29,0,0,1-7.65,8.46A15.74,15.74,0,0,0,79.2,203a1.36,1.36,0,0,0,.35,1.85,1.3,1.3,0,0,0,1.87-.13,11.74,11.74,0,0,0,1.34-1.55,3,3,0,0,1,2.44-1.53A4.57,4.57,0,0,0,89,198.84Z"/><path d="M108,198.09a4.29,4.29,0,0,1-4.58-1.18c-.4-.42-.73-.91-1.1-1.36a2.85,2.85,0,0,0-2.9-1.2,4.1,4.1,0,0,1-4.79-4.16c.12-.38.5.44.62.65,1.08,1.88,2,2.3,4,1.83a2.74,2.74,0,0,1,3.49,1.43,1,1,0,0,1,.08.14C103.89,196.45,105.41,198,108,198.09Z"/><path d="M102.68,222.91a4,4,0,0,1-2.32,4.6,2.16,2.16,0,0,1-2.7-1.35,2.75,2.75,0,0,1-.23-1.23,5,5,0,0,0-1-4c1.51-.27,2.12,2.34,2.22,3.16.15,1.17.38,1.71,1.11,1.89C101.59,226.52,102.59,223.19,102.68,222.91Z"/><path d="M99.24,200.58a2.75,2.75,0,0,0-3,1.95c-.75,3.26-4.49,9.22-5.34,10.43s1.51,3.55,3.8,3.87a5.12,5.12,0,0,0,5.08-3.2C100.06,212.15,102.8,200.82,99.24,200.58ZM97.53,214c-1.3,2.37-5,1-4.33,0,3.26-3.46,4.91-9.78,5.43-10.1a.85.85,0,0,1,1,0C100.26,204.91,98.84,211.65,97.53,214Z"/><path d="M110.46,207.31c-.13.57-2.79,5.45-3.22,6.91a7.45,7.45,0,0,0,.21,4.57,7.43,7.43,0,0,1-1,7.1,7.55,7.55,0,0,0-.37-6.13c-1.68-2.93-.3-5.37.5-7C107.89,210.15,110.8,205.77,110.46,207.31Z"/><path class="cls-4" d="M112,205.38c0,.48-.39,1-.86.86s-.86-.38-.86-.86a.91.91,0,0,1,.86-.86C111.73,204.45,112,204.91,112,205.38Z"/><path class="cls-5" d="M123.84,169.48a6.8,6.8,0,0,1-.61,3.63,9.4,9.4,0,0,0-.64-3.65c-2,.86,0,4.24-.34,6.37-.29,1.61-.33,1.61,1.2,2.32.19.09.38.14.74.27a2.77,2.77,0,0,0,1.39-1.79,5.3,5.3,0,0,0-.43-2.1C126.49,172.79,125.67,171.3,123.84,169.48Z"/><path class="cls-5" d="M114.62,172.33c-.66-.65-1.28-.26-1.51.73a40.28,40.28,0,0,1-1.39,4.84l1.9-1.21.42,2.46c.56.17,2.42.27,2.65-.85a5.77,5.77,0,0,0,.19-3A9.32,9.32,0,0,0,114.62,172.33Z"/><path class="cls-5" d="M96.47,167.34a6.35,6.35,0,0,1-1.55.3,1.71,1.71,0,0,1-1.9-1.86c0-.57.22-1.15.26-1.73s.37-1.74-.62-1.91a2.1,2.1,0,0,0-2,2.29c.29,1,.66,2,.93,3a2.14,2.14,0,0,0,2,1.86l.82-1.16c.72.78,1.52,2.09,3,2a4.62,4.62,0,0,0,3.32-1.6C99.18,167,98.31,166.81,96.47,167.34Z"/><path class="cls-5" d="M147,166.79c-.07,1.21-1,1.42-1.92,1.42-1.21,0-5-1.42-6.28-.07a8.38,8.38,0,0,1-1,5.56c.88.72,2-.52,2.43-2.37a7.38,7.38,0,0,1-.16,3.13c1.54.5,2.2-2.86,2.44-4.51.16.5,1.32,2.62,2.36,1.45.57-.64.62-1.93,2.08-1.48,1.73.53,2.83-1.52,2.85-2.71A6.31,6.31,0,0,1,147,166.79Z"/><path class="cls-5" d="M188.06,128.62a6.21,6.21,0,0,1-3.87-5A5.72,5.72,0,0,0,182,128.4c-1-1.74-.53-3.32.44-4.77a12.19,12.19,0,0,1,2.19-2.51,5.21,5.21,0,0,0,2-5.63,8,8,0,0,1,1.63-6.72,9.06,9.06,0,0,0,1.46-3.39,42.29,42.29,0,0,0-8.48-.28.85.85,0,0,0-.78,1.23c.11.35,2.13,5-1.07,9a17.5,17.5,0,0,1-2.72,2.43,9.8,9.8,0,0,0-3.45,4.86,23.24,23.24,0,0,1-3.14,6.59c-2,2.77-5.94,5.5-10.07,3a5.2,5.2,0,0,0-6.34.41c-2,1.5-3.75,1.14-5.49-.73-.8-.86-1.53-1.78-2.34-2.62a7.94,7.94,0,0,0-5.78-2.58,6.77,6.77,0,0,1-6-3.25,10.43,10.43,0,0,1-1.37-4.53,2,2,0,0,0-.79-1.45q-2.44-2.17-4.75-4.47c-1.4-1.38-2.72-2.83-4.15-4.34a54,54,0,0,1-9.78,7.24,1.9,1.9,0,0,0-1,2,6.31,6.31,0,0,1-4,5.83c-1,.46-2,.76-3,1.14A25.68,25.68,0,0,0,95.41,131a20.07,20.07,0,0,1-3.19,2.61,6,6,0,0,1-7.51-.36c-1-.84-2-1.76-3-2.65A17.82,17.82,0,0,0,76.17,127a7.81,7.81,0,0,1-4.94-8.85,2,2,0,0,0-.33-1.63A33.06,33.06,0,0,1,66,106.9c-1.13.06-2.19.09-3.24.19-.68.06-1.56,0-1.59,1.08-.26,4.35.46,8.61,3.69,12a4.68,4.68,0,0,1,1.15,4.56c-.21,1-.48,2-.72,2.94A3.7,3.7,0,0,1,63,130.3a13.43,13.43,0,0,0-2.27,1.15,2.9,2.9,0,0,0-1.28,1.32c-.69,2.34-1.25,4.71-1.81,7.08a2.36,2.36,0,0,0,.53,2.09c1.16,1.45,2.32,2.89,3.5,4.33a3.41,3.41,0,0,0,2.93,1.29c1.54-.06,3.09-.07,4.63,0a8.55,8.55,0,0,1,4.46,1.27,11.87,11.87,0,0,0-6.22.69,4.84,4.84,0,0,0,2.87,4.28,30,30,0,0,0,4.8,2.1c2.22.58,4.54-1,5.89-4.6,1.16-3.08,2.72-4.48,6.94-3.48a6.69,6.69,0,0,0,6.52-1.42c.91-.75,3.38-2,5.29-1.41a8.71,8.71,0,0,0-5,2.85c-.4.43-.85.81-1.27,1.22-2.13,2-5.46,1.31-6.16,1.31a3,3,0,0,1,.43,1.77,2.67,2.67,0,0,0,1.82,2.66,2.78,2.78,0,0,1,1.51,3.72c-.22.65-.91,2.57-1,3.09,2-1.87,4.83-.61,4.75,1.37,0,.53-.17,1.05-.17,1.58,0,.89.57,1.53,1.4,1.31,2.56-.67,4.62,0,5.6.94.53.52,1,1.13,1.48,1.67a3.92,3.92,0,0,0,3.43,1.33,1,1,0,0,0,1.06-.94,17.58,17.58,0,0,1,2.91-6.13,6.14,6.14,0,0,0,.68-5.35,8.16,8.16,0,0,1-.34-1.32c.06-.14.38-.18,1,1,1.44,2.75.74,5.49-.89,8a16.1,16.1,0,0,0-1.32,2.54,2.16,2.16,0,0,0,.69,2.83,16.67,16.67,0,0,0,1.52,1c1.69-1.51,2.62-1.46,4,.09.25.28.49.56.75.83,1.33,1.46,2.25,1.25,2.91-.67.21-.6.37-1.21.58-1.82a10.33,10.33,0,0,1,.62-1.63c.81-1.44,2.39-1.8,3.46-.55a18.25,18.25,0,0,0,2.62,2.52,1.11,1.11,0,0,0,1.75-.38c.93-1.43,1.9-2.83,3.95-3.34-.63-1.61-2.52-2.77-2.95-3.16a3.22,3.22,0,0,1-.9-3.64c.74-2.27,1.47-4.54,2.25-6.79.14-.39.68-.66.38.9-.34,1.77-.89,3.49-1.38,5.23a3.23,3.23,0,0,0,1.12,3.57,9.84,9.84,0,0,0,1.27,1c1.84,1.19,1.81,3,2.11,4.69.17.89,1,.82,1.67.13a8,8,0,0,0,1-1.46c.93-1.65,1.33-1.82,3-1.06a7.72,7.72,0,0,0,4.46.49c1.12-.34,1.26-1.34,1.73-2.14a3.44,3.44,0,0,1,2-1.78,6.67,6.67,0,0,0-1,2.8,3.82,3.82,0,0,0,4.81-1.25c1-1.16,1.11-1.92-.23-2.88a3.55,3.55,0,0,1-1.43-4.22c.46-1.36,1.62-4.71,1.84-5.39-5.07,1.06-7.58-1.74-8-4.33,0-.1.06-.09.14,0l.59.51a6.76,6.76,0,0,0,6,1.76,44.08,44.08,0,0,0,4.91-1.36,3.33,3.33,0,0,1,3.86,1.1c.78.93,1.49,1.93,2.19,2.93a4,4,0,0,0,2.71,2,47.55,47.55,0,0,0,5.05.43,3.31,3.31,0,0,0,1.88-.69c2.37-1.79,4.67-3.66,7-5.51.31-.25.6-.54.8-.72a10.12,10.12,0,0,1-1-2.09c-.48-2.2,1.53-4,3.9-3.41a20.23,20.23,0,0,1,2.54.9c2.21-1.27,3-3.4,3-5.76a8.88,8.88,0,0,1,1.45-4.63C190.47,130.76,190.17,129.68,188.06,128.62Z"/><path d="M192.58,129.08c-.29-1.09-1.34-1.06-2.14-1.41a6,6,0,0,1-3.71-4.66,1.78,1.78,0,0,1,.73-1.9,5.62,5.62,0,0,0,1.46-5.49,8.3,8.3,0,0,1,1.9-7,9.68,9.68,0,0,0,1.54-3.1c.45-1.4-.05-2.14-1.52-2.37a32.87,32.87,0,0,0-4-.33c-1.79-.06-3.58,0-5.52,0,.52-1.79,1.08-3.39,1.43-5s1.15-4.69.57-4.91c-.37,0-.54.53-.63.85-.3,1-.56,2-.84,3.08-.35,1.32-1,3.33-1.09,3.46A35,35,0,0,1,172,113.71a52.5,52.5,0,0,1-8.24,5.68c-1.13.65-4.52,2.06-5,2.23a20.52,20.52,0,0,1-9.67,1.32,27.73,27.73,0,0,1-10-3.09,41.15,41.15,0,0,1-11.46-9c-2.26-2.48-4.5-5-5.26-8.4a7.89,7.89,0,0,1,1.85-7.53c1.66-1.81,2.69-3.81,2-6.37a2.17,2.17,0,0,1,1-2.5,17.4,17.4,0,0,1,2-1.28,4.45,4.45,0,0,0,2.63-3.71c.07-.79.16-1.59.28-2.37.58-3.58,3-4.84,6.7-5.58,4.59-.9,9-3.57,11.47-5.17,2.08-1.36,3.89-3.13,6.23-4.11a6.37,6.37,0,0,1,4.94-.13c2,.73,3.08,2.19,4.72,3.24.92.45,1.52.36,3.61.3a3.79,3.79,0,0,1,3.48,1.58c.61,1.1,1.08,2.27,1.63,3.46.48,1,2.15,2.15,3.13,2.84a13.07,13.07,0,0,1,4.55,6.76c.37,1,.58,2.15.89,3.22.07.25.32.86.53.78s.18-.49.17-.64c-.49-4.93-1.68-9.53-6-12.68a7.81,7.81,0,0,1-2.66-3.7,16.55,16.55,0,0,0-1.13-2.27,3.42,3.42,0,0,0-2.6-1.66,10.11,10.11,0,0,0-1.74-.11,8.31,8.31,0,0,1-4.5-1.34c-3.66-2.26-7.45-2.67-11.31-.5a29.7,29.7,0,0,0-3.06,2,32,32,0,0,1-9.38,5c-2.37.76-4.75,1.5-7.07,2.39a6.88,6.88,0,0,0-4.34,5.48,10.86,10.86,0,0,1-.38,1.71c-.41,1.08-1.38,1-2.19-.09-.32-.42-3.71-5-7.33-7a67.59,67.59,0,0,0-6.59-3.16,24.34,24.34,0,0,0-10-1.28c1.13.23,4,.61,5.49,1a35.17,35.17,0,0,1,7.47,3.13A31.33,31.33,0,0,1,126.23,81c.47.69.87,1.43,1.29,2.15a4.92,4.92,0,0,1-.48.37c-2.23,1.4-3.39,3.24-2.88,6a4.19,4.19,0,0,1-.55,2.41,7.49,7.49,0,0,1-1.59,2,6.83,6.83,0,0,0-1.88,5.54,19.06,19.06,0,0,0,1.71,6.26c.67,1.77-1.33,3.19-1.77,3.54-1.11.91-2.25,1.77-3.41,2.62a30.51,30.51,0,0,1-12.1,5.79,6.9,6.9,0,0,1-6.64-1.73c-1.74-1.66-3.09-1.61-5.17-.3-1,.62-1.92,1.33-2.91,2a5.2,5.2,0,0,1-4.89.4,4,4,0,0,0,4.58,1.56,31,31,0,0,0,3.65-1.93,3.46,3.46,0,0,1,4.27.23,8.63,8.63,0,0,0,3.6,2.1s-.74,4.69-5,3.55c-.55-.2-1.07-.48-1.61-.68-2.53-1-4.65-.55-4.78,2.67,0,1.88,1.13,3,.42,4.22a2.38,2.38,0,0,1-4.14-.42c-.45-1.25,1.41-3,.07-6,.61-.05,2.33-.37,2.77-1.72a9.76,9.76,0,0,1-2.25.11,21.32,21.32,0,0,1-8.75-2.1c-4.56-2.32-10.28-9.8-11.24-20-.06-.57-.3-2.52-.72-1.75a20.83,20.83,0,0,0-.2,6.89,34.18,34.18,0,0,0-5.23.32c-1.75.42-2,.64-1.79,2.39.23,2.54.56,5.38.95,7.9a5.9,5.9,0,0,0,.89,2.34c.9,1.3,2,2.48,3,3.72s.85,4.81-.31,5.94a2.58,2.58,0,0,1-1,.53c-.84.32-1.7.6-2.56.88a2.75,2.75,0,0,0-1.8,1.66,42,42,0,0,0-2.32,8.75,4.29,4.29,0,0,0,.7,3.35,50.53,50.53,0,0,0,3.2,4.34c1.46,1.67,3,3.28,5.45,3.22H65l.45,0a11.76,11.76,0,0,0,.57,1.76,6.83,6.83,0,0,0,1.39,2.27A19.89,19.89,0,0,0,74.65,158c3.34.94,5.75-.13,7.53-3.13.35-.58,1.13-2.38,1.84-3.46a.71.71,0,0,1,1.25-.14,4.43,4.43,0,0,1,.61,2.4c.09,1.16.43,2.05,1.73,2.32A1.76,1.76,0,0,1,89,158a11.25,11.25,0,0,1-1.22,3.72,1.24,1.24,0,0,0,.45,1.69c1.17.47,1.23,1.47,1.51,2.4.2.66.34,1.34.58,2,.86,2.37,1,2.93,3.63,2.73.4,0,.82-.15,1.21.25a4.06,4.06,0,0,0,3.62.89c.82-.2,3.27-1.06,3.27-1.06a7.53,7.53,0,0,0,6.1,1.13,1.75,1.75,0,0,1,1,0c.78.34,1.5.79,2.27,1.16a.89.89,0,0,1,.54,1.15,19.37,19.37,0,0,1-1.13,3.29c-.43,1-.19,1.6.93,1.75a3,3,0,0,0,.6-.05,2.47,2.47,0,0,0,2.79,1.59c2.35-.22,2.84-.31,3.26-3,.23-1.51,1.06-3.29,2.52-3.34a8,8,0,0,1-.46,2.67,1.48,1.48,0,0,0,.72,1.89,18.3,18.3,0,0,0,2.28,1.09,1.28,1.28,0,0,0,1-.11,23.45,23.45,0,0,0,2.36-2.1,1.38,1.38,0,0,0,.07-2,1.09,1.09,0,0,1,0-1.57,9.23,9.23,0,0,0,.59-1c1.35.17,2-.75,2.45-1.81a3.49,3.49,0,0,1,2.29-2.27,3.47,3.47,0,0,0,2.55,1.76c1.23.32,2.25-.52,3-1.19a5.2,5.2,0,0,1-.91,3.6c-.58.71-.22,1.15.38,1.55a6.32,6.32,0,0,0,4.73.8c1-.18,1.59-2.16,1.59-2.16a2.83,2.83,0,0,0,2.89-1.1c.12-.19.24-.4.87-.23a2.09,2.09,0,0,0,2.29-1.16,22.82,22.82,0,0,0,1.77-3.86,13.51,13.51,0,0,0,1.61-1.25,12.13,12.13,0,0,0,1.71-1.87,1.94,1.94,0,0,0-.25-2.85c-.48-.51-1-1-1.47-1.46a2.46,2.46,0,0,1-.83-2.46,24.28,24.28,0,0,1,2.4-4.81,2.58,2.58,0,0,1,4.11-.14c.92.94,1.71,2,2.63,3a3.19,3.19,0,0,0,1.43.91,29.15,29.15,0,0,0,8.07.71,3.56,3.56,0,0,0,2.53-1.16,33.14,33.14,0,0,1,7.49-6.11c.59-.34,1.36-.59,1.7-1.12.82-1.3-2.18-2.36-.94-3.42a.9.9,0,0,1,1.26.22c.78.87,1.9.44,2.68-.06a9.13,9.13,0,0,0,4.46-7.33,6.83,6.83,0,0,1,1.61-4.07,5.33,5.33,0,0,0,.61-.93A5.22,5.22,0,0,0,192.58,129.08ZM97.45,170.17c-1.5.1-2.3-1.21-3-2l-.82,1.16a2.14,2.14,0,0,1-2-1.86c-.27-1-.64-2-.93-3a2.1,2.1,0,0,1,2-2.29c1,.17.66,1.45.62,1.91s-.25,1.16-.26,1.73a1.71,1.71,0,0,0,1.9,1.86,6.35,6.35,0,0,0,1.55-.3c1.84-.53,2.71-.31,4.3,1.23A4.62,4.62,0,0,1,97.45,170.17Zm19.24,8.13c-.23,1.12-2.09,1-2.65.85l-.42-2.46-1.9,1.21a40.28,40.28,0,0,0,1.39-4.84c.23-1,.85-1.38,1.51-.73a9.32,9.32,0,0,1,2.26,3A5.77,5.77,0,0,1,116.69,178.3Zm8.89-1.67a2.77,2.77,0,0,1-1.39,1.79c-.36-.13-.55-.18-.74-.27-1.53-.71-1.49-.71-1.2-2.32.39-2.13-1.64-5.51.34-6.37a9.4,9.4,0,0,1,.64,3.65,6.8,6.8,0,0,0,.61-3.63c1.83,1.82,2.65,3.31,1.31,5.05A5.3,5.3,0,0,1,125.58,176.63ZM147,169.92c-1.46-.45-1.51.84-2.08,1.48-1,1.17-2.2-1-2.36-1.45-.24,1.65-.9,5-2.44,4.51a7.38,7.38,0,0,0,.16-3.13c-.47,1.85-1.55,3.09-2.43,2.37a8.38,8.38,0,0,0,1-5.56c1.29-1.35,5.07.08,6.28.07.91,0,1.85-.21,1.92-1.42a6.31,6.31,0,0,0,2.84.42C149.85,168.4,148.75,170.45,147,169.92Zm42.27-37.27a8.88,8.88,0,0,0-1.45,4.63c-.06,2.36-.83,4.49-3,5.76a20.23,20.23,0,0,0-2.54-.9c-2.37-.54-4.38,1.21-3.9,3.41a10.12,10.12,0,0,0,1,2.09c-.2.18-.49.47-.8.72-2.33,1.85-4.63,3.72-7,5.51a3.31,3.31,0,0,1-1.88.69,47.55,47.55,0,0,1-5.05-.43,4,4,0,0,1-2.71-2c-.7-1-1.41-2-2.19-2.93a3.33,3.33,0,0,0-3.86-1.1,44.08,44.08,0,0,1-4.91,1.36,6.76,6.76,0,0,1-6-1.76l-.59-.51c-.08-.07-.13-.08-.14,0,.43,2.59,2.94,5.39,8,4.33-.22.68-1.38,4-1.84,5.39a3.55,3.55,0,0,0,1.43,4.22c1.34,1,1.21,1.72.23,2.88a3.82,3.82,0,0,1-4.81,1.25,6.67,6.67,0,0,1,1-2.8,3.44,3.44,0,0,0-2,1.78c-.47.8-.61,1.8-1.73,2.14a7.72,7.72,0,0,1-4.46-.49c-1.71-.76-2.11-.59-3,1.06a8,8,0,0,1-1,1.46c-.62.69-1.5.76-1.67-.13-.3-1.64-.27-3.5-2.11-4.69a9.84,9.84,0,0,1-1.27-1,3.23,3.23,0,0,1-1.12-3.57c.49-1.74,1-3.46,1.38-5.23.3-1.56-.24-1.29-.38-.9-.78,2.25-1.51,4.52-2.25,6.79a3.22,3.22,0,0,0,.9,3.64c.43.39,2.32,1.55,2.95,3.16-2.05.51-3,1.91-3.95,3.34a1.11,1.11,0,0,1-1.75.38,18.25,18.25,0,0,1-2.62-2.52c-1.07-1.25-2.65-.89-3.46.55a10.33,10.33,0,0,0-.62,1.63c-.21.61-.37,1.22-.58,1.82-.66,1.92-1.58,2.13-2.91.67-.26-.27-.5-.55-.75-.83-1.38-1.55-2.31-1.6-4-.09a16.67,16.67,0,0,1-1.52-1,2.16,2.16,0,0,1-.69-2.83,16.1,16.1,0,0,1,1.32-2.54c1.63-2.54,2.33-5.28.89-8-.59-1.14-.91-1.1-1-1a8.16,8.16,0,0,0,.34,1.32,6.14,6.14,0,0,1-.68,5.35,17.58,17.58,0,0,0-2.91,6.13,1,1,0,0,1-1.06.94,3.92,3.92,0,0,1-3.43-1.33c-.51-.54-.95-1.15-1.48-1.67-1-1-3-1.61-5.6-.94-.83.22-1.41-.42-1.4-1.31,0-.53.15-1.05.17-1.58.08-2-2.71-3.24-4.75-1.37.08-.52.77-2.44,1-3.09a2.78,2.78,0,0,0-1.51-3.72,2.67,2.67,0,0,1-1.82-2.66,3,3,0,0,0-.43-1.77c.7,0,4,.72,6.16-1.31.42-.41.87-.79,1.27-1.22a8.71,8.71,0,0,1,5-2.85c-1.91-.64-4.38.66-5.29,1.41A6.69,6.69,0,0,1,88,147.84c-4.22-1-5.78.4-6.94,3.48-1.35,3.61-3.67,5.18-5.89,4.6a30,30,0,0,1-4.8-2.1,4.84,4.84,0,0,1-2.87-4.28,11.87,11.87,0,0,1,6.22-.69,8.55,8.55,0,0,0-4.46-1.27c-1.54-.09-3.09-.08-4.63,0a3.41,3.41,0,0,1-2.93-1.29c-1.18-1.44-2.34-2.88-3.5-4.33a2.36,2.36,0,0,1-.53-2.09c.56-2.37,1.12-4.74,1.81-7.08a2.9,2.9,0,0,1,1.28-1.32A13.43,13.43,0,0,1,63,130.3a3.7,3.7,0,0,0,2.29-2.67c.24-1,.51-1.95.72-2.94a4.68,4.68,0,0,0-1.15-4.56c-3.23-3.35-4-7.61-3.69-12,0-1,.91-1,1.59-1.08,1.05-.1,2.11-.13,3.24-.19a33.06,33.06,0,0,0,4.86,9.63,2,2,0,0,1,.33,1.63A7.81,7.81,0,0,0,76.17,127a17.82,17.82,0,0,1,5.56,3.63c1,.89,2,1.81,3,2.65a6,6,0,0,0,7.51.36A20.07,20.07,0,0,0,95.41,131a25.68,25.68,0,0,1,9.89-6.22c1-.38,2-.68,3-1.14a6.31,6.31,0,0,0,4-5.83,1.9,1.9,0,0,1,1-2,54,54,0,0,0,9.78-7.24c1.43,1.51,2.75,3,4.15,4.34s3.12,3,4.75,4.47a2,2,0,0,1,.79,1.45,10.43,10.43,0,0,0,1.37,4.53,6.77,6.77,0,0,0,6,3.25,7.94,7.94,0,0,1,5.78,2.58c.81.84,1.54,1.76,2.34,2.62,1.74,1.87,3.49,2.23,5.49.73a5.2,5.2,0,0,1,6.34-.41c4.13,2.46,8.09-.27,10.07-3a23.24,23.24,0,0,0,3.14-6.59,9.8,9.8,0,0,1,3.45-4.86,17.5,17.5,0,0,0,2.72-2.43c3.2-3.9,1.18-8.6,1.07-9a.85.85,0,0,1,.78-1.23,42.29,42.29,0,0,1,8.48.28,9.06,9.06,0,0,1-1.46,3.39,8,8,0,0,0-1.63,6.72,5.21,5.21,0,0,1-2,5.63,12.19,12.19,0,0,0-2.19,2.51c-1,1.45-1.45,3-.44,4.77a5.72,5.72,0,0,1,2.17-4.74,6.21,6.21,0,0,0,3.87,5C190.17,129.68,190.47,130.76,189.29,132.65Z"/><path d="M93.54,80.77l-.1,0,0,0Z"/><path d="M145.87,73.75l-.08,0,0,0Z"/><path d="M163.33,111.45l.1.06-.08-.09Z"/><path d="M136.42,139.57a6.9,6.9,0,0,1-9.69,6.25,4.71,4.71,0,0,1-2-1.89c-1.31-2-.58-5.91-1.83-7.7a1.28,1.28,0,0,0-2.28.43,7.36,7.36,0,0,0-.1,2.65c.25,1.89.28,3.66-1,5.3a5.39,5.39,0,0,1-8.82-.2,5.93,5.93,0,0,1-.6-5.91,16,16,0,0,1,1.65-2.9c2.38-3.32,5-8.95,7.11-16.73,1.18-3.5,4.14-3.12,5.23-2A19.29,19.29,0,0,1,127,120c2,2.78,3.92,5.56,5.61,8.5a31.53,31.53,0,0,1,3.6,9.16C136.33,138.29,136.35,138.94,136.42,139.57Z"/><path d="M133.3,107.45a7.18,7.18,0,0,1-4-7.06c.17-2.28,2.66-3.86,5.16-3.38,4.54.59,7.69,6.37,6.88,9.89a3.14,3.14,0,0,1-3.88,2.2,3.79,3.79,0,0,0-2.46-5.4C132.1,103.51,132.64,106.63,133.3,107.45Z"/><path d="M81.58,115.34c1-.6,1.47-1.37.93-2.5a3.93,3.93,0,0,0-3-2.59c-1.5-.26-3,1.77-1.91,3.6a6.84,6.84,0,0,1-2.85-2.58c-1.55-2.66-1.28-5.45.11-6.63a3.86,3.86,0,0,1,4.64-.15,12.59,12.59,0,0,1,5.48,6.4C86.37,114.16,83.46,116.11,81.58,115.34Z"/><path d="M99.64,68.39a7.56,7.56,0,0,0-4.83,3.08c-.31.42-.55.9-.83,1.35a3.33,3.33,0,0,1-2.66,1.62,3.87,3.87,0,0,0-3.82,2.09,4.55,4.55,0,0,1-4.91,2.73c-2.78-.17-3.3.14-4.1,2.88a8.55,8.55,0,0,1-4.75,5.45,13.48,13.48,0,0,0-5.69,5.84c-.41.77-1.14,2.7-1.48,2.27,0-1.93,2.44-7.58,5.79-9.64A13,13,0,0,0,77,80.49c.68-1.34.89-3,2.92-3.17,3.74-.09,5.6-.73,6.49-2.41a3.84,3.84,0,0,1,4-2.25,3.34,3.34,0,0,0,2.85-1.35,16.28,16.28,0,0,1,2.48-2.22A4.16,4.16,0,0,1,99.64,68.39Z"/><path d="M103.74,128.84c0,.42-.42.58-.54.63-2.33.92-3.54,2.58-5.22,4.72-2.1,2.92-7.82,5.14-10.44,3.2a12.87,12.87,0,0,0,8.77-3.74,38.67,38.67,0,0,1,3.11-3.16A6.85,6.85,0,0,1,103.74,128.84Z"/><path d="M109.9,133.07c.39-.21,0,.65-.11.92-.58,1.3-1.26,2.56-1.81,3.88a22.94,22.94,0,0,0-1.43,4c-.75,3.1,2.09,5.83,4,6.52-2.95-.3-6.68-2.61-5.78-6.15a18,18,0,0,1,1.46-3.82A28.13,28.13,0,0,1,109.9,133.07Z"/><path d="M142,129.88a18.54,18.54,0,0,1,2.79,2.3c.65.62,1.14,1.4,1.75,2.06,1.3,1.38,2.57,1.82,5.11,1.84-.14.72-.67.8-1.24.89a6.07,6.07,0,0,1-4.51-1.17,9.59,9.59,0,0,1-2.36-2.31,7.93,7.93,0,0,0-4.06-3.65A2.58,2.58,0,0,1,142,129.88Z"/><path d="M113,168.21c.57-1.77,1.09-2.28,2.55-2.13a3.41,3.41,0,0,0,3.07-1.28,3.55,3.55,0,0,1,4.45-.94,29.45,29.45,0,0,1,3.46,1.95c.13.13.09.33-.15.3s-2.75-.87-3.74-1.23a2.44,2.44,0,0,0-3,.84c-.36.45-.73.91-1.06,1.38a1.72,1.72,0,0,1-2.06.8C115.37,167.51,114.53,167,113,168.21Z"/><path d="M69.26,145.29c-1.71,0-3.48.25-5-.58a5.38,5.38,0,0,1-1.83-1.9c-.6-.92-1-2-1.5-3a3.12,3.12,0,0,1-.22-2.89c.25-.64.41-1.31.65-2,.17-.42.35-.9,1.11-.83-.13.53-.28,1-.38,1.5a8.57,8.57,0,0,0-.32,2c.12,1.92,1.28,3.45,2.16,5.05.66,1.21,2.05,1.38,3.32,1.6A2.69,2.69,0,0,1,69.26,145.29Z"/><path d="M69,118.46c.52.61.16,3.59.53,5.41s2.41,3.39,4.93,4.7,3.11,2.48,3.11,2.48A36,36,0,0,0,72.52,129,6.1,6.1,0,0,1,68,123.72C67.72,121,68.36,117.67,69,118.46Z"/><path d="M78.73,96s0,.06,0,.1a3.25,3.25,0,0,1-6.08,1.62,3.26,3.26,0,0,0,6.52-.1A3.2,3.2,0,0,0,78.73,96Z"/><path d="M86.27,140.32A1.27,1.27,0,0,1,85,141.59c-.7,0-1-.55-1.27-1.27A1.11,1.11,0,0,1,85,139C85.71,139.26,86.27,139.61,86.27,140.32Z"/><path d="M91.09,144a1.31,1.31,0,0,1-1.19,1.26,1.14,1.14,0,0,1-1.11-1.11,1.16,1.16,0,0,1,2.3-.15Z"/><path d="M96.75,138.79a1.74,1.74,0,0,0-2,1.62,2.25,2.25,0,0,0,1.31,1.92,1,1,0,0,1-.23-.64c0-.57.48-.88,1-1,.74-.2,1,.45,1,1a1,1,0,0,1-.13.49,1.84,1.84,0,0,0-1-3.39Z"/><path d="M113.68,118c0,.65-.1,4.32-2.77,6a4.12,4.12,0,0,0,3.29-2.16A4.23,4.23,0,0,0,113.68,118Z"/><path d="M117.71,118.11c-.56-.15.46-2.56,1-3.49a3.59,3.59,0,0,1,4.56-1.1A5.35,5.35,0,0,1,126.2,117s-1.74-2-3.2-2.29a3.14,3.14,0,0,0-3,.52C119.31,115.84,118.4,118.29,117.71,118.11Z"/><path d="M118,149a2.52,2.52,0,0,0,2.24-.27c.92-.72,1.27-2.2,2.78-2s1.11,1.38,2.56,2.08a3.29,3.29,0,0,0,3.22.08c1-.42-.69,2-3,1.33-1.67-.48-1.85-1.4-3-1.46s-1.76,1.08-2.83,1.19C119.1,150,118.7,149.8,118,149Z"/><path d="M137,132s2.29,3.3,3,4.36,2.18,4.11,1.53,6a5.12,5.12,0,0,1-4.49,3.56s3.27-2.25,2.83-5.48S136.08,131.75,137,132Z"/><path d="M103.75,153.43c0,.51-.24.86-.93.92-.51.05-.79-.43-.93-.92s.42-.93.93-.93A.93.93,0,0,1,103.75,153.43Z"/><path d="M108.22,158a1,1,0,0,1-1,.9.9.9,0,0,1-.91-.9c0-.5.19-.83.91-.9A1,1,0,0,1,108.22,158Z"/><path d="M94.68,158.48a3.2,3.2,0,0,1,3.17,1.14c1.19,1.6.66,2.12,2,2.51s3.32-.49,4.35,3.56c0,0-1.78-2.11-3.25-2.39s-3,.47-3.47-1S96.87,159.81,94.68,158.48Z"/><path d="M144.85,161.62s.09,2.26-2.06,2.21c-1.83,0-2.44-.55-3.81-.49s-2.18.44-2.63,1.43c0,0-.25-2.51,1.94-2.68,1.7-.13,3,.8,4.52.63C144.56,162.53,144.73,161.85,144.85,161.62Z"/><path d="M137.34,157a1.06,1.06,0,0,1-1.05,1.06,1.07,1.07,0,1,1,0-2.12C137,156,137.34,156.37,137.34,157Z"/><path d="M140.76,151.15c0,.53-.19,1-1,1a1,1,0,0,1-1-1c0-.54.22-.84,1-1C140.32,150.08,140.76,150.61,140.76,151.15Z"/><path d="M152.22,139.42a1.74,1.74,0,0,0-2.43,1.05,2.06,2.06,0,0,0,.23,1.41,1.25,1.25,0,0,1,0-.19,1.26,1.26,0,0,1,2.41.66,1,1,0,0,1-.31.49,1.73,1.73,0,0,0,1.4-1.14C153.85,140.78,153.56,140,152.22,139.42Z"/><path d="M159,144.27c0,.67-.53,1.35-1.22,1.22a1.33,1.33,0,0,1-1.21-1.22c0-.67.57-1.38,1.21-1.21S159,143.6,159,144.27Z"/><path d="M160.77,138.06a.88.88,0,0,1-.84.84c-.47,0-.74-.39-.85-.84s.38-.84.85-.84S160.86,137.41,160.77,138.06Z"/><path d="M166.27,142.31a.87.87,0,0,1-.88.88c-.68.07-.88-.4-.88-.88a.84.84,0,0,1,.88-.88C166,141.51,166.27,141.82,166.27,142.31Z"/><path d="M183.45,108.83s.74,2.79-.28,4.4c-.91,1.43-2.53,2.84-3.1,4.31,0,0,.76-.57,3-2C184.45,114.69,186.09,111.72,183.45,108.83Z"/><path d="M179.1,140.3s-2.51.08-3.06,2a9.41,9.41,0,0,0,.25,4.68c.33,1.34-2.33,3.48-5.75,4.33,0,0,3.61-2.48,3.81-4.37.14-1.27-.83-4.26.47-5.74A3.61,3.61,0,0,1,179.1,140.3Z"/><path d="M176.24,123.66a19.67,19.67,0,0,0-3,5.77c-1.15,3.54-3.78,6.56-8.07,6.76-.9,0,2.54,1.72,6-.6s3.31-5.08,3.71-7.18A24.53,24.53,0,0,1,176.24,123.66Z"/><path d="M135.88,90.69c-.07-.51-1,4.12,2.34,4.47,1.59.27,2.84-.51,3.52,2a3.54,3.54,0,0,0,4.16,2.42,2.82,2.82,0,0,0,2-2.6c-.17-.28-.87.75-1.9,1.22-1.42.64-2.94-.7-3.43-2.49-.41-1.5-1.11-2.28-2.9-1.87S136.22,93.09,135.88,90.69Z"/><path class="cls-4" d="M56.56,88.52c-4.35-1.5-8-.22-9.35,1.39-1.17,1.39-1.85,3.09-.66,5s5.15,2.16,7.33.42,5.15-4,8.59-3C62.47,92.27,60.9,90,56.56,88.52ZM52.9,93.81a3.59,3.59,0,0,1-4.83-.41c-.61-.92-.39-3.93,3.43-4.29a12.2,12.2,0,0,1,6.94,1.6C55.4,91.22,54.82,92.48,52.9,93.81Z"/><path class="cls-4" d="M53.12,98.71c-3.31,2.57-4.14,4.79-3.33,7.05S54,107.83,55,106.83c1.26-1.34,1-3.18,2.29-6.08s3-3.77,3.51-3.94A11.07,11.07,0,0,0,53.12,98.71Zm1.7,5.07c-.54,1.91-2.13,2-2.94,1.59-.56-.32-1.19-1.63.1-3.53s4.78-3.33,4.78-3.33C55.41,100.62,55.37,101.88,54.82,103.78Z"/><path class="cls-4" d="M198.16,85.85c-3.9-1.13-6.9,1.43-8.55,2.9s-.76,2.38-.76,2.38c3.62-2.22,7.31,1.15,10.46.29C201,91,202.05,87,198.16,85.85Zm-3.07,3.27c-1.42-.5-2.82-.79-3.67-.38a10.25,10.25,0,0,1,3.83-1.86c1.67-.19,3.05.18,3,1.35S196.5,89.62,195.09,89.12Z"/><path class="cls-4" d="M196.87,94.66a10.84,10.84,0,0,0-7.4,1c3.23.68,3.78,1.9,5.25,3.85s2,4.38,4.61,5,4.26-1,4.24-3.68S201.15,95.58,196.87,94.66Zm4.8,7.62c-.71.68-3.29,1.1-4.65-1.86a9.45,9.45,0,0,0-4.9-5,13.7,13.7,0,0,1,7.21,1.15C202.79,98.27,202.57,101.42,201.67,102.28Z"/><path class="cls-4" d="M198.64,109a6.48,6.48,0,0,0-3.86-3c1.13,2.71.21,3.52.29,5.77s2.46,2.51,3.44,2.21C199.82,113.62,200.36,111.58,198.64,109Zm-.94,3.47c-.51.13-1.32-.1-1.38-1.46s.34-1.82-.08-3.14a6.26,6.26,0,0,1,2,2.44C198.74,111.68,198.21,112.34,197.7,112.47Z"/><path d="M92,152.64a3.26,3.26,0,0,1,1.57,1.91,3.53,3.53,0,0,1,0,2.3,2.83,2.83,0,0,0,.89-2.77A2.18,2.18,0,0,0,92,152.64Z"/><path class="cls-4" d="M94.2,152a2.37,2.37,0,0,1,1.38,1.34,3.79,3.79,0,0,1,.08,2.05,2.53,2.53,0,0,0,.67-2.38A1.75,1.75,0,0,0,94.2,152Z"/><path d="M148.34,154.34a3.21,3.21,0,0,0-1.31,2.09,3.51,3.51,0,0,0,.3,2.28,2.83,2.83,0,0,1-1.25-2.63A2.16,2.16,0,0,1,148.34,154.34Z"/><path class="cls-4" d="M146.1,154a2.4,2.4,0,0,0-1.2,1.5,3.89,3.89,0,0,0,.19,2,2.53,2.53,0,0,1-1-2.28A1.75,1.75,0,0,1,146.1,154Z"/><path class="cls-7" d="M197,226.32s-.06,0-.07.09l0,.06a4.5,4.5,0,0,1-.14.49c0,.15-.11.29-.16.44a2.34,2.34,0,0,0-.09.24l-.09.23c0,.1-.07.19-.1.28s-.11.27-.17.4l0,.07-.08.15-.15.24-.08.05-.11.06a.15.15,0,0,0-.07.21c0,.08.07.09.15.06l0,0a.53.53,0,0,0,.2-.24l.09-.19a4.24,4.24,0,0,0,.23-.59c0-.06.05-.12.07-.17a1.67,1.67,0,0,1,.08-.2,1.72,1.72,0,0,1,.07-.21c.05-.13.1-.26.14-.38s.11-.33.17-.49l.09-.22c0-.06.07-.06.11,0l.08.09a1.83,1.83,0,0,0,.13.16,3.45,3.45,0,0,1,.26.28,5.19,5.19,0,0,1,.37.45.65.65,0,0,1,.12.31.71.71,0,0,1-.21.51,4.84,4.84,0,0,1-.63.56l-.28.2-.1,0a.28.28,0,0,0-.2.1.61.61,0,0,1-.1.07.16.16,0,0,0-.1.14.11.11,0,0,0,0,.13.09.09,0,0,0,.13,0l.31-.23.38-.3a7.08,7.08,0,0,0,.59-.5,1.85,1.85,0,0,0,.24-.33l0-.05a.58.58,0,0,0,0-.57,1.28,1.28,0,0,0-.15-.25c-.12-.15-.56-.64-.62-.72l-.27-.36A.11.11,0,0,0,197,226.32Z"/><path class="cls-7" d="M198.13,228.26l0,0v0h0a1.84,1.84,0,0,1-.25.34,4.31,4.31,0,0,1-.46.39l-.13.12-.28.21-.1.08-.13.1-.18.14a.14.14,0,0,1-.22-.15.18.18,0,0,1,.11-.15.39.39,0,0,0,.1-.08.34.34,0,0,1,.22-.1l.09,0a2.07,2.07,0,0,0,.27-.2l.1-.07a4.79,4.79,0,0,0,.53-.48.64.64,0,0,0,.2-.49.6.6,0,0,0-.12-.29,2,2,0,0,0-.25-.32l-.11-.13-.16-.17-.1-.11-.09-.11,0-.05v0l-.06-.07,0,0s0,0,0,0-.06.14-.09.22l-.09.25-.08.24-.08.21-.06.17,0,.1a.49.49,0,0,1,0,.11,1.12,1.12,0,0,1,0,.13l0,.07,0,0a.61.61,0,0,0,0,.12,3.61,3.61,0,0,1-.16.42c0,.06-.05.12-.07.17l-.06.13,0,.07a.55.55,0,0,1-.2.25l-.05,0a.14.14,0,0,1-.12,0,.17.17,0,0,1-.07-.09c0-.12,0-.18.07-.24l.07,0,0,0h0a.1.1,0,0,0,0,0l.16-.24a.93.93,0,0,0,.05-.1l0,0v0l0-.05,0-.07.13-.33c0-.06.05-.13.08-.2l0-.08.09-.23,0-.08.06-.16.06-.15c0-.09.07-.19.11-.28s.07-.24.1-.36a.74.74,0,0,1,0-.14v0s0,0,0,0a.13.13,0,0,1,.1-.11h0a.12.12,0,0,1,.13.06.76.76,0,0,1,.11.14l.17.21a3.68,3.68,0,0,0,.25.3c.14.16.3.34.36.43a1,1,0,0,1,.16.25A.6.6,0,0,1,198.13,228.26Zm-.07,0,0,0a.55.55,0,0,0,0-.53,1.58,1.58,0,0,0-.15-.24l-.36-.42c-.13-.14-.23-.27-.26-.3s-.11-.15-.16-.22a.76.76,0,0,1-.11-.14s0,0-.08,0h0s0,0-.06.06v0a0,0,0,0,1,0,0,.83.83,0,0,1,0,.15c0,.11-.06.24-.1.35a2.49,2.49,0,0,1-.11.29l-.06.15-.06.16,0,.08a1.55,1.55,0,0,1-.08.23l0,.08a1.19,1.19,0,0,1-.08.2c0,.11-.08.22-.13.33l0,.07,0,.06h0l0,.05a.47.47,0,0,1-.05.1l-.16.25a.18.18,0,0,1-.07.05h0l-.05,0-.06,0a.12.12,0,0,0,0,.18s0,.05,0,.05a.06.06,0,0,0,.07,0l0,0a.49.49,0,0,0,.19-.23l0-.06a.75.75,0,0,0,.06-.13l.08-.17a3.61,3.61,0,0,0,.16-.42l0-.12,0-.05,0-.08.05-.12a.76.76,0,0,1,0-.11l0-.1.06-.17a1.8,1.8,0,0,0,.08-.21l.09-.24.09-.25c0-.08.06-.16.08-.22a.12.12,0,0,1,.07-.07.12.12,0,0,1,.09,0l.06.07,0,0,0,.05.09.11.1.1.17.18a.69.69,0,0,0,.11.13,2.51,2.51,0,0,1,.25.32.72.72,0,0,1,.13.32.76.76,0,0,1-.21.54,4.2,4.2,0,0,1-.55.49l-.09.07-.28.2a.19.19,0,0,1-.12,0,.33.33,0,0,0-.18.1l-.11.08c-.05,0-.07.06-.09.12a.07.07,0,0,0,0,.09.08.08,0,0,0,.1,0l.17-.14.13-.09.1-.08.28-.22.14-.11a5.46,5.46,0,0,0,.45-.39,1.85,1.85,0,0,0,.24-.33h0Z"/><path class="cls-7" d="M195.64,229.85c0-.07-.11-.06-.18,0a.61.61,0,0,0-.36.13l-.07,0L195,230c-.08.08-.17.15-.25.24a3.15,3.15,0,0,0-.5.9,3.41,3.41,0,0,0-.14.55.14.14,0,0,0,0,.06L194,232s0,.08,0,.12a2.38,2.38,0,0,0,0,.75,1,1,0,0,0,.08.25.42.42,0,0,0,.41.28.64.64,0,0,0,.42-.13l.09-.07a.63.63,0,0,0,.12-.11l.3-.38a7.14,7.14,0,0,0,.4-.71,2.59,2.59,0,0,1,.14-.29l0-.09c.12-.28.25-.56.37-.85l.06-.12a.88.88,0,0,0,.06-.27s-.06-.1-.09,0-.08.24-.13.35-.17.4-.25.61a3.78,3.78,0,0,1-.17.35l-.18.35c0,.08-.24.46-.31.56a4.16,4.16,0,0,1-.32.39.8.8,0,0,1-.5.27.35.35,0,0,1-.37-.21,1,1,0,0,1-.09-.45,4.41,4.41,0,0,1,.08-.73c0-.11.06-.21.08-.32a2.52,2.52,0,0,1,.33-.81,1.53,1.53,0,0,1,.62-.61l.14-.06a.21.21,0,0,1,.17,0c.09.05.14,0,.2-.06A.14.14,0,0,0,195.64,229.85Z"/><path class="cls-7" d="M195.57,232.39a2.63,2.63,0,0,1-.2.33c-.1.14-.2.28-.29.39l-.11.1h0l0,0,0,0a.7.7,0,0,1-.44.14.45.45,0,0,1-.44-.3s0,0,0-.06a.7.7,0,0,1-.06-.19,2.47,2.47,0,0,1,0-.77s0,0,0-.05V232c0-.06,0-.12.05-.18v-.08s0,0,0,0a2.92,2.92,0,0,1,.1-.4c0-.05,0-.1,0-.15a3.56,3.56,0,0,1,.51-.91,1.7,1.7,0,0,1,.19-.19l.06-.05.06,0h0l0,0,.05,0a.61.61,0,0,1,.37-.14s.16,0,.2.06h0a.17.17,0,0,1,0,.19c-.06.08-.12.13-.23.07a.16.16,0,0,0-.15,0l-.14.06a1.45,1.45,0,0,0-.6.59,2.58,2.58,0,0,0-.22.44,1.66,1.66,0,0,0-.11.37c0,.06,0,.12,0,.19a.56.56,0,0,0,0,.12,4,4,0,0,0-.08.73,1,1,0,0,0,.09.44.32.32,0,0,0,.34.19.75.75,0,0,0,.47-.26,3.57,3.57,0,0,0,.33-.38c.06-.1.26-.48.31-.56a1.17,1.17,0,0,1,0-.11l.12-.24a2.88,2.88,0,0,0,.17-.35c0-.11.09-.21.13-.32l.12-.29a.87.87,0,0,0,.07-.17l.06-.18c0-.06.07-.05.08-.05a.1.1,0,0,1,.07.09.89.89,0,0,1-.07.28l-.06.12-.14.35c-.08.17-.15.33-.22.5l0,.06-.06.12-.1.2A2.75,2.75,0,0,1,195.57,232.39Zm-1.1-1.74a3,3,0,0,0-.24.51c0,.06,0,.11,0,.16a2.79,2.79,0,0,0-.1.39s0,0,0,0v0l0,.07s0,.11,0,.17a.09.09,0,0,1,0,.05v.06a2.35,2.35,0,0,0,0,.75.61.61,0,0,0,0,.18l0,0a.4.4,0,0,0,.39.27.57.57,0,0,0,.4-.13l.05,0,0,0,0,0,.1-.09a4.18,4.18,0,0,0,.29-.38,6,6,0,0,0,.4-.7l.1-.21.06-.12,0,0,.21-.51.15-.34.06-.12a.62.62,0,0,0,.06-.26s0,0,0,0,0,0,0,0a.87.87,0,0,0-.07.17l-.06.17a2.55,2.55,0,0,1-.13.29c0,.11-.09.21-.13.32a3.08,3.08,0,0,1-.17.36l-.12.23a.37.37,0,0,1-.05.11,5.67,5.67,0,0,1-.32.57,3.66,3.66,0,0,1-.32.39.78.78,0,0,1-.51.27.36.36,0,0,1-.4-.22,1,1,0,0,1-.1-.46,3.26,3.26,0,0,1,.09-.74l0-.13c0-.06,0-.12.05-.18a2.4,2.4,0,0,1,.1-.38,3.14,3.14,0,0,1,.23-.45,1.55,1.55,0,0,1,.63-.62l.14-.06a.24.24,0,0,1,.2,0c.06,0,.09,0,.16,0a.14.14,0,0,0,0-.13h0s-.07,0-.15,0a.67.67,0,0,0-.34.12l-.05,0h0l-.05,0-.06.06a1.07,1.07,0,0,0-.19.18A2.4,2.4,0,0,0,194.47,230.65Z"/></svg>