<svg id="Layer_1" data-name="Layer 1" xmlns="http://www.w3.org/2000/svg" viewBox="0 0 250 250"><defs><style>.cls-1{fill:#4d4d4f;}.cls-2{fill:#2bace2;}.cls-3,.cls-5{fill:#231f20;}.cls-4{fill:none;}.cls-5{stroke:#231f20;stroke-miterlimit:10;}</style></defs><rect class="cls-1" width="250" height="250"/><path class="cls-2" d="M125.1,232.41a13.58,13.58,0,0,1-6.71-1.64L36.85,183.69a14.62,14.62,0,0,1-6.71-11.61V77.92a14.62,14.62,0,0,1,6.71-11.61L118.4,19.22a14.61,14.61,0,0,1,13.41,0l81.54,47.09a14.62,14.62,0,0,1,6.71,11.61v94.16a14.61,14.61,0,0,1-6.71,11.61l-81.54,47.08A13.58,13.58,0,0,1,125.1,232.41Zm.21-8.17L210,177l.93-102L125.1,26.78,40,73.13,37.62,173.72Z"/><path class="cls-3" d="M200.13,208.74q.39-.6.72-1.17c.16-.26.28-.46.38-.6"/><path class="cls-3" d="M63.57,138.19v1a7.14,7.14,0,0,1-.5,2.87,3.75,3.75,0,0,1-1.59,1.73,6.16,6.16,0,0,1-2.26.76c-.85.13-1.78.24-2.79.35l-.7.06-.93,0a11.28,11.28,0,0,1-3.51-.22,4.12,4.12,0,0,1-2.14-1.28,5.19,5.19,0,0,1-1.08-2.34c-.09-.43-.15-.91-.21-1.43s-.07-1.12-.07-1.79v-4a12.2,12.2,0,0,1,.44-3.57,6.11,6.11,0,0,1,.61-1.31,3.77,3.77,0,0,1,.88-1,5.12,5.12,0,0,1,2.32-1A16.47,16.47,0,0,1,55.7,127c1.14.07,2.15.15,3,.25a6.74,6.74,0,0,1,2.31.68,4,4,0,0,1,1.68,1.71,5.24,5.24,0,0,1,.45,1.25,8.36,8.36,0,0,1,.19,1.6v.89a.51.51,0,0,1-.17.4.65.65,0,0,1-.45.16l-3.32,0a.71.71,0,0,1-.46-.18.56.56,0,0,1-.16-.41v-.89a2.12,2.12,0,0,0-.13-.91,1,1,0,0,0-.31-.31A2.86,2.86,0,0,0,57.3,131l-1.6-.08a12.76,12.76,0,0,0-1.88.05,1.68,1.68,0,0,0-.93.36,1.61,1.61,0,0,0-.4.89,10.47,10.47,0,0,0-.11,1.82v3.75a12.93,12.93,0,0,0,.1,1.82,2.14,2.14,0,0,0,.39,1,1.64,1.64,0,0,0,.92.39,10.54,10.54,0,0,0,1.91.06c.62,0,1.16,0,1.61-.09a2.59,2.59,0,0,0,1-.26,1.16,1.16,0,0,0,.42-.43,2.35,2.35,0,0,0,.2-1.15v-.89a.54.54,0,0,1,.18-.41.64.64,0,0,1,.44-.17l3.32,0a.67.67,0,0,1,.47.15A.53.53,0,0,1,63.57,138.19Z"/><path class="cls-3" d="M86.35,141v2a.45.45,0,0,1-.18.36.77.77,0,0,1-.46.16L81,143.7a.65.65,0,0,1-.44-.14.42.42,0,0,1-.18-.35v-2.7a1.61,1.61,0,0,0-.36-1.15,1.63,1.63,0,0,0-1.22-.39l-4.26.06v1.52l.88.18a.58.58,0,0,1,.34.17.5.5,0,0,1,.13.32v2.14a.48.48,0,0,1-.18.39.78.78,0,0,1-.47.16l-6,.25a.64.64,0,0,1-.44-.12.47.47,0,0,1-.18-.39v-2.23a.52.52,0,0,1,.46-.53l.85-.23V131.3l-.85-.2a.54.54,0,0,1-.46-.56v-2.23a.46.46,0,0,1,.18-.37.6.6,0,0,1,.44-.14c3.31.14,6.63.28,10,.4h0a14.47,14.47,0,0,1,2.71.39,4.62,4.62,0,0,1,1.75.86A3.14,3.14,0,0,1,84.83,131a5.77,5.77,0,0,1,.33,2.16,14.9,14.9,0,0,1-.07,1.54,3.09,3.09,0,0,1-.44,1.31,2.94,2.94,0,0,1-1.27,1.14,3,3,0,0,1,.52.31,2.46,2.46,0,0,1,.41.38,2.61,2.61,0,0,1,.53,1,5.55,5.55,0,0,1,.17,1.47l.85.18C86.19,140.57,86.35,140.73,86.35,141Zm-11.77-5.45h3.54a8.91,8.91,0,0,0,1.34-.08,1.59,1.59,0,0,0,.7-.24,1.14,1.14,0,0,0,.31-.57,4.59,4.59,0,0,0,.1-1.12,5.63,5.63,0,0,0-.08-1.06,1.13,1.13,0,0,0-.25-.55,1.57,1.57,0,0,0-.64-.23,10.36,10.36,0,0,0-1.25-.09l-3.77-.08Z"/><path class="cls-3" d="M99.81,128.68a29,29,0,0,1,3.56.27,7.26,7.26,0,0,1,2.52.8,3.67,3.67,0,0,1,1.5,1.62,6.39,6.39,0,0,1,.49,2.72v3.56a6.86,6.86,0,0,1-.47,2.77,3.65,3.65,0,0,1-1.46,1.7,6.73,6.73,0,0,1-2.52.88,25.62,25.62,0,0,1-3.62.3,26.79,26.79,0,0,1-3.66-.14,6.25,6.25,0,0,1-2.48-.79,3.51,3.51,0,0,1-1.41-1.71,8.18,8.18,0,0,1-.44-2.93V134a7.32,7.32,0,0,1,.47-2.86,3.28,3.28,0,0,1,1.45-1.64,6.43,6.43,0,0,1,2.48-.72A30.14,30.14,0,0,1,99.81,128.68Zm-3.39,9a7.1,7.1,0,0,0,.11,1.4,1.14,1.14,0,0,0,.47.73,2,2,0,0,0,1,.27c.45,0,1,0,1.78,0s1.26,0,1.7-.08a2.42,2.42,0,0,0,1.08-.32,1.28,1.28,0,0,0,.55-.73,4.72,4.72,0,0,0,.15-1.33v-3.79a5.46,5.46,0,0,0-.07-.84,1.2,1.2,0,0,0-.42-.76,1.72,1.72,0,0,0-.61-.26,6.7,6.7,0,0,0-.82-.13c-.28,0-.57,0-.85,0H99.13q-.42,0-.84,0a5,5,0,0,0-.8.12,1.66,1.66,0,0,0-.58.24,1.06,1.06,0,0,0-.29.37,2.75,2.75,0,0,0-.14.49c0,.18,0,.35,0,.52s0,.31,0,.45Z"/><path class="cls-3" d="M118.16,133v.25a1.56,1.56,0,0,0,0,.31.79.79,0,0,0,.11.29.37.37,0,0,0,.2.19,1.86,1.86,0,0,0,.59.15l.83.08.85,0,.65,0,1.39.06c.52,0,1,.06,1.57.12s1,.13,1.52.23a5.6,5.6,0,0,1,1.25.39,2.83,2.83,0,0,1,.83.58,3,3,0,0,1,.51.75,3,3,0,0,1,.29,1c0,.38,0,.73,0,1.06a4.84,4.84,0,0,1-.5,2.38,3.27,3.27,0,0,1-1.46,1.34,6.93,6.93,0,0,1-2.34.57c-.92.09-2,.13-3.11.13s-2.09,0-3-.06a8.86,8.86,0,0,1-2.53-.45,3.65,3.65,0,0,1-1.72-1.21,3.84,3.84,0,0,1-.63-2.35c0-.09,0-.2,0-.33a1.3,1.3,0,0,1,0-.35.51.51,0,0,1,.19-.29.62.62,0,0,1,.42-.11h3.36c.31,0,.49.08.55.26a1.59,1.59,0,0,1,.08.6,3.83,3.83,0,0,0,0,.68.55.55,0,0,0,.42.46,2.23,2.23,0,0,0,.61.13c.25,0,.51.05.79.06h2l.73,0a4.57,4.57,0,0,0,.69-.1,1.37,1.37,0,0,0,.51-.18.66.66,0,0,0,.32-.53c0-.25,0-.45,0-.62a2.58,2.58,0,0,0-.07-.56.6.6,0,0,0-.37-.48,3.45,3.45,0,0,0-.61-.12c-.25,0-.51,0-.8-.06l-.84,0h-.67c-1.08,0-2.08-.1-3-.18a7.67,7.67,0,0,1-2.31-.56,3.35,3.35,0,0,1-1.49-1.26,4.34,4.34,0,0,1-.52-2.32,3.79,3.79,0,0,1,.62-2.34,3.59,3.59,0,0,1,1.67-1.22,8.21,8.21,0,0,1,2.48-.48c1-.05,2-.08,3-.07s2,0,2.81.11a7.3,7.3,0,0,1,2.25.51A3.18,3.18,0,0,1,128,130.7a3.8,3.8,0,0,1,.53,2.16v.28a.76.76,0,0,1,0,.3.4.4,0,0,1-.18.21.7.7,0,0,1-.39.09h-3.35c-.3,0-.48-.07-.55-.23a1.43,1.43,0,0,1-.1-.53c0-.19,0-.39,0-.58a.41.41,0,0,0-.3-.39,2.2,2.2,0,0,0-.46-.09,5.6,5.6,0,0,0-.6,0h-1.74a7.3,7.3,0,0,0-.81,0l-.8.08a2.84,2.84,0,0,0-.6.12.54.54,0,0,0-.33.43A2.56,2.56,0,0,0,118.16,133Z"/><path class="cls-3" d="M139,133v.25a3,3,0,0,0,0,.31.73.73,0,0,0,.11.29.48.48,0,0,0,.2.2,2.21,2.21,0,0,0,.6.14c.26,0,.53.06.82.07l.85.05.65,0c.41,0,.88,0,1.39.06s1,.06,1.57.12a14.62,14.62,0,0,1,1.52.23,4.71,4.71,0,0,1,1.25.4,3,3,0,0,1,.83.59,3.26,3.26,0,0,1,.8,1.85c0,.38.05.75.05,1.09a5.13,5.13,0,0,1-.5,2.46,3.24,3.24,0,0,1-1.46,1.35,6.7,6.7,0,0,1-2.34.56c-.92.07-2,.09-3.11.08s-2.08-.06-3.05-.12a8.88,8.88,0,0,1-2.53-.49,3.63,3.63,0,0,1-1.71-1.24,3.77,3.77,0,0,1-.64-2.35c0-.09,0-.2,0-.32a1,1,0,0,1,0-.36.43.43,0,0,1,.18-.28.62.62,0,0,1,.42-.12h3.36c.31,0,.5.09.55.26a1.51,1.51,0,0,1,.08.62,3.83,3.83,0,0,0,0,.68.55.55,0,0,0,.42.46,1.89,1.89,0,0,0,.61.14l.79.07.81,0h1.22c.23,0,.47,0,.72,0a7,7,0,0,0,.7-.09,1.9,1.9,0,0,0,.5-.18.67.67,0,0,0,.32-.55,5.3,5.3,0,0,0,0-.63,3.45,3.45,0,0,0-.06-.58.63.63,0,0,0-.38-.48,3.18,3.18,0,0,0-.61-.13c-.25,0-.51,0-.8-.06l-.84,0-.67,0c-1.08,0-2.08-.1-3-.2a7.67,7.67,0,0,1-2.31-.56,3.27,3.27,0,0,1-1.48-1.26,4.2,4.2,0,0,1-.53-2.31,3.81,3.81,0,0,1,.62-2.34,3.69,3.69,0,0,1,1.68-1.25,8.35,8.35,0,0,1,2.47-.52c.95-.07,2-.11,3.05-.13s2,0,2.81.07a7,7,0,0,1,2.25.49,3.1,3.1,0,0,1,1.48,1.2,4,4,0,0,1,.53,2.21v.3a.73.73,0,0,1-.05.3.44.44,0,0,1-.18.23.68.68,0,0,1-.39.09l-3.35,0c-.29,0-.48-.08-.54-.23a1.33,1.33,0,0,1-.11-.54c0-.2,0-.41,0-.6a.4.4,0,0,0-.3-.39,3,3,0,0,0-.46-.1l-.6,0h-1.74q-.41,0-.81,0l-.8.08a3.51,3.51,0,0,0-.6.13.57.57,0,0,0-.33.45A2.56,2.56,0,0,0,139,133Z"/><path class="cls-3" d="M168.67,128.28a.6.6,0,0,1,.44.14.41.41,0,0,1,.19.35v3.46a.46.46,0,0,1-.19.37.65.65,0,0,1-.44.15l-2.52,0a.7.7,0,0,1-.38-.1.52.52,0,0,1-.22-.27l-.23-.69-4.21.07v2.7l3.69,0a.65.65,0,0,1,.44.15.42.42,0,0,1,.18.35v2.23a.46.46,0,0,1-.18.37.76.76,0,0,1-.44.13l-3.69,0v2.58l.86.2c.3.08.46.24.46.49v2a.44.44,0,0,1-.18.35.72.72,0,0,1-.44.13l-6-.16a.74.74,0,0,1-.43-.15.43.43,0,0,1-.19-.35v-2a.41.41,0,0,1,.13-.29.65.65,0,0,1,.34-.17l.85-.17v-8.42l-.85-.17a.65.65,0,0,1-.34-.17.41.41,0,0,1-.13-.29v-2a.51.51,0,0,1,.19-.35.89.89,0,0,1,.43-.15Q162.26,128.51,168.67,128.28Z"/><path class="cls-3" d="M181.11,131.28v9.4l.88.23a.62.62,0,0,1,.33.2.52.52,0,0,1,.13.34v2.24a.47.47,0,0,1-.18.39.68.68,0,0,1-.46.12l-6-.25a.71.71,0,0,1-.43-.16.47.47,0,0,1-.19-.39v-2.16c0-.26.16-.42.47-.49l.85-.18v-9.18l-.85-.15a.51.51,0,0,1-.47-.52v-2.16a.49.49,0,0,1,.19-.38.72.72,0,0,1,.43-.17c2-.08,4-.16,6-.26a.68.68,0,0,1,.46.14.49.49,0,0,1,.18.38v2.24a.54.54,0,0,1-.13.35.53.53,0,0,1-.33.21Z"/><path class="cls-3" d="M201.79,126.64a.67.67,0,0,1,.44.15.64.64,0,0,1,.18.43v4.19a.58.58,0,0,1-.18.44.62.62,0,0,1-.44.19l-2.52.06a.68.68,0,0,1-.39-.11.53.53,0,0,1-.23-.32l-.21-.83-1.13,0v10.23l.85.26a.58.58,0,0,1,.47.59v2.47a.54.54,0,0,1-.19.43.59.59,0,0,1-.43.14l-6-.34a.66.66,0,0,1-.45-.18.58.58,0,0,1-.17-.43V141.7a.52.52,0,0,1,.47-.54l.85-.19V131l-1.13,0-.21.8a.55.55,0,0,1-.23.32.69.69,0,0,1-.39.12l-2.53.06a.63.63,0,0,1-.44-.16.48.48,0,0,1-.18-.39V128a.65.65,0,0,1,.18-.41.83.83,0,0,1,.44-.19Q195,127.06,201.79,126.64Z"/><path class="cls-4" d="M217.56,168.37c0,5.51-3.9,12.26-8.67,15l-75.12,43.38c-4.77,2.75-12.57,2.75-17.34,0L41.31,183.38c-4.77-2.75-8.67-9.5-8.67-15V81.63c0-5.5,3.9-12.26,8.67-15l75.12-43.38c4.77-2.75,12.57-2.75,17.34,0l75.12,43.38c4.77,2.75,8.67,9.51,8.67,15Z"/><path class="cls-3" d="M212.1,68.47,130.56,21.39a12.12,12.12,0,0,0-10.91,0L38.1,68.47a12.11,12.11,0,0,0-5.46,9.45v94.16a12.11,12.11,0,0,0,5.46,9.45l81.55,47.08a12.12,12.12,0,0,0,10.91,0l81.54-47.08a12.11,12.11,0,0,0,5.46-9.45V77.92A12.11,12.11,0,0,0,212.1,68.47Zm-3.19,35.7v69.22L125.1,221.77,41.29,173.39V76.62L125.1,28.23l83.81,48.39Z"/><path class="cls-3" d="M42,161.94c0,3.44-3.2,6.23-7.16,6.23s-7.17-2.79-7.17-6.23,3.21-6.22,7.17-6.22S42,158.51,42,161.94Z"/><path class="cls-3" d="M139.36,82.78l18.88-13.72H134.9a2.83,2.83,0,0,1-2.59-1.88L125.1,45l-7.21,22.19a2.83,2.83,0,0,1-2.59,1.88H92l18.88,13.72a2.8,2.8,0,0,1,1,3L104.62,108,123.5,94.3a2.81,2.81,0,0,1,3.2,0L145.58,108l-7.21-22.19A2.82,2.82,0,0,1,139.36,82.78Zm-9.17,6.42a11.32,11.32,0,0,1-10-.13l-10,10.05,6.54-12.74a11.21,11.21,0,0,1-2.7-9.07L100.92,70.7l14.57,2.35a11.43,11.43,0,0,1,7.35-5.33l2.26-14.6,2.25,14.52A11.39,11.39,0,0,1,135.09,73l14.19-2.29-12.69,6.41a11.53,11.53,0,0,1,.15,1.77,11.35,11.35,0,0,1-3.09,7.79l6.4,12.45Z"/><path class="cls-3" d="M128.3,78.88a3,3,0,1,1-3-3A3,3,0,0,1,128.3,78.88Z"/><path class="cls-5" d="M125.31,87.48a8.6,8.6,0,1,1,8.6-8.6A8.61,8.61,0,0,1,125.31,87.48Zm0-16a7.37,7.37,0,1,0,7.37,7.37A7.37,7.37,0,0,0,125.31,71.51Z"/><path class="cls-3" d="M182.36,81.55a.49.49,0,0,0-.31-.1l-.51,0-.51,0a.49.49,0,0,0-.31.1.34.34,0,0,0-.12.24,3.6,3.6,0,0,0,0,.53v1.4a3.51,3.51,0,0,0,0,.53.34.34,0,0,0,.12.24.53.53,0,0,0,.3.09l.52,0,.52,0a.53.53,0,0,0,.3-.09.39.39,0,0,0,.13-.25,3.36,3.36,0,0,0,0-.52v-1.4a3.36,3.36,0,0,0,0-.52A.42.42,0,0,0,182.36,81.55Z"/><path class="cls-3" d="M125.1,31.24,43.9,78.12v26.05H79.26v-11H57.33v-2H79.26V74.09H57.33v-2H79.26V60.25h2.52v43.66l6.42,14.93H162l6.42-14.93V60.25h2.52V72.09h21.93v2H170.94V91.15h21.93v2H170.94v11H206.3v-26ZM74.66,84.71a.16.16,0,0,1,.06-.13.15.15,0,0,1,.13,0h.86a.19.19,0,0,1,.14,0,.19.19,0,0,1,.05.13v.94a.19.19,0,0,1-.05.13.24.24,0,0,1-.14,0h-.86a.19.19,0,0,1-.13,0,.16.16,0,0,1-.06-.13ZM69,80.48a.19.19,0,0,1,.06-.13.18.18,0,0,1,.13,0h4a.2.2,0,0,1,.13,0,.18.18,0,0,1,.05.13v1.24a.17.17,0,0,1-.05.13.19.19,0,0,1-.13.05h-.75a.21.21,0,0,1-.18-.13l-.06-.26h-.34v3.13l.25.07a.16.16,0,0,1,.14.17v.75a.22.22,0,0,1,0,.14.21.21,0,0,1-.13,0H70.33a.17.17,0,0,1-.19-.19v-.75a.16.16,0,0,1,.14-.17l.25-.07V81.51H70.2l-.06.26a.2.2,0,0,1-.07.09.19.19,0,0,1-.12,0h-.74a.17.17,0,0,1-.13-.05.18.18,0,0,1-.06-.13Zm-6,3.48a.22.22,0,0,1,.05-.11.17.17,0,0,1,.13,0h1c.09,0,.15,0,.16.1a.88.88,0,0,1,0,.24,1.22,1.22,0,0,0,0,.27.18.18,0,0,0,.12.18.48.48,0,0,0,.18.06l.23,0h.82a.64.64,0,0,0,.2,0,.35.35,0,0,0,.15-.08.26.26,0,0,0,.1-.21c0-.1,0-.18,0-.24s0-.14,0-.23a.25.25,0,0,0-.11-.19l-.18,0-.24,0h-.44c-.33,0-.62,0-.89-.08a1.76,1.76,0,0,1-.68-.22,1.11,1.11,0,0,1-.44-.49,2.29,2.29,0,0,1-.15-.92,1.92,1.92,0,0,1,.18-.92,1.16,1.16,0,0,1,.49-.49,1.88,1.88,0,0,1,.74-.2q.42,0,.9,0a7.1,7.1,0,0,1,.83,0,1.6,1.6,0,0,1,.66.2,1.08,1.08,0,0,1,.44.48,1.81,1.81,0,0,1,.16.85V82a.43.43,0,0,1,0,.11.13.13,0,0,1,0,.09.16.16,0,0,1-.11,0h-1c-.08,0-.14,0-.15-.09a.46.46,0,0,1,0-.21v-.23A.14.14,0,0,0,66,81.5a.4.4,0,0,0-.13,0l-.18,0h-.52l-.24,0a.85.85,0,0,0-.23,0,.39.39,0,0,0-.18,0,.23.23,0,0,0-.1.17,1.48,1.48,0,0,0,0,.2v.22l0,.12a.22.22,0,0,0,.06.07.48.48,0,0,0,.18.06l.25,0,.25,0h.19l.41,0,.46,0a3,3,0,0,1,.45.09,1.15,1.15,0,0,1,.37.16.79.79,0,0,1,.25.23,1.13,1.13,0,0,1,.15.29,1.42,1.42,0,0,1,.08.42c0,.14,0,.28,0,.42a2.43,2.43,0,0,1-.15.94,1.09,1.09,0,0,1-.43.53,1.61,1.61,0,0,1-.69.23,8.36,8.36,0,0,1-.92,0q-.48,0-.9,0a2.07,2.07,0,0,1-.75-.18,1.2,1.2,0,0,1-.51-.49,1.94,1.94,0,0,1-.19-.92v-.13A.71.71,0,0,1,63.05,84Zm-5.66-3.6a.19.19,0,0,1,.13,0h3.92a.19.19,0,0,1,.13,0,.18.18,0,0,1,.06.13v1.24a.18.18,0,0,1-.06.13.16.16,0,0,1-.13.06h-.75a.25.25,0,0,1-.11,0,.21.21,0,0,1-.06-.1l-.07-.25H59.08v.91h1.21a.15.15,0,0,1,.13.06.13.13,0,0,1,0,.12v.81a.16.16,0,0,1,0,.14.14.14,0,0,1-.13.05H59.08v1h1.39l.07-.25a.19.19,0,0,1,.07-.11.2.2,0,0,1,.11,0h.74a.17.17,0,0,1,.13,0,.18.18,0,0,1,.06.13v1.24a.16.16,0,0,1-.06.13.17.17,0,0,1-.13,0H57.52a.19.19,0,0,1-.13,0,.18.18,0,0,1-.06-.13V84.9a.16.16,0,0,1,.14-.17l.25-.07V81.49l-.25-.07a.17.17,0,0,1-.1-.07.21.21,0,0,1,0-.11v-.75A.22.22,0,0,1,57.39,80.36ZM161.81,69.47l-21,15.27a.5.5,0,0,0-.1.33l8,24.71a1.7,1.7,0,0,1-.16,1.6,1.37,1.37,0,0,1-1.13.57,1.94,1.94,0,0,1-1.13-.41l-21-15.28a.5.5,0,0,0-.34,0l-21,15.28a2,2,0,0,1-1.13.41,1.39,1.39,0,0,1-1.13-.57,1.73,1.73,0,0,1-.16-1.6l8-24.71a.46.46,0,0,0-.11-.33l-21-15.27a1.51,1.51,0,0,1,.93-2.84h26a.44.44,0,0,0,.28-.2l8-24.71a1.51,1.51,0,0,1,3,0l8,24.71a.44.44,0,0,0,.28.2h26a1.51,1.51,0,0,1,.93,2.84Zm14.7,15.07.05-.22a.3.3,0,0,1,.11-.12l.1,0h.75a.2.2,0,0,1,.14.06.18.18,0,0,1,.07.15v1.19a.2.2,0,0,1-.06.15.18.18,0,0,1-.15.07h-3.86a.2.2,0,0,1-.14-.06.21.21,0,0,1-.07-.16v-1a2.88,2.88,0,0,1,.11-.85,1.1,1.1,0,0,1,.38-.54,1.44,1.44,0,0,1,.59-.26c.22,0,.48-.11.77-.16l.19,0,.16,0,.4-.07a.41.41,0,0,0,.21-.09c.08-.06.12-.26.12-.58a.84.84,0,0,0,0-.34.32.32,0,0,0-.08-.13.5.5,0,0,0-.25-.07h-.83a.31.31,0,0,0-.36.37c0,.15,0,.31,0,.47a.21.21,0,0,1-.21.21h-.93a.21.21,0,0,1-.21-.21c0-.16,0-.32,0-.46a2.71,2.71,0,0,1,0-.41,1.89,1.89,0,0,1,.1-.36,1.08,1.08,0,0,1,.19-.31,1.26,1.26,0,0,1,.7-.42,4.45,4.45,0,0,1,1.15-.12,7.37,7.37,0,0,1,.82,0,1.56,1.56,0,0,1,.69.27,1.19,1.19,0,0,1,.44.57,2.58,2.58,0,0,1,.14.9,2.92,2.92,0,0,1-.1.87,1.14,1.14,0,0,1-.35.58,1.32,1.32,0,0,1-.6.31,6.75,6.75,0,0,1-.84.18h0l-.11,0h-.11l-.42.07a.83.83,0,0,0-.26.1.19.19,0,0,0-.09.12,1.44,1.44,0,0,0,0,.3Zm7.36-1.05a6.32,6.32,0,0,1,0,.65,3.35,3.35,0,0,1-.09.51,1.4,1.4,0,0,1-1.18,1.1,5.25,5.25,0,0,1-1,.08,5.15,5.15,0,0,1-1-.08,1.4,1.4,0,0,1-1.18-1.1,4.07,4.07,0,0,1-.13-1.16v-.94a5.89,5.89,0,0,1,.09-1.1,1.48,1.48,0,0,1,.38-.76,1.42,1.42,0,0,1,.75-.39,4.79,4.79,0,0,1,.48-.08l.63,0a6.16,6.16,0,0,1,1,.08,1.48,1.48,0,0,1,.75.37,1.46,1.46,0,0,1,.43.75,3.35,3.35,0,0,1,.09.51,6.18,6.18,0,0,1,0,.65Zm3.4,2.07a.17.17,0,0,1-.19.18h-1.71a.15.15,0,0,1-.12,0,.14.14,0,0,1-.05-.13v-.74a.17.17,0,0,1,.13-.18l.25-.07V81.68h-.21a.19.19,0,0,1-.15-.09.15.15,0,0,1,0-.16l.4-1.05a.16.16,0,0,1,.17-.12h.91a.3.3,0,0,1,.14,0,.27.27,0,0,1,0,.13v4.13l.25.07a.18.18,0,0,1,.14.18Zm4.31-1,0-.22a.34.34,0,0,1,.12-.12.19.19,0,0,1,.1,0h.74a.24.24,0,0,1,.15.06.2.2,0,0,1,.06.15v1.19a.2.2,0,0,1-.06.15.18.18,0,0,1-.15.07h-3.86a.2.2,0,0,1-.14-.06.21.21,0,0,1-.07-.16v-1a2.55,2.55,0,0,1,.12-.85,1,1,0,0,1,.37-.54,1.44,1.44,0,0,1,.59-.26c.23,0,.48-.11.77-.16l.19,0,.16,0,.4-.07a.45.45,0,0,0,.22-.09c.07-.06.11-.26.11-.58a.84.84,0,0,0,0-.34.5.5,0,0,0-.07-.13.54.54,0,0,0-.26-.07h-.83a.44.44,0,0,0-.25.07.42.42,0,0,0-.11.3c0,.15,0,.31,0,.47a.24.24,0,0,1-.06.15.2.2,0,0,1-.15.06h-.93a.2.2,0,0,1-.14-.06.21.21,0,0,1-.07-.15c0-.16,0-.32,0-.46s0-.28,0-.41a1.89,1.89,0,0,1,.1-.36,1.08,1.08,0,0,1,.19-.31,1.26,1.26,0,0,1,.7-.42,4.45,4.45,0,0,1,1.15-.12,7.37,7.37,0,0,1,.82,0,1.6,1.6,0,0,1,.7.27,1.24,1.24,0,0,1,.43.57,2.58,2.58,0,0,1,.14.9,2.92,2.92,0,0,1-.1.87,1.08,1.08,0,0,1-.35.58,1.32,1.32,0,0,1-.6.31,6.75,6.75,0,0,1-.84.18h0l-.11,0h-.11l-.42.07a.83.83,0,0,0-.26.1.31.31,0,0,0-.09.12,1.44,1.44,0,0,0,0,.3Z"/><path class="cls-2" d="M47,164.3a10.28,10.28,0,0,1-1.37,2.59,11.78,11.78,0,0,1-1.84,2,13.36,13.36,0,0,1-2.19,1.52,17.12,17.12,0,0,1-2.39,1.11,11.94,11.94,0,0,1,0,4.26,11.28,11.28,0,0,1-1.44,4,11.9,11.9,0,0,0,.78-2.46,13.17,13.17,0,0,0,.24-1.92,7.7,7.7,0,0,0-.16-1.69c-.08.92-.18,1.81-.31,2.65s-.25,1.44-.42,2.17a5.74,5.74,0,0,1-.68,1.72.16.16,0,0,1,0-.08l0-.08,0-.08a2.12,2.12,0,0,1-.41.39l-.34.29a.47.47,0,0,1-.24.13.7.7,0,0,1-.25.06l-.37.06a3.74,3.74,0,0,0-.46.11l-.21-.38a12.42,12.42,0,0,0-.22-4.25,23.07,23.07,0,0,0-1.15-3.6c-.73.11-1.4.17-2,.2l-1.51,0h-.23c-.27.59-.5,1.13-.7,1.62L28.47,176c-.18.41-.33.77-.47,1.07a2.27,2.27,0,0,1-.31.31,4.35,4.35,0,0,1-.31.35l-.43.42-.35.39a5.34,5.34,0,0,0-.43.5c-.18.2-.36.42-.55.65l-.31.12a3.19,3.19,0,0,0-.6.38l-.14.17a3.1,3.1,0,0,1-.21.25c-.08.11-.16.22-.24.35l-.29,0-.73.73-.12-.08a.44.44,0,0,0-.17-.07.83.83,0,0,0-.35.29c-.12.14-.21.21-.29.21,0-.16.14-.54.34-1.16s.45-1.38.74-2.3.64-2,1-3.14.8-2.39,1.24-3.67a3.61,3.61,0,0,1-1.08-1.46,5,5,0,0,1-.33-2.27c0-.08,0-.3.1-.66a3.32,3.32,0,0,1,.32-.92c0,.26-.07.53-.09.83s0,.58,0,.85a3.71,3.71,0,0,0,.07.71.93.93,0,0,0,.17.42,7.34,7.34,0,0,1,0-2.1,4.73,4.73,0,0,1,.56-1.63c0,.64.56,1.24,1.77,1.81.41-1.28.81-2.53,1.18-3.73s.73-2.34,1.06-3.39c-.78.1-1.62.26-2.51.46a1.07,1.07,0,0,1-.6-.78,3.81,3.81,0,0,1-.13-1.41,4.76,4.76,0,0,1,.43-1.54,3.07,3.07,0,0,1,1-1.23,8.12,8.12,0,0,1,1.59-.6,28.8,28.8,0,0,1,3-.67c1.18-.2,2.46-.36,3.84-.46a25.1,25.1,0,0,1,4.07,0,15.8,15.8,0,0,1,3.74.77,6.34,6.34,0,0,1,2.8,1.81,5.54,5.54,0,0,1,1.29,3.11A10.19,10.19,0,0,1,47,164.3Zm-2.61-1.08a1.7,1.7,0,0,0-.08-1.54,3.2,3.2,0,0,0-1.56-1.25,11.36,11.36,0,0,0-3-.79,24.4,24.4,0,0,0-4.5-.15,5.59,5.59,0,0,1-.19.63l-.26.71q-.72,1.84-1.47,3.72c-.5,1.24-1,2.46-1.53,3.67a18.31,18.31,0,0,0,3.78-.44,28.13,28.13,0,0,0,3.87-1.14,17.24,17.24,0,0,0,3.19-1.57A4.69,4.69,0,0,0,44.37,163.22Z"/><path class="cls-2" d="M76.5,177.64a.11.11,0,0,0,.1,0,.08.08,0,0,0,.07,0s0,0,0,0c-.08-.33-.45-.64-1.09-.92a11.68,11.68,0,0,0-2.45-.72,27.16,27.16,0,0,0-3.33-.4,35.45,35.45,0,0,0-3.72,0,25.6,25.6,0,0,0-3.59.4,12.27,12.27,0,0,0-2.92.91,7.91,7.91,0,0,0-1.21,2,5.35,5.35,0,0,0-.47,1.92,1.58,1.58,0,0,0,.47,1.29c.33.3.87.33,1.62.1a30.81,30.81,0,0,1,3.34-.73c1.34-.23,2.74-.42,4.19-.56s2.86-.23,4.24-.25a20.53,20.53,0,0,1,3.53.19l.27.19q.22-.37.45-.69l.32-.52.23-.36a.39.39,0,0,0,.06-.27,2.6,2.6,0,0,0-.05-.39l-.14-.46.37-.08Z"/><path class="cls-2" d="M103.21,158.74a6.93,6.93,0,0,0-2.49-2.71,12.42,12.42,0,0,0-3.52-1.5,19,19,0,0,0-3.91-.6,25.21,25.21,0,0,0-3.73.08,20.13,20.13,0,0,0-3,.48,4.83,4.83,0,0,0-1.63.61,3.94,3.94,0,0,0-1.16,1.5,6.85,6.85,0,0,0-.53,1.89,5,5,0,0,0,0,1.71,1.46,1.46,0,0,0,.55,1c.54-.15,1.07-.28,1.58-.38l1.55-.31c-.25.92-.56,1.93-.9,3s-.71,2.21-1.1,3.38l-1.18,3.56-1.16,3.46a7.1,7.1,0,0,1-1.64-.67,5.12,5.12,0,0,1-1.14-.85,2.71,2.71,0,0,1-.61-.9,1.2,1.2,0,0,1,0-.85c.13-.36.17-.56.1-.59s-.14,0-.25,0a2.91,2.91,0,0,0-.49.5c0,.16-.1.3-.15.44,0-.83.08-1.66.14-2.46.14-1.83.31-3.51.5-5s.4-2.86.61-4,.39-2,.54-2.64c.19-.87,0-1.47-.48-1.79a3.37,3.37,0,0,0-1.9-.44,3,3,0,0,0-1.84-.54,21.7,21.7,0,0,0-3.87.27,80,80,0,0,1-5.36,9.44Q64,168,61.49,171.31c-1,.08-1.94.2-3,.37-1.58.26-3.18.58-4.79,1s-3.15.78-4.61,1.19l1-1.88c.38-.77.81-1.67,1.28-2.69.53-.11,1-.22,1.57-.35l1.46-.36c.45-.12.83-.21,1.12-.27a3.49,3.49,0,0,1,.51-.1l.6-.21.74-.29c.29-.1.59-.22.9-.35l.43-.46,1.51-.34.1-.39,1.57-.81-.49,0,1.43-.65.49-.92.27-.31a1.81,1.81,0,0,0,.33-.5l-1.91,0c-.76,0-1.59,0-2.48.11l-2.75.22q-1.41.11-2.73.27c.21-.47.42-.93.61-1.39s.4-.95.61-1.46c.06-.15.12-.31.19-.46l.19-.46c.89-.13,1.8-.26,2.72-.41l2.51-.38,1.87-.29c.5-.08.78-.11.83-.11a2.74,2.74,0,0,1,.42-.14,6.43,6.43,0,0,0,.68-.25c.3-.1.61-.22.94-.35l.2-.46,1.51-.65-.76,0a2.51,2.51,0,0,0,.49-.27l.36-.21a2,2,0,0,0,.28-.17,5.16,5.16,0,0,1,.51-.35l.48-.27a2.3,2.3,0,0,1,.51-.23l.14-.39c0-.12.09-.24.12-.34a1.71,1.71,0,0,1,.14-.27c-.62,0-1.57,0-2.87,0s-2.71,0-4.22,0-3,0-4.54.1-2.79.14-3.87.27a3.65,3.65,0,0,0-1.14,0l-1,.17-1,.27a14.69,14.69,0,0,1-.43,1.92c-.24.87-.56,1.89-.94,3.06s-.82,2.43-1.3,3.79l-1.48,4.11c-.51,1.39-1,2.75-1.51,4.08l-1.35,3.65a9.15,9.15,0,0,0-.93.35,2.36,2.36,0,0,0-1.25,1.37,5.42,5.42,0,0,0-.38,2,4.21,4.21,0,0,0,.27,1.67c.19.46.47.61.84.46,2.26-1,4.48-1.77,6.64-2.46s4.09-1.27,5.78-1.73,3.07-.81,4.13-1,1.64-.34,1.74-.34a2.25,2.25,0,0,0,.8-.5,5.75,5.75,0,0,1,.83-.63,3,3,0,0,0,.83,0c.88-.15,1.82-.29,2.83-.42a28.07,28.07,0,0,1,3-.23,25.77,25.77,0,0,1,3,.09,13.7,13.7,0,0,1,2.85.56l.26.23c.15-.2.32-.41.5-.61s.26-.36.38-.52a2.32,2.32,0,0,1,.28-.37,1.53,1.53,0,0,0,.07.46,1,1,0,0,1,0,.23l.55-.34.27.19.33.27.15-.16,0,.29a6.52,6.52,0,0,0,.32,2.62,4.59,4.59,0,0,0,1.12,1.73,5.2,5.2,0,0,0,1.55,1l-.51,1.56a6.68,6.68,0,0,0-.24.82,1,1,0,0,0,.28-.23l.23-.23.39.12.8-1,.67,0,.42-.5.53.06h.52c.58,0,1.39,0,2.4-.15a23.13,23.13,0,0,0,3.31-.6,26.46,26.46,0,0,0,3.78-1.25,18.65,18.65,0,0,0,3.79-2.07,17.56,17.56,0,0,0,3.34-3.08,14.18,14.18,0,0,0,2.43-4.31,16.62,16.62,0,0,0,1.26-5.9A9,9,0,0,0,103.21,158.74Zm-31.77,9.94a20.71,20.71,0,0,0-2.27-.27c.7-.79,1.38-1.6,2.06-2.42s1.34-1.68,2-2.58q0,1.38.06,2.85c0,1,.06,2,.15,2.92A15.46,15.46,0,0,0,71.44,168.68Zm14.65,5.65h-.35l2.13-4.88L87.29,171c-.16.46-.36,1-.58,1.55S86.28,173.74,86.09,174.33Zm14-6.84a6.23,6.23,0,0,1-1.91,2.25,19.8,19.8,0,0,1-3.35,2.09,27,27,0,0,1-4,1.64,18.34,18.34,0,0,1-4,.82c.31-.79.7-1.74,1.15-2.84s.92-2.28,1.41-3.52l1.5-3.79,1.41-3.61A13.55,13.55,0,0,1,96,161.66a10.93,10.93,0,0,1,2.68,1.77,5.28,5.28,0,0,1,1.43,2.06A2.76,2.76,0,0,1,100.12,167.49Z"/><path class="cls-2" d="M125.59,154.26a2.4,2.4,0,0,1,1.47.65,2,2,0,0,1,.53,1.08,2.92,2.92,0,0,1,0,1.07q-.14.51-.18.66c-.06.08-.33.49-.81,1.25s-1.09,1.76-1.84,3-1.6,2.71-2.52,4.36-1.83,3.41-2.72,5.27-1.75,3.79-2.55,5.79a47.57,47.57,0,0,0-2,5.88c-.15.29-.29.55-.41.81l-.34.73s0-.17.12-.59l.3-1.41.45-2.07c-.26.92-.48,1.73-.65,2.42s-.33,1.17-.46,1.67-.2.76-.21.79c-.2.49-.42,1-.63,1.42a1.08,1.08,0,0,1,0-.29.93.93,0,0,0,0-.28s-.07.23-.16.53-.13.49-.15.54a13,13,0,0,0-.6,1.58,4.93,4.93,0,0,1-.15.58c0,.05,0,.05-.06,0l-.09-.14a1.54,1.54,0,0,1-.24.35,2,2,0,0,1-.3.3,3.72,3.72,0,0,1-1,.37c-.32.07-.5,0-.55-.25a20.2,20.2,0,0,1-.13-4.81,32.44,32.44,0,0,1,.84-5.05,52.32,52.32,0,0,1,1.53-5.12c.61-1.7,1.28-3.38,2-5l-2.42,3.33c-.75,1-1.43,2-2,2.77s-1.15,1.47-1.6,2a5.46,5.46,0,0,1-1.06,1,2.65,2.65,0,0,1-1.18.34,8.22,8.22,0,0,1-1.39,0,2.53,2.53,0,0,1-1.93-1.09,4.25,4.25,0,0,1-.59-2.29,13.79,13.79,0,0,1,.37-3.13c.26-1.17.59-2.39,1-3.66s.85-2.55,1.33-3.84.9-2.52,1.29-3.68a31.44,31.44,0,0,0,.93-3.13,6.07,6.07,0,0,0,.2-2.29,1.34,1.34,0,0,0-.19-.54.77.77,0,0,0-.16-.19,2.33,2.33,0,0,1,1.33-1.48,4.46,4.46,0,0,1,2.27-.17c1.18.15,1.89.57,2.14,1.25a5.12,5.12,0,0,1-.09,2.94,41,41,0,0,1-1.56,4.79c-.74,1.91-1.5,4.17-2.3,6.78.1,0,.39-.24.88-.73s1.09-1.14,1.83-2l2.43-2.73,2.71-3c.91-1,1.78-2,2.62-2.88s1.58-1.66,2.21-2.27a2.39,2.39,0,0,0,.16-.33,1.35,1.35,0,0,1,.16-.32,2.35,2.35,0,0,1,.88-1,3.83,3.83,0,0,1,1.16-.47,4.49,4.49,0,0,1,1.13-.12A8.7,8.7,0,0,1,125.59,154.26Z"/><path class="cls-2" d="M146.6,174.41a6.86,6.86,0,0,1,2.42,1.1,5.29,5.29,0,0,1,1.47,1.57,5.4,5.4,0,0,1,.67,1.75,6.79,6.79,0,0,1,.11,1.56,3.36,3.36,0,0,1-.23,1c-.11.24-.23.31-.35.21a5.93,5.93,0,0,1-.51-.54,3.47,3.47,0,0,0-1.06-.73,7.47,7.47,0,0,0-1.9-.56,10.84,10.84,0,0,0-2.93,0,27.59,27.59,0,0,0-4.23.89,47.35,47.35,0,0,0-5.78,2.11,2.32,2.32,0,0,1-1.27-.65,5.78,5.78,0,0,1-1.09-1.38,5.87,5.87,0,0,1-.64-1.79,3.57,3.57,0,0,1,.14-1.87.8.8,0,0,1,.17-.34,3.88,3.88,0,0,1,1.76-1.35c.78-.67,1.74-1.52,2.89-2.56s2.36-2.16,3.65-3.36,2.56-2.44,3.84-3.69,2.45-2.44,3.5-3.54,1.94-2.07,2.65-2.89a7.86,7.86,0,0,0,1.26-1.77,2.63,2.63,0,0,0-1.47.33,24.41,24.41,0,0,0-2.16,1.17c-.79.49-1.61,1-2.47,1.62l-2.4,1.63c-.75.5-1.39.92-1.92,1.25s-.88.48-1,.43a1.47,1.47,0,0,1-.66-.45,4.06,4.06,0,0,1-.63-.86,3.68,3.68,0,0,1-.4-1.06,1.82,1.82,0,0,1,0-1.06,4.62,4.62,0,0,1,1.21-1.55,24.09,24.09,0,0,1,2.34-2c.92-.67,1.91-1.35,3-2s2.1-1.25,3.1-1.75a22.44,22.44,0,0,1,2.71-1.15,3.59,3.59,0,0,1,1.84-.25,5,5,0,0,1,3.14,2.52,5.72,5.72,0,0,1,.59,2.38,7.75,7.75,0,0,1-.59,3.06,10.94,10.94,0,0,1-1.71,2.64q-1.37,1.67-3.25,3.63t-4.14,4c-1.5,1.38-3,2.67-4.44,3.85,1,0,1.93,0,2.77.09A11.36,11.36,0,0,1,146.6,174.41Z"/><path class="cls-2" d="M177.62,178c0,.13.06.26.08.37a.31.31,0,0,1,0,.25,2.49,2.49,0,0,0-.28.38,6,6,0,0,1-.33.54c-.15.21-.29.43-.43.66l-.29-.16a15.16,15.16,0,0,0-3-.15,28.64,28.64,0,0,0-3.17.33c-1.06.17-2.11.37-3.14.63s-2,.51-2.87.77a1.72,1.72,0,0,1-1.61-.13,1.61,1.61,0,0,1-.47-1.29,5.18,5.18,0,0,1,.46-1.91,8.12,8.12,0,0,1,1.2-2l.55-.23c.42-1.18.9-2.46,1.42-3.84s1-2.8,1.55-4.23,1-2.86,1.54-4.27,1-2.73,1.36-3.94.76-2.32,1.06-3.29a19.88,19.88,0,0,0,.59-2.27.68.68,0,0,1,.22-.33,1.08,1.08,0,0,1,.55-.29,11,11,0,0,1,1.78-.19,2.92,2.92,0,0,1,1.84.5,2.55,2.55,0,0,1,.92,1.88,8.67,8.67,0,0,1-1,4q-1,2.35-2,4.62c-.68,1.51-1.32,2.94-1.94,4.27s-1.16,2.54-1.66,3.61-.9,2-1.23,2.66a23.35,23.35,0,0,1,3,0,16.51,16.51,0,0,1,2.65.33,7.33,7.33,0,0,1,1.94.65,1.48,1.48,0,0,1,.86.94s0,0-.07,0a.21.21,0,0,1-.11,0l.27.66-.38.07Z"/><path class="cls-2" d="M214.51,154.28c.08-.17.12-.28.14-.33a.7.7,0,0,0-.17-.58.76.76,0,0,0-.21-.15,5.44,5.44,0,0,0,.15-.54,3.24,3.24,0,0,1,.09-.4,1.13,1.13,0,0,0,.05-.29q0-.12-.27,0c-.16.08-.25.09-.28,0a.5.5,0,0,1,0-.45c0-.16,0-.22-.11-.17q-2.21,2.24-4.32,4.52t-4.23,4.75c-1.4,1.64-2.81,3.35-4.21,5.13s-2.84,3.66-4.31,5.64c.17-.82.32-1.71.45-2.65s.25-1.93.35-2.93.22-2,.34-3.08.23-2.07.37-3.07a10.52,10.52,0,0,0,0-3,4.15,4.15,0,0,0-.7-1.83,2.53,2.53,0,0,0-1.2-.92,4.2,4.2,0,0,0-1.47-.25,9.65,9.65,0,0,0-3.87,1.08,1.67,1.67,0,0,0-.56-.56,3.66,3.66,0,0,0-1.19-.45,4.5,4.5,0,0,0-1.27,0A8.45,8.45,0,0,0,187,154a1.1,1.1,0,0,0-.54.27q-.21.19-.21.3c-.1.57-.3,1.38-.6,2.45s-.67,2.27-1.11,3.61-.91,2.8-1.44,4.35-1.05,3.09-1.57,4.63-1,3-1.56,4.48-1,2.76-1.37,3.93-.73,2.14-1,2.92-.42,1.27-.47,1.48a.76.76,0,0,0,.38-.19c.11-.08.2-.16.28-.23l.68-1,.21.27,1-.89,1.35-.65,1-1.42.5-.12.55-1,.14.35c.81-1.8,1.63-3.68,2.48-5.66q1.11-2.53,2.42-5.59t2.51-6.06a12.93,12.93,0,0,0,.83-3,.13.13,0,0,1,0-.06,21.3,21.3,0,0,1,.18,2.33c0,1.1,0,2.3,0,3.61s-.11,2.64-.19,4-.19,2.69-.3,4-.24,2.51-.35,3.6-.21,2-.29,2.8-.14,1.33-.17,1.64.12.25.32.21a3.37,3.37,0,0,0,.84-.33,1.31,1.31,0,0,0,1.09,1.7,14.49,14.49,0,0,0,5.13-.2,85.69,85.69,0,0,1,4.55-7.9c1.66-2.58,3.29-4.94,4.86-7.08s3-4,4.18-5.52,2.05-2.6,2.49-3.19a7.86,7.86,0,0,0,.36-.71,4.31,4.31,0,0,0,.23-.79c0-.1,0-.1-.24,0a1.75,1.75,0,0,0-.31.23,7.86,7.86,0,0,1,.4-.77A5,5,0,0,0,214.51,154.28Z"/><path class="cls-2" d="M212.91,173.83c1.46-.41,3-.8,4.61-1.19s3.21-.7,4.79-1a37.59,37.59,0,0,1,4.49-.48,15.3,15.3,0,0,1,3.65.21.76.76,0,0,1-.21.27l-.38.31a6,6,0,0,0-.49.38l-.36.46-1.72.69,1,.12-.71.27a7.16,7.16,0,0,0-.67.29,5.75,5.75,0,0,0-.65.36,5.29,5.29,0,0,0-1,.74,2.21,2.21,0,0,1-.79.5c-.1,0-.68.11-1.74.34s-2.44.58-4.13,1-3.62,1-5.78,1.73-4.38,1.51-6.65,2.46c-.36.15-.64,0-.83-.46a4.2,4.2,0,0,1-.28-1.67,5.65,5.65,0,0,1,.39-2,2.3,2.3,0,0,1,1.25-1.37,7.6,7.6,0,0,1,.93-.35c.4-1.1.85-2.32,1.35-3.65s1-2.69,1.5-4.08,1-2.75,1.48-4.11.91-2.62,1.3-3.79.7-2.19.94-3.06a14.69,14.69,0,0,0,.43-1.92l1-.27,1.05-.17a3.64,3.64,0,0,1,1.14,0q1.6-.19,3.87-.27c1.5-.05,3-.08,4.53-.1s2.92,0,4.22,0,2.26,0,2.87,0a1.13,1.13,0,0,0-.13.27c0,.1-.08.22-.13.34l-.14.39a2,2,0,0,0-.5.23l-.49.27-.51.35-.27.17-.37.21a2.73,2.73,0,0,1-.48.27l.75,0-1.5.65-.21.46-.93.35a6.55,6.55,0,0,1-.69.25,2.48,2.48,0,0,0-.41.14c-.06,0-.33,0-.84.11l-1.87.29-2.5.38c-.93.15-1.84.28-2.73.41,0,.15-.12.3-.18.46a4.47,4.47,0,0,0-.19.46l-.61,1.46c-.19.46-.4.92-.62,1.39q1.32-.17,2.73-.27l2.75-.22c.9-.06,1.72-.1,2.49-.11l1.91,0a1.9,1.9,0,0,1-.34.5l-.26.31-.49.92-1.43.65.48,0-1.56.81-.1.39-1.51.34-.44.46c-.31.13-.6.25-.9.35l-.74.29-.59.21a3.5,3.5,0,0,0-.52.1q-.44.09-1.11.27l-1.46.36c-.53.13-1,.24-1.57.35-.48,1-.91,1.92-1.29,2.69S213.17,173.35,212.91,173.83Z"/><path class="cls-1" d="M126.39,153.9a3.62,3.62,0,0,0-1-2,4,4,0,0,0-2.46-1.19h-.06c-.27,0-.6-.06-1-.07h-.2a6,6,0,0,0-1.38.17,5.49,5.49,0,0,0-1.65.68,3.91,3.91,0,0,0-1.49,1.65,4.5,4.5,0,0,0-.22.44c-.6.59-1.27,1.28-2,2.12s-1.72,1.86-2.65,2.91l-2.53,2.85a42,42,0,0,0,1.42-4.45,6.79,6.79,0,0,0,0-3.93c-.34-.89-1.21-2-3.48-2.32a7.29,7.29,0,0,0-1.12-.08,5.62,5.62,0,0,0-2,.35,4,4,0,0,0-2.28,2.47,1.68,1.68,0,0,0,.28,1.63,5.12,5.12,0,0,1-.18,1.57c0,.14-.08.29-.11.43a9.05,9.05,0,0,0-.47-1,8.58,8.58,0,0,0-3.08-3.35,14.11,14.11,0,0,0-4-1.7,21.09,21.09,0,0,0-4.26-.65c-.5,0-1,0-1.48,0a24.88,24.88,0,0,0-2.49.12,24.06,24.06,0,0,0-3.2.52,5.68,5.68,0,0,0-2.24.92,5.37,5.37,0,0,0-1.67,2.14,6.45,6.45,0,0,0-.32.83,3,3,0,0,0-1.32-3,4.83,4.83,0,0,0-2.26-.68,5.38,5.38,0,0,0-2.28-.55h-.62a27.14,27.14,0,0,0-3.57.29,1.73,1.73,0,0,0-1,.48,1.67,1.67,0,0,0-1.38-.72l-2.84,0c-.89,0-1.84,0-2.83,0H59.6c-1.58,0-3.12,0-4.57.1s-2.74.13-3.81.25l-.5,0a6,6,0,0,0-.92.08l-1,.17-.17,0-1,.26a1.67,1.67,0,0,0-1.26,1.43,12.81,12.81,0,0,1-.38,1.67l-.12.41a6.59,6.59,0,0,0-1-1.43,8.06,8.06,0,0,0-3.52-2.29,17.68,17.68,0,0,0-4.14-.86q-1.12-.09-2.28-.09c-.67,0-1.37,0-2.06.07-1.43.11-2.77.27-4,.48a31.78,31.78,0,0,0-3.19.72,7.4,7.4,0,0,0-2.06.83,4.67,4.67,0,0,0-1.59,1.9,6.22,6.22,0,0,0-.57,2.09,5.33,5.33,0,0,0,.19,2.05,2.68,2.68,0,0,0,1.61,1.86,1.51,1.51,0,0,0,.59.11H24c-.08.25-.46,1.47-.58,1.83a1.59,1.59,0,0,0-.52-.26,1.67,1.67,0,0,0-.49-.08,1.66,1.66,0,0,0-1.43.82,2.42,2.42,0,0,0-.21.39,1.53,1.53,0,0,0-.53.57,4.46,4.46,0,0,0-.51,1.44,5.08,5.08,0,0,0-.13.88,6.78,6.78,0,0,0,.46,3,5.72,5.72,0,0,0,.71,1.23c-.32.94-.63,1.84-.92,2.72-.39,1.17-.73,2.22-1,3.14,0,0-.55,1.73-.74,2.31a11.78,11.78,0,0,0-.39,1.34,1.67,1.67,0,0,0,.35,1.39,1.65,1.65,0,0,0,1.29.61,1.89,1.89,0,0,0,1.09-.35,1.65,1.65,0,0,0,1-.48l.25-.25a1.71,1.71,0,0,0,1-.81l0-.07.26-.31.11-.06.13,0a1.65,1.65,0,0,0,.8-.55l.51-.61.05-.05q.16-.21.33-.39c.14-.14.26-.27.35-.38s.29-.29.41-.41l.32-.34c.13-.13.26-.26.37-.39a1.36,1.36,0,0,0,.26-.41l.48-1.09.55-1.29c.07-.19.16-.39.25-.6l.72,0,.82-.05c.23.68.44,1.4.62,2.17a10.88,10.88,0,0,1,.19,3.68,1.65,1.65,0,0,0,.19,1l.2.39a1.68,1.68,0,0,0,1.48.88,1.66,1.66,0,0,0,.49-.07l.28-.07.29,0a2.17,2.17,0,0,0,.47-.1,2.25,2.25,0,0,0,.86-.45l.11-.1a1.59,1.59,0,0,0,1-.62,1.59,1.59,0,0,0,.67-.62c.16-.27.31-.56.45-.85a5.48,5.48,0,0,0,.39,1.74,2.3,2.3,0,0,0,2.12,1.56,2.34,2.34,0,0,0,.9-.19c2.23-.93,4.42-1.74,6.51-2.41s4-1.26,5.72-1.71,3-.79,4-1,1.43-.3,1.52-.31a1.58,1.58,0,0,0,.42-.09,3.81,3.81,0,0,0,1.41-.88l.16-.14a4.71,4.71,0,0,0,.62-.07c.84-.14,1.76-.28,2.75-.41s1.92-.19,2.88-.22h.62c.74,0,1.49,0,2.23.09a12.61,12.61,0,0,1,2.17.39,1.66,1.66,0,0,0,1.09.41h.18a1.75,1.75,0,0,0,.77-.28,6.94,6.94,0,0,0,.34,1.27,6.14,6.14,0,0,0,2.22,2.92c0,.09-.06.18-.08.26a6.48,6.48,0,0,0-.31,1.08,1.68,1.68,0,0,0,.37,1.36,1.7,1.7,0,0,0,1.28.59,1.73,1.73,0,0,0,1-.35,1.66,1.66,0,0,0,1.18-.65l.28-.35a1.76,1.76,0,0,0,1-.42h.34c.65,0,1.49,0,2.57-.16a24.44,24.44,0,0,0,3.54-.64,28.82,28.82,0,0,0,4-1.32,20.28,20.28,0,0,0,4.13-2.26,18.08,18.08,0,0,0,2.25-1.88c0,.25,0,.49,0,.72a6,6,0,0,0,.86,3.17,4.17,4.17,0,0,0,3.1,1.86h.06a10.94,10.94,0,0,0,1.12.06h.54a4.37,4.37,0,0,0,2-.58,5.59,5.59,0,0,0,1.15-1l0,.18a35.85,35.85,0,0,0-.88,5.31,22.49,22.49,0,0,0,.15,5.21s0,0,0,.07a2,2,0,0,0,2,1.62,2.53,2.53,0,0,0,.53-.06,5.37,5.37,0,0,0,1.43-.52,1.18,1.18,0,0,0,.19-.11,2.8,2.8,0,0,0,.38-.33,1.73,1.73,0,0,0,.92-1,5.31,5.31,0,0,0,.22-.8,11.85,11.85,0,0,1,.5-1.28l0-.07a1.71,1.71,0,0,0,.05-.18,1.13,1.13,0,0,0,.12-.21c.22-.47.44-1,.66-1.48,0,0,0-.09.05-.13a.63.63,0,0,1,0-.14,1.78,1.78,0,0,0,.33-.48l.35-.74c.1-.22.22-.45.35-.7a1.68,1.68,0,0,0,.16-.39,44.24,44.24,0,0,1,1.88-5.67c.79-2,1.63-3.88,2.5-5.69s1.78-3.57,2.68-5.18,1.75-3.09,2.49-4.32,1.34-2.22,1.82-3,.69-1.09.76-1.18a1.77,1.77,0,0,0,.21-.41c0-.11.1-.3.23-.81A4.6,4.6,0,0,0,126.39,153.9Zm-90.46,9.31a25.11,25.11,0,0,1-3.63,1.06l-.8.16c.15-.38.31-.75.46-1.12.5-1.24,1-2.5,1.49-3.77l.1-.28h.28a20.51,20.51,0,0,1,2.76.17,10.26,10.26,0,0,1,2.59.66,1.82,1.82,0,0,1,.8.55v0a2.93,2.93,0,0,1-1.17,1.12A15.35,15.35,0,0,1,35.93,163.21Zm3.78,9.17a2.42,2.42,0,0,0-.31.13,3.75,3.75,0,0,0-1.31.94,14.13,14.13,0,0,0,.06-2.75c.47-.21.92-.44,1.37-.69s.94-.56,1.39-.87l-.12.32C40.4,170.5,40,171.47,39.71,172.38Zm18-4.54c-.78.09-1.56.19-2.35.32-1.61.26-3.27.59-4.91,1l-1.07.26.26-.54.8-.19,1.48-.37,1.05-.25.33-.07a1.72,1.72,0,0,0,.38-.08l.61-.22c.27-.09.53-.2.79-.3L56,167a1.67,1.67,0,0,0,.56-.39l.09-.09,1-.24a1.66,1.66,0,0,0,1.1-.84l1-.5.13-.07C59.16,165.92,58.44,166.9,57.73,167.84Zm5-7a1.64,1.64,0,0,0-.28-.73,1.69,1.69,0,0,0-1.37-.71c-.52,0-1.17,0-1.94,0s-1.63.05-2.58.12l-2.69.2.12-.3,1.79-.27,4.38-.67.68-.1a1.5,1.5,0,0,0,.5-.11l.28-.09c.26-.08.53-.17.82-.29l.94-.35a1.76,1.76,0,0,0,.85-.74l.92-.4a2.26,2.26,0,0,0,.42-.26C64.6,157.79,63.65,159.36,62.69,160.81Zm19,.32c-.34,1.09-.7,2.21-1.09,3.37s-.78,2.35-1.18,3.55c-.19.6-.39,1.18-.58,1.74a3.66,3.66,0,0,1-.57-.44,1,1,0,0,1-.19-.24,1.84,1.84,0,0,0-.63-2.33c.14-1.8.3-3.44.49-4.89s.39-2.8.6-3.91c.08-.44.15-.84.22-1.21a6.69,6.69,0,0,0,.12,1.93,3,3,0,0,0,1.31,2A1.6,1.6,0,0,0,81,161a1.82,1.82,0,0,0,.46-.06l.26-.08ZM95.71,165a4.43,4.43,0,0,1-1.41,1.61,18.45,18.45,0,0,1-3.06,1.91,24.71,24.71,0,0,1-3.8,1.53l-.82.24v0c.45-1.11.93-2.29,1.42-3.54l1.5-3.79.9-2.3a11.67,11.67,0,0,1,2,.71,9,9,0,0,1,2.26,1.49,3.58,3.58,0,0,1,1,1.38A1,1,0,0,1,95.71,165Z"/><path class="cls-3" d="M44.11,162.43A10.28,10.28,0,0,1,42.74,165a11.78,11.78,0,0,1-1.84,2,12.4,12.4,0,0,1-2.19,1.52,18.42,18.42,0,0,1-2.39,1.12,11.87,11.87,0,0,1,0,4.25,11.54,11.54,0,0,1-1.45,4,12.29,12.29,0,0,0,.78-2.46,13.45,13.45,0,0,0,.24-1.93,8.49,8.49,0,0,0-.15-1.69c-.08.92-.19,1.81-.31,2.65S35.2,176,35,176.68a5.33,5.33,0,0,1-.68,1.71.13.13,0,0,1,0-.08.16.16,0,0,0,0-.08l-.05-.07a2.4,2.4,0,0,1-.41.38l-.33.29a.45.45,0,0,1-.25.13A.7.7,0,0,1,33,179l-.36.06a3.62,3.62,0,0,0-.47.12l-.21-.39a12.18,12.18,0,0,0-.22-4.25A22.61,22.61,0,0,0,30.58,171c-.73.1-1.39.16-2,.19s-1.11,0-1.52,0h-.23c-.26.59-.5,1.13-.7,1.61s-.38.91-.54,1.27-.33.77-.47,1.08l-.3.31-.32.34-.42.43-.36.38c-.14.15-.29.32-.43.5s-.36.42-.54.65l-.32.12a3.19,3.19,0,0,0-.6.38l-.14.18-.2.25a1.72,1.72,0,0,0-.24.34l-.3,0-.73.73-.12-.07a.46.46,0,0,0-.17-.08.92.92,0,0,0-.35.29c-.12.14-.21.21-.29.21,0-.15.15-.54.34-1.15l.75-2.31,1-3.14c.39-1.16.8-2.39,1.24-3.67a3.54,3.54,0,0,1-1.08-1.46,5.21,5.21,0,0,1-.33-2.27c0-.08,0-.29.11-.65a3,3,0,0,1,.31-.93c0,.26-.07.54-.09.83s0,.58,0,.85a4.74,4.74,0,0,0,.07.71.88.88,0,0,0,.17.42,7.63,7.63,0,0,1,0-2.09,4.72,4.72,0,0,1,.55-1.64c0,.64.56,1.25,1.77,1.81.41-1.28.81-2.53,1.18-3.73l1.06-3.39c-.78.11-1.62.26-2.51.47a1.14,1.14,0,0,1-.6-.79,3.6,3.6,0,0,1-.12-1.41,4.49,4.49,0,0,1,.42-1.54,2.93,2.93,0,0,1,1-1.22,6.63,6.63,0,0,1,1.58-.6,26.92,26.92,0,0,1,3-.67c1.18-.21,2.46-.36,3.84-.47a26.29,26.29,0,0,1,4.07,0,15.8,15.8,0,0,1,3.74.77,6.37,6.37,0,0,1,2.81,1.81,5.74,5.74,0,0,1,1.29,3.12A10.2,10.2,0,0,1,44.11,162.43Zm-2.61-1.08a1.7,1.7,0,0,0-.07-1.54,3.29,3.29,0,0,0-1.57-1.25,11.75,11.75,0,0,0-3-.79,25.24,25.24,0,0,0-4.5-.15,6.44,6.44,0,0,1-.19.64c-.08.21-.17.45-.26.71-.47,1.23-1,2.46-1.47,3.71s-1,2.47-1.52,3.67a18.22,18.22,0,0,0,3.77-.44,26.94,26.94,0,0,0,3.88-1.14,16.53,16.53,0,0,0,3.18-1.57A4.56,4.56,0,0,0,41.5,161.35Z"/><path class="cls-1" d="M56.26,182.18a2.72,2.72,0,0,1-1.87-.68,3.19,3.19,0,0,1-1-2.58A6.88,6.88,0,0,1,54,176.4,10.13,10.13,0,0,1,55.41,174a1.69,1.69,0,0,1,.58-.45,14.2,14.2,0,0,1,3.33-1,27.35,27.35,0,0,1,3.83-.43l1.57,0c.78,0,1.56,0,2.32.07a28.3,28.3,0,0,1,3.55.43,13.6,13.6,0,0,1,2.81.82,3.35,3.35,0,0,1,2,2.05h0a1.84,1.84,0,0,1,0,.41,1.64,1.64,0,0,1-.06,1.37v0a.25.25,0,0,1,0,.08,2.07,2.07,0,0,1-.37,1.31l-.16.26c-.1.17-.23.37-.36.57a.18.18,0,0,1-.05.07,6.14,6.14,0,0,0-.33.53,1.66,1.66,0,0,1-1.09.81,1.55,1.55,0,0,1-.37,0,1.72,1.72,0,0,1-.91-.26,17.55,17.55,0,0,0-2.32-.13h-.54c-1.33,0-2.71.1-4.12.24s-2.75.31-4.06.54a28.81,28.81,0,0,0-3.16.69A4.68,4.68,0,0,1,56.26,182.18Z"/><path class="cls-3" d="M73.64,175.77s0,0,.1,0a.05.05,0,0,0,.06,0s0,0,0,0c-.08-.33-.44-.64-1.08-.92a11.84,11.84,0,0,0-2.46-.71,25.25,25.25,0,0,0-3.33-.41c-1.23-.07-2.47-.09-3.72,0a25.58,25.58,0,0,0-3.59.41,12.44,12.44,0,0,0-2.92.9,8.09,8.09,0,0,0-1.21,2A5.35,5.35,0,0,0,55,179a1.59,1.59,0,0,0,.48,1.29c.32.3.86.33,1.61.1a31.06,31.06,0,0,1,3.35-.73c1.34-.23,2.73-.42,4.18-.56s2.86-.22,4.24-.25a21.53,21.53,0,0,1,3.53.19l.28.2a6.5,6.5,0,0,1,.44-.7c.12-.18.23-.35.32-.52l.23-.36a.34.34,0,0,0,.06-.27,1.58,1.58,0,0,0,0-.38l-.14-.47.38-.07Z"/><path class="cls-3" d="M100.34,156.87a7,7,0,0,0-2.49-2.71,12.49,12.49,0,0,0-3.51-1.5,19.86,19.86,0,0,0-3.92-.6,25,25,0,0,0-3.72.08,21.3,21.3,0,0,0-3,.48,4.61,4.61,0,0,0-1.63.62,3.71,3.71,0,0,0-1.16,1.5,6.4,6.4,0,0,0-.54,1.88,5,5,0,0,0,0,1.71,1.5,1.5,0,0,0,.55,1c.54-.15,1.07-.28,1.58-.38l1.56-.31c-.26.92-.56,1.93-.91,3s-.71,2.22-1.1,3.38-.78,2.36-1.18,3.56-.78,2.36-1.16,3.46a7.28,7.28,0,0,1-1.64-.67,5.29,5.29,0,0,1-1.13-.85,2.65,2.65,0,0,1-.62-.9,1.26,1.26,0,0,1,0-.85c.14-.36.17-.56.11-.59s-.15,0-.26,0a3.36,3.36,0,0,0-.48.5c-.06.16-.1.3-.15.45,0-.84.07-1.66.13-2.46q.21-2.76.51-5c.19-1.53.4-2.86.61-4s.39-2,.53-2.64c.19-.87,0-1.46-.48-1.78a3.35,3.35,0,0,0-1.9-.45,3.08,3.08,0,0,0-1.84-.54,21.81,21.81,0,0,0-3.87.27A80.16,80.16,0,0,1,63.92,162q-2.76,4.13-5.3,7.45c-.95.08-1.94.21-3,.37-1.58.26-3.18.58-4.79,1s-3.15.78-4.61,1.2c.26-.49.57-1.12,1-1.89s.81-1.67,1.28-2.69c.53-.1,1-.22,1.57-.35l1.46-.36,1.12-.27a3.28,3.28,0,0,1,.52-.1l.59-.21c.25-.09.5-.18.74-.29s.59-.22.9-.34l.43-.46,1.51-.35.11-.39,1.56-.81-.49,0,1.43-.66.49-.92.27-.31A1.75,1.75,0,0,0,61,161l-1.92,0c-.76,0-1.59.05-2.48.12l-2.75.21q-1.41.12-2.73.27c.22-.46.42-.93.62-1.39l.61-1.46a4.37,4.37,0,0,1,.18-.46c.07-.15.13-.31.19-.46l2.72-.4L58,157.1l1.87-.29.83-.11.42-.14a4.78,4.78,0,0,0,.68-.25c.3-.1.61-.21.94-.34l.21-.47,1.5-.65-.75,0a1.87,1.87,0,0,0,.48-.27l.37-.21.27-.17c.17-.13.34-.24.51-.35l.48-.27a2.3,2.3,0,0,1,.51-.23l.14-.38.13-.35a1.13,1.13,0,0,1,.13-.27c-.61,0-1.57,0-2.87,0s-2.7,0-4.22,0-3,.05-4.54.1-2.79.14-3.86.27a4,4,0,0,0-1.15,0l-1,.17q-.56.16-1,.27a14.69,14.69,0,0,1-.43,1.92c-.24.88-.55,1.9-.94,3.06s-.82,2.43-1.3,3.79-1,2.73-1.48,4.12-1,2.74-1.5,4.07-1,2.55-1.35,3.66a9,9,0,0,0-.94.34,2.31,2.31,0,0,0-1.24,1.37,5.7,5.7,0,0,0-.39,2,4,4,0,0,0,.28,1.67c.19.46.46.62.83.46Q43,178.08,46.19,177c2.17-.69,4.09-1.27,5.79-1.73s3.07-.81,4.12-1,1.64-.34,1.75-.34a2.16,2.16,0,0,0,.79-.5,5.75,5.75,0,0,1,.83-.63,2.64,2.64,0,0,0,.83,0c.88-.15,1.82-.29,2.83-.42s2-.2,3.05-.23a25.66,25.66,0,0,1,3,.1,13,13,0,0,1,2.85.55l.26.23c.16-.2.32-.41.5-.61s.27-.35.38-.52a2.27,2.27,0,0,1,.29-.37,1.41,1.41,0,0,0,.06.47.85.85,0,0,1,0,.23l.55-.35.28.19.32.27.16-.15a2.85,2.85,0,0,0,0,.29,6.31,6.31,0,0,0,.31,2.61,4.63,4.63,0,0,0,1.12,1.73,5.2,5.2,0,0,0,1.55,1c-.19.62-.36,1.14-.5,1.56a5.69,5.69,0,0,0-.25.83s.12-.08.28-.24l.24-.23.38.12.8-1,.68,0,.41-.5.53.06.52,0a23.17,23.17,0,0,0,2.4-.16,24.21,24.21,0,0,0,3.31-.59,27.78,27.78,0,0,0,3.78-1.25,19,19,0,0,0,3.8-2.08,17.81,17.81,0,0,0,3.33-3.08A14,14,0,0,0,100,167a16.93,16.93,0,0,0,1.27-5.91A9.16,9.16,0,0,0,100.34,156.87Zm-31.77,9.94a20.71,20.71,0,0,0-2.27-.27c.7-.79,1.39-1.6,2.06-2.42s1.35-1.68,2-2.58c0,.93,0,1.87.06,2.85s.07,2,.15,2.92A15.07,15.07,0,0,0,68.57,166.81Zm14.65,5.65h-.34L85,167.58l-.57,1.58c-.17.46-.37,1-.59,1.56S83.41,171.87,83.22,172.46Zm14-6.84a6.23,6.23,0,0,1-1.91,2.25A19.48,19.48,0,0,1,92,170a27.08,27.08,0,0,1-4.06,1.63,18.39,18.39,0,0,1-4,.83c.31-.8.7-1.75,1.15-2.85s.93-2.27,1.42-3.52L88,162.27c.51-1.28,1-2.48,1.41-3.61a13.9,13.9,0,0,1,3.74,1.13,10.74,10.74,0,0,1,2.68,1.77,5.25,5.25,0,0,1,1.43,2.06A2.76,2.76,0,0,1,97.25,165.62Z"/><path class="cls-3" d="M122.72,152.39a2.4,2.4,0,0,1,1.47.65,2,2,0,0,1,.53,1.08,2.77,2.77,0,0,1,0,1.08c-.08.33-.15.55-.18.65s-.32.5-.8,1.25-1.1,1.76-1.85,3-1.59,2.71-2.51,4.37-1.83,3.41-2.73,5.26-1.74,3.79-2.55,5.79a48.86,48.86,0,0,0-2,5.89c-.15.28-.29.55-.41.8l-.34.73s0-.17.12-.59l.3-1.41.45-2.07c-.26.92-.48,1.73-.65,2.42s-.33,1.17-.46,1.67-.2.77-.21.79c-.2.49-.41,1-.63,1.42a2.24,2.24,0,0,1,0-.28,1.08,1.08,0,0,0,0-.29s-.07.23-.15.54l-.16.54a10.53,10.53,0,0,0-.59,1.57c-.07.28-.12.48-.16.58s0,.06-.06,0a.8.8,0,0,0-.09-.14,1.13,1.13,0,0,1-.24.35,2.26,2.26,0,0,1-.3.31,3.68,3.68,0,0,1-1,.36c-.32.07-.5,0-.54-.25a20.12,20.12,0,0,1-.14-4.8,34.9,34.9,0,0,1,.84-5.06,52.4,52.4,0,0,1,1.54-5.12q.9-2.55,2-5c-.87,1.18-1.68,2.29-2.42,3.33s-1.44,2-2.05,2.77-1.15,1.47-1.6,2a4.92,4.92,0,0,1-1.06,1A2.65,2.65,0,0,1,103,178a8.19,8.19,0,0,1-1.39,0,2.58,2.58,0,0,1-1.93-1.1,4.29,4.29,0,0,1-.59-2.29,13.79,13.79,0,0,1,.37-3.13c.26-1.17.6-2.39,1-3.66s.86-2.55,1.33-3.84.9-2.52,1.3-3.67.7-2.2.93-3.14a6,6,0,0,0,.19-2.29,1.38,1.38,0,0,0-.18-.54,1,1,0,0,0-.17-.19,2.38,2.38,0,0,1,1.33-1.48,4.5,4.5,0,0,1,2.28-.17c1.17.15,1.88.57,2.14,1.25a5.3,5.3,0,0,1-.09,2.94,43.32,43.32,0,0,1-1.57,4.79c-.74,1.91-1.5,4.17-2.3,6.79.1,0,.4-.25.88-.73s1.1-1.15,1.83-2l2.44-2.73,2.7-3c.91-1,1.78-2,2.62-2.89s1.58-1.65,2.22-2.27a1.81,1.81,0,0,0,.15-.33l.16-.32a2.33,2.33,0,0,1,.88-1,4,4,0,0,1,1.16-.48,4.52,4.52,0,0,1,1.14-.12Z"/><path class="cls-1" d="M131.41,182.6h-.21a4,4,0,0,1-2.18-1.08,7.06,7.06,0,0,1-1.43-1.8,7.3,7.3,0,0,1-.82-2.31,5.19,5.19,0,0,1,.16-2.6,2.76,2.76,0,0,1,.41-.86,5.31,5.31,0,0,1,2.23-1.82c.74-.64,1.64-1.43,2.68-2.38s2.34-2.14,3.62-3.34,2.61-2.48,3.82-3.67l.56-.55c-.58.39-1.08.71-1.5,1a3.57,3.57,0,0,1-1.86.68,2.1,2.1,0,0,1-.51-.06,3.11,3.11,0,0,1-1.44-.91,5.47,5.47,0,0,1-.88-1.2,5.61,5.61,0,0,1-.58-1.52,3.5,3.5,0,0,1,.12-2,6.19,6.19,0,0,1,1.61-2.2,28,28,0,0,1,2.52-2.1c1-.71,2-1.41,3.07-2.09S143,150.47,144,150A24.36,24.36,0,0,1,147,148.7a6.36,6.36,0,0,1,2-.37,4,4,0,0,1,.78.08,6.75,6.75,0,0,1,2.38,1.16,6.52,6.52,0,0,1,1.86,2.22,7.37,7.37,0,0,1,.78,3.08,9.49,9.49,0,0,1-.7,3.74,12.13,12.13,0,0,1-2,3.09c-.92,1.13-2,2.39-3.34,3.73s-2.71,2.73-4.21,4.11c-.44.41-.88.8-1.31,1.19.35.06.66.12.94.19a8.55,8.55,0,0,1,3,1.38,7.23,7.23,0,0,1,1.9,2.06,6.89,6.89,0,0,1,.88,2.31,8.15,8.15,0,0,1,.13,2,4.65,4.65,0,0,1-.38,1.62,1.9,1.9,0,0,1-1.76,1.22,1.83,1.83,0,0,1-1.21-.46,9,9,0,0,1-.66-.68,1.92,1.92,0,0,0-.54-.34,6.15,6.15,0,0,0-1.46-.42,6.85,6.85,0,0,0-1.09-.08c-.41,0-.87,0-1.37.08a25.81,25.81,0,0,0-3.95.83,47.68,47.68,0,0,0-5.58,2.05A1.69,1.69,0,0,1,131.41,182.6Z"/><path class="cls-1" d="M232,151.54a1.68,1.68,0,0,0-1.48-.9l-2.84,0c-.9,0-1.84,0-2.84,0H223.4c-1.59,0-3.13,0-4.58.1s-2.74.13-3.81.25l-.49,0a5.82,5.82,0,0,0-.92.08l-.33,0,0-.1a.29.29,0,0,1,0-.09,2.5,2.5,0,0,0,.09-1,1.94,1.94,0,0,0,0-.2,1.69,1.69,0,0,0-.81-1l-.06-.09a1.72,1.72,0,0,0-1.38-.68,1.9,1.9,0,0,0-.7.14,1.59,1.59,0,0,0-.57.38c-1.47,1.5-2.94,3-4.35,4.55s-2.82,3.1-4.27,4.8-2.84,3.4-4.26,5.19l-.44.56.25-2.36c.12-1.05.24-2.07.37-3.05a11.75,11.75,0,0,0,0-3.45,6.06,6.06,0,0,0-1-2.56,4.29,4.29,0,0,0-2-1.49,6.08,6.08,0,0,0-2.07-.35h0a10.16,10.16,0,0,0-3.5.79l-.05,0a5.61,5.61,0,0,0-2.8-.74,5.78,5.78,0,0,0-.71.05,9.46,9.46,0,0,0-1.29.22,2.74,2.74,0,0,0-1.3.67,2.19,2.19,0,0,0-.73,1.29c-.09.51-.28,1.26-.55,2.24s-.64,2.19-1.09,3.55-.91,2.78-1.44,4.32L177,167.2c-.5,1.48-1,3-1.54,4.45-.14.38-.26.74-.39,1.09l-.26-.16a9.44,9.44,0,0,0-2.38-.81,19.76,19.76,0,0,0-2.91-.36l-.45,0c0-.07,1.77-3.84,1.77-3.84l1.94-4.28c.68-1.51,1.36-3.08,2-4.65a10,10,0,0,0,1.07-4.86,4.14,4.14,0,0,0-1.63-3,4.58,4.58,0,0,0-2.67-.81h-.19a12.24,12.24,0,0,0-2.1.23,2.86,2.86,0,0,0-1.35.73,2.3,2.3,0,0,0-.69,1.29,18.74,18.74,0,0,1-.54,2c-.31,1-.66,2.09-1.05,3.26s-.83,2.44-1.35,3.91l-1.53,4.26c-.52,1.43-1,2.83-1.55,4.21L160.05,173a1.68,1.68,0,0,0-.51.41,9.43,9.43,0,0,0-1.45,2.4,7,7,0,0,0-.6,2.51,3.24,3.24,0,0,0,1,2.57,2.77,2.77,0,0,0,1.92.69,4.72,4.72,0,0,0,1.27-.19q1.29-.37,2.82-.75c1-.24,2-.44,3-.61s2-.25,3-.3c.24,0,.48,0,.71,0a12.17,12.17,0,0,1,1.49.09c0,.13-.08.25-.1.34a1.68,1.68,0,0,0,.31,1.44,1.65,1.65,0,0,0,1.32.65,2.3,2.3,0,0,0,1.36-.52,3.34,3.34,0,0,0,.45-.38,1.61,1.61,0,0,0,.24-.28l.08-.12a1.51,1.51,0,0,0,.54-.33l.8-.72,1.13-.55a1.65,1.65,0,0,0,.64-.53l.65-.92a7.9,7.9,0,0,0,1.72-1.52c.79-1.75,1.63-3.67,2.49-5.67.75-1.72,1.57-3.61,2.43-5.61l.15-.36,0,.46c-.08,1.34-.18,2.67-.3,4s-.23,2.49-.34,3.58c0,0-.22,2.09-.29,2.8s-.14,1.32-.17,1.62a1,1,0,0,0,0,.3,1.86,1.86,0,0,0,1.56,1.76,3.23,3.23,0,0,0,1.91,1.32,7.1,7.1,0,0,0,1.94.22,26,26,0,0,0,3.9-.37,1.64,1.64,0,0,0,1.23-.9,88.65,88.65,0,0,1,4.47-7.75c1.63-2.53,3.25-4.88,4.8-7,.49-.67,1-1.3,1.42-1.91-.31.86-.61,1.72-.93,2.59-.5,1.38-1,2.74-1.5,4.07-.39,1-.75,2-1.08,2.92a3.24,3.24,0,0,0-.31.13,4,4,0,0,0-2.13,2.3,7.35,7.35,0,0,0-.5,2.54,6,6,0,0,0,.4,2.33,2.31,2.31,0,0,0,2.13,1.56,2.38,2.38,0,0,0,.9-.19c2.22-.93,4.41-1.74,6.51-2.41s4.05-1.26,5.71-1.71,3-.79,4-1,1.44-.3,1.52-.31a1.58,1.58,0,0,0,.42-.09,3.81,3.81,0,0,0,1.41-.88,4,4,0,0,1,.73-.52l.49-.28a4.64,4.64,0,0,1,.51-.21l.07,0,.59-.23a1.68,1.68,0,0,0,1-1,1.65,1.65,0,0,0,.44-.39l.25-.32.28-.22c.18-.14.35-.27.51-.41a2.42,2.42,0,0,0,.66-.94,1.69,1.69,0,0,0-.12-1.39,1.64,1.64,0,0,0-1.13-.82,15.3,15.3,0,0,0-3-.27l-1.05,0a38.77,38.77,0,0,0-4.67.5c-1.63.26-3.28.59-4.92,1l-1.07.26c.09-.17.17-.35.26-.54l.8-.19,1.48-.37,1.06-.25.32-.07a1.38,1.38,0,0,0,.39-.09l.61-.21c.26-.09.53-.2.78-.31s.65-.24,1-.36a1.82,1.82,0,0,0,.56-.39l.09-.09,1-.24a1.7,1.7,0,0,0,1.11-.84l.95-.5a1.65,1.65,0,0,0,.61-.53l.26-.12a1.65,1.65,0,0,0,.78-.74l.41-.76.14-.16a3.12,3.12,0,0,0,.64-1,1.67,1.67,0,0,0-.2-1.53,1.65,1.65,0,0,0-1.37-.71c-.52,0-1.17,0-1.94,0s-1.62.05-2.58.12l-2.69.2c0-.08.12-.29.13-.3l1.78-.27,4.38-.67.68-.1a1.45,1.45,0,0,0,.5-.11l.28-.09a8.12,8.12,0,0,0,.82-.29c.3-.11.62-.22.95-.36a1.63,1.63,0,0,0,.84-.73l.92-.4a1.66,1.66,0,0,0,.94-1l.16-.1a2.79,2.79,0,0,1,.33-.19l.15-.08.09-.05a1.65,1.65,0,0,0,1.11-1l.25-.68A1.67,1.67,0,0,0,232,151.54Z"/><path class="cls-3" d="M143.73,172.54a7,7,0,0,1,2.43,1.1,5.51,5.51,0,0,1,1.46,1.57,5.45,5.45,0,0,1,.67,1.76,6.17,6.17,0,0,1,.11,1.55,3,3,0,0,1-.23,1c-.11.24-.23.32-.34.21a6.69,6.69,0,0,1-.52-.53,3.31,3.31,0,0,0-1.06-.74,7.54,7.54,0,0,0-1.89-.55,10.52,10.52,0,0,0-2.94,0,27.09,27.09,0,0,0-4.22.88,47.07,47.07,0,0,0-5.79,2.12,2.35,2.35,0,0,1-1.26-.66,5.4,5.4,0,0,1-1.1-1.38,5.86,5.86,0,0,1-.63-1.79,3.48,3.48,0,0,1,.14-1.87.8.8,0,0,1,.16-.34,3.88,3.88,0,0,1,1.76-1.35c.78-.66,1.75-1.52,2.89-2.56s2.37-2.15,3.65-3.36,2.57-2.44,3.84-3.69,2.45-2.44,3.5-3.54,1.94-2.06,2.65-2.88a7.43,7.43,0,0,0,1.26-1.77,2.53,2.53,0,0,0-1.47.32,21.16,21.16,0,0,0-2.15,1.18c-.8.48-1.62,1-2.48,1.61s-1.65,1.14-2.4,1.64-1.38.91-1.92,1.25-.87.47-1,.42a1.41,1.41,0,0,1-.67-.44,4.53,4.53,0,0,1-.63-.87,3.87,3.87,0,0,1-.4-1.06,1.86,1.86,0,0,1,.06-1,4.81,4.81,0,0,1,1.2-1.56,23.15,23.15,0,0,1,2.35-2c.91-.68,1.9-1.36,3-2s2.1-1.25,3.1-1.75a21.74,21.74,0,0,1,2.71-1.16,3.59,3.59,0,0,1,1.84-.25,5.08,5.08,0,0,1,1.76.87,4.66,4.66,0,0,1,1.38,1.65,5.58,5.58,0,0,1,.59,2.39,7.57,7.57,0,0,1-.59,3.06,10.33,10.33,0,0,1-1.71,2.63c-.9,1.12-2,2.33-3.24,3.63s-2.64,2.66-4.15,4-3,2.67-4.43,3.85c1,0,1.92,0,2.77.09A13.42,13.42,0,0,1,143.73,172.54Z"/><path class="cls-3" d="M174.75,176.16c0,.13.06.25.08.36a.28.28,0,0,1,0,.25,2.22,2.22,0,0,0-.28.39q-.15.27-.33.54a6,6,0,0,0-.42.65l-.3-.15a14.4,14.4,0,0,0-3-.16,28.64,28.64,0,0,0-3.17.33c-1.06.17-2.11.38-3.14.63s-2,.52-2.87.77a1.69,1.69,0,0,1-1.61-.13,1.61,1.61,0,0,1-.47-1.29,5.34,5.34,0,0,1,.46-1.9,8.06,8.06,0,0,1,1.2-2l.55-.23c.43-1.18.9-2.47,1.42-3.85l1.56-4.23c.52-1.44,1-2.86,1.53-4.27s1-2.73,1.36-3.94.76-2.32,1.06-3.29a19.3,19.3,0,0,0,.6-2.27q0-.12.21-.33a1.21,1.21,0,0,1,.55-.29,11.15,11.15,0,0,1,1.78-.19,3,3,0,0,1,1.84.5,2.56,2.56,0,0,1,.93,1.89,8.84,8.84,0,0,1-1,4c-.64,1.56-1.31,3.1-2,4.61s-1.32,2.94-1.93,4.27-1.17,2.54-1.67,3.62-.9,2-1.23,2.65a23.38,23.38,0,0,1,3,0,16.51,16.51,0,0,1,2.65.33,7.57,7.57,0,0,1,1.94.65,1.55,1.55,0,0,1,.87.94c0,.05,0,.05-.08,0l-.1,0,.26.65-.37.08Z"/><path class="cls-3" d="M211.65,152.41c.07-.17.12-.27.14-.33a.75.75,0,0,0-.18-.58.83.83,0,0,0-.21-.15,5.52,5.52,0,0,0,.16-.54,3.53,3.53,0,0,1,.08-.4.8.8,0,0,0,.05-.29q0-.12-.27,0c-.15.08-.25.09-.28,0a.52.52,0,0,1,0-.44c0-.17,0-.23-.11-.18-1.46,1.49-2.91,3-4.32,4.52s-2.82,3.11-4.23,4.75-2.81,3.36-4.21,5.14-2.84,3.66-4.3,5.63c.17-.82.32-1.7.44-2.65s.25-1.92.35-2.93.22-2,.34-3.07.23-2.08.37-3.08a10.58,10.58,0,0,0,0-3,4.27,4.27,0,0,0-.7-1.83,2.68,2.68,0,0,0-1.21-.92,4.19,4.19,0,0,0-1.46-.25,9.82,9.82,0,0,0-3.88,1.08,1.58,1.58,0,0,0-.56-.56,3.42,3.42,0,0,0-1.19-.44,4.16,4.16,0,0,0-1.27,0,8.45,8.45,0,0,0-1.11.19,1.15,1.15,0,0,0-.54.27.57.57,0,0,0-.21.31c-.1.56-.3,1.38-.6,2.44s-.66,2.27-1.1,3.62-.92,2.79-1.45,4.34-1.05,3.1-1.57,4.64-1,3-1.55,4.48-1,2.75-1.37,3.92-.73,2.14-1,2.92-.41,1.28-.46,1.48a.78.78,0,0,0,.37-.19,2.3,2.3,0,0,0,.28-.23l.69-1,.21.27,1-.89,1.36-.65,1-1.42.51-.12.54-1,.14.35c.81-1.8,1.64-3.68,2.48-5.66.75-1.69,1.55-3.55,2.42-5.59s1.71-4.06,2.52-6.06a12.83,12.83,0,0,0,.82-3,.13.13,0,0,0,0-.06,21.53,21.53,0,0,1,.19,2.33c0,1.1,0,2.31,0,3.61s-.1,2.64-.19,4-.18,2.69-.3,4-.23,2.51-.35,3.6-.21,2-.29,2.81-.14,1.32-.17,1.63.12.25.33.21a3.37,3.37,0,0,0,.83-.32,1.3,1.3,0,0,0,1.09,1.69,14.66,14.66,0,0,0,5.13-.19,84.54,84.54,0,0,1,4.55-7.91c1.67-2.58,3.29-4.93,4.86-7.07s3-4,4.19-5.52,2-2.6,2.48-3.2a4.73,4.73,0,0,0,.36-.71,3.73,3.73,0,0,0,.23-.78c0-.11,0-.11-.23,0a1.39,1.39,0,0,0-.32.23,6.86,6.86,0,0,1,.4-.77C211.47,152.76,211.57,152.58,211.65,152.41Z"/><path class="cls-3" d="M210.05,172c1.46-.42,3-.81,4.6-1.2s3.22-.7,4.8-1a42.05,42.05,0,0,1,4.48-.48,15.8,15.8,0,0,1,3.65.21.76.76,0,0,1-.21.27,3.93,3.93,0,0,1-.38.31c-.14.1-.31.23-.49.38l-.36.47-1.71.69,1,.11-.71.27c-.21.08-.43.18-.66.29a6.75,6.75,0,0,0-.66.37,5.53,5.53,0,0,0-1,.73,2.19,2.19,0,0,1-.8.5c-.1,0-.68.11-1.74.34s-2.44.58-4.13,1-3.62,1-5.78,1.73-4.38,1.51-6.65,2.46c-.36.16-.64,0-.83-.46a4.21,4.21,0,0,1-.27-1.67,5.46,5.46,0,0,1,.38-2,2.33,2.33,0,0,1,1.25-1.37,8.65,8.65,0,0,1,.93-.34c.4-1.11.85-2.32,1.35-3.66s1-2.69,1.5-4.07,1-2.76,1.48-4.12.92-2.62,1.3-3.79.7-2.18.94-3.06a13.17,13.17,0,0,0,.43-1.92c.32-.07.66-.16,1-.27l1-.17a4,4,0,0,1,1.14,0q1.61-.19,3.87-.27c1.5,0,3-.08,4.53-.1s2.93,0,4.23,0,2.25,0,2.87,0a1.15,1.15,0,0,0-.14.27l-.13.35-.14.38a2,2,0,0,0-.5.23l-.48.27-.52.35-.27.17-.36.21a1.93,1.93,0,0,1-.49.27l.76,0-1.51.65-.21.47-.93.34a4.47,4.47,0,0,1-.69.25l-.41.14-.83.11-1.88.29-2.5.39-2.73.4a4.37,4.37,0,0,1-.18.46c-.07.15-.13.31-.19.46-.21.52-.42,1-.61,1.46s-.4.93-.62,1.39c.89-.1,1.8-.19,2.74-.27l2.74-.21q1.35-.1,2.49-.12l1.91,0a1.75,1.75,0,0,1-.34.5l-.26.31-.49.92-1.43.66.48,0-1.56.81-.1.39-1.51.35-.44.46c-.3.12-.6.24-.89.34s-.49.2-.74.29l-.6.21a3.76,3.76,0,0,0-.52.1q-.44.09-1.11.27l-1.46.36c-.52.13-1.05.25-1.57.35-.48,1-.91,1.92-1.29,2.69S210.3,171.48,210.05,172Z"/><path class="cls-1" d="M90.44,213.17a7.55,7.55,0,0,1-4-1A5.66,5.66,0,0,1,83.63,207a13.64,13.64,0,0,1,2.2-6.39,25.54,25.54,0,0,1,5.41-6.24,1.91,1.91,0,0,1,.56-.31,70.65,70.65,0,0,1,12.54-2.7c4.79-.63,9.9-1,15.18-1.19,2.1,0,4.22-.08,6.3-.08,3.13,0,6.28.06,9.37.2,5.2.23,9.94.63,14.1,1.19a68.36,68.36,0,0,1,10.52,2.12c3.2,1,4.93,2.08,5.56,3.53a1.7,1.7,0,0,1,.15,1.25l.25.38a1.67,1.67,0,0,1-.65,2.42,5.88,5.88,0,0,1,.17,1.09,2.52,2.52,0,0,1-.78,2.1c-.15.15-.4.43-.84.93s-.89,1-1.4,1.57l-.07.06a19.28,19.28,0,0,0-1.7,1.86,1.69,1.69,0,0,1-1.31.62,1.62,1.62,0,0,1-.73-.17l-.89-.43a113,113,0,0,0-11.86-.54l-2.4,0c-5.69.07-11.63.31-17.66.72s-11.8.95-17.41,1.62S98,212,94.39,212.69A19.66,19.66,0,0,1,90.44,213.17Z"/><path class="cls-3" d="M125.31,208c.27-.4.51-.79.73-1.17l.37-.6"/><path class="cls-3" d="M162.81,199.86l1.56-.22-1.25-1.9a.59.59,0,0,0,.42.11.33.33,0,0,0,.26.11c.11,0,.13,0,.06-.11-.35-1-1.86-1.86-4.54-2.69a67.72,67.72,0,0,0-10.26-2.06q-6.24-.84-13.94-1.18t-15.55-.11a147.17,147.17,0,0,0-15,1.17,69.07,69.07,0,0,0-12.24,2.63,23.52,23.52,0,0,0-5,5.82,12,12,0,0,0-2,5.59,4,4,0,0,0,2,3.75q2.05,1.29,6.77.28c3.71-.75,8.38-1.45,14-2.13s11.44-1.21,17.5-1.62,12-.66,17.75-.73a123.27,123.27,0,0,1,14.75.56l1.15.57a21.61,21.61,0,0,1,1.86-2c.49-.52.94-1,1.35-1.51s.74-.84,1-1.06a.88.88,0,0,0,.25-.79,4,4,0,0,0-.22-1.11ZM117.14,203a5.77,5.77,0,0,1-.27.56c-.11.19-.2.34-.29.47l-.14.22a.37.37,0,0,1-.18.2,1.26,1.26,0,0,1-.33.14,2.44,2.44,0,0,1-.39.06.76.76,0,0,1-.38-.06,3,3,0,0,1-.19-.73,4.76,4.76,0,0,1-.06-.72,2.49,2.49,0,0,1,.06-.59.63.63,0,0,1,.17-.34,2,2,0,0,1,.52-.28,1.67,1.67,0,0,1,.62-.12,1,1,0,0,1,1,.67A1.5,1.5,0,0,1,117.14,203Zm1.78-7.3a4,4,0,0,1-.49.55,5.3,5.3,0,0,1-.71.55,4.18,4.18,0,0,1-1,.45l-1.1.14-1,.14c-.23.74-.47,1.48-.73,2.22s-.49,1.43-.7,2-.5,1.4-.74,2.06l-.48.75h-.11l-.35.55a.08.08,0,0,0,0,0s-.08,0-.14.08l-.12.18s0,.09-.08.14h-.11l-.25.32c0-.12,0-.24,0-.35a2,2,0,0,1-.13.25.85.85,0,0,1-.1.19c0,.06-.05.09-.07.09s0-.26.1-.55.13-.65.23-1.08.2-.92.33-1.47l.38-1.68c.14-.57.27-1.15.41-1.73s.26-1.12.37-1.63l-1.6.27-.77.14a.6.6,0,0,1-.49-.1.69.69,0,0,1-.22-.4h0a7.29,7.29,0,0,0-.93.22c-.5.14-1,.29-1.39.45s-.77.3-1,.43a1.36,1.36,0,0,0-.43.23s.1.1.35.14.56.1.93.19a8.94,8.94,0,0,1,1.17.35,4,4,0,0,1,1.09.63,2.23,2.23,0,0,1,.68,1,2.37,2.37,0,0,1,0,1.42,5.94,5.94,0,0,1-.77,1.7,4.93,4.93,0,0,1-1.08,1.14,5,5,0,0,1-1.29.68,8.44,8.44,0,0,1-1.42.36,2.13,2.13,0,0,1-1.25-.12,2.07,2.07,0,0,1-.84-.67,2.51,2.51,0,0,1-.44-.95,2.13,2.13,0,0,1,0-1c.07-.29.14-.55.22-.78a6.33,6.33,0,0,1,.21-.62,5.48,5.48,0,0,1,.23-.54c0,.12-.07.25-.11.4l-.11.47c0,.17-.07.37-.1.58,0-.17.08-.36.13-.55l.16-.54c.06-.18.12-.36.19-.54a4.12,4.12,0,0,1,.28-.31.94.94,0,0,0,0,.16,3,3,0,0,0-.06,1.74,1.32,1.32,0,0,0,.75.78,2.42,2.42,0,0,0,1.19.1,6.28,6.28,0,0,0,1.29-.34,5.44,5.44,0,0,0,1.08-.51c.3-.19.47-.35.5-.47a.35.35,0,0,0-.14-.4,2.08,2.08,0,0,0-.6-.3,7.13,7.13,0,0,0-.9-.25l-1-.23-1-.29a3.69,3.69,0,0,1-.87-.4,1.63,1.63,0,0,1-.53-.58,1.15,1.15,0,0,1-.06-.83c.08-.31.16-.56.22-.73a3.75,3.75,0,0,1,.15-.38c0-.1.09-.15.11-.15a1.49,1.49,0,0,1,.55-.77,6.08,6.08,0,0,1,1.08-.68,11,11,0,0,1,1.34-.55q.72-.25,1.35-.42l1.11-.26.59-.11a1.12,1.12,0,0,1,.26.22l.1,0c.39-.09.82-.18,1.28-.25s.94-.13,1.45-.19l.2-.13.35-.11a3,3,0,0,1,.43-.06,1.49,1.49,0,0,1,.42,0,1,1,0,0,1,.37.14c.75,0,1.51-.06,2.28-.07h2.36A3.4,3.4,0,0,1,118.92,195.67Zm8.09.15a5.4,5.4,0,0,1,.7-.68,2.73,2.73,0,0,1,.37-.28,1,1,0,0,1,.52-.05,1.19,1.19,0,0,1,.41.18,1,1,0,0,1,.26.29.51.51,0,0,1,.07.26c.08,0,.11,0,.09-.07l0,0s0,0,0-.06a.36.36,0,0,1,.07-.09.41.41,0,0,1,.19-.1,1.57,1.57,0,0,1,.82,0,1.64,1.64,0,0,1,.85.4,1.72,1.72,0,0,1,.48.95,2,2,0,0,1,0,.65,3.18,3.18,0,0,1,.16-.32,9.91,9.91,0,0,1,.57-1,4.84,4.84,0,0,1,.48-.62.94.94,0,0,1,.29-.25,1.06,1.06,0,0,1,.56,0,1.7,1.7,0,0,1,.51.21,1,1,0,0,1,.33.29c.08.11.09.2,0,.27a12.39,12.39,0,0,0-1.37,2.29,4.42,4.42,0,0,0-.38,1.34.87.87,0,0,0,.15.64c.1.1.18.16.22.16a1.08,1.08,0,0,0,.37-.08,2.74,2.74,0,0,0,.61-.36,4.65,4.65,0,0,0,.69-.66,4,4,0,0,0,.62-1,9.58,9.58,0,0,0,.45-1.19,7,7,0,0,0,.18-.76,1.43,1.43,0,0,0,0-.51h-.06l.09,0c.05,0,.07,0,.07-.06a.09.09,0,0,0,0,0s0,0,0-.05a.36.36,0,0,1,.07-.09.46.46,0,0,1,.2-.1,1,1,0,0,1,.65,0,.81.81,0,0,1,.47.49,2.13,2.13,0,0,1,.09,1,5.11,5.11,0,0,1-.49,1.51,8.94,8.94,0,0,1-.87,1.43,6.38,6.38,0,0,1-1.09,1.16,4.71,4.71,0,0,1-1.22.77,2.84,2.84,0,0,1-1.25.24,1.73,1.73,0,0,1-1.11-.4,2,2,0,0,1-.57-.91,3.59,3.59,0,0,1,0-1.72c-.14.25-.29.5-.45.74a7.23,7.23,0,0,1-1.05,1.2,5.07,5.07,0,0,1-1.2.81,2.69,2.69,0,0,1-1.25.29,1.5,1.5,0,0,1-1.11-.4,2.24,2.24,0,0,1-.58-1,3.31,3.31,0,0,1-.17-1.18,3.26,3.26,0,0,1,.19-1.09,5.79,5.79,0,0,1,.67-1.34A8,8,0,0,1,127,195.82Zm7.47,8.38-.1-.07a6.53,6.53,0,0,0-1.1-.09,10.92,10.92,0,0,0-1.14.08,10.24,10.24,0,0,0-1.13.19c-.36.08-.71.17-1,.26a.61.61,0,0,1-.57,0,.56.56,0,0,1-.16-.45,1.32,1.32,0,0,1,.05-.33h0a1.88,1.88,0,0,0-.16.23l-.11,0a3,3,0,0,0-1-.15,11.93,11.93,0,0,0-1.39.11,15.3,15.3,0,0,0-1.55.27c-.53.11-1,.23-1.51.36s-.9.24-1.29.36l-.91.3a.6.6,0,0,1-.58,0,.59.59,0,0,1-.19-.45,1.79,1.79,0,0,1,.13-.71,2.74,2.74,0,0,1,.41-.75l.2-.1c.14-.43.29-.92.47-1.45s.35-1.07.54-1.62.37-1.11.55-1.65.34-1.06.5-1.54.28-.9.39-1.27a6.86,6.86,0,0,0,.22-.87s0-.06.09-.12a.51.51,0,0,1,.22-.11l.43-.07a2.18,2.18,0,0,1,.51,0,1.23,1.23,0,0,1,.48.15.71.71,0,0,1,.32.38,1.51,1.51,0,0,1,0,.69,4.44,4.44,0,0,1-.32,1.08c-.25.58-.51,1.16-.77,1.75l-.74,1.69c-.23.54-.45,1-.63,1.46l-.45,1c.62-.1,1.24-.18,1.87-.25s1.24-.12,1.81-.13a9.64,9.64,0,0,1,1.57.1,3.11,3.11,0,0,1,1.15.37h-.07a2.44,2.44,0,0,0,.1.24l-.13,0s0,.11.05.17a0,0,0,0,1,0,0,2.67,2.67,0,0,1,.36-.54,4.51,4.51,0,0,1,1-.31,6.75,6.75,0,0,1,1.09-.13,7.73,7.73,0,0,1,1.08,0,5.86,5.86,0,0,1,.95.16,2.33,2.33,0,0,1,.67.27.51.51,0,0,1,.29.34h0l0,0a2.29,2.29,0,0,1,.1.23l-.13,0a.75.75,0,0,0,0,.16.66.66,0,0,1,0,.14.22.22,0,0,1,0,.1,2.87,2.87,0,0,0-.24.31Zm2.61-.83c-.07.12-.15.23-.22.34l-.19,0c-.13.17-.27.33-.41.5l-.51.21-.37.3-.08-.1L135,205l-.1.08-.14.06c0-.07.08-.25.19-.53l.42-1c.17-.42.36-.89.58-1.4s.45-1.06.68-1.6l.7-1.66c.24-.55.46-1.07.66-1.55s.38-.91.52-1.29.24-.67.3-.87c0,0,0-.06.09-.11a.48.48,0,0,1,.22-.08l.44,0a2.07,2.07,0,0,1,.5.06,1.51,1.51,0,0,1,.45.2.69.69,0,0,1,.29.41,1.53,1.53,0,0,1,0,.7,4.37,4.37,0,0,1-.41,1.05c-.37.71-.75,1.41-1.14,2.13s-.74,1.38-1.07,2-.72,1.37-1.06,2Zm10.54-6.46a2.09,2.09,0,0,1-.7.78,10.94,10.94,0,0,0-1.44-.06c-.53,0-1,0-1.46.09s-.82.1-1.12.15a1.91,1.91,0,0,0-.48.12s.07.12.3.22l.86.42a8.49,8.49,0,0,1,1,.63,4,4,0,0,1,.9.88,2.22,2.22,0,0,1,.42,1.12,2.28,2.28,0,0,1-.38,1.36,5.57,5.57,0,0,1-1.18,1.46,4.84,4.84,0,0,1-1.32.83,5,5,0,0,1-1.42.34,10.16,10.16,0,0,1-1.46,0,2.12,2.12,0,0,1-1.18-.43,2.07,2.07,0,0,1-.65-.86,2.42,2.42,0,0,1-.19-1,2.1,2.1,0,0,1,.23-.94c.14-.26.27-.5.4-.71s.25-.39.36-.54.24-.33.36-.47c-.07.11-.13.23-.21.37s-.14.25-.22.42-.16.34-.24.54a4.27,4.27,0,0,1,.27-.51c.1-.17.19-.33.28-.47l.32-.49.35-.22s0,.11,0,.17a2.87,2.87,0,0,0-.48,1.66,1.31,1.31,0,0,0,.52,1,2.37,2.37,0,0,0,1.13.39,7.5,7.5,0,0,0,1.34,0,5.39,5.39,0,0,0,1.17-.23,1.18,1.18,0,0,0,.6-.32.36.36,0,0,0,0-.43,2.26,2.26,0,0,0-.5-.44,6,6,0,0,0-.81-.46c-.31-.16-.63-.32-1-.5s-.63-.35-.93-.53a3.57,3.57,0,0,1-.74-.6,1.67,1.67,0,0,1-.38-.7,1.19,1.19,0,0,1,.16-.82c.15-.28.29-.5.39-.65l.24-.34c.07-.07.12-.11.15-.11a1.49,1.49,0,0,1,.72-.61,5.55,5.55,0,0,1,1.21-.38,10.85,10.85,0,0,1,1.44-.21c.5,0,1-.06,1.41-.06s.82,0,1.14,0,.52,0,.6,0a.88.88,0,0,1,.29.55A1.1,1.1,0,0,1,147.63,196.91Z"/><path class="cls-3" d="M127.73,199.78a.31.31,0,0,0,.2.11.65.65,0,0,0,.33-.12,3.18,3.18,0,0,0,.52-.42,6,6,0,0,0,.59-.72,6.15,6.15,0,0,0,.55-1.06,2.54,2.54,0,0,0,.25-1.17,1.08,1.08,0,0,0-.24-.59.88.88,0,0,0-.59-.23.54.54,0,0,1-.1.18.27.27,0,0,1-.18.12,4.16,4.16,0,0,0-.31.3,3.61,3.61,0,0,0-.36.4,6.08,6.08,0,0,0-.36.53,4,4,0,0,0-.32.66,3.31,3.31,0,0,0-.24,1,1.77,1.77,0,0,0,.06.65A1,1,0,0,0,127.73,199.78Z"/><path class="cls-2" d="M165.94,200.23a.31.31,0,0,0,.19.06c.11,0,.13,0,.06-.11a1.59,1.59,0,0,0-.16-.32A2.22,2.22,0,0,1,165.94,200.23Z"/><path class="cls-2" d="M165.77,200.56a1.65,1.65,0,0,1-.65.58,6.12,6.12,0,0,1,.16,1l1.42-.2Z"/><path class="cls-2" d="M158.46,209.2l-.89-.43a113,113,0,0,0-11.86-.54l-2.4,0c-5.69.07-11.63.31-17.66.72s-11.8.95-17.41,1.62S98,212,94.39,212.69a19.66,19.66,0,0,1-4,.48c-.26,0-.5,0-.74,0,1.39.81,3.6.89,6.69.24q5.56-1.12,14-2.13t17.49-1.62q9.11-.62,17.76-.73,7.53-.09,13.12.4A1.33,1.33,0,0,1,158.46,209.2Z"/><path class="cls-2" d="M165.28,202.53a2.41,2.41,0,0,1-.77,1.8c-.15.15-.4.43-.84.93s-.89,1-1.4,1.57l-.07.06a19.28,19.28,0,0,0-1.7,1.86,1.69,1.69,0,0,1-1.17.61l1,.1,1.15.56a21.61,21.61,0,0,1,1.86-2c.49-.51.94-1,1.35-1.5s.74-.84,1-1.07a.88.88,0,0,0,.25-.78,4,4,0,0,0-.22-1.11Z"/></svg>