<svg id="Layer_1" data-name="Layer 1" xmlns="http://www.w3.org/2000/svg" viewBox="0 0 250 250"><defs><style>.cls-1{fill:#231f20;}.cls-2{fill:#fff;}.cls-3{fill:#fee12c;}</style></defs><rect class="cls-1" width="250" height="250"/><rect class="cls-2" x="177.35" y="161.75" width="9.52" height="9.52" transform="translate(364.21 333.01) rotate(180)"/><rect class="cls-2" x="158.31" y="161.75" width="9.52" height="9.52" transform="translate(326.14 333.01) rotate(180)"/><rect class="cls-2" x="139.28" y="161.75" width="9.52" height="9.52" transform="translate(288.07 333.01) rotate(180)"/><rect class="cls-2" x="120.24" y="161.75" width="9.52" height="9.52" transform="translate(250 333.01) rotate(180)"/><rect class="cls-2" x="101.21" y="161.75" width="9.52" height="9.52" transform="translate(211.93 333.01) rotate(180)"/><rect class="cls-2" x="82.17" y="161.75" width="9.52" height="9.52" transform="translate(173.86 333.01) rotate(180)"/><rect class="cls-2" x="63.14" y="161.75" width="9.52" height="9.52" transform="translate(135.79 333.01) rotate(180)"/><rect class="cls-2" x="186.86" y="152.23" width="9.52" height="9.52" transform="translate(383.24 313.98) rotate(180)"/><rect class="cls-2" x="167.83" y="152.23" width="9.52" height="9.52" transform="translate(345.17 313.98) rotate(180)"/><rect class="cls-2" x="148.79" y="152.23" width="9.52" height="9.52" transform="translate(307.1 313.98) rotate(180)"/><rect class="cls-2" x="129.76" y="152.23" width="9.52" height="9.52" transform="translate(269.04 313.98) rotate(180)"/><rect class="cls-2" x="110.72" y="152.23" width="9.52" height="9.52" transform="translate(230.97 313.98) rotate(180)"/><rect class="cls-2" x="91.69" y="152.23" width="9.52" height="9.52" transform="translate(192.9 313.98) rotate(180)"/><rect class="cls-2" x="72.65" y="152.23" width="9.52" height="9.52" transform="translate(154.83 313.98) rotate(180)"/><rect class="cls-2" x="53.62" y="152.23" width="9.52" height="9.52" transform="translate(116.76 313.98) rotate(180)"/><rect class="cls-1" x="186.86" y="161.75" width="9.52" height="9.52" transform="translate(383.24 333.01) rotate(180)"/><rect class="cls-1" x="167.83" y="161.75" width="9.52" height="9.52" transform="translate(345.17 333.01) rotate(180)"/><rect class="cls-1" x="148.79" y="161.75" width="9.52" height="9.52" transform="translate(307.1 333.01) rotate(180)"/><rect class="cls-1" x="129.76" y="161.75" width="9.52" height="9.52" transform="translate(269.04 333.01) rotate(180)"/><rect class="cls-1" x="110.72" y="161.75" width="9.52" height="9.52" transform="translate(230.97 333.01) rotate(180)"/><rect class="cls-1" x="91.69" y="161.75" width="9.52" height="9.52" transform="translate(192.9 333.01) rotate(180)"/><rect class="cls-1" x="72.65" y="161.75" width="9.52" height="9.52" transform="translate(154.83 333.01) rotate(180)"/><rect class="cls-1" x="53.62" y="161.75" width="9.52" height="9.52" transform="translate(116.76 333.01) rotate(180)"/><rect class="cls-1" x="177.35" y="152.23" width="9.52" height="9.52" transform="translate(364.21 313.98) rotate(180)"/><rect class="cls-1" x="158.31" y="152.23" width="9.52" height="9.52" transform="translate(326.14 313.98) rotate(180)"/><rect class="cls-1" x="139.28" y="152.23" width="9.52" height="9.52" transform="translate(288.07 313.98) rotate(180)"/><rect class="cls-1" x="120.24" y="152.23" width="9.52" height="9.52" transform="translate(250 313.98) rotate(180)"/><rect class="cls-1" x="101.21" y="152.23" width="9.52" height="9.52" transform="translate(211.93 313.98) rotate(180)"/><rect class="cls-1" x="82.17" y="152.23" width="9.52" height="9.52" transform="translate(173.86 313.98) rotate(180)"/><rect class="cls-1" x="63.14" y="152.23" width="9.52" height="9.52" transform="translate(135.79 313.98) rotate(180)"/><path class="cls-3" d="M143,115.14a.91.91,0,0,1,.91-.91H163.8a.91.91,0,0,1,.91.91v5.23a.91.91,0,0,1-.91.91H150.51v6h10.94a.94.94,0,0,1,.91.91v5.23a.91.91,0,0,1-.91.91H150.51v6.48H163.8a.91.91,0,0,1,.91.91v5.23a.91.91,0,0,1-.91.91H143.94a.91.91,0,0,1-.91-.91Z"/><path class="cls-3" d="M174,143.25l2.26-4a1.24,1.24,0,0,1,1.63-.29c.19.1,3.65,2.64,6.81,2.64,1.92,0,3.31-1.2,3.31-2.88,0-2-1.68-3.55-4.94-4.84-4.13-1.63-9.31-4.85-9.31-10.61,0-4.75,3.7-9.54,11.09-9.54a17.78,17.78,0,0,1,10.26,3.6,1.2,1.2,0,0,1,.29,1.53l-2.45,3.7c-.33.52-1.19,1-1.63.62s-3.93-2.88-6.86-2.88a2.78,2.78,0,0,0-3,2.45c0,1.77,1.44,3.12,5.23,4.65s9.69,4.42,9.69,10.94c0,4.94-4.27,9.93-11.32,9.93-6.24,0-9.69-2.59-10.8-3.69C173.78,144.12,173.64,143.93,174,143.25Z"/><path class="cls-3" d="M129.44,116.81a14,14,0,0,1-4.12-.58c-.86-.27-1.82-.63-2.93-1.09h0V146.9a1,1,0,0,0,.92.91h5.75a.94.94,0,0,0,.91-.91V116.79Z"/><path class="cls-2" d="M55.81,113.25q-2.73-1.94-2-5.94a6.85,6.85,0,0,1,1.3-3.22A2.91,2.91,0,0,1,57.43,103a2.23,2.23,0,0,1,1.6.54,1.48,1.48,0,0,1,.41,1.38,7.11,7.11,0,0,1-.36,1.35q0,.15-.15.54a6.23,6.23,0,0,0-.2.8A2.25,2.25,0,0,0,60,110.16a10.56,10.56,0,0,0,4.76.84,10.7,10.7,0,0,0,5.32-1.17,4.6,4.6,0,0,0,2.42-3.28,2.86,2.86,0,0,0-.45-2.25,5.3,5.3,0,0,0-1.84-1.58q-1.16-.63-3.3-1.56A30.94,30.94,0,0,1,62.5,99a7.78,7.78,0,0,1-2.7-2.82,6.55,6.55,0,0,1-.54-4.44,10.08,10.08,0,0,1,2.35-4.92,12.2,12.2,0,0,1,4.85-3.34,18.11,18.11,0,0,1,6.77-1.2,14.13,14.13,0,0,1,5,.83,6.54,6.54,0,0,1,3.31,2.52,5.6,5.6,0,0,1,.67,4.15,8.49,8.49,0,0,1-1.38,3.65,2.88,2.88,0,0,1-2.37,1.23A2,2,0,0,1,76.9,94a1.63,1.63,0,0,1-.41-1.47,7.5,7.5,0,0,1,.35-1.34c.21-.77.33-1.26.37-1.46a2.19,2.19,0,0,0-1.14-2.46,7.38,7.38,0,0,0-3.77-.85A10,10,0,0,0,67,87.65a4.85,4.85,0,0,0-2.35,3.41,3.22,3.22,0,0,0,.46,2.49,5.66,5.66,0,0,0,2,1.73,35.78,35.78,0,0,0,3.47,1.66,38.09,38.09,0,0,1,4.31,2.15,7.2,7.2,0,0,1,2.56,2.61,5.92,5.92,0,0,1,.53,4.08,9.92,9.92,0,0,1-4.67,7,17.71,17.71,0,0,1-9.64,2.44C60.25,115.19,57.63,114.55,55.81,113.25Z"/><path class="cls-2" d="M119.29,83.79a1.56,1.56,0,0,1,.36,1.35,2.69,2.69,0,0,1-1,1.84,3.47,3.47,0,0,1-2.33.46c-2.27-.18-4-.3-5.33-.36s-3-.11-5.07-.14q-2.67,7.08-5.12,14.22c-.59,1.75-1.24,3.76-2,6.06s-1.25,4.14-1.6,5.55A2.66,2.66,0,0,1,96,114.48a4,4,0,0,1-2.14.6,2.47,2.47,0,0,1-1.86-.62,1.74,1.74,0,0,1-.4-1.61,29.39,29.39,0,0,1,.82-3.06c.45-1.42.93-2.91,1.47-4.47s1-2.93,1.37-4.08q.93-2.92,2-5.8t2-5.46l.5-1.33c.19-.5.41-1.05.64-1.67a33.08,33.08,0,0,0-6,.62A7.71,7.71,0,0,0,91.08,89a3.88,3.88,0,0,0-1.31,2.32,4.12,4.12,0,0,0,.33,2.5,1,1,0,0,1,.05.58,2.19,2.19,0,0,1-1.1,1.36,3.48,3.48,0,0,1-1.9.64,1.28,1.28,0,0,1-1-.39,3.72,3.72,0,0,1-.94-1.86,6.83,6.83,0,0,1,0-2.75,8.35,8.35,0,0,1,3.06-5.24,16.51,16.51,0,0,1,7-2.91,58.74,58.74,0,0,1,11.37-.92q4.22,0,6.71.15a37,37,0,0,1,4.32.5A2.91,2.91,0,0,1,119.29,83.79Z"/><path class="cls-2" d="M140.38,106.78a2.21,2.21,0,0,1,.06,1.26,4.38,4.38,0,0,1-1.15,2.39,18.37,18.37,0,0,1-4.81,3.61,11.7,11.7,0,0,1-5,1,12.09,12.09,0,0,1-3.6-.5,34.36,34.36,0,0,1-3.85-1.5A32.18,32.18,0,0,0,118,111.5a7.77,7.77,0,0,1-6.51,3.58,4.82,4.82,0,0,1-3.27-1,2.54,2.54,0,0,1-.84-2.52,4.62,4.62,0,0,1,2.35-3.13,9.45,9.45,0,0,1,5-1.25h.5L118,96a20.81,20.81,0,0,1,2.5-6.34,16.21,16.21,0,0,1,4-4.26,15.22,15.22,0,0,1,4.44-2.33,16,16,0,0,1,5-.79q4.14,0,6,2.15A6.52,6.52,0,0,1,141,90.06a8.58,8.58,0,0,1-1.52,3.78,3.2,3.2,0,0,1-2.59,1.44,2.15,2.15,0,0,1-1.6-.52,1.56,1.56,0,0,1-.36-1.47,9.79,9.79,0,0,1,.38-1.27,10.34,10.34,0,0,0,.57-1.93,3,3,0,0,0-.49-2.55,3.33,3.33,0,0,0-2.7-.94,7.63,7.63,0,0,0-5.62,2.21,15.59,15.59,0,0,0-3.57,6.93l-2.42,8.73a30.49,30.49,0,0,1-1.06,3.19q2.39.42,5.91,1.35c1.37.35,2.43.61,3.17.76a9.52,9.52,0,0,0,2,.23,10.09,10.09,0,0,0,4-.74,11.82,11.82,0,0,0,3.44-2.41,1.62,1.62,0,0,1,1.13-.54A.73.73,0,0,1,140.38,106.78Z"/><path class="cls-3" d="M155.16,78.74h0a8.39,8.39,0,0,1-7.91,7.91v0a8.39,8.39,0,0,1,7.91,7.92h0a8.39,8.39,0,0,1,7.91-7.92v0A8.39,8.39,0,0,1,155.16,78.74Z"/><path class="cls-3" d="M177.69,101.59v0a6.86,6.86,0,0,1-6.47-6.47h0a6.86,6.86,0,0,1-6.47,6.47v0a6.85,6.85,0,0,1,6.47,6.47h0A6.85,6.85,0,0,1,177.69,101.59Z"/><path class="cls-3" d="M111.17,124.59a10.44,10.44,0,0,0-10.46-10.36H98.49A4.37,4.37,0,0,1,96.9,116a5.62,5.62,0,0,1-3.05.86,4.09,4.09,0,0,1-3.11-1.16,3.31,3.31,0,0,1-.8-1.42H86.36a.91.91,0,0,0-.91.91V146.9a.91.91,0,0,0,.91.91h5.71a.94.94,0,0,0,.91-.91V134.67h3.31l6.38,12.71a.9.9,0,0,0,.77.43h6.38a.91.91,0,0,0,.82-1.39l-6.58-12.19C108.24,132.56,111.17,129,111.17,124.59Zm-11.09,4H93v-7.48h7.1a3.67,3.67,0,0,1,3.65,3.64A3.85,3.85,0,0,1,100.08,128.57Z"/><path class="cls-3" d="M74.41,114.23h-.22a19.6,19.6,0,0,1-10.54,2.69c-3.76,0-6.73-.76-8.84-2.26a5.93,5.93,0,0,1-.51-.4.92.92,0,0,0-.66.88V146.9a.91.91,0,0,0,.91.91h5.66a.94.94,0,0,0,.91-.91V135.24H72.06a.94.94,0,0,0,.91-.91V129.1a.94.94,0,0,0-.91-.91H61.12v-6.91H74.41a.91.91,0,0,0,.91-.91v-5.23A.91.91,0,0,0,74.41,114.23Z"/><path class="cls-2" d="M48.92,153a.66.66,0,0,1-.4-.13l-36-24.33a4,4,0,0,1,0-7L54.12,93.39a.71.71,0,0,1,1,.19.72.72,0,0,1-.19,1L13.29,122.7a2.55,2.55,0,0,0,0,4.6l36,24.33a.72.72,0,0,1,.19,1A.7.7,0,0,1,48.92,153Z"/><path class="cls-2" d="M125,202.63a8.51,8.51,0,0,1-4.69-1.31L77,172.07a.72.72,0,0,1-.19-1,.73.73,0,0,1,1-.19l43.3,29.25a7.6,7.6,0,0,0,7.76,0l43.62-29.46a.72.72,0,1,1,.8,1.19l-43.61,29.46A8.51,8.51,0,0,1,125,202.63Z"/><path class="cls-2" d="M201.08,153a.7.7,0,0,1-.59-.32.72.72,0,0,1,.19-1l36-24.33a2.55,2.55,0,0,0,0-4.6L128.88,49.87a7.6,7.6,0,0,0-7.76,0L78.49,78.66a.71.71,0,0,1-1-.19.72.72,0,0,1,.19-1l42.63-28.79a9,9,0,0,1,9.38,0l107.82,72.83a4,4,0,0,1,0,7l-36,24.33A.66.66,0,0,1,201.08,153Z"/><path class="cls-2" d="M113.47,184.62a.54.54,0,0,1,.06.27.81.81,0,0,1-.15.52,3.14,3.14,0,0,1-.87.68,2.4,2.4,0,0,1-1.2.32,1.86,1.86,0,0,1-1.35-.47,1.75,1.75,0,0,1-.48-1.3,2.39,2.39,0,0,1,.24-1.06,1.89,1.89,0,0,1,.67-.78,1.6,1.6,0,0,1,1-.29,1,1,0,0,1,.77.28,1,1,0,0,1,.29.78,1.31,1.31,0,0,1-.41,1,3,3,0,0,1-1.38.65.81.81,0,0,0,.78.38,1.86,1.86,0,0,0,.85-.26,2.85,2.85,0,0,0,.83-.68.28.28,0,0,1,.22-.12A.19.19,0,0,1,113.47,184.62Zm-2.78-.94a1.64,1.64,0,0,0-.21.86h0a1.78,1.78,0,0,0,.77-.34.7.7,0,0,0,.29-.54.37.37,0,0,0-.09-.26.32.32,0,0,0-.24-.09A.63.63,0,0,0,110.69,183.68Z"/><path class="cls-2" d="M113.74,186.39a.57.57,0,0,1-.22-.44.54.54,0,0,1,.15-.38.66.66,0,0,1,.47-.15,1.19,1.19,0,0,1,.25,0l.22,0a1.12,1.12,0,0,0-.1-.4,1.57,1.57,0,0,0-.22-.37c-.08-.12-.17-.22-.24-.31a4.76,4.76,0,0,1-.51.81,6.44,6.44,0,0,1-.55.61.45.45,0,0,1-.32.15.26.26,0,0,1-.21-.09.32.32,0,0,1-.09-.24.44.44,0,0,1,.12-.3l.11-.14a9.91,9.91,0,0,0,.68-.92c.1-.17.21-.38.34-.65s.25-.54.37-.83a.63.63,0,0,1,.65-.36.85.85,0,0,1,.33,0,.13.13,0,0,1,.09.13.45.45,0,0,1,0,.16,1,1,0,0,1-.09.21,1.19,1.19,0,0,0-.15.51.54.54,0,0,0,.09.27,2.78,2.78,0,0,0,.27.37,4.75,4.75,0,0,1,.4.6,1.08,1.08,0,0,1,.14.53c0,.06,0,.13,0,.23a2.56,2.56,0,0,0,1-.83.31.31,0,0,1,.23-.12.19.19,0,0,1,.17.1.54.54,0,0,1,.06.27.81.81,0,0,1-.16.52,2.58,2.58,0,0,1-.79.7,2.28,2.28,0,0,1-.93.2,1.16,1.16,0,0,1-.79.28A1,1,0,0,1,113.74,186.39Z"/><path class="cls-2" d="M117.77,183.29c0,.28,0,.5,0,.65a5.52,5.52,0,0,0,.06.93.83.83,0,0,0,.21.48.54.54,0,0,0,.4.15.93.93,0,0,0,.32-.08,1.46,1.46,0,0,0,.33-.22.24.24,0,0,1,.18-.08.17.17,0,0,1,.16.11.54.54,0,0,1,.06.27.77.77,0,0,1-.06.3.53.53,0,0,1-.19.25,1.46,1.46,0,0,1-1,.36,1.21,1.21,0,0,1-1.15-.66,3.46,3.46,0,0,1-.37-1.72c0-.24,0-.49,0-.74h-.33a.45.45,0,0,1-.33-.09.39.39,0,0,1-.09-.29c0-.31.12-.46.37-.46h.47a8.15,8.15,0,0,1,.44-1.67,3.62,3.62,0,0,1,.7-1.2,1.17,1.17,0,0,1,.88-.45.65.65,0,0,1,.55.31,1.42,1.42,0,0,1,.19.77,2.9,2.9,0,0,1-1.07,2.24h.93a.27.27,0,0,1,.19.06.36.36,0,0,1,0,.21q0,.57-.93.57Zm.6-3a4.73,4.73,0,0,0-.29.86,12.09,12.09,0,0,0-.23,1.22,2.7,2.7,0,0,0,.73-.94,2.21,2.21,0,0,0,.25-1c0-.33-.06-.49-.19-.49S118.47,180,118.37,180.24Z"/><path class="cls-2" d="M120.17,186.21a.75.75,0,0,1-.18-.52.84.84,0,0,1,.21-.6.77.77,0,0,1,.59-.22.76.76,0,0,1,.55.18.67.67,0,0,1,.19.52.82.82,0,0,1-.22.61.78.78,0,0,1-.59.23A.74.74,0,0,1,120.17,186.21Z"/><path class="cls-2" d="M128.29,185.56a.44.44,0,0,1,.09.29.59.59,0,0,1-.14.38.45.45,0,0,1-.36.17c-.27,0-.66,0-1.19-.06l-.58,0c-.28,0-.5,0-.66,0a1,1,0,0,0-.32.07l-.16,0-.2,0a.26.26,0,0,1-.22-.12.74.74,0,0,1,0-.77,1.14,1.14,0,0,1,.39-.26,4.78,4.78,0,0,0,1.06-.63,3.89,3.89,0,0,0,.8-.83,1.59,1.59,0,0,0,.31-.86.65.65,0,0,0-.15-.47.59.59,0,0,0-.46-.16.83.83,0,0,0-.58.2.7.7,0,0,0-.22.56.44.44,0,0,1-.49.49.46.46,0,0,1-.36-.14.5.5,0,0,1-.13-.38,1.37,1.37,0,0,1,.22-.76,1.48,1.48,0,0,1,.64-.56,2.4,2.4,0,0,1,1-.21,1.69,1.69,0,0,1,1.17.37,1.33,1.33,0,0,1,.42,1,2.13,2.13,0,0,1-.55,1.32,4.74,4.74,0,0,1-1.58,1.21l1.89,0A.32.32,0,0,1,128.29,185.56Z"/><path class="cls-2" d="M129.59,185.88a2.28,2.28,0,0,1-.45-1.52,4,4,0,0,1,.26-1.48,2.36,2.36,0,0,1,.73-1,1.76,1.76,0,0,1,1.09-.36,1.57,1.57,0,0,1,1.26.53,2.33,2.33,0,0,1,.44,1.52,3.94,3.94,0,0,1-.26,1.47,2.25,2.25,0,0,1-.73,1,1.72,1.72,0,0,1-1.09.36A1.54,1.54,0,0,1,129.59,185.88Zm2-.9a3,3,0,0,0,.26-1.35,1.6,1.6,0,0,0-.2-.87.61.61,0,0,0-.55-.3.76.76,0,0,0-.7.5,2.84,2.84,0,0,0-.26,1.35,1.61,1.61,0,0,0,.19.87.61.61,0,0,0,.55.3A.78.78,0,0,0,131.63,185Z"/><path class="cls-2" d="M134.48,186.29a.47.47,0,0,1-.16-.39v-.1c.06-.56.13-1.16.22-1.77s.16-1.09.22-1.42l-.65.18-.1,0a.33.33,0,0,1-.25-.13.47.47,0,0,1-.09-.28v-.08a.47.47,0,0,1,.1-.25.88.88,0,0,1,.32-.2,4.76,4.76,0,0,1,.71-.22l.35-.08a1.31,1.31,0,0,1,.31,0,.49.49,0,0,1,.36.12.5.5,0,0,1,.12.35,1.8,1.8,0,0,1,0,.22c-.09.43-.26,1.65-.51,3.68a.53.53,0,0,1-.59.51A.58.58,0,0,1,134.48,186.29Z"/><path class="cls-2" d="M140.07,182.06a2.24,2.24,0,0,1,.45,1.48,3.72,3.72,0,0,1-.29,1.5,2.34,2.34,0,0,1-.81,1,2.12,2.12,0,0,1-1.23.36,1.83,1.83,0,0,1-1.05-.29,1.12,1.12,0,0,1-.47-.78v-.09a.44.44,0,0,1,.13-.34.57.57,0,0,1,.39-.12.44.44,0,0,1,.29.1.72.72,0,0,1,.2.33.52.52,0,0,0,.22.27.65.65,0,0,0,.38.1,1,1,0,0,0,.79-.38,2.11,2.11,0,0,0,.37-1.12,1.11,1.11,0,0,1-.49.35,1.64,1.64,0,0,1-.6.11,1.47,1.47,0,0,1-.74-.18,1.24,1.24,0,0,1-.51-.48,1.38,1.38,0,0,1-.19-.7,1.7,1.7,0,0,1,.22-.84,1.55,1.55,0,0,1,.64-.6,2.07,2.07,0,0,1,1-.22A1.64,1.64,0,0,1,140.07,182.06Zm-.92,1.46a.72.72,0,0,0,.2-.53.64.64,0,0,0-.16-.47.63.63,0,0,0-.47-.18.69.69,0,0,0-.53.21.75.75,0,0,0-.21.55.58.58,0,0,0,.62.62A.76.76,0,0,0,139.15,183.52Z"/></svg>